<svg width="1500" height="396" viewBox="0 0 1500 396" fill="none" xmlns="http://www.w3.org/2000/svg">
<path opacity="0.25" d="M1470.05 351.681C1466.63 349.07 1462.51 347.955 1458.46 348.438C1459.85 346.81 1460.65 344.76 1460.73 342.619C1460.82 340.479 1460.18 338.373 1458.92 336.64C1457.66 334.907 1455.85 333.65 1453.79 333.069C1451.73 332.489 1449.53 332.62 1447.55 333.441C1445.57 334.262 1443.93 335.726 1442.89 337.596C1441.84 339.466 1441.46 341.633 1441.79 343.749C1442.13 345.864 1443.17 347.804 1444.75 349.256C1446.32 350.707 1448.34 351.586 1450.48 351.751C1447.27 354.278 1445.15 357.985 1444.59 362.248C1444.57 362.356 1444.57 362.468 1444.6 362.575C1444.62 362.682 1444.67 362.783 1444.74 362.872C1444.8 362.961 1444.88 363.036 1444.98 363.092C1445.07 363.148 1445.18 363.184 1445.29 363.199C1445.4 363.213 1445.51 363.205 1445.62 363.175C1445.72 363.146 1445.82 363.095 1445.91 363.026C1445.99 362.957 1446.06 362.871 1446.12 362.774C1446.17 362.677 1446.2 362.57 1446.21 362.461C1446.89 357.283 1450.13 353.019 1454.86 351.053C1459.6 349.087 1464.9 349.806 1469.05 352.978C1469.14 353.048 1469.24 353.101 1469.34 353.133C1469.45 353.165 1469.56 353.175 1469.67 353.162C1469.78 353.15 1469.88 353.116 1469.98 353.062C1470.07 353.007 1470.16 352.934 1470.23 352.847C1470.29 352.759 1470.34 352.659 1470.37 352.552C1470.4 352.446 1470.4 352.334 1470.38 352.226C1470.37 352.117 1470.33 352.012 1470.27 351.919C1470.21 351.825 1470.14 351.744 1470.05 351.681ZM1443.91 345.277C1443.31 343.834 1443.16 342.246 1443.46 340.713C1443.76 339.181 1444.52 337.773 1445.62 336.667C1446.72 335.562 1448.13 334.808 1449.66 334.502C1451.19 334.196 1452.78 334.352 1454.23 334.948C1455.67 335.545 1456.9 336.557 1457.77 337.855C1458.64 339.153 1459.11 340.68 1459.11 342.242C1459.11 343.804 1458.65 345.332 1457.78 346.632C1456.91 347.931 1455.68 348.945 1454.24 349.543C1452.3 350.344 1450.13 350.344 1448.19 349.545C1446.26 348.745 1444.72 347.21 1443.91 345.277Z" fill="#FFC727"/>
<path opacity="0.25" d="M1496.84 197.674L1458.92 180.85C1458.09 180.479 1457.13 180.455 1456.28 180.785C1455.42 181.114 1454.73 181.77 1454.36 182.608L1443.15 207.886C1442.77 208.724 1442.75 209.675 1443.08 210.531C1443.41 211.386 1444.07 212.076 1444.9 212.448L1482.82 229.271C1483.66 229.643 1484.61 229.667 1485.47 229.337C1486.32 229.007 1487.01 228.351 1487.38 227.513L1498.6 202.235C1498.97 201.397 1498.99 200.446 1498.66 199.591C1498.33 198.735 1497.68 198.046 1496.84 197.674ZM1491.96 199.291L1471.73 203.133L1461 185.552L1491.96 199.291ZM1446.31 209.288L1456.88 185.448L1469.4 205.957C1469.58 206.257 1469.85 206.495 1470.17 206.638C1470.49 206.781 1470.85 206.822 1471.2 206.756L1494.8 202.271L1484.22 226.111L1446.31 209.288Z" fill="#FFC727"/>
<path d="M1409.96 45.8459C1410.49 48.4731 1412.94 50.2246 1415.74 49.8743C1418.37 49.3489 1420.12 46.8968 1419.77 44.0944C1419.25 41.4672 1416.79 39.7157 1413.99 40.066C1411.36 40.5915 1409.61 43.2187 1409.96 45.8459Z" fill="#FFC727" fill-opacity="0.25"/>
<path d="M1408.21 27.1046C1408.39 28.1555 1409.44 29.0313 1410.66 28.8561C1411.72 28.681 1412.59 27.6301 1412.42 26.404C1412.24 25.3532 1411.19 24.4774 1409.96 24.6526C1408.74 24.8277 1408.04 25.8786 1408.21 27.1046Z" fill="#FFC727" fill-opacity="0.25"/>
<path d="M1381.07 44.9699C1382.12 50.7498 1387.72 54.6031 1393.5 53.5522C1399.28 52.5013 1403.13 46.8965 1402.08 41.1166C1401.03 35.3367 1395.43 31.4834 1389.65 32.5343C1383.87 33.5852 1380.01 39.19 1381.07 44.9699Z" fill="#FFC727" fill-opacity="0.25"/>
<path d="M1396.3 68.6145C1396.83 71.592 1399.63 73.5187 1402.61 72.9932C1405.58 72.4678 1407.51 69.6654 1406.99 66.6879C1406.46 63.7103 1403.66 61.7837 1400.68 62.3092C1397.7 62.8346 1395.78 65.637 1396.3 68.6145Z" fill="#FFC727" fill-opacity="0.25"/>
<path d="M1378.09 63.1856C1378.44 64.9371 1380.01 65.988 1381.59 65.6377C1383.34 65.2874 1384.39 63.711 1384.04 62.1347C1383.69 60.3832 1382.12 59.3323 1380.54 59.6826C1378.96 60.0329 1377.74 61.6092 1378.09 63.1856Z" fill="#FFC727" fill-opacity="0.25"/>
<path d="M1367.05 46.7214C1367.23 47.9475 1368.45 48.8232 1369.68 48.4729C1370.91 48.2978 1371.78 47.0717 1371.43 45.8457C1371.26 44.6196 1370.03 43.7439 1368.8 44.0942C1367.58 44.2693 1366.7 45.4954 1367.05 46.7214Z" fill="#FFC727" fill-opacity="0.25"/>
<path opacity="0.25" d="M345.727 52.239C338.159 46.4531 329.022 43.9815 320.043 45.0524C323.126 41.4432 324.904 36.9007 325.091 32.1572C325.277 27.4138 323.86 22.7458 321.068 18.9062C318.277 15.0665 314.274 12.2788 309.704 10.9927C305.135 9.70658 300.265 9.99693 295.881 11.8169C291.496 13.637 287.853 16.8805 285.537 21.0247C283.222 25.1689 282.37 29.9721 283.118 34.6598C283.867 39.3476 286.172 43.6466 289.663 46.8638C293.153 50.081 297.626 52.0287 302.359 52.3931C295.26 57.9935 290.559 66.209 289.315 75.6564C289.273 75.897 289.28 76.1436 289.336 76.3814C289.392 76.6191 289.495 76.8432 289.639 77.04C289.784 77.2368 289.967 77.4023 290.177 77.5266C290.387 77.6509 290.621 77.7313 290.863 77.7632C291.105 77.795 291.351 77.7775 291.586 77.7117C291.821 77.646 292.041 77.5333 292.231 77.3805C292.422 77.2278 292.58 77.038 292.695 76.8227C292.81 76.6075 292.881 76.3711 292.902 76.1278C294.417 64.6535 301.585 55.2044 312.082 50.8468C322.58 46.4891 334.333 48.0838 343.528 55.1125C343.715 55.2689 343.933 55.3859 344.166 55.4562C344.4 55.5265 344.646 55.5488 344.889 55.5218C345.131 55.4947 345.366 55.4188 345.579 55.2986C345.791 55.1785 345.978 55.0166 346.126 54.8226C346.274 54.6287 346.382 54.4067 346.442 54.1701C346.503 53.9334 346.515 53.687 346.478 53.4457C346.44 53.2043 346.355 52.973 346.226 52.7656C346.097 52.5582 345.927 52.3791 345.727 52.239ZM287.816 38.0459C286.488 34.8484 286.139 31.329 286.812 27.9329C287.485 24.5368 289.149 21.4165 291.596 18.9665C294.042 16.5166 297.159 14.847 300.555 14.169C303.95 13.4909 307.47 13.8349 310.669 15.1573C313.869 16.4797 316.604 18.7213 318.53 21.5984C320.456 24.4756 321.485 27.8592 321.487 31.3213C321.49 34.7834 320.466 38.1685 318.545 41.0486C316.624 43.9288 313.892 46.1745 310.694 47.5018C306.406 49.2759 301.589 49.2767 297.3 47.5041C293.011 45.7314 289.6 42.33 287.816 38.0459Z" fill="#FFC727"/>
<path d="M6.21376 64.4837L0.124334 92.2096C-0.318533 94.0949 0.456491 95.9803 1.89581 97.0893C2.22796 97.422 2.89225 97.7547 3.8887 97.9765L49.6147 108.069C50.6112 108.291 51.2755 108.18 51.7183 108.069C53.4898 107.625 54.9291 106.294 55.372 104.409L61.4614 76.6831C61.9043 74.6868 61.0186 72.6905 59.4685 71.6924C59.1364 71.3597 58.5828 71.1379 57.8078 70.9161L11.971 60.8239C11.196 60.6021 10.6424 60.713 10.0888 60.8239C8.31737 61.0457 6.65662 62.4874 6.21376 64.4837ZM8.87095 64.4837C8.98167 64.5946 9.09239 64.8164 9.2031 64.9273L23.2641 85.999L3.44584 93.5404C3.11369 93.6513 2.89225 93.7622 2.5601 93.984C2.44938 93.6513 2.44938 93.2077 2.5601 92.875L8.64952 65.1491C8.76024 64.8164 8.76023 64.5946 8.87095 64.4837ZM57.1435 73.356C57.2542 73.356 57.3649 73.4669 57.4756 73.4669C57.3649 73.5778 57.2542 73.5778 57.1435 73.6887L31.3465 89.3261C30.7929 89.6588 30.1286 89.7697 29.575 89.6588C28.9107 89.5479 28.3571 89.1043 28.025 88.6606L11.196 63.5964C11.0853 63.4855 11.0853 63.3746 10.9746 63.2637C11.0853 63.2637 11.196 63.2637 11.3067 63.2637L57.1435 73.356ZM51.6076 104.187L36.7716 88.8825L58.4721 75.7958C58.6935 75.6849 58.8042 75.574 58.9149 75.4631C58.9149 75.6849 58.9149 75.9067 58.9149 76.0176L52.8255 103.744C52.7148 104.187 52.6041 104.52 52.2719 104.742C52.0505 104.742 51.9398 104.52 51.6076 104.187ZM4.88516 95.6476L24.7035 88.1061L25.9213 89.9915C26.5856 91.1005 27.6928 91.7659 29.0214 92.0987C30.2393 92.4314 31.5679 92.2096 32.6751 91.5441L34.5573 90.4351L49.2826 105.629L4.88516 95.6476Z" fill="#FFC727" fill-opacity="0.25"/>
<path d="M188.381 229.295C189.082 233.148 192.76 235.6 196.613 234.9C200.467 234.199 202.919 230.521 202.218 226.668C201.518 222.815 197.84 220.363 193.986 221.063C190.133 221.764 187.681 225.442 188.381 229.295Z" fill="#FFC727" fill-opacity="0.25"/>
<path d="M185.754 202.323C186.105 203.899 187.681 204.95 189.257 204.775C190.834 204.425 191.885 202.848 191.709 201.272C191.359 199.696 189.783 198.645 188.206 198.82C186.63 199.17 185.579 200.571 185.754 202.323Z" fill="#FFC727" fill-opacity="0.25"/>
<path d="M146.872 228.07C148.448 236.477 156.33 241.906 164.737 240.505C173.144 238.929 178.573 231.047 177.172 222.64C175.596 214.233 167.714 208.803 159.307 210.205C150.9 211.606 145.295 219.663 146.872 228.07Z" fill="#FFC727" fill-opacity="0.25"/>
<path d="M168.59 261.698C169.291 265.902 173.319 268.704 177.523 267.828C181.727 267.128 184.529 263.099 183.653 258.896C182.953 254.692 178.924 251.89 174.721 252.765C170.692 253.466 167.89 257.494 168.59 261.698Z" fill="#FFC727" fill-opacity="0.25"/>
<path d="M142.667 253.992C143.193 256.444 145.47 258.02 147.747 257.495C150.199 257.144 151.775 254.692 151.25 252.415C150.899 249.963 148.447 248.387 146.17 248.912C143.893 249.438 142.317 251.715 142.667 253.992Z" fill="#FFC727" fill-opacity="0.25"/>
<path d="M126.729 230.521C127.08 232.273 128.831 233.499 130.583 233.149C132.334 232.798 133.56 231.222 133.21 229.295C132.86 227.544 131.283 226.318 129.357 226.668C127.605 227.018 126.379 228.77 126.729 230.521Z" fill="#FFC727" fill-opacity="0.25"/>
<path d="M1223.74 331.613C1215.68 354.623 1233.11 379.417 1233.11 379.417C1233.11 379.417 1262.85 369.201 1270.38 348.085C1274.89 335.137 1268.18 321.142 1255.29 316.528C1242.35 312.018 1228.29 318.828 1223.74 331.613ZM1228.4 333.313C1232.07 323.044 1243.26 317.626 1253.53 321.293C1263.8 324.96 1269.22 336.159 1265.55 346.429C1261.89 356.698 1250.69 362.116 1240.42 358.449C1230.25 354.841 1224.83 343.642 1228.4 333.313Z" fill="#FFC727" fill-opacity="0.25"/>
<path d="M1239.48 331.95L1245.09 333.917L1247.06 328.308C1247.75 326.37 1249.9 325.26 1251.94 326.014C1253.88 326.709 1254.99 328.854 1254.23 330.896L1252.27 336.504L1257.87 338.471C1259.81 339.166 1260.92 341.311 1260.17 343.353C1259.47 345.291 1257.33 346.402 1255.29 345.648L1249.68 343.681L1247.71 349.289C1247.02 351.228 1244.87 352.338 1242.83 351.584C1240.89 350.889 1239.78 348.744 1240.54 346.702L1242.5 341.093L1236.89 339.127C1234.95 338.432 1233.84 336.287 1234.6 334.245C1235.29 332.306 1237.44 331.196 1239.48 331.95Z" fill="#FFC727" fill-opacity="0.25"/>
<path d="M1098.76 30.109L1104.76 62.7852C1105.25 65.4776 1107.82 67.3133 1110.51 66.8238L1157.02 58.3794C1159.71 57.8899 1161.55 55.3198 1161.06 52.6274L1155.06 19.9512C1154.57 17.2588 1152 15.4231 1149.31 15.9126L1102.8 24.357C1099.99 24.8465 1098.27 27.4166 1098.76 30.109ZM1100.36 29.8642C1099.99 28.1509 1101.21 26.4375 1102.93 26.0704L1149.43 17.626C1151.14 17.2588 1152.86 18.4826 1153.22 20.196L1159.22 52.8722C1159.59 54.5855 1158.36 56.2989 1156.65 56.666L1110.15 65.1104C1108.43 65.4776 1106.72 64.2538 1106.35 62.5404L1100.36 29.8642Z" fill="#FFC727" fill-opacity="0.25"/>
<path d="M1142.46 33.903C1139.76 34.3925 1137.19 32.5567 1136.7 29.9867C1136.21 27.2943 1138.05 24.7242 1140.62 24.2347C1143.31 23.7452 1145.88 25.4585 1146.37 28.151C1146.86 30.9658 1145.15 33.4134 1142.46 33.903Z" fill="#FFC727" fill-opacity="0.25"/>
<path d="M1111.49 46.9983L1116.76 49.8131L1121.65 35.9838L1135.85 47.3654L1138.91 41.9806L1145.64 45.6521L1148.94 34.76L1155.31 37.4524L1157.39 49.0788L1157.88 51.5264L1158 51.8936C1158.37 53.8517 1157.02 55.8098 1154.94 56.177L1111.98 64.0095C1109.9 64.3766 1107.94 63.0304 1107.58 61.0723V60.7051L1107.09 58.2575L1104.39 43.5716L1109.78 50.1802L1111.49 46.9983Z" fill="#FFC727" fill-opacity="0.25"/>
<path d="M266.966 364.297L281.363 389.875C281.923 390.97 283.329 391.315 284.395 390.672L305.35 378.875C306.417 378.233 306.79 376.91 306.147 375.843L289.456 345.996C288.814 344.93 287.491 344.557 286.424 345.199L268.697 355.152L267.97 353.838L285.697 343.886C287.476 342.907 289.791 343.491 290.798 345.351L307.489 375.198C308.468 376.977 307.884 379.292 306.023 380.299L285.068 392.096C283.29 393.075 280.975 392.491 279.968 390.631L265.653 365.024L266.966 364.297Z" fill="#FFC727" fill-opacity="0.25"/>
<path d="M267.945 354.031L270.824 359.202C271.523 360.433 270.878 362.034 269.511 362.871L265.653 365.024L267.945 354.031Z" fill="#FFC727" fill-opacity="0.25"/>
<path d="M288.688 353.712L270.791 363.751L271.897 365.723L289.794 355.683L288.688 353.712Z" fill="#FFC727" fill-opacity="0.25"/>
<path d="M291.006 357.783L273.109 367.825L274.215 369.796L292.112 359.755L291.006 357.783Z" fill="#FFC727" fill-opacity="0.25"/>
<path d="M293.246 361.898L275.349 371.94L276.455 373.912L294.352 363.87L293.246 361.898Z" fill="#FFC727" fill-opacity="0.25"/>
<path d="M295.558 365.977L277.661 376.017L278.767 377.988L296.664 367.949L295.558 365.977Z" fill="#FFC727" fill-opacity="0.25"/>
<path d="M297.921 370.118L280.024 380.16L281.13 382.131L299.027 372.09L297.921 370.118Z" fill="#FFC727" fill-opacity="0.25"/>
</svg>
