<svg width="260" height="140" viewBox="0 0 260 140" fill="none" xmlns="http://www.w3.org/2000/svg">
<rect width="260" height="140" fill="white"/>
<g clip-path="url(#clip0_1_13400)">
<path d="M223.233 67.4336C223.335 67.588 223.345 67.7866 223.257 67.9501L216.569 84.0649C216.527 84.1623 216.459 84.2459 216.372 84.3065C216.285 84.367 216.183 84.4019 216.077 84.4073H213.723C213.63 84.4149 213.538 84.3973 213.454 84.3563C213.371 84.3154 213.3 84.2526 213.25 84.1747C213.199 84.0968 213.171 84.0067 213.168 83.9139C213.164 83.8211 213.186 83.7292 213.231 83.6478L215.51 77.9017L211.926 67.9505C211.882 67.8702 211.862 67.7797 211.866 67.6887C211.871 67.5976 211.9 67.5095 211.95 67.4336C212.001 67.3578 212.071 67.2971 212.153 67.258C212.235 67.219 212.327 67.203 212.418 67.2119H214.772C214.875 67.2027 214.979 67.2297 215.064 67.2882C215.15 67.3467 215.213 67.4331 215.242 67.5327L217.276 74.3061H217.329L219.908 67.5327C220.079 67.2334 220.272 67.2119 220.625 67.2119H222.765C222.95 67.1936 223.129 67.2788 223.233 67.4336ZM149.788 66.9656C150.6 66.961 151.403 67.1328 152.142 67.469C152.881 67.8053 153.538 68.298 154.068 68.9131C154.314 69.1593 154.196 69.4801 153.95 69.7264L152.88 70.8605C152.634 71.1283 152.367 70.9995 152.142 70.7859C151.855 70.4733 151.506 70.2242 151.117 70.0546C150.728 69.8851 150.308 69.7988 149.884 69.8014C149.48 69.7979 149.079 69.877 148.706 70.0338C148.333 70.1906 147.996 70.4218 147.716 70.7132C147.435 71.0047 147.217 71.3503 147.075 71.7289C146.932 72.1075 146.869 72.5111 146.888 72.9151C146.863 73.3204 146.921 73.7264 147.06 74.108C147.198 74.4896 147.414 74.8387 147.693 75.1337C147.972 75.4287 148.308 75.6632 148.681 75.8227C149.055 75.9822 149.457 76.0634 149.863 76.0611C150.334 76.0557 150.798 75.9396 151.216 75.7221C151.634 75.5046 151.995 75.1919 152.27 74.8092C152.358 74.7125 152.479 74.6514 152.609 74.6376C152.739 74.6238 152.87 74.6581 152.976 74.7342L154.046 75.6653C154.314 75.9111 154.443 76.1895 154.239 76.4786C153.766 77.2361 153.101 77.8556 152.312 78.2745C151.523 78.6934 150.638 78.8969 149.745 78.8647C148.944 78.8991 148.145 78.7711 147.395 78.4885C146.645 78.2058 145.96 77.7743 145.382 77.22C144.803 76.6656 144.342 75.9999 144.028 75.2628C143.713 74.5258 143.551 73.7326 143.551 72.9312C143.551 72.1298 143.713 71.3367 144.028 70.5997C144.342 69.8626 144.803 69.1969 145.382 68.6425C145.96 68.0882 146.645 67.6567 147.395 67.374C148.145 67.0913 148.944 66.9634 149.745 66.9978L149.788 66.9656ZM161.034 66.9656C164.565 66.9656 165.314 68.8062 165.314 71.9094V78.0192C165.314 78.3166 165.076 78.5592 164.779 78.565H163.945C163.741 78.565 163.602 78.49 163.452 78.1692L163.131 77.4093C162.66 77.8691 162.103 78.2315 161.491 78.4757C160.88 78.7199 160.226 78.8411 159.568 78.8325C159.052 78.8645 158.535 78.7855 158.052 78.6009C157.569 78.4163 157.132 78.1303 156.769 77.7622C156.406 77.3941 156.126 76.9524 155.948 76.467C155.77 75.9816 155.698 75.4637 155.737 74.9482C155.791 72.9367 157.439 71.3848 160.306 71.3848C161.031 71.3991 161.75 71.507 162.446 71.706C162.446 70.2616 162.072 69.5658 160.873 69.5658C159.791 69.5841 158.714 69.7242 157.663 69.9832C157.3 70.1116 157.075 69.8442 157.032 69.5017L156.786 68.2176C156.76 68.149 156.748 68.0755 156.753 68.0021C156.757 67.9288 156.777 67.8572 156.812 67.7923C156.846 67.7273 156.894 67.6706 156.952 67.6258C157.011 67.581 157.078 67.5493 157.15 67.5327C158.412 67.1677 159.719 66.9769 161.034 66.9656H161.034ZM103.936 66.9656C107.478 66.9656 108.217 68.8062 108.217 71.9094V78.0192C108.217 78.3206 107.972 78.565 107.671 78.565H106.836C106.644 78.565 106.494 78.49 106.344 78.1692L106.023 77.4093C105.552 77.8701 104.995 78.2331 104.384 78.4773C103.772 78.7216 103.118 78.8423 102.46 78.8325C101.944 78.8645 101.427 78.7855 100.944 78.6009C100.461 78.4163 100.023 78.1303 99.6602 77.7622C99.2972 77.3941 99.0173 76.9524 98.8395 76.467C98.6616 75.9816 98.5898 75.4637 98.6291 74.9482C98.6935 72.9367 100.341 71.3848 103.22 71.3848C103.944 71.3976 104.663 71.5055 105.36 71.706C105.36 70.2616 104.996 69.5658 103.787 69.5658C102.704 69.5841 101.628 69.7242 100.577 69.9832C100.202 70.1116 99.9882 69.8442 99.9344 69.5017L99.6886 68.2176C99.6622 68.149 99.6508 68.0755 99.6553 68.0021C99.6597 67.9288 99.6798 67.8572 99.7143 67.7923C99.7488 67.7273 99.7968 67.6706 99.8551 67.6258C99.9134 67.581 99.9806 67.5493 100.052 67.5327C101.315 67.1677 102.622 66.9769 103.936 66.9656ZM190.144 68.4675C190.633 68.9596 191.015 69.5463 191.268 70.1915C191.521 70.8368 191.639 71.527 191.616 72.2197C191.616 72.3909 191.616 72.7867 191.562 72.958C191.549 73.0935 191.488 73.22 191.39 73.3143C191.292 73.4086 191.163 73.4645 191.027 73.4716H183.751C183.763 73.83 183.846 74.1825 183.995 74.5088C184.144 74.8352 184.355 75.129 184.618 75.3734C184.88 75.6179 185.188 75.8083 185.524 75.9336C185.86 76.059 186.218 76.1168 186.576 76.1039C187.459 76.1215 188.319 75.8259 189.005 75.2694C189.283 75.0444 189.572 75.0232 189.743 75.2694L190.706 76.5426C190.757 76.5916 190.796 76.6512 190.822 76.7171C190.847 76.7831 190.857 76.8538 190.852 76.9243C190.847 76.9947 190.827 77.0632 190.792 77.1248C190.758 77.1865 190.71 77.2397 190.653 77.2809C189.477 78.2913 187.976 78.8424 186.426 78.8325C185.654 78.8329 184.89 78.6777 184.179 78.3762C183.469 78.0748 182.826 77.6332 182.29 77.0779C181.753 76.5226 181.335 75.865 181.058 75.1442C180.782 74.4235 180.653 73.6544 180.681 72.883C180.658 72.1159 180.789 71.352 181.066 70.6363C181.343 69.9207 181.761 69.2679 182.294 68.7163C182.828 68.1648 183.467 67.7257 184.173 67.425C184.879 67.1243 185.638 66.9681 186.405 66.9656C187.098 66.9478 187.787 67.0718 188.43 67.3301C189.074 67.5883 189.657 67.9754 190.145 68.4675H190.144ZM178.176 61.3695C178.318 61.3721 178.454 61.4289 178.556 61.5284C178.657 61.6278 178.717 61.7624 178.722 61.9044V78.0195C178.722 78.321 178.478 78.5654 178.176 78.5654H177.267C176.999 78.5654 176.828 78.3408 176.732 78.0195L176.432 77.1316C175.974 77.6657 175.406 78.0944 174.767 78.3881C174.128 78.6818 173.433 78.8335 172.73 78.8328C169.627 78.8328 167.294 76.3289 167.294 72.8833C167.247 72.1184 167.358 71.352 167.62 70.6319C167.883 69.9119 168.291 69.2537 168.819 68.6984C169.347 68.1431 169.984 67.7026 170.69 67.4046C171.396 67.1065 172.156 66.9572 172.922 66.966C173.852 66.9675 174.775 67.1266 175.651 67.4369V61.9051C175.661 61.7665 175.721 61.6361 175.819 61.5378C175.917 61.4395 176.047 61.3799 176.186 61.3699L178.176 61.3695ZM74.0397 61.423C74.3653 61.423 74.6287 61.6864 74.6287 62.0116V68.6456L80.8241 61.6688C80.8775 61.591 80.9495 61.5277 81.0336 61.4848C81.1177 61.4419 81.2111 61.4206 81.3055 61.423H83.7666C83.8702 61.4183 83.9727 61.4451 84.0608 61.4998C84.1488 61.5546 84.2183 61.6347 84.2599 61.7296C84.3016 61.8245 84.3136 61.9298 84.2943 62.0317C84.275 62.1335 84.2254 62.2272 84.1519 62.3003L77.7315 69.5233L84.6121 77.7517C84.6713 77.833 84.7068 77.929 84.7149 78.0292C84.7229 78.1294 84.7032 78.2299 84.6578 78.3195C84.6124 78.4092 84.5431 78.4846 84.4576 78.5374C84.372 78.5902 84.2736 78.6184 84.1731 78.6188H81.4983C81.4155 78.6235 81.3327 78.6106 81.2552 78.5811C81.1777 78.5515 81.1073 78.5059 81.0487 78.4472L74.6283 70.5291V78.0192C74.6283 78.3462 74.3667 78.6126 74.04 78.6184H71.8998C71.8216 78.6185 71.7442 78.6029 71.672 78.5726C71.5999 78.5424 71.5346 78.4981 71.4797 78.4423C71.4249 78.3865 71.3818 78.3204 71.3529 78.2477C71.3239 78.1751 71.3097 78.0974 71.3111 78.0192V61.9582C71.3221 61.8105 71.3893 61.6727 71.4989 61.5731C71.6085 61.4735 71.7521 61.4197 71.9002 61.423H74.0397ZM135.471 61.1555C135.558 61.1519 135.644 61.1757 135.717 61.2237C135.79 61.2717 135.846 61.3414 135.878 61.423L143.443 77.9551C143.479 78.0242 143.496 78.1016 143.493 78.1795C143.489 78.2574 143.465 78.3329 143.422 78.3983C143.38 78.4636 143.321 78.5165 143.251 78.5515C143.181 78.5865 143.104 78.6022 143.026 78.5972H140.886C140.728 78.607 140.572 78.5638 140.442 78.4745C140.312 78.3853 140.216 78.2551 140.168 78.1048L138.97 75.4512H131.672L130.463 78.1048C130.412 78.2504 130.316 78.3762 130.189 78.4646C130.063 78.5529 129.911 78.5993 129.757 78.5972H127.617C127.533 78.6114 127.447 78.6002 127.369 78.5651C127.292 78.5301 127.226 78.4727 127.182 78.4003C127.137 78.3279 127.115 78.2439 127.118 78.1589C127.121 78.0738 127.15 77.9917 127.2 77.923L134.808 61.423C134.838 61.3478 134.889 61.2827 134.955 61.2355C135.021 61.1882 135.099 61.1606 135.18 61.1559L135.471 61.1555ZM88.9456 61.3695C89.0878 61.3721 89.2235 61.4289 89.325 61.5284C89.4265 61.6278 89.4861 61.7624 89.4915 61.9044V67.9293C90.3072 67.271 91.333 66.9289 92.3806 66.966C95.9971 66.966 96.9816 69.4699 96.9816 72.3162V78.0089C96.9764 78.152 96.9172 78.2878 96.8159 78.3891C96.7147 78.4903 96.5789 78.5495 96.4358 78.5548H94.4455C94.3027 78.5519 94.1666 78.4931 94.0666 78.3911C93.9666 78.289 93.9106 78.1518 93.9106 78.0089V72.2947C93.9106 70.7215 93.1936 69.7692 91.8454 69.7692C91.2781 69.7579 90.7262 69.9537 90.2929 70.3201C89.8596 70.6864 89.5747 71.1981 89.4915 71.7594V78.0192C89.4915 78.3404 89.3415 78.565 88.8922 78.565H86.9554C86.8134 78.5596 86.6788 78.5001 86.5793 78.3985C86.4799 78.297 86.423 78.1613 86.4205 78.0192V61.9044C86.4305 61.7659 86.4901 61.6356 86.5883 61.5373C86.6865 61.4391 86.8169 61.3796 86.9554 61.3695H88.9456ZM202.594 68.6778C203.044 68.1441 203.604 67.7138 204.236 67.4165C204.868 67.1191 205.556 66.9617 206.254 66.955C209.882 66.955 210.748 69.2665 210.748 72.2087V78.0086C210.747 78.0817 210.731 78.1538 210.702 78.2208C210.673 78.2878 210.631 78.3484 210.578 78.3991C210.525 78.4498 210.463 78.4896 210.395 78.5162C210.327 78.5429 210.254 78.5559 210.181 78.5544H208.212C208.07 78.5516 207.933 78.4929 207.833 78.3908C207.733 78.2888 207.677 78.1515 207.677 78.0086V72.1234C207.677 70.6575 207.132 69.748 205.709 69.748C205.274 69.7024 204.837 69.7908 204.454 70.0011C204.072 70.2115 203.762 70.5339 203.568 70.9249V77.9873C203.566 78.1294 203.509 78.265 203.409 78.3665C203.31 78.4679 203.175 78.5274 203.033 78.5328H201.15C201.078 78.5343 201.006 78.5212 200.939 78.4944C200.873 78.4675 200.812 78.4274 200.761 78.3764C200.71 78.3255 200.67 78.2647 200.643 78.1979C200.616 78.131 200.603 78.0594 200.604 77.9873V72.1234C200.604 70.6575 200.187 69.748 198.742 69.748C198.239 69.7602 197.755 69.9409 197.367 70.261C196.979 70.5811 196.71 71.0222 196.602 71.5136V77.9976C196.6 78.1396 196.543 78.2753 196.443 78.3767C196.344 78.4782 196.209 78.5377 196.067 78.5431H194.077C193.935 78.5377 193.801 78.4782 193.701 78.3767C193.602 78.2753 193.545 78.1396 193.542 77.9976L193.435 67.7573C193.435 67.4599 193.673 67.2173 193.97 67.2115H194.858C194.961 67.2006 195.064 67.2271 195.148 67.286C195.233 67.3449 195.293 67.4324 195.318 67.5323L195.735 68.6025C196.145 68.0768 196.672 67.6542 197.274 67.3681C197.876 67.082 198.536 66.9404 199.203 66.9547C199.869 66.9247 200.531 67.0676 201.126 67.3695C201.72 67.6714 202.226 68.122 202.595 68.6775L202.594 68.6778ZM116.884 66.9766C120.49 66.9766 121.421 69.4055 121.421 72.1556V78.0301C121.411 78.1648 121.352 78.2911 121.256 78.3855C121.159 78.48 121.032 78.5361 120.897 78.5434H118.864C118.719 78.5434 118.581 78.486 118.478 78.3837C118.376 78.2814 118.318 78.1427 118.318 77.998V72.1234C118.318 70.6575 117.73 69.748 116.36 69.748C115.813 69.733 115.277 69.8976 114.832 70.2164C114.388 70.5353 114.06 70.9909 113.899 71.5136V77.9976C113.899 78.4147 113.728 78.5431 113.193 78.5431H111.374C111.231 78.5377 111.095 78.4785 110.994 78.3774C110.893 78.2762 110.833 78.1406 110.828 77.9976V67.7573C110.828 67.4559 111.072 67.2115 111.374 67.2115H112.337C112.556 67.1947 112.756 67.3395 112.808 67.5539L113.225 68.6241C113.669 68.0884 114.229 67.6613 114.864 67.3757C115.498 67.0901 116.189 66.9538 116.884 66.9766ZM160.756 73.3326C159.451 73.3326 158.744 73.9425 158.744 74.9482C158.727 75.1656 158.759 75.3841 158.835 75.5881C158.912 75.7921 159.033 75.9767 159.189 76.1289C159.346 76.281 159.533 76.3969 159.739 76.4684C159.945 76.5399 160.165 76.5652 160.382 76.5426C160.797 76.5308 161.202 76.4136 161.56 76.2021C161.917 75.9906 162.215 75.6917 162.425 75.3334V73.675C161.896 73.4563 161.329 73.3401 160.756 73.3326ZM103.659 73.3326C102.353 73.3326 101.647 73.9425 101.647 74.9482C101.632 75.1661 101.664 75.3847 101.743 75.5887C101.821 75.7927 101.943 75.977 102.1 76.1289C102.257 76.2808 102.445 76.3966 102.651 76.468C102.858 76.5395 103.077 76.5649 103.295 76.5426C103.709 76.531 104.113 76.4138 104.468 76.2022C104.824 75.9906 105.12 75.6915 105.328 75.3334V73.675C104.798 73.4563 104.232 73.3401 103.659 73.3326ZM173.286 69.7692C172.892 69.7736 172.502 69.8594 172.142 70.0213C171.782 70.1832 171.46 70.4176 171.195 70.7098C170.929 71.0021 170.728 71.346 170.601 71.7199C170.475 72.0938 170.428 72.4898 170.462 72.883C170.462 74.4883 171.371 76.0293 173.147 76.0293C173.675 76.0526 174.197 75.9145 174.644 75.6334C175.092 75.3524 175.443 74.9417 175.651 74.4561V70.4112C174.938 69.9813 174.119 69.7589 173.286 69.7692ZM135.353 67.2869H135.278L132.871 72.6905H137.804L135.353 67.2869ZM183.997 71.4598H188.545C188.514 70.9186 188.273 70.4108 187.874 70.0449C187.474 69.679 186.946 69.4841 186.405 69.5017C185.829 69.4586 185.259 69.6375 184.811 70.0016C184.364 70.3658 184.072 70.8876 183.997 71.4598Z" fill="black"/>
<path d="M37.7656 61.2088C37.2546 61.5323 36.8279 61.9727 36.5209 62.4937C36.2139 63.0148 36.0353 63.6014 36 64.2052V75.7614C36.0353 76.3651 36.2139 76.9518 36.5209 77.4728C36.8279 77.9939 37.2546 78.4343 37.7656 78.7577L48.1343 84.5572C48.6839 84.8266 49.2878 84.9666 49.8999 84.9666C50.5119 84.9666 51.1159 84.8266 51.6655 84.5572L62.0448 78.7574C62.5557 78.434 62.9824 77.9936 63.2894 77.4726C63.5964 76.9516 63.775 76.3651 63.8104 75.7614V64.2048C63.775 63.6011 63.5964 63.0146 63.2894 62.4936C62.9824 61.9726 62.5557 61.5322 62.0448 61.2088L51.6761 55.4093C51.1265 55.14 50.5225 55 49.9105 55C49.2984 55 48.6945 55.14 48.1449 55.4093L37.7656 61.2085V61.2088Z" fill="#14BF96"/>
<path d="M60.5575 67.1156C54.8004 67.1156 50.4991 71.8878 50.4991 77.7411V77.9873H49.3433V77.7411C49.3433 71.8878 45.0628 67.1368 39.2633 67.1156V68.1857C39.252 70.348 39.9019 72.4621 41.126 74.2446C42.3501 76.0271 44.0899 77.3928 46.1121 78.1585C47.3427 78.6096 48.6429 78.8413 49.9536 78.843C51.2745 78.8413 52.585 78.6096 53.8265 78.1585C55.8458 77.3896 57.5824 76.0228 58.8043 74.2407C60.0261 72.4586 60.675 70.3461 60.6643 68.1854C60.6105 67.8433 60.5893 67.4793 60.5575 67.1156Z" fill="white"/>
<path d="M49.9104 67.5649C51.6833 67.5649 53.1204 66.1277 53.1204 64.3549C53.1204 62.5821 51.6833 61.1449 49.9104 61.1449C48.1376 61.1449 46.7004 62.5821 46.7004 64.3549C46.7004 66.1277 48.1376 67.5649 49.9104 67.5649Z" fill="white"/>
</g>
<defs>
<clipPath id="clip0_1_13400">
<rect width="187.317" height="30" fill="white" transform="translate(36 55)"/>
</clipPath>
</defs>
</svg>
