<svg width="132" height="120" viewBox="0 0 132 120" fill="none" xmlns="http://www.w3.org/2000/svg">
<path d="M112.964 99.5296H123.974V96.2838H112.964V99.5296Z" fill="#EBEBEB"/>
<path d="M100.162 30.864H111.172V27.6183H100.162V30.864Z" fill="#EBEBEB"/>
<path d="M119.11 103.621L124.652 103.537L127.392 103.502L130.12 103.49L129.976 103.624L129.963 100.378L130.12 100.523L124.615 100.502L121.862 100.479L119.11 100.447L119.185 100.378L119.11 103.621ZM119.11 103.621L119.035 100.375L119.031 100.308H119.107L121.859 100.276L124.612 100.253L130.117 100.233H130.273V100.378L130.261 103.624V103.757H130.12L127.342 103.745L124.577 103.711L119.11 103.621Z" fill="#EBEBEB"/>
<path d="M44.851 78.9765L50.3935 78.8924L53.1335 78.8576L55.8609 78.846L55.7169 78.9794L55.7044 75.7337L55.8609 75.8787L50.356 75.8584L47.6035 75.8352L44.851 75.8033L44.9261 75.7337L44.851 78.9765ZM44.851 78.9765L44.7758 75.7307L44.7727 75.664H44.8479L47.6003 75.6321L50.3528 75.6089L55.8578 75.5886H56.0144V75.7337L56.0018 78.9794V79.1128H55.8609L53.0834 79.1012L50.3184 79.0664L44.851 78.9765Z" fill="#EBEBEB"/>
<path d="M50.9926 83.0693L56.5351 82.9851L59.2751 82.9503L62.0025 82.9387L61.8585 83.0722L61.846 79.8264L62.0025 79.9714L56.4976 79.9511L53.7451 79.9279L50.9926 79.896L51.0677 79.8264L50.9926 83.0693ZM50.9926 83.0693L50.9174 79.8235L50.9143 79.7568H50.9895L53.7419 79.7249L56.4944 79.7017L62.0025 79.6785H62.1591V79.8235L62.1466 83.0693V83.2027H62.0057L59.2281 83.1911L56.4631 83.1563L50.9926 83.0693Z" fill="#EBEBEB"/>
<path d="M57.1065 78.9783H68.1165V75.7325H57.1065V78.9783Z" fill="#EBEBEB"/>
<path d="M0.57868 103.622H11.5886V100.377H0.57868V103.622Z" fill="#EBEBEB"/>
<path d="M6.71735 3.39258L17.7273 3.39258V0.146818L6.71735 0.146818V3.39258Z" fill="#EBEBEB"/>
<path d="M0.574707 7.48356L6.11726 7.39945L8.85722 7.36464L11.5847 7.35304L11.4406 7.48646L11.4281 4.2378L11.5847 4.38283L6.07968 4.36253L3.32719 4.33932L0.574707 4.30742L0.649861 4.2378L0.574707 7.48356ZM0.574707 7.48356L0.502686 4.2378V4.17109H0.577839L3.33032 4.13918L6.08281 4.11598L11.5847 4.09277H11.7412V4.2378L11.7287 7.48356V7.61699H11.5878L8.81025 7.60539L6.04523 7.57058L0.574707 7.48356Z" fill="#EBEBEB"/>
<path d="M112.967 3.39079L118.51 3.30667L121.25 3.27186L123.977 3.26026L123.833 3.39369L123.818 0.145029L123.974 0.290059L118.469 0.269755L115.717 0.24655L112.964 0.214644L113.039 0.145029L112.967 3.39079ZM112.967 3.39079L112.892 0.145029L112.889 0.0783159H112.964L115.717 0.0464094L118.469 0.0232047L123.974 0H124.131V0.145029L124.118 3.39079V3.52422H123.977L121.2 3.51261L118.435 3.47781L112.967 3.39079Z" fill="#EBEBEB"/>
<path d="M21.3975 32.2685C28.5366 30.2901 32.5925 23.3256 30.4568 16.7127C28.321 10.0998 20.8023 6.34274 13.6632 8.32109C6.52417 10.2994 2.46819 17.264 4.60395 23.8769C6.7397 30.4898 14.2584 34.2468 21.3975 32.2685Z" fill="#EBEBEB"/>
<path d="M29.4723 26.2508C32.8572 20.4594 30.5328 13.2228 24.2805 10.0874C18.0283 6.95194 10.2159 9.10504 6.83104 14.8964C3.44615 20.6878 5.77056 27.9244 12.0228 31.0599C18.275 34.1953 26.0874 32.0422 29.4723 26.2508Z" fill="#DBDBDB"/>
<path d="M21.9853 31.1699C28.3019 29.2089 31.7063 22.8759 29.5892 17.0248C27.4721 11.1737 20.6353 8.02025 14.3186 9.9813C8.00199 11.9424 4.59759 18.2753 6.71468 24.1264C8.83177 29.9775 15.6687 33.131 21.9853 31.1699Z" fill="white"/>
<path opacity="0.5" d="M29.9406 18.2028C24.4482 21.2861 15.4235 26.3418 10.3758 29.1148C8.96037 28.0097 7.82368 26.6058 7.08154 25.0105L23.7687 10.6844C26.8719 12.1986 29.1766 14.9338 29.9406 18.2028Z" fill="#EBEBEB"/>
<path opacity="0.5" d="M30.2038 20.9618C30.1569 22.2381 29.8782 23.4592 29.4053 24.5933L14.3622 31.1835C13.7015 30.9804 13.0658 30.7281 12.4614 30.4264C17.0082 27.9957 25.3126 23.5694 30.2038 20.9618Z" fill="#EBEBEB"/>
<path d="M18.2667 10.2128H18.0342V11.9067H18.2667V10.2128Z" fill="#C7C7C7"/>
<path d="M12.6585 11.5454L12.4551 11.6542L13.3693 13.1213L13.5727 13.0125L12.6585 11.5454Z" fill="#C7C7C7"/>
<path d="M8.52262 15.3033L8.40674 15.4891L9.99042 16.3363L10.1063 16.1504L8.52262 15.3033Z" fill="#C7C7C7"/>
<path d="M8.79308 20.4667H6.96436V20.6813H8.79308V20.4667Z" fill="#C7C7C7"/>
<path d="M9.99042 24.8139L8.40674 25.661L8.52262 25.8469L10.1063 24.9997L9.99042 24.8139Z" fill="#C7C7C7"/>
<path d="M13.3718 28.0252L12.4585 29.4928L12.6593 29.6L13.5725 28.1324L13.3718 28.0252Z" fill="#C7C7C7"/>
<path d="M18.2667 29.2408H18.0342V30.9348H18.2667V29.2408Z" fill="#C7C7C7"/>
<path d="M22.9287 28.0261L22.728 28.1334L23.6424 29.6004L23.8431 29.4931L22.9287 28.0261Z" fill="#C7C7C7"/>
<path d="M26.3136 24.813L26.1978 24.9989L27.7814 25.846L27.8973 25.6602L26.3136 24.813Z" fill="#C7C7C7"/>
<path d="M29.3385 20.4667H27.5098V20.6813H29.3385V20.4667Z" fill="#C7C7C7"/>
<path d="M27.7813 15.301L26.1978 16.1483L26.3137 16.3342L27.8972 15.4869L27.7813 15.301Z" fill="#C7C7C7"/>
<path d="M23.6417 11.5461L22.728 13.0135L22.9288 13.1208L23.8424 11.6533L23.6417 11.5461Z" fill="#C7C7C7"/>
<path d="M18.3261 10.9774L18.7238 21.3267L17.5808 21.3122L18.0161 10.9745L18.3261 10.9774Z" fill="#C7C7C7"/>
<path d="M25.2865 16.9661L17.768 21.4098L17.2231 20.4787L25.1361 16.7137L25.2865 16.9661Z" fill="#A6A6A6"/>
<path d="M18.5436 20.5744C18.5436 20.7745 18.3682 20.9369 18.1522 20.9369C17.9361 20.9369 17.7607 20.7745 17.7607 20.5744C17.7607 20.3742 17.9361 20.2118 18.1522 20.2118C18.3682 20.2118 18.5436 20.3742 18.5436 20.5744Z" fill="#C7C7C7"/>
<path d="M96.7329 19.7637C97.6065 19.8479 101.389 19.3693 103.991 22.5135C106.453 25.4895 107.502 34.6641 108.059 36.6539C108.616 38.6466 111.46 38.8931 112.18 41.2049C112.8 43.1918 111.244 43.9576 111.115 45.4282C111.015 46.5681 112.293 48.2504 111.209 49.956C110.226 51.5078 108.422 51.2177 107.351 51.7195C106.28 52.2184 105.657 54.5563 103.669 55.2206C101.68 55.8848 99.8674 54.2285 98.8058 54.2576C97.7443 54.2895 96.5512 57.3351 93.0754 57.1378C89.5996 56.9406 88.5349 54.2402 87.0913 53.7325C85.6446 53.2249 82.0717 54.2198 80.3902 52.5926C78.7117 50.9683 78.3767 48.758 77.6189 47.9575C76.8611 47.1569 75.3173 47.3164 74.356 45.4485C73.3915 43.5805 75.261 42.3448 75.4896 40.7031C75.6493 39.5603 74.5313 38.5335 75.261 36.7786C76.263 34.3624 79.4382 34.8149 80.5874 32.332C81.4893 30.3857 83.2554 21.9653 88.6789 19.7956C92.4209 18.2989 96.7329 19.7637 96.7329 19.7637Z" fill="#263238"/>
<path d="M107.942 36.1755C108.118 36.6164 108.528 36.9326 108.894 37.2343L110.043 38.116C110.804 38.6932 111.575 39.2908 112.085 40.0333C112.608 40.7527 112.777 41.6722 112.476 42.4669C112.329 42.8672 112.066 43.2327 111.775 43.5952C111.49 43.9607 111.146 44.3204 110.945 44.8309C110.757 45.3849 110.961 45.9128 111.121 46.3392C111.293 46.783 111.481 47.2036 111.625 47.63C111.925 48.474 112.016 49.3761 111.593 50.1506C111.393 50.5306 111.08 50.8467 110.663 51.0324C110.25 51.2238 109.768 51.3021 109.286 51.3369C108.8 51.3775 108.302 51.3746 107.801 51.3891C107.313 51.4094 106.768 51.4355 106.361 51.7227C106.799 51.4878 107.313 51.5168 107.798 51.5284C108.293 51.5516 108.788 51.5951 109.295 51.5922C109.799 51.5835 110.322 51.5284 110.814 51.3311C111.308 51.1397 111.722 50.7684 111.982 50.3333C112.545 49.4602 112.417 48.3696 112.119 47.4849C111.975 47.0324 111.788 46.5974 111.634 46.171C111.478 45.7417 111.355 45.3269 111.487 44.9875C111.769 44.2479 112.649 43.5749 112.965 42.6148C113.303 41.6635 113.09 40.567 112.445 39.8013C111.834 39.0152 111.014 38.4496 110.209 37.9072L108.985 37.1211C108.6 36.8485 108.174 36.5874 107.942 36.1755Z" fill="#263238"/>
<path d="M83.7271 24.624C82.8127 26.0511 82.2616 27.6377 81.5508 29.1402C81.1938 29.8915 80.865 30.6543 80.4548 31.3679C80.245 31.716 80.0321 32.0785 79.7659 32.3541C79.7033 32.4324 79.6344 32.4962 79.5655 32.5397C79.4997 32.5919 79.434 32.6471 79.3306 32.6906C79.1459 32.7863 78.9486 32.8704 78.7513 32.9545C77.9622 33.2997 77.1199 33.613 76.3339 34.0538C75.5542 34.486 74.8027 35.0894 74.4206 35.9044C74.2328 36.3047 74.1232 36.7543 74.1733 37.1981C74.2171 37.6448 74.405 38.048 74.6054 38.4163C75.0375 39.1415 75.4446 39.8666 75.4884 40.7049C75.5793 39.8695 75.2004 39.0516 74.859 38.3061C74.6868 37.9319 74.5428 37.552 74.5302 37.172C74.5146 36.792 74.6304 36.4178 74.8152 36.0727C75.2066 35.3881 75.8454 34.8515 76.5969 34.4599C77.3422 34.0567 78.1658 33.7696 78.9893 33.4273C79.1929 33.3374 79.3995 33.2446 79.5999 33.1344C79.7878 33.0357 80.0509 32.8472 80.1761 32.679C80.4955 32.3338 80.6991 31.9567 80.9151 31.5854C81.3191 30.8313 81.6604 30.0655 81.9579 29.2853L82.8253 26.9445C83.0946 26.1613 83.3576 25.3753 83.7271 24.624Z" fill="#263238"/>
<path d="M76.7573 47.4167C77.1487 47.8837 77.2114 48.4987 77.3679 49.0614C77.5151 49.6357 77.6623 50.2129 77.8408 50.7872C78.013 51.3615 78.2385 51.9301 78.5485 52.4754C78.8585 53.012 79.2624 53.5399 79.8511 53.9112C81.0818 54.6073 82.5159 54.4942 83.7591 54.2592C84.3916 54.1403 85.0054 53.9895 85.6254 53.8822C86.2392 53.7632 86.8717 53.6965 87.4917 53.8532C86.9124 53.5805 86.2235 53.5892 85.5847 53.6269C84.9396 53.6849 84.3102 53.7922 83.6871 53.859C82.4596 54.004 81.1444 54.0475 80.1611 53.4703C79.6852 53.1831 79.3188 52.7248 79.0182 52.2375C78.705 51.7502 78.4827 51.2049 78.2541 50.6625C78.0287 50.1172 77.8377 49.5545 77.6341 48.9947C77.5245 48.7162 77.4118 48.4378 77.2865 48.1622C77.1487 47.8924 77.0329 47.5908 76.7573 47.4167Z" fill="#263238"/>
<path d="M114.626 87.6879C114.626 87.6879 107.11 113.257 105.3 117.033H76.166C81.195 104.836 86.5184 88.8772 86.6718 87.7691C86.6812 87.7169 86.6843 87.6908 86.6843 87.6908H114.626V87.6879Z" fill="#37474F"/>
<path d="M110.542 91.0882C110.361 93.165 102.21 115.244 101.524 117.031H101.104C101.104 117.031 109.957 92.6023 110.433 91.0882C110.442 91.0273 110.549 91.0273 110.542 91.0882Z" fill="#263238"/>
<path d="M90.7148 87.6849L94.4756 110.64L94.6072 111.418V111.42L94.9391 113.497L94.9641 113.645L95.0549 114.199V114.205L95.5152 117.033H105.298C107.108 113.259 114.62 87.6878 114.62 87.6878H90.7148V87.6849Z" fill="#263238"/>
<path d="M129.231 117.03H101.663C101.653 116.92 101.647 116.833 101.641 116.763C101.631 116.65 101.625 116.589 101.625 116.589C101.472 116.511 101.318 116.432 101.162 116.357C99.5395 115.539 98.1179 114.901 96.9468 114.419C96.7463 114.338 96.5553 114.257 96.3706 114.179C95.8414 113.967 95.3654 113.784 94.9708 113.645C93.9563 113.271 93.3926 113.105 93.3926 113.105C93.3582 113.027 93.33 112.952 93.2987 112.873C89.303 103.455 86.8981 89.1031 86.6727 87.7659C86.6633 87.6963 86.6602 87.6644 86.6602 87.6644H126.04C128.376 94.4546 133.08 106.939 129.231 117.03Z" fill="#37474F"/>
<path d="M91.9826 112.434C95.3206 113.499 98.546 115.01 101.627 116.593C101.749 116.654 101.668 116.828 101.536 116.776C98.2892 115.483 94.9762 114.247 91.8072 112.791C91.5599 112.678 91.7258 112.35 91.9826 112.434Z" fill="#263238"/>
<path d="M90.9481 91.7822C90.9575 91.6778 91.1547 91.6546 91.1547 91.7677C91.1297 95.3412 91.3739 98.4826 91.6996 101.821C91.8499 103.37 93.1964 111.938 96.0992 111.312C96.5846 111.207 96.8319 110.764 96.9102 110.085C97.001 109.27 96.6691 108.269 96.5251 107.457C96.2025 105.664 95.9458 103.866 95.7767 102.053C95.4666 98.6711 95.451 95.289 95.8957 91.9185C95.9113 91.8083 96.0835 91.817 96.0835 91.9272C96.0804 96.6088 96.2119 101.279 96.9666 105.917C97.3298 108.144 98.5417 111.5 96.0272 111.843C93.4657 112.191 91.8061 106.572 91.4929 105.035C90.6193 100.751 90.5848 96.1215 90.9481 91.7822Z" fill="#263238"/>
<path d="M96.021 111.545C96.284 112.119 96.4938 112.719 96.6723 113.32C96.8101 113.787 97.0011 114.291 96.9447 114.779C96.9322 114.874 96.7975 114.883 96.7443 114.819C96.403 114.419 96.2589 113.874 96.0711 113.398C95.8519 112.85 95.617 112.304 95.4135 111.748C95.2757 111.382 95.8581 111.191 96.021 111.545Z" fill="#263238"/>
<path d="M109.152 94.5858C109.183 94.2174 109.152 93.8258 109.274 93.4748C109.293 93.4197 109.371 93.4255 109.39 93.4777C109.499 93.7823 109.49 94.1188 109.524 94.4378C109.565 94.8062 109.618 95.1746 109.659 95.543C109.747 96.2942 109.884 97.0484 110.085 97.7822C110.464 99.1774 111.206 100.445 112.299 101.469C113.366 102.47 114.653 103.206 116.047 103.755C117.606 104.367 119.244 104.593 120.857 105.034C120.926 105.051 120.904 105.141 120.838 105.144C119.103 105.193 117.24 104.767 115.63 104.195C114.187 103.682 112.812 102.908 111.723 101.887C110.592 100.828 109.828 99.5371 109.443 98.0926C109.249 97.3558 109.164 96.6046 109.13 95.8475C109.117 95.4211 109.117 95.0063 109.152 94.5858Z" fill="#263238"/>
<path d="M125.365 117.031C127.2 109.809 126.555 101.858 124.939 94.6446C124.591 92.9884 124.075 91.1929 123.649 89.557C124.059 90.6563 124.476 91.7586 124.845 92.8695C127.197 100.414 128.13 109.493 125.365 117.031Z" fill="#263238"/>
<path d="M98.0604 53.9971C93.1222 62.2232 83.6936 77.2541 77.0832 78.8349C70.7422 80.3519 57.8879 70.7161 47.2599 64.738C45.1463 63.5488 58.9118 51.1923 61.0975 52.5671C66.8092 56.1639 73.573 61.9448 75.0823 61.5909C76.316 61.3008 85.3282 54.1277 91.0899 49.9914C100.265 43.41 101.533 48.2076 98.0604 53.9971Z" fill="#AD6359"/>
<path d="M47.2542 64.7383C45.4286 63.6941 37.5156 58.2322 35.6806 56.2569C33.8456 54.2816 29.0108 48.2368 30.5013 46.7836C31.9919 45.3275 33.5607 46.9925 33.5607 46.9925C33.5607 46.9925 31.9543 44.1412 33.6014 42.804C35.2485 41.4668 37.5939 44.1296 37.5939 44.1296C37.5939 44.1296 36.1754 41.0898 37.9196 39.8628C39.6637 38.6359 41.5394 41.6815 41.5394 41.6815C41.5394 41.6815 40.1021 38.9578 41.9998 38.5082C44.2794 37.9658 46.3179 43.2623 48.5193 45.3043C49.0203 45.7684 59.3789 54.0322 59.3789 54.0322L47.2542 64.7383Z" fill="#AD6359"/>
<path d="M41.3757 41.4216C42.885 45.3142 44.2691 46.7761 47.7324 49.2822C47.8013 49.3315 47.7355 49.4359 47.6603 49.3895C44.0279 47.2227 42.0019 45.6216 41.1659 41.4796C41.1283 41.2765 41.3036 41.2359 41.3757 41.4216Z" fill="#263238"/>
<path d="M37.4824 43.8137C39.4301 47.7295 40.9175 49.3278 44.337 52.1993C44.384 52.2399 44.3151 52.3212 44.265 52.2835C40.6576 49.7251 38.6755 48.0863 37.2851 43.9385C37.2194 43.7499 37.3916 43.6368 37.4824 43.8137Z" fill="#263238"/>
<path d="M33.7406 47.1317C35.9201 50.7951 37.4732 52.6138 41.1777 55.0068C41.2653 55.0619 41.1839 55.1866 41.09 55.1373C37.0568 53.0373 35.1028 50.7835 33.6279 47.2042C33.5277 46.9605 33.606 46.8996 33.7406 47.1317Z" fill="#263238"/>
<path d="M20.9692 30.7537L39.4569 31.8879L54.1869 25.2861L66.9411 44.9434L52.02 50.0195L52.2392 50.5503L49.1235 51.2464L48.8542 50.7852L32.3925 50.0137L20.9692 30.7537Z" fill="#455A64"/>
<path d="M49.8435 50.2315C49.8435 50.2315 55.2671 47.7863 59.9172 46.4578C62.106 45.8342 64.8053 44.7755 64.8053 44.7755L64.8272 43.447C64.8272 43.447 54.0677 45.3179 49.8435 50.2315Z" fill="#EBEBEB"/>
<path d="M39.1755 31.3996C39.1755 31.3996 41.1139 28.8964 45.6168 27.6636C47.6678 27.1009 50.8744 27.011 53.4233 25.1865L64.8247 43.4457C64.8247 43.4457 55.1487 45.5458 49.841 50.2331L39.1755 31.3996Z" fill="white"/>
<path d="M39.1757 31.3989C40.8697 29.4701 43.3529 28.2315 45.9081 27.5586C47.2045 27.2482 48.5354 27.08 49.8161 26.7377C51.1156 26.3983 52.3713 25.8878 53.4391 25.1221C53.4673 25.125 64.8655 43.3958 64.8937 43.4103L64.9438 43.4915L64.8436 43.5147C63.4877 43.828 62.1443 44.2138 60.8229 44.643C56.8836 45.9454 52.985 47.6248 49.8787 50.2702L49.8224 50.3166C49.7848 50.3079 39.2195 31.428 39.1757 31.3989ZM39.1757 31.3989C39.1349 31.4018 50.1136 50.3717 49.8036 50.1948C50.8369 49.3072 51.9674 48.5269 53.1541 47.825C55.5497 46.4559 58.1268 45.3856 60.7759 44.5154C62.1005 44.0832 63.4407 43.6916 64.8092 43.3784L64.759 43.4828C64.7841 43.477 53.2105 25.0815 53.4516 25.2207C51.291 26.787 48.5009 27.0713 45.9206 27.6137C43.3686 28.2692 40.8854 29.4846 39.1757 31.3989Z" fill="#EBEBEB"/>
<path d="M49.8456 50.2309L39.1769 31.3974C39.1769 31.3974 28.787 28.491 25.0889 29.103L21.5034 30.3908L32.9079 49.3955L49.8456 50.2309Z" fill="white"/>
<path d="M49.8445 50.2314C49.8477 50.2314 39.0475 31.3196 39.1602 31.4472C35.7126 30.5277 32.218 29.6981 28.6607 29.2485C27.5146 29.118 26.2433 29.0165 25.1003 29.1702C25.1567 29.1412 21.5212 30.4697 21.5274 30.4581L21.5681 30.3566L32.9476 49.3757C32.7378 49.3351 49.8852 50.2314 49.8445 50.2314ZM49.8445 50.2314C49.8195 50.2314 32.9006 49.4395 32.8787 49.4395C32.8161 49.3061 21.4491 30.4726 21.3896 30.3537L21.4742 30.3247C21.4836 30.3218 25.0628 29.0397 25.0722 29.0368C26.2339 28.8831 27.5178 28.9846 28.6826 29.1209C32.2493 29.5792 35.7439 30.4175 39.1978 31.3486C39.2667 31.3457 49.7944 50.2082 49.8445 50.2314Z" fill="#EBEBEB"/>
<path d="M25.0859 29.1033L35.4852 47.873C35.4852 47.873 45.2426 48.7809 49.8426 50.2312L32.905 49.3958L21.5005 30.3911L25.0859 29.1033Z" fill="#EBEBEB"/>
<path d="M39.1758 31.4001C40.1058 32.9491 41.0233 34.5038 41.9283 36.0672L44.6213 40.7632L47.2641 45.4854C48.1378 47.0633 48.9989 48.6471 49.8444 50.2366C48.9144 48.6877 47.9969 47.1329 47.0919 45.5695L44.3989 40.8735L41.7592 36.1513C40.8824 34.5734 40.0244 32.9897 39.1758 31.4001Z" fill="#DBDBDB"/>
<path d="M41.4976 32.4315C42.2741 31.7876 43.1478 31.2422 44.0622 30.7753C44.9765 30.3083 45.9441 29.9225 46.9399 29.6324C47.9388 29.3453 48.9503 29.1132 49.9586 28.8725C50.4627 28.7535 50.9669 28.6346 51.471 28.5041C51.972 28.3794 52.4762 28.2488 52.9553 28.0603C52.0033 28.4606 50.9825 28.6926 49.9805 28.9479C48.9753 29.2002 47.967 29.4439 46.9775 29.7426C45.9817 30.0211 45.0204 30.3924 44.1029 30.8449C43.1916 31.3061 42.3055 31.8224 41.4976 32.4315Z" fill="#263238"/>
<path d="M50.5527 29.5698C51.4734 29.2566 52.419 29.0535 53.3428 28.7664C52.9169 28.9984 52.4472 29.1347 51.9806 29.2682C51.5078 29.39 51.035 29.5031 50.5527 29.5698Z" fill="#263238"/>
<path d="M41.8833 33.1396C42.3968 32.6988 42.9636 32.313 43.5555 31.9678C44.1442 31.6168 44.7579 31.3036 45.3936 31.0251C46.6743 30.4914 48.0302 30.1404 49.3924 29.8533C48.7222 30.0418 48.0553 30.2245 47.3914 30.4218C46.7276 30.619 46.0794 30.854 45.4499 31.1295C44.8143 31.3935 44.1974 31.6922 43.6024 32.0316C43.0106 32.3739 42.4282 32.7365 41.8833 33.1396Z" fill="#263238"/>
<path d="M42.269 33.8465C43.0456 33.2026 43.9193 32.6573 44.8336 32.1903C45.748 31.7233 46.7156 31.3375 47.7114 31.0475C48.7103 30.7603 49.7217 30.5283 50.73 30.2875C51.2342 30.1686 51.7383 30.0497 52.2425 29.9191C52.7435 29.7944 53.2477 29.6639 53.7268 29.4753C52.7748 29.8756 51.754 30.1077 50.752 30.3629C49.7468 30.6153 48.7385 30.8589 47.749 31.1577C46.7532 31.4361 45.7918 31.8074 44.8744 32.2599C43.9631 32.7211 43.0769 33.2374 42.269 33.8465Z" fill="#263238"/>
<path d="M42.6548 34.5555C43.4314 33.9116 44.305 33.3663 45.2194 32.8993C46.1338 32.4323 47.1014 32.0465 48.0971 31.7564C49.096 31.4693 50.1075 31.2372 51.1158 30.9965C51.6199 30.8776 52.1241 30.7586 52.6282 30.6281C53.1293 30.5034 53.6334 30.3729 54.1125 30.1843C53.1606 30.5846 52.1397 30.8167 51.1377 31.0719C50.1325 31.3243 49.1242 31.5679 48.1347 31.8667C47.1389 32.1451 46.1776 32.5164 45.2601 32.9689C44.3489 33.4301 43.4627 33.9464 42.6548 34.5555Z" fill="#263238"/>
<path d="M47.4053 32.8744C47.9846 32.6772 48.567 32.4857 49.1526 32.3001C49.735 32.1058 50.3394 31.9781 50.9343 31.8215L52.7286 31.3951C53.3236 31.2472 53.9248 31.108 54.4979 30.8933C53.9436 31.1486 53.3455 31.3168 52.7568 31.4821C52.165 31.6446 51.5638 31.7867 50.9688 31.9346C50.3707 32.0797 49.7695 32.2102 49.1839 32.3871C48.5921 32.5553 48.0002 32.7149 47.4053 32.8744Z" fill="#263238"/>
<path d="M43.041 35.2636C43.5577 34.7879 44.1558 34.3963 44.7695 34.0338C45.0827 33.8626 45.3958 33.6915 45.7246 33.5436C46.0503 33.3898 46.3853 33.2593 46.7235 33.1404C45.4397 33.7669 44.2059 34.4572 43.041 35.2636Z" fill="#263238"/>
<path d="M43.4238 35.9706C44.2004 35.3266 45.0741 34.7813 45.9884 34.3143C46.9028 33.8473 47.8704 33.4615 48.8662 33.1715C49.8651 32.8843 50.8765 32.6523 51.8848 32.4115C52.389 32.2926 52.8931 32.1737 53.3973 32.0432C53.8983 31.9184 54.4025 31.7879 54.8816 31.5994C53.9296 31.9996 52.9088 32.2317 51.9067 32.4869C50.9016 32.7393 49.8933 32.9829 48.9037 33.2817C47.908 33.5602 46.9466 33.9314 46.0291 34.3839C45.1179 34.8451 44.2317 35.3614 43.4238 35.9706Z" fill="#263238"/>
<path d="M44.1953 37.3856C44.9719 36.7417 45.8456 36.1964 46.7599 35.7294C47.6743 35.2624 48.6419 34.8766 49.6377 34.5865C50.6366 34.2994 51.648 34.0673 52.6563 33.8266C53.1605 33.7076 53.6646 33.5887 54.1688 33.4582C54.6698 33.3335 55.1739 33.2029 55.653 33.0144C54.7011 33.4147 53.6803 33.6467 52.6782 33.902C51.6731 34.1543 50.6648 34.398 49.6752 34.6967C48.6795 34.9752 47.7181 35.3465 46.8006 35.799C45.8894 36.2602 45.0063 36.7765 44.1953 37.3856Z" fill="#263238"/>
<path d="M50.2393 35.2913C50.7622 35.1086 51.3008 34.9694 51.8394 34.8243C52.3811 34.6938 52.9197 34.5604 53.474 34.4705C52.9479 34.6532 52.4124 34.7924 51.8738 34.9375C51.3321 35.068 50.7935 35.2014 50.2393 35.2913Z" fill="#263238"/>
<path d="M44.5815 38.0939C45.1922 37.5457 45.8999 37.0961 46.6295 36.6872C46.999 36.4928 47.3716 36.3014 47.7599 36.1389C48.1451 35.9707 48.5427 35.8315 48.9467 35.7039C48.1764 36.0374 47.4186 36.3855 46.6921 36.7887C46.3226 36.9801 45.9687 37.1948 45.618 37.4123C45.2673 37.6298 44.9197 37.8532 44.5815 38.0939Z" fill="#263238"/>
<path d="M44.9639 38.8006C45.7405 38.1567 46.6141 37.6114 47.5285 37.1444C48.4428 36.6774 49.4104 36.2916 50.4062 36.0016C51.4051 35.7144 52.4166 35.4824 53.4249 35.2416C53.929 35.1227 54.4332 35.0038 54.9373 34.8732C55.4383 34.7485 55.9425 34.618 56.4216 34.4294C55.4697 34.8297 54.4488 35.0618 53.4468 35.317C52.4416 35.5694 51.4333 35.813 50.4438 36.1118C49.448 36.3902 48.4867 36.7615 47.5692 37.214C46.6579 37.6752 45.7749 38.1915 44.9639 38.8006Z" fill="#263238"/>
<path d="M45.7388 40.2157C46.5154 39.5717 47.389 39.0264 48.3034 38.5594C49.2177 38.0924 50.1853 37.7067 51.1811 37.4166C52.18 37.1294 53.1915 36.8974 54.1998 36.6566C54.7039 36.5377 55.2081 36.4188 55.7122 36.2883C56.2132 36.1635 56.7174 36.033 57.1965 35.8445C56.2446 36.2448 55.2269 36.4768 54.2217 36.7321C53.2165 36.9844 52.2082 37.2281 51.2187 37.5268C50.2229 37.8053 49.2616 38.1766 48.3441 38.629C47.4297 39.0902 46.5467 39.6065 45.7388 40.2157Z" fill="#263238"/>
<path d="M46.125 40.9247C46.9016 40.2807 47.7752 39.7354 48.6896 39.2684C49.604 38.8014 50.5716 38.4156 51.5673 38.1256C52.5663 37.8384 53.5777 37.6064 54.586 37.3656C55.0902 37.2467 55.5943 37.1278 56.0985 36.9973C56.5995 36.8725 57.1036 36.742 57.5827 36.5535C56.6308 36.9537 55.6131 37.1858 54.6079 37.441C53.6027 37.6934 52.5944 37.9371 51.6049 38.2358C50.6091 38.5143 49.6478 38.8855 48.7303 39.338C47.8159 39.7992 46.9329 40.3155 46.125 40.9247Z" fill="#263238"/>
<path d="M54.4331 39.0476C55.0782 38.8387 55.7389 38.6792 56.3933 38.5081L57.3766 38.2586C57.7023 38.1716 58.0279 38.0846 58.3505 37.9744C57.7461 38.276 57.0791 38.4472 56.4278 38.6241C55.7671 38.7807 55.1064 38.9316 54.4331 39.0476Z" fill="#263238"/>
<path d="M50.3125 40.3303C50.5818 40.1998 50.8574 40.0722 51.1329 39.9533C51.4116 39.8344 51.6997 39.7415 51.9878 39.6458C52.5702 39.4718 53.1589 39.318 53.7602 39.2136C53.1871 39.4109 52.6015 39.5704 52.0285 39.756C51.4461 39.9214 50.8949 40.1505 50.3125 40.3303Z" fill="#263238"/>
<path d="M46.8931 42.3389C47.2281 42.0053 47.6227 41.7327 48.0204 41.4716C48.227 41.3498 48.4306 41.2222 48.6435 41.1119C48.8564 40.9988 49.0756 40.9002 49.298 40.8074C48.4932 41.3208 47.6884 41.8139 46.8931 42.3389Z" fill="#263238"/>
<path d="M55.3223 39.6347C55.8859 39.4491 56.459 39.3069 57.0289 39.1532L57.8869 38.9299C58.1718 38.8516 58.4568 38.7761 58.7355 38.6804C58.2125 38.9502 57.6332 39.1068 57.0633 39.2634C56.4871 39.4056 55.911 39.5419 55.3223 39.6347Z" fill="#263238"/>
<path d="M47.2788 43.0487C47.7704 42.6281 48.309 42.254 48.8727 41.9204C49.4363 41.5839 50.0188 41.2765 50.6231 41.0038C51.8444 40.4817 53.1345 40.122 54.4372 39.8494C53.7983 40.0321 53.1595 40.2148 52.527 40.4092C51.8945 40.6064 51.2776 40.8414 50.6795 41.1111C50.0751 41.3693 49.4864 41.6622 48.9197 41.9871C48.3529 42.3149 47.8017 42.6629 47.2788 43.0487Z" fill="#263238"/>
<path d="M47.665 43.7547C48.4416 43.1108 49.3153 42.5655 50.2296 42.0985C51.144 41.6315 52.1116 41.2457 53.1074 40.9557C54.1063 40.6685 55.1177 40.4365 56.126 40.1957C56.6302 40.0768 57.1343 39.9579 57.6385 39.8273C58.1395 39.7026 58.6437 39.5721 59.1228 39.3835C58.1708 39.7838 57.15 40.0159 56.148 40.2711C55.1428 40.5235 54.1345 40.7671 53.145 41.0659C52.1492 41.3443 51.1878 41.7156 50.2703 42.1681C49.356 42.6293 48.4729 43.1456 47.665 43.7547Z" fill="#263238"/>
<path d="M52.4126 42.0766C53.5493 41.6183 54.7517 41.3253 55.9417 41.0266L57.7359 40.6002C58.3309 40.4523 58.929 40.3101 59.5052 40.0984C58.381 40.5886 57.1598 40.8322 55.973 41.1397L54.1818 41.5806C53.59 41.7314 52.9982 41.8881 52.4126 42.0766Z" fill="#263238"/>
<path d="M48.0508 44.4634C48.5487 44.0022 49.1248 43.6252 49.7135 43.2742C50.0142 43.106 50.3148 42.9406 50.631 42.7956C50.9442 42.6477 51.2667 42.5171 51.5924 42.4011C50.3586 43.0189 49.1718 43.689 48.0508 44.4634Z" fill="#263238"/>
<path d="M48.4336 45.1727C49.2102 44.5288 50.0838 43.9835 50.9982 43.5165C51.9126 43.0495 52.8802 42.6637 53.8759 42.3736C54.8749 42.0865 55.8863 41.8544 56.8946 41.6137C57.3987 41.4948 57.9029 41.3758 58.4039 41.2453C58.9049 41.1206 59.4091 40.9901 59.8882 40.8015C58.9363 41.2018 57.9154 41.4338 56.9134 41.6891C55.9082 41.9414 54.8999 42.1851 53.9104 42.4839C52.9146 42.7623 51.9533 43.1336 51.0358 43.5861C50.1245 44.0444 49.2415 44.5607 48.4336 45.1727Z" fill="#263238"/>
<path d="M48.8193 45.8826C49.2859 45.4794 49.8026 45.1227 50.3381 44.8007C50.8735 44.4758 51.4278 44.18 52.0008 43.9131C52.5801 43.6579 53.172 43.4287 53.792 43.275C54.4026 43.0981 55.0163 42.9298 55.6301 42.7732C55.0289 42.9762 54.4245 43.1677 53.8202 43.3475C53.2095 43.5157 52.6271 43.7565 52.0572 44.0175C51.481 44.2699 50.9236 44.5542 50.3819 44.8645C49.8464 45.1807 49.3172 45.5113 48.8193 45.8826Z" fill="#263238"/>
<path d="M28.0508 30.8904C29.8044 31.0006 31.5454 31.2414 33.2771 31.4995C34.1413 31.6416 35.0024 31.8041 35.8604 31.9781C36.7216 32.1463 37.5702 32.3523 38.4157 32.5756C37.5577 32.3987 36.7028 32.216 35.8448 32.0535C34.9837 31.8911 34.1225 31.7432 33.2551 31.6126C32.3909 31.4676 31.5266 31.3342 30.6592 31.2181C29.7887 31.105 28.9213 30.9919 28.0508 30.8904Z" fill="#263238"/>
<path d="M34.2622 32.2849C34.6442 32.3284 35.0263 32.3777 35.402 32.4531L36.5325 32.6736C37.2809 32.836 38.0324 32.9956 38.7714 33.1986C38.0073 33.0884 37.2589 32.9375 36.5074 32.7867C35.7559 32.6301 35.0106 32.4531 34.2622 32.2849Z" fill="#263238"/>
<path d="M28.4019 31.5144C29.216 31.5376 30.0208 31.6275 30.8287 31.7203C31.6334 31.8277 32.4351 31.9437 33.2273 32.1148C32.4194 32.0394 31.6178 31.9292 30.813 31.8335C30.0083 31.729 29.2066 31.6333 28.4019 31.5144Z" fill="#263238"/>
<path d="M28.7563 32.1384C30.0809 32.208 31.393 32.3821 32.705 32.5503C34.0108 32.7592 35.3166 32.968 36.6005 33.2697C35.2947 33.0666 33.9951 32.8317 32.6862 32.6663C31.3804 32.4575 30.0684 32.3067 28.7563 32.1384Z" fill="#263238"/>
<path d="M29.1104 32.7625C30.8639 32.8727 32.605 33.1134 34.3366 33.3716C35.2009 33.5137 36.062 33.6761 36.92 33.8502C37.7812 34.0184 38.6298 34.2243 39.4752 34.4477C38.6172 34.2708 37.7624 34.088 36.9044 33.9256C36.0464 33.7632 35.1821 33.6152 34.3147 33.4847C33.4504 33.3397 32.5862 33.2062 31.7188 33.0902C30.8514 32.9771 29.984 32.8611 29.1104 32.7625Z" fill="#263238"/>
<path d="M36.9033 34.4382C37.4012 34.4962 37.8897 34.5978 38.3813 34.6964C38.8667 34.8095 39.3552 34.9168 39.8312 35.0677C39.3301 35.0096 38.8416 34.9081 38.3532 34.8095C37.8678 34.6993 37.3824 34.5891 36.9033 34.4382Z" fill="#263238"/>
<path d="M29.4648 33.3835C30.5514 33.4329 31.6318 33.5576 32.709 33.6968C33.783 33.8505 34.8571 34.0188 35.9124 34.2537C33.7611 33.9608 31.6192 33.662 29.4648 33.3835Z" fill="#263238"/>
<path d="M37.6753 35.6951C38.1638 35.7502 38.6429 35.8517 39.122 35.9474C39.598 36.0576 40.0771 36.165 40.5405 36.3129C40.0489 36.2578 39.5729 36.1563 39.0938 36.0605C38.6178 35.9532 38.1419 35.8459 37.6753 35.6951Z" fill="#263238"/>
<path d="M34.8159 35.2029C35.2073 35.2203 35.5894 35.2812 35.9714 35.3392C36.3534 35.4088 36.7355 35.4784 37.105 35.5887C36.7135 35.5713 36.3315 35.5103 35.9495 35.4523C35.5706 35.3827 35.1886 35.316 34.8159 35.2029Z" fill="#263238"/>
<path d="M30.1694 34.6287C30.7331 34.6461 31.2936 34.707 31.8541 34.765C32.4115 34.8375 32.972 34.9042 33.5231 35.0173C32.9564 34.9999 32.399 34.939 31.8385 34.881C31.2811 34.8085 30.7237 34.7418 30.1694 34.6287Z" fill="#263238"/>
<path d="M30.5239 35.2527C32.2775 35.3629 34.0185 35.6037 35.7502 35.8618C36.6145 36.0039 37.4756 36.1664 38.3336 36.3404C39.1947 36.5086 40.0433 36.7146 40.8888 36.9379C40.0308 36.761 39.1759 36.5783 38.3179 36.4158C37.4568 36.2534 36.5957 36.1055 35.7283 35.9749C34.864 35.8299 33.9998 35.6965 33.1324 35.5805C32.265 35.4673 31.3945 35.3542 30.5239 35.2527Z" fill="#263238"/>
<path d="M30.8779 35.8767C32.6315 35.9869 34.3726 36.2277 36.1042 36.4858C36.9685 36.628 37.8296 36.7904 38.6876 36.9644C39.5487 37.1327 40.3973 37.3386 41.2428 37.562C40.3848 37.385 39.5299 37.2023 38.6719 37.0398C37.8108 36.8774 36.9497 36.7295 36.0823 36.599C35.218 36.4539 34.3538 36.3205 33.4864 36.2045C32.6158 36.0885 31.7485 35.9753 30.8779 35.8767Z" fill="#263238"/>
<path d="M31.2324 36.4978C32.438 36.5587 33.6342 36.7008 34.8273 36.8604C36.0172 37.0344 37.2071 37.2288 38.3751 37.4956C37.1852 37.3245 35.9984 37.1359 34.8053 36.9764C33.6154 36.8024 32.4255 36.6544 31.2324 36.4978Z" fill="#263238"/>
<path d="M32.6504 37.9744L36.6022 45.2984C36.6022 45.2984 41.6343 45.806 45.9181 46.8154L41.6844 39.5262C41.6844 39.5262 35.0146 37.9947 32.6504 37.9744Z" fill="#455A64"/>
<path d="M62.3897 54.5417C62.3897 54.5417 60.9744 49.5295 59.8283 47.4527C58.6822 45.3788 51.3391 39.1019 49.7859 40.4942C47.7787 42.2925 51.2483 46.6898 53.2524 48.6361C53.2524 48.6361 48.6085 52.7898 50.3621 56.4445C52.1125 60.1021 62.3897 54.5417 62.3897 54.5417Z" fill="#AD6359"/>
<path d="M49.4113 41.1577C48.8601 44.0205 51.6659 46.4193 53.457 48.4439C53.5917 48.5977 53.5071 48.7543 53.3599 48.8268C51.5375 50.689 49.5553 53.8071 50.1972 56.3887C50.216 56.4641 50.1033 56.4989 50.072 56.4264C48.976 53.7404 50.6544 50.5324 52.79 48.6122C50.9175 46.5615 48.2182 44.0409 49.38 41.1519C49.3862 41.1345 49.4144 41.1403 49.4113 41.1577Z" fill="#263238"/>
<path d="M63.1535 52.9443L52.0215 70.0868C52.0215 70.0868 71.9152 81.1206 77.8836 79.4702C83.852 77.8226 94.6772 60.9557 98.1624 54.3627C101.645 47.7725 99.7375 44.2048 92.6387 48.8051C85.5398 53.4026 75.9077 60.6917 74.7334 60.7701C73.556 60.8513 63.1535 52.9443 63.1535 52.9443Z" fill="#F7AD19"/>
<path d="M91.5944 65.062C91.5537 65.1229 91.5098 65.1809 91.4691 65.2448H91.2436C90.6863 65.2448 90.2291 64.8242 90.2291 64.305C90.2291 63.8902 89.8596 63.5479 89.4118 63.5479H88.7793V63.3652H89.4118C89.9692 63.3652 90.4264 63.7858 90.4264 64.305C90.4264 64.7198 90.7959 65.062 91.2436 65.062H91.5944ZM92.7217 55.9426L92.2989 55.551C91.9795 55.2551 91.9795 54.7765 92.2989 54.4807C92.4899 54.3037 92.5964 54.0659 92.5964 53.8164C92.5964 53.5641 92.4899 53.3291 92.2989 53.1522L91.8511 52.7374L91.7102 52.8679L92.158 53.2827C92.4774 53.5786 92.4774 54.0572 92.158 54.353C91.7635 54.7185 91.7635 55.316 92.158 55.6815L92.5807 56.0731L92.7217 55.9426ZM96.5733 48.9376C96.8927 48.6418 97.4093 48.6418 97.7287 48.9376C97.9198 49.1146 98.1765 49.2132 98.4458 49.2132C98.7183 49.2132 98.9719 49.1146 99.1629 48.9376L99.6107 48.5229L99.4698 48.3923L99.022 48.8071C98.8686 48.9492 98.6619 49.0276 98.4458 49.0276C98.2266 49.0276 98.0231 48.9492 97.8697 48.8071C97.4751 48.4416 96.83 48.4416 96.4355 48.8071L96.0127 49.1987L96.1537 49.3292L96.5733 48.9376ZM85.0372 69.5666H84.4391C83.9882 69.5666 83.6219 69.2273 83.6219 68.8096C83.6219 68.2904 83.1678 67.8698 82.6073 67.8698H81.9748V68.0525H82.6073C83.0582 68.0525 83.4246 68.3919 83.4246 68.8096C83.4246 69.3288 83.8786 69.7494 84.4391 69.7494H85.0372V69.5666ZM64.4014 68.6646H63.8033C63.3524 68.6646 62.986 68.3252 62.986 67.9075C62.986 67.3883 62.532 66.9677 61.9715 66.9677H61.3389V67.1504H61.9715C62.4224 67.1504 62.7888 67.4898 62.7888 67.9075C62.7888 68.4267 63.2428 68.8473 63.8033 68.8473H64.4014V68.6646ZM84.2669 59.8874L83.8442 59.4958C83.5248 59.1999 83.5248 58.7213 83.8442 58.4255C84.0352 58.2485 84.1417 58.0107 84.1417 57.7612C84.1417 57.5089 84.0352 57.2739 83.8442 57.097L83.3964 56.6822L83.2555 56.8127L83.7033 57.2275C84.0227 57.5234 84.0227 58.002 83.7033 58.2979C83.3087 58.6633 83.3087 59.2608 83.7033 59.6263L84.126 60.0179L84.2669 59.8874ZM77.7912 76.8964L77.3685 76.5049C77.0491 76.209 77.0491 75.7304 77.3685 75.4345C77.5595 75.2576 77.666 75.0197 77.666 74.7703C77.666 74.5179 77.5595 74.283 77.3685 74.1061L76.9207 73.6913L76.7798 73.8218L77.2276 74.2366C77.547 74.5324 77.547 75.011 77.2276 75.3069C76.833 75.6724 76.833 76.2699 77.2276 76.6354L77.6503 77.027L77.7912 76.8964ZM60.8786 74.1061L60.4308 73.6913L60.2931 73.8218L60.7408 74.2337C60.8504 74.3381 60.9256 74.4628 60.9569 74.5963C61.0289 74.6282 61.0978 74.663 61.1698 74.6949C61.1542 74.4715 61.0509 74.2656 60.8786 74.1061ZM68.5787 62.3587L68.156 61.9671C67.8366 61.6712 67.8366 61.1926 68.156 60.8968C68.347 60.7198 68.4534 60.482 68.4534 60.2325C68.4534 59.9802 68.347 59.7452 68.156 59.5683L67.7082 59.1535L67.5673 59.284L68.015 59.6988C68.3344 59.9947 68.3344 60.4733 68.015 60.7691C67.6205 61.1346 67.6205 61.7321 68.015 62.0976L68.4378 62.4892L68.5787 62.3587ZM70.6298 69.2331C70.9366 68.9459 71.4752 68.9459 71.7852 69.2331C71.9762 69.41 72.233 69.5086 72.5023 69.5086C72.7716 69.5086 73.0284 69.41 73.2194 69.2331L73.6672 68.8183L73.5263 68.6878L73.0785 69.1025C72.7591 69.3984 72.2424 69.3984 71.923 69.1025C71.732 68.9256 71.4752 68.827 71.2059 68.827C70.9335 68.827 70.6799 68.9256 70.4888 69.1025L70.063 69.4941L70.2039 69.6246L70.6298 69.2331ZM56.097 70.3092L55.6492 70.7211C55.3329 71.0169 54.8131 71.0169 54.4969 70.7211C54.3027 70.5441 54.0491 70.4455 53.7766 70.4455C53.5293 70.4455 53.2975 70.5296 53.1128 70.6747C53.1723 70.7037 53.2349 70.7385 53.3007 70.7733C53.6138 70.5673 54.0804 70.5905 54.356 70.8516C54.5501 71.0285 54.8037 71.1272 55.073 71.1272C55.3455 71.1272 55.5991 71.0285 55.7933 70.8516L56.2379 70.4368L56.097 70.3092ZM76.1065 64.6153C76.1065 64.1976 76.4729 63.8583 76.9238 63.8583C77.4843 63.8583 77.9384 63.4377 77.9384 62.9185V62.3645H77.7411V62.9185C77.7411 63.3362 77.3747 63.6755 76.9238 63.6755C76.3633 63.6755 75.9093 64.0961 75.9093 64.6153V65.2013H76.1065V64.6153ZM69.5807 76.1133V76.6673C69.5807 77.085 69.2144 77.4243 68.7634 77.4243C68.5255 77.4243 68.3094 77.4998 68.134 77.6274C68.2092 77.6564 68.2812 77.6854 68.3564 77.7115C68.4754 77.6448 68.6131 77.61 68.7634 77.61C69.3208 77.61 69.778 77.1894 69.778 76.6673V76.1133H69.5807ZM62.1562 55.2609V55.8178C62.1562 56.2326 61.7899 56.5749 61.3389 56.5749C61.0571 56.5749 60.8066 56.6793 60.6218 56.8505L60.3713 57.2362C60.3713 57.2362 60.3713 57.2391 60.3713 57.242C60.3432 57.3291 60.3275 57.419 60.3275 57.5147V58.1006H60.5248V57.5147C60.5248 57.0999 60.8943 56.7576 61.3421 56.7576C61.9026 56.7576 62.3598 56.3371 62.3598 55.8178V55.2609H62.1562Z" fill="white"/>
<path d="M57.463 71.478C61.0171 64.6935 65.8645 58.0511 66.6192 56.8387C66.6536 56.7807 66.7507 56.8416 66.71 56.8967C65.9021 58.0511 61.252 66.1902 57.5632 71.5418C57.5225 71.6027 57.4286 71.5447 57.463 71.478Z" fill="#263238"/>
<path opacity="0.1" d="M98.1628 54.3656C94.6776 60.9586 83.8524 77.8227 77.884 79.4731C76.0553 79.9778 72.9207 79.2933 69.4512 78.1011C76.6252 69.9563 89.9617 55.7173 97.7589 46.7341C100.405 46.7254 100.558 49.8291 98.1628 54.3656Z" fill="black"/>
<path d="M86.6556 87.6605L87.2255 77.4272C87.2255 77.4272 83.7715 74.982 84.0158 69.3984C84.1943 65.3347 93.5509 48.723 94.3243 47.9979C97.4338 45.0915 103.415 45.2394 105.472 47.0059C115.95 56.0151 121.063 69.526 126.036 87.6605H86.6556Z" fill="#F7AD19"/>
<path d="M115.646 74.7355H115.048C114.487 74.7355 114.033 74.3149 114.033 73.7957C114.033 73.378 113.667 73.0386 113.216 73.0386H112.583V72.8559H113.216C113.776 72.8559 114.23 73.2765 114.23 73.7957C114.23 74.2134 114.597 74.5528 115.048 74.5528H115.646V74.7355ZM91.8411 65.062H91.243C90.7921 65.062 90.4257 64.7227 90.4257 64.305C90.4257 63.7858 89.9716 63.3652 89.4111 63.3652H88.7786V63.5479H89.4111C89.862 63.5479 90.2284 63.8873 90.2284 64.305C90.2284 64.8242 90.6825 65.2448 91.243 65.2448H91.8411V65.062ZM106.969 62.5182H106.371C105.92 62.5182 105.553 62.1788 105.553 61.7612C105.553 61.2419 105.099 60.8214 104.539 60.8214H103.906V61.0041H104.539C104.99 61.0041 105.356 61.3435 105.356 61.7612C105.356 62.2804 105.81 62.7009 106.371 62.7009H106.969V62.5182ZM99.3439 77.2996H98.7458C98.2949 77.2996 97.9285 76.9602 97.9285 76.5426C97.9285 76.0234 97.4744 75.6028 96.9139 75.6028H96.2814V75.7855H96.9139C97.3648 75.7855 97.7312 76.1249 97.7312 76.5426C97.7312 77.0618 98.1853 77.4824 98.7458 77.4824H99.3439V77.2996ZM86.6555 87.6547V87.6634H86.6618C86.6618 87.6605 86.6586 87.6576 86.6555 87.6547ZM108.071 80.0987L107.648 79.7071C107.329 79.4112 107.329 78.9326 107.648 78.6368C107.839 78.4598 107.946 78.222 107.946 77.9726C107.946 77.7202 107.839 77.4852 107.648 77.3083L107.201 76.8935L107.06 77.0241L107.507 77.4388C107.827 77.7347 107.827 78.2133 107.507 78.5092C107.113 78.8746 107.113 79.4722 107.507 79.8376L107.93 80.2292L108.071 80.0987ZM119.591 86.5119L119.147 86.0971L119.006 86.2276L119.454 86.6395C119.754 86.9209 119.77 87.3647 119.497 87.6634H119.742C119.98 87.3008 119.93 86.8223 119.591 86.5119ZM113.967 66.6922L113.545 66.3006C113.225 66.0047 113.225 65.5261 113.545 65.2303C113.939 64.8648 113.939 64.2673 113.545 63.9018L113.097 63.487L112.956 63.6175L113.404 64.0323C113.723 64.3282 113.723 64.8068 113.404 65.1026C113.009 65.4681 113.009 66.0656 113.404 66.4311L113.827 66.8227L113.967 66.6922ZM92.721 55.9426L92.2983 55.551C91.9789 55.2551 91.9789 54.7765 92.2983 54.4807C92.4893 54.3037 92.5957 54.0659 92.5957 53.8164C92.5957 53.5641 92.4893 53.3291 92.2983 53.1522L91.8505 52.7374L91.7096 52.8679L92.1573 53.2827C92.4767 53.5786 92.4767 54.0572 92.1573 54.353C91.7628 54.7185 91.7628 55.316 92.1573 55.6815L92.5801 56.0731L92.721 55.9426ZM105.622 54.1297L105.2 53.7381C104.88 53.4423 104.88 52.9637 105.2 52.6678C105.391 52.4909 105.497 52.253 105.497 52.0036C105.497 51.7541 105.391 51.5163 105.2 51.3393L104.752 50.9246L104.611 51.0551L105.059 51.4699C105.378 51.7657 105.378 52.2443 105.059 52.5402C104.664 52.9057 104.664 53.5032 105.059 53.8686L105.481 54.2602L105.622 54.1297ZM91.5436 74.1844L91.1209 73.7928C90.8014 73.4969 90.8014 73.0183 91.1209 72.7225C91.3119 72.5455 91.4183 72.3077 91.4183 72.0582C91.4183 71.8059 91.3119 71.5709 91.1209 71.394L90.6731 70.9792L90.5321 71.1098L90.9799 71.5245C91.2993 71.8204 91.2993 72.299 90.9799 72.5949C90.5854 72.9603 90.5854 73.5579 90.9799 73.9233L91.4027 74.3149L91.5436 74.1844ZM111.688 83.2777C112.007 82.9819 112.524 82.9819 112.843 83.2777C113.034 83.4547 113.291 83.5533 113.56 83.5533C113.833 83.5533 114.086 83.4547 114.277 83.2777L114.725 82.8629L114.584 82.7324L114.137 83.1472C113.817 83.4431 113.3 83.4431 112.981 83.1472C112.586 82.7817 111.941 82.7817 111.547 83.1472L111.124 83.5388L111.265 83.6693L111.688 83.2777ZM125.394 85.3517C125.391 85.3546 125.391 85.3545 125.388 85.3574L124.965 85.7519L125.103 85.8796L125.45 85.5576C125.431 85.488 125.413 85.4184 125.394 85.3517ZM90.6699 81.5142C90.9893 81.2183 91.506 81.2183 91.8254 81.5142C92.0164 81.6911 92.2732 81.7897 92.5425 81.7897C92.8149 81.7897 93.0686 81.6911 93.2596 81.5142L93.7074 81.0994L93.5665 80.9689L93.1187 81.3836C92.7993 81.6795 92.2826 81.6795 91.9632 81.3836C91.5686 81.0182 90.9236 81.0182 90.529 81.3836L90.1063 81.7752L90.2472 81.9058L90.6699 81.5142ZM96.9076 68.0322C97.2271 67.7364 97.7437 67.7364 98.0631 68.0322C98.4577 68.3977 99.1027 68.3977 99.4973 68.0322L99.9451 67.6174L99.8042 67.4869L99.3564 67.9017C99.037 68.1947 98.5203 68.1976 98.2009 67.9017C97.8064 67.5362 97.1613 67.5362 96.7667 67.9017L96.344 68.2933L96.4849 68.4238L96.9076 68.0322ZM120.011 68.9604C119.626 68.7661 119.128 68.8212 118.802 69.1228L118.386 69.5144L118.524 69.6421L118.946 69.2563C119.263 68.9546 119.782 68.9546 120.099 69.2563C120.111 69.2679 120.124 69.2766 120.136 69.2853C120.096 69.1751 120.052 69.0677 120.011 68.9604ZM96.5726 48.9376C96.892 48.6418 97.4087 48.6418 97.7281 48.9376C97.9191 49.1146 98.1759 49.2132 98.4452 49.2132C98.7176 49.2132 98.9712 49.1146 99.1622 48.9376L99.61 48.5229L99.4691 48.3923L99.0213 48.8071C98.8679 48.9492 98.6612 49.0276 98.4452 49.0276C98.226 49.0276 98.0224 48.9492 97.869 48.8071C97.4744 48.4416 96.8294 48.4416 96.4348 48.8071L96.0121 49.1987L96.153 49.3292L96.5726 48.9376ZM119.184 79.9536C119.184 79.536 119.551 79.1966 120.002 79.1966C120.562 79.1966 121.016 78.776 121.016 78.2568V77.7028H120.819V78.2568C120.819 78.6745 120.453 79.0139 120.002 79.0139C119.441 79.0139 118.987 79.4344 118.987 79.9536V80.5396H119.184V79.9536ZM99.9106 84.8266C99.9106 84.409 100.277 84.0696 100.728 84.0696C101.288 84.0696 101.743 83.649 101.743 83.1298V82.5758H101.545V83.1298C101.545 83.5475 101.179 83.8868 100.728 83.8868C100.167 83.8868 99.7134 84.3074 99.7134 84.8266V85.4126H99.9106V84.8266ZM104.62 71.4288C104.62 71.0111 104.987 70.6718 105.438 70.6718C105.998 70.6718 106.452 70.2483 106.452 69.732V69.178H106.255V69.732C106.255 70.1497 105.888 70.489 105.438 70.489C104.877 70.489 104.423 70.9096 104.423 71.4288V72.0147H104.62V71.4288ZM85.9572 75.4722V76.0262C85.9572 76.0553 85.9541 76.0872 85.9509 76.1162C86.0073 76.1887 86.0574 76.2525 86.1106 76.3163C86.142 76.2235 86.1576 76.1278 86.1576 76.0262V75.4722H85.9572ZM97.3273 59.9338C97.3273 59.5161 97.6936 59.1767 98.1445 59.1767C98.7051 59.1767 99.1591 58.7561 99.1591 58.2369V57.6829H98.9618V58.2369C98.9618 58.6546 98.5955 58.994 98.1445 58.994C97.584 58.994 97.13 59.4146 97.13 59.9338V60.5197H97.3273V59.9338ZM84.4385 69.5695C84.2788 69.5695 84.1347 69.5318 84.0126 69.4593C84.0095 69.5289 84.0095 69.5956 84.0063 69.6624C84.1379 69.7204 84.285 69.7523 84.4385 69.7523H85.0366V69.5695H84.4385ZM112.925 55.345V55.7163C112.925 56.134 112.558 56.4734 112.107 56.4734C111.55 56.4734 111.093 56.894 111.093 57.4161V58.002H111.29V57.4161C111.29 56.9984 111.66 56.659 112.107 56.659C112.668 56.659 113.125 56.2384 113.125 55.7163V55.6322C113.059 55.5365 112.994 55.4408 112.925 55.345Z" fill="white"/>
<path d="M98.9127 75.49C97.1278 75.4813 95.3304 75.5277 93.5643 75.7626C92.6844 75.8787 91.817 76.0324 90.9464 76.2064C90.5143 76.2935 90.079 76.3631 89.6438 76.4327C89.196 76.5052 88.7169 76.5661 88.2628 76.5342C88.2221 76.5313 88.2159 76.5864 88.2566 76.5922C88.6981 76.6473 89.1177 76.6995 89.5624 76.6995C89.9851 76.6995 90.411 76.6589 90.8306 76.6067C91.723 76.4965 92.6123 76.3457 93.5048 76.2267C95.3053 75.986 97.1027 75.7452 98.919 75.6263C99.0004 75.6234 98.9972 75.4929 98.9127 75.49Z" fill="#263238"/>
<path d="M103.115 77.3847C101.681 77.1005 100.209 76.8771 98.7468 76.7466C98.0109 76.6799 97.2782 76.6567 96.5391 76.648C96.1884 76.6451 95.8346 76.6451 95.4807 76.6538C95.0925 76.6596 94.7073 76.7147 94.319 76.7176C94.2783 76.7176 94.272 76.7756 94.3127 76.7756C94.6791 76.7843 95.0423 76.8481 95.4087 76.8771C95.7751 76.9061 96.1415 76.9322 96.5078 76.9612C97.2406 77.0192 97.9733 77.0831 98.7061 77.1324C100.175 77.2339 101.637 77.347 103.099 77.4978C103.181 77.5036 103.187 77.3992 103.115 77.3847Z" fill="#263238"/>
<path d="M102.443 47.8802C102.396 48.6344 99.9288 53.5103 96.3245 53.9308C95.1503 54.0672 93.6848 48.5938 93.6848 48.5938L93.4969 48.1761L90.8728 42.3111L97.7462 36.4606L98.7514 35.6716C98.7514 35.6716 99.3557 37.3192 100.085 39.3786C100.12 39.4743 100.154 39.57 100.189 39.6715C100.233 39.7876 100.276 39.8949 100.314 40.0051C100.427 40.3126 100.543 40.6258 100.649 40.9391C100.73 41.1769 100.812 41.409 100.89 41.6642C100.975 41.9166 101.05 42.1631 101.134 42.4155C101.895 44.9274 102.456 47.5611 102.443 47.8802Z" fill="#AD6359"/>
<path d="M100.082 39.3817C99.1081 44.5447 95.2941 47.2017 93.4966 48.1792L90.8726 42.3142L97.7459 36.4637L98.7511 35.6747C98.748 35.6747 99.3523 37.3223 100.082 39.3817Z" fill="#263238"/>
<path d="M79.6363 33.3367C79.7396 44.4779 86.9543 45.6787 89.5471 45.6555C91.9019 45.6352 99.9151 45.2871 101.055 34.1953C102.195 23.1034 96.5708 19.6285 91.1848 19.411C85.7957 19.1963 79.5329 22.1984 79.6363 33.3367Z" fill="#AD6359"/>
<path d="M81.8314 32.1664C82.11 32.1142 82.3574 32.0272 82.6267 31.9489C82.9305 31.8619 83.1841 31.8213 83.3939 31.5834C83.5067 31.4558 83.4753 31.2151 83.3532 31.1019C83.0651 30.838 82.6612 30.8583 82.2917 30.9482C81.8877 31.0468 81.6059 31.218 81.3585 31.5283C81.1205 31.8329 81.4619 32.2361 81.8314 32.1664Z" fill="#263238"/>
<path d="M90.4501 32.7676C90.1651 32.7589 89.9052 32.7038 89.6265 32.669C89.3102 32.6284 89.0566 32.6255 88.8061 32.4195C88.6746 32.3093 88.662 32.0657 88.7654 31.938C89.0065 31.6364 89.4073 31.5987 89.7893 31.6335C90.2027 31.6712 90.5127 31.7988 90.807 32.0715C91.0951 32.3325 90.8258 32.7792 90.4501 32.7676Z" fill="#263238"/>
<path d="M88.8054 34.5015C88.8085 34.4725 88.8711 34.5334 88.8711 34.5653C88.8899 35.3253 89.0496 36.1897 89.8043 36.4043C89.8262 36.4101 89.8262 36.4478 89.8012 36.4478C88.8899 36.3753 88.6895 35.2238 88.8054 34.5015Z" fill="#263238"/>
<path d="M89.4869 33.6722C90.7958 33.5127 91.0463 35.9492 89.8313 36.0971C88.6383 36.2451 88.3877 33.8057 89.4869 33.6722Z" fill="#263238"/>
<path d="M90.0156 33.7575C90.2598 33.8765 90.5103 34.0998 90.789 34.0998C91.1116 34.0998 91.3276 33.8242 91.5124 33.5603C91.5312 33.5342 91.5562 33.5516 91.5593 33.5835C91.6157 34.0505 91.4685 34.5465 90.9362 34.6625C90.4508 34.7698 90.0532 34.387 89.8809 33.9287C89.8496 33.8474 89.9185 33.7111 90.0156 33.7575Z" fill="#263238"/>
<path d="M83.9183 35.0338C83.9058 35.0048 83.862 35.0773 83.8682 35.1092C84.0185 35.8547 84.053 36.7336 83.3641 37.0874C83.3422 37.099 83.3516 37.1367 83.3766 37.128C84.2503 36.8815 84.1876 35.7183 83.9183 35.0338Z" fill="#263238"/>
<path d="M83.0669 34.3522C81.7486 34.445 82.0492 36.8786 83.2673 36.7916C84.4667 36.7075 84.1692 34.2739 83.0669 34.3522Z" fill="#263238"/>
<path d="M82.5643 34.5354C82.3514 34.6978 82.1572 34.9647 81.8848 35.0169C81.5685 35.0807 81.2961 34.8516 81.055 34.6282C81.0299 34.605 81.0111 34.6282 81.0143 34.6601C81.0644 35.1271 81.3149 35.5854 81.8629 35.597C82.3639 35.6086 82.6645 35.159 82.7334 34.6775C82.7459 34.5905 82.6488 34.4716 82.5643 34.5354Z" fill="#263238"/>
<path d="M89.7889 40.3539C89.648 40.5715 89.5227 40.8528 89.244 40.9456C88.9748 41.0327 88.6178 40.995 88.3391 40.966C88.3109 40.9631 88.2921 40.995 88.314 41.0124C88.599 41.2444 89.0812 41.3169 89.4319 41.169C89.7733 41.024 89.8703 40.6962 89.8735 40.3713C89.8766 40.3249 89.8108 40.322 89.7889 40.3539Z" fill="#263238"/>
<path d="M85.6466 38.1266C85.6466 38.1266 85.7186 39.2695 85.8314 39.7916C85.8407 39.8409 85.9848 39.838 86.1789 39.8148C86.1883 39.8148 86.1946 39.8177 86.2009 39.8119C87.2311 39.7713 88.1674 39.2666 88.612 38.3993C88.6402 38.3413 88.5557 38.3007 88.5118 38.3413C87.8761 38.9852 87.0776 39.2695 86.1946 39.4464C86.1226 39.3101 86.1414 37.4885 86.0474 37.4972C85.7312 37.5291 85.1644 37.8366 84.8199 38.0048C84.5945 35.6292 84.7792 33.2421 84.5162 30.881C84.5036 30.7969 84.3721 30.7969 84.3627 30.8752C83.9776 33.3668 84.1717 36.102 84.3377 38.5617C84.3596 38.8663 85.4399 38.2572 85.6466 38.1266Z" fill="#263238"/>
<path d="M86.3655 39.5502C86.3655 39.5502 87.0043 40.1303 87.7652 40.2637C88.047 40.313 88.3383 40.3072 88.6263 40.1883C89.2182 39.9475 89.143 39.4225 88.9551 38.9903C88.8017 38.6365 88.5637 38.3435 88.5637 38.3435C88.5637 38.3435 87.7934 39.2572 86.3655 39.5502Z" fill="#263238"/>
<path d="M87.7658 40.2643C88.0476 40.3136 88.3388 40.3078 88.6269 40.1889C89.2187 39.9482 89.1436 39.4232 88.9557 38.991C88.3043 39.1505 87.7219 39.661 87.7658 40.2643Z" fill="#1E4487"/>
<path d="M101.644 33.7901C99.6833 34.347 98.2867 30.5704 98.2867 30.5704C98.2867 30.5704 94.2379 31.4261 91.5918 26.3065C91.5918 26.3065 92.2901 28.801 94.4665 30.3964C94.4665 30.3964 87.1515 31.1824 82.7989 26.2688C82.7989 26.2688 84.684 28.8416 86.0524 29.6103C86.0524 29.6103 82.8678 29.4595 80.8606 27.5103C80.8606 27.5103 80.3846 30.9678 79.6362 32.0497C79.6362 32.0497 77.1217 20.4067 89.0022 19.2291C89.0022 19.2291 96.3609 18.1646 100.256 22.9418C104.152 27.7133 101.644 33.7901 101.644 33.7901Z" fill="#263238"/>
<path d="M99.1521 35.0653C99.1521 35.0653 101.41 31.3729 103.195 32.0864C104.98 32.8 103.53 37.992 101.61 38.8535C99.6907 39.715 98.7952 38.0848 98.7952 38.0848L99.1521 35.0653Z" fill="#AD6359"/>
<path d="M102.736 33.5657C102.767 33.5599 102.78 33.6006 102.752 33.6151C101.408 34.2619 100.798 35.5265 100.413 36.8144C100.779 36.2981 101.318 35.9877 102.057 36.3822C102.094 36.4025 102.066 36.4576 102.025 36.4547C101.443 36.3909 101.039 36.5214 100.697 36.9797C100.456 37.3046 100.306 37.702 100.146 38.0646C100.093 38.1864 99.8614 38.1429 99.8959 38.0066C99.899 37.9978 99.9021 37.9862 99.9053 37.9746C99.6954 36.33 100.842 33.8993 102.736 33.5657Z" fill="#263238"/>
<path d="M101.334 38.9862C101.413 39.314 101.19 39.6418 100.837 39.7143C100.483 39.7868 100.129 39.5808 100.051 39.2531C99.9723 38.9253 100.195 38.5975 100.548 38.525C100.902 38.4525 101.256 38.6585 101.334 38.9862Z" fill="white"/>
<path d="M102.116 54.3049C97.4844 61.7739 90.3198 75.1079 88.4911 76.3465C81.8682 80.8308 71.2152 89.55 69.2644 91.6819C66.753 94.4259 81.4079 105.471 83.2773 103.711C84.6144 102.446 99.5198 90.4724 103.409 83.2093C105.93 78.5016 108.363 65.5447 109.694 57.1243C111.046 48.5385 105.629 48.643 102.116 54.3049Z" fill="#AD6359"/>
<path d="M50.3469 108.312C51.9126 109.914 55.8456 106.001 55.8456 106.001C55.8456 106.001 55.4041 107.436 56.1368 108.698C56.976 110.143 59.7911 109.557 59.7911 109.557C59.7911 109.557 59.669 111.094 60.5896 112.356C61.5447 113.664 64.4757 113.446 64.4757 113.446C64.4757 113.446 65.2116 114.937 66.8493 115.5C69.6519 116.46 73.2623 113.876 75.5764 112.254C77.8905 110.633 82.8131 104.025 83.8871 102.856L72.7801 89.0148C72.7801 89.0148 60.1732 93.5513 57.7463 95.8167C55.7015 97.7224 47.9545 105.864 50.3469 108.312Z" fill="#AD6359"/>
<path d="M55.8367 105.926C57.487 103.414 59.7791 101.273 62.0181 99.231C62.0682 99.1846 62.1433 99.2571 62.0932 99.3035C59.8418 101.311 58.1164 103.927 55.9526 106.013C55.8962 106.071 55.7929 105.995 55.8367 105.926Z" fill="#263238"/>
<path d="M59.6948 109.344C60.0862 108.787 60.6749 108.349 61.2073 107.911C61.7803 107.439 62.3596 106.974 62.9483 106.522C64.1257 105.611 65.3282 104.727 66.5557 103.874C66.6089 103.836 66.6872 103.903 66.6308 103.946C65.4566 104.857 64.3011 105.782 63.1675 106.737C62.6007 107.215 62.0402 107.697 61.4828 108.181C60.963 108.634 60.4557 109.15 59.8389 109.486C59.7481 109.533 59.6353 109.428 59.6948 109.344Z" fill="#263238"/>
<path d="M64.5253 113.409C64.8447 112.911 65.4804 112.542 65.9595 112.185C66.5043 111.782 67.0492 111.373 67.5909 110.964C68.6744 110.143 69.7547 109.323 70.8069 108.47C70.8601 108.426 70.9352 108.499 70.882 108.542C69.8173 109.415 68.7683 110.303 67.6974 111.167C67.1713 111.591 66.6421 112.014 66.1098 112.432C65.6589 112.789 65.1359 113.282 64.566 113.462C64.5347 113.47 64.5096 113.433 64.5253 113.409Z" fill="#263238"/>
<path d="M69.7358 89.8598L87.1651 102.799C87.1651 102.799 100.245 89.2362 104.081 83.4234C105.681 80.9956 108.944 63.4905 110.106 57.6778C111.552 50.4234 106.802 45.5069 102.077 53.5154C98.7512 59.1513 88.8936 74.9479 88.3206 75.3684C87.7444 75.7832 69.7358 89.8598 69.7358 89.8598Z" fill="#F7AD19"/>
<path d="M106.967 62.7028H106.369C105.808 62.7028 105.354 62.2822 105.354 61.763C105.354 61.3453 104.988 61.0059 104.537 61.0059H103.904V60.8232H104.537C105.097 60.8232 105.551 61.2438 105.551 61.763C105.551 62.1807 105.918 62.52 106.369 62.52H106.967V62.7028ZM99.3418 77.3015H98.7437C98.2928 77.3015 97.9264 76.9621 97.9264 76.5444C97.9264 76.0252 97.4723 75.6046 96.9118 75.6046H96.2793V75.7873H96.9118C97.3627 75.7873 97.7291 76.1267 97.7291 76.5444C97.7291 77.0636 98.1832 77.4842 98.7437 77.4842H99.3418V77.3015ZM88.2034 88.8777H87.6054C87.1544 88.8777 86.7881 88.5383 86.7881 88.1206C86.7881 87.6014 86.334 87.1809 85.7735 87.1809H85.141V87.3636H85.7735C86.2244 87.3636 86.5908 87.703 86.5908 88.1206C86.5908 88.6399 87.0448 89.0604 87.6054 89.0604H88.2034V88.8777ZM84.784 100.048H84.1859C83.735 100.048 83.3686 99.7085 83.3686 99.2908C83.3686 98.7716 82.9145 98.351 82.354 98.351H81.7215V98.5338H82.354C82.8049 98.5338 83.1713 98.8731 83.1713 99.2908C83.1713 99.81 83.6254 100.231 84.1859 100.231H84.784V100.048ZM105.62 54.1315L105.197 53.74C104.878 53.4441 104.878 52.9655 105.197 52.6696C105.388 52.4927 105.495 52.2549 105.495 52.0054C105.495 51.756 105.388 51.5181 105.197 51.3412L104.75 50.9264L104.609 51.0569L105.057 51.4717C105.376 51.7676 105.376 52.2462 105.057 52.542C104.662 52.9075 104.662 53.505 105.057 53.8705L105.479 54.2621L105.62 54.1315ZM91.1156 73.7946C90.7962 73.4988 90.7962 73.0202 91.1156 72.7243C91.3067 72.5474 91.4131 72.3124 91.4131 72.0601C91.4131 71.8077 91.3067 71.5728 91.1156 71.393L91.0405 71.3233C91.0092 71.3784 90.9716 71.4336 90.9371 71.4887L90.9747 71.5235C91.291 71.8164 91.291 72.2979 90.9747 72.5938C90.577 72.9593 90.577 73.5539 90.9747 73.9223L91.3975 74.3138L91.5352 74.1862L91.1156 73.7946ZM90.6678 81.516C90.9872 81.2201 91.5039 81.2201 91.8233 81.516C92.0143 81.6929 92.2711 81.7916 92.5404 81.7916C92.8128 81.7916 93.0665 81.6929 93.2575 81.516L93.7053 81.1012L93.5644 80.9707L93.1166 81.3855C92.7972 81.6813 92.2805 81.6813 91.9611 81.3855C91.5666 81.02 90.9215 81.02 90.5269 81.3855L90.1042 81.7771L90.2451 81.9076L90.6678 81.516ZM96.9056 68.0341C97.225 67.7382 97.7416 67.7382 98.061 68.0341C98.4556 68.3995 99.1007 68.3995 99.4952 68.0341L99.943 67.6193L99.8021 67.4888L99.3543 67.9035C99.0349 68.1965 98.5182 68.1994 98.1988 67.9035C97.8043 67.5381 97.1592 67.5381 96.7646 67.9035L96.3419 68.2951L96.4828 68.4256L96.9056 68.0341ZM95.0079 89.8494C95.3148 89.5622 95.8534 89.5622 96.1634 89.8494C96.3544 90.0263 96.6112 90.125 96.8805 90.125C97.1529 90.125 97.4066 90.0263 97.5976 89.8494L98.0454 89.4346L97.9045 89.3041L97.4567 89.7189C97.1373 90.0147 96.6206 90.0147 96.3012 89.7189C96.1102 89.5419 95.8534 89.4433 95.5841 89.4433C95.3117 89.4433 95.058 89.5419 94.867 89.7189L94.4412 90.1105L94.5821 90.241L95.0079 89.8494ZM99.9086 84.8285C99.9086 84.4108 100.275 84.0714 100.726 84.0714C101.286 84.0714 101.74 83.6508 101.74 83.1316V82.5776H101.543V83.1316C101.543 83.5493 101.177 83.8887 100.726 83.8887C100.165 83.8887 99.7113 84.3093 99.7113 84.8285V85.4144H99.9086V84.8285ZM88.8548 96.4685C88.8548 96.0509 89.2211 95.7115 89.6721 95.7115C90.2326 95.7115 90.6866 95.2909 90.6866 94.7717V94.2177H90.4894V94.7717C90.4894 95.1894 90.123 95.5288 89.6721 95.5288C89.1115 95.5288 88.6575 95.9493 88.6575 96.4685V97.0545H88.8548V96.4685ZM104.618 71.4307C104.618 71.013 104.985 70.6736 105.435 70.6736C105.996 70.6736 106.45 70.2501 106.45 69.7338V69.1798H106.253V69.7338C106.253 70.1515 105.886 70.4909 105.435 70.4909C104.875 70.4909 104.421 70.9115 104.421 71.4307V72.0166H104.618V71.4307ZM98.7625 58.9842C98.9691 58.8334 99.1101 58.6159 99.1476 58.3606C99.0224 58.5665 98.8909 58.7754 98.7625 58.9842ZM78.0985 84.7531C77.6507 84.7531 77.2812 84.4108 77.2812 83.996C77.2812 83.9873 77.2812 83.9757 77.278 83.967C77.2154 84.0105 77.1559 84.0598 77.0933 84.1091C77.1528 84.5732 77.5818 84.9358 78.0985 84.9358H78.6997V84.7531H78.0985ZM78.039 93.1909C78.3584 92.895 78.8751 92.895 79.1945 93.1909C79.3855 93.3678 79.6422 93.4664 79.9115 93.4664C80.184 93.4664 80.4376 93.3678 80.6286 93.1909L81.0764 92.7761L80.9355 92.6456L80.4877 93.0604C80.1683 93.3562 79.6516 93.3562 79.3322 93.0604C78.9377 92.6949 78.2926 92.6949 77.8981 93.0604L77.4753 93.4519L77.6162 93.5825L78.039 93.1909ZM72.6781 88.0133V88.5702C72.6781 88.985 72.3085 89.3273 71.8608 89.3273C71.3034 89.3273 70.8462 89.7479 70.8462 90.2671V90.6848L71.0435 90.8327V90.2671C71.0435 89.8523 71.413 89.51 71.8608 89.51C72.4181 89.51 72.8753 89.0895 72.8753 88.5702V88.0133H72.6781Z" fill="white"/>
<path d="M96.7969 92.355C99.0828 89.5124 101.491 86.7336 103.558 83.7518C104.675 81.9273 105.098 79.7954 105.681 77.7708C106.946 72.9674 108.408 65.9973 109.513 61.0924C108.74 66.7457 107.71 72.3612 106.288 77.91C105.753 79.8099 105.277 81.7707 104.325 83.5488C102.177 86.7278 99.4429 89.5327 96.7969 92.355Z" fill="#263238"/>
<path d="M108.591 65.9332C109.045 64.7904 109.668 63.7085 109.984 62.5222C109.881 63.7462 109.236 64.8832 108.591 65.9332Z" fill="#263238"/>
<path d="M75.8094 87.2949C82.4604 91.6458 88.7451 97.1569 89.9131 98.0445C89.9695 98.0851 89.8912 98.1634 89.8379 98.1199C88.7388 97.1946 80.829 91.6197 75.7248 87.379C75.6653 87.3297 75.7467 87.2543 75.8094 87.2949Z" fill="#263238"/>
<path d="M86.7549 76.5733C87.4845 75.9642 88.3926 75.4943 88.7089 74.5864C89.1504 73.7684 89.6044 72.9534 90.0648 72.1441C92.8548 67.303 95.7733 62.5228 99.0143 57.9254C95.9768 63.6744 92.5573 69.2609 88.856 74.6647C88.7997 74.7459 88.4051 75.3144 88.3425 75.387C87.8446 75.8104 87.2872 76.1846 86.7549 76.5733Z" fill="#263238"/>
<path d="M97.9813 58.5554C97.6243 59.6054 97.117 60.6119 96.9416 61.7054C96.9009 60.5945 97.4333 59.5213 97.9813 58.5554Z" fill="#263238"/>
<path d="M75.8165 20.5301C76.734 19.2364 77.2506 17.7804 77.2506 16.2401C77.2506 10.8044 70.8062 6.39844 62.8619 6.39844C54.9176 6.39844 48.4795 10.8044 48.4795 16.2401C48.4795 21.6758 54.9176 26.0818 62.8619 26.0818C66.7135 26.0818 70.205 25.0492 72.7853 23.3582L77.7423 24.5242L75.8165 20.5301Z" fill="#FFFEFD"/>
<path d="M75.8162 20.531C78.6532 16.5224 76.9122 11.8756 72.8664 9.26801C67.7873 5.97584 60.726 5.66257 55.1616 8.06426C52.4122 9.27091 49.9071 11.3303 48.9959 14.0801C48.0189 16.8298 49.0961 19.8784 51.2724 21.8856C56.7868 26.9326 66.4346 27.2662 72.7474 23.3069L72.7756 23.2895C72.8007 23.2953 77.7232 24.4903 77.7545 24.499L77.7138 24.5425L75.8162 20.531ZM75.8162 20.531L77.7733 24.5135L77.8015 24.5744L77.7326 24.5599L72.7662 23.4258C70.521 25.024 67.0608 25.9841 64.039 26.1407C59.3952 26.3989 54.4194 25.1835 51.0751 22.0596C47.3864 18.6369 47.4365 13.6798 51.1816 10.3093C56.8181 5.3029 66.6819 5.02154 72.9666 9.14038C77.0437 11.7799 78.7315 16.5369 75.8162 20.531Z" fill="#263238"/>
<path d="M57.6876 16.2371C57.6876 17 57.0206 17.6178 56.1971 17.6178C55.3735 17.6178 54.7065 17 54.7065 16.2371C54.7065 15.4743 55.3735 14.8564 56.1971 14.8564C57.0175 14.8564 57.6876 15.4743 57.6876 16.2371Z" fill="#263238"/>
<path d="M64.3544 16.2371C64.3544 17 63.6874 17.6178 62.8638 17.6178C62.0403 17.6178 61.3733 17 61.3733 16.2371C61.3733 15.4743 62.0403 14.8564 62.8638 14.8564C63.6842 14.8564 64.3544 15.4743 64.3544 16.2371Z" fill="#263238"/>
<path d="M71.0216 16.2371C71.0216 17 70.3546 17.6178 69.5311 17.6178C68.7075 17.6178 68.0405 17 68.0405 16.2371C68.0405 15.4743 68.7075 14.8564 69.5311 14.8564C70.3546 14.8564 71.0216 15.4743 71.0216 16.2371Z" fill="#263238"/>
<path d="M130.695 117.031C88.8279 117.208 41.8666 117.21 0 117.031C41.8666 116.851 88.8279 116.854 130.695 117.031Z" fill="#263238"/>
<path d="M30.2838 84.7494C31.7368 94.1705 35.3128 106.237 38.6822 108.877C41.4003 111.006 56.2587 115.542 57.0979 115.693C59.174 116.053 64.5506 102.675 62.4306 101.95C59.7595 101.036 46.7988 99.6498 46.1224 98.8869C45.4209 98.0921 41.2312 91.7921 36.4996 84.5C33.2367 79.4646 29.382 78.9018 30.2838 84.7494Z" fill="#F7A9A0"/>
<path d="M55.4849 114.807C55.7229 114.944 59.1142 116.87 61.2498 117.627C62.8436 118.192 67.4781 119.707 68.3235 118.143C68.9029 117.079 66.2913 115.889 64.4626 115.01C63.5012 114.549 62.3583 113.485 62.7058 112.913C63.3133 111.916 65.7871 113.157 67.3935 114.198C70.4999 116.211 74.5613 119.712 76.6969 118.335C77.5016 117.812 76.7219 116.69 75.5351 115.553C77.5048 116.922 79.631 118.085 80.5516 117.537C81.0808 117.227 81.1466 116.748 80.9211 116.179C81.5442 116.423 82.1173 116.429 82.5463 116.072C83.2822 115.469 83.041 114.477 82.3897 113.43C82.6277 113.424 82.8532 113.331 83.0379 113.105C84.6506 111.196 78.0183 104.838 75.5915 104.101C68.4519 101.929 60.6485 101.911 60.6485 101.911C57.5954 103.808 55.4786 114.805 55.4849 114.807Z" fill="#F7A9A0"/>
<path d="M66.7597 109.429C68.4537 109.812 70.0883 110.537 71.463 111.541C73.2072 112.814 74.3126 114.23 75.7405 115.683C75.7781 115.721 75.7154 115.776 75.6778 115.738C74.9983 115.048 72.1519 112.431 71.4129 111.828C70.0539 110.726 68.5007 109.902 66.7534 109.455C66.7315 109.453 66.7409 109.426 66.7597 109.429Z" fill="#263238"/>
<path d="M68.3766 106.674C70.246 107.309 72.1655 107.95 73.8659 108.928C75.7259 109.998 77.1131 111.614 78.4784 113.168C79.2988 114.102 80.0973 115.054 80.8708 116.022C80.9021 116.063 80.8426 116.118 80.8082 116.078C79.4241 114.471 77.9899 112.901 76.5025 111.376C75.1028 109.94 73.5026 108.803 71.6207 107.965C70.5591 107.492 69.4632 107.097 68.3672 106.703C68.3484 106.697 68.3578 106.665 68.3766 106.674Z" fill="#263238"/>
<path d="M70.6483 104.328C72.477 104.827 74.0709 105.257 75.6366 106.307C77.7064 107.699 79.626 109.924 80.2961 110.71C81.0382 111.58 81.7491 112.473 82.4442 113.375C82.4724 113.413 82.4035 113.46 82.3753 113.422C80.7783 111.444 79.0341 109.544 77.1741 107.774C76.2848 106.927 75.3015 106.173 74.1742 105.616C73.0595 105.065 71.8414 104.706 70.6452 104.34C70.6358 104.337 70.642 104.328 70.6483 104.328Z" fill="#263238"/>
<path opacity="0.1" d="M56.4592 115.524C53.4343 114.668 41.128 110.793 38.6792 108.876C35.3099 106.236 31.7338 94.1728 30.2809 84.7488C29.7204 81.1115 31.0011 79.9541 32.8361 80.8127L56.4592 115.524Z" fill="black"/>
<path d="M33.215 100.717L44.4817 94.8721C44.4817 94.8721 40.0946 87.6525 35.598 82.211C31.1013 76.7724 29.3039 79.8992 29.949 85.799C30.594 91.7017 33.215 100.717 33.215 100.717Z" fill="#F7AD19"/>
<path d="M42.7667 93.4118C39.5539 94.9114 36.3693 96.5096 33.3412 98.3138C33.2974 98.3399 33.3412 98.4095 33.3913 98.3892C36.6292 96.936 39.7637 95.2508 42.8199 93.4959C42.87 93.464 42.8168 93.3857 42.7667 93.4118Z" fill="#263238"/>
<path opacity="0.1" d="M42.4912 95.9045L33.216 100.717C33.216 100.717 30.595 91.7016 29.95 85.8018C29.5398 82.0687 30.1097 79.4466 31.7223 79.4031L42.4912 95.9045Z" fill="black"/>
<path d="M1.52111 117.069H44.158C44.6935 116.698 39.7553 89.9367 33.4769 80.6984C32.3026 78.9696 26.6724 76.3301 22.2697 79.4598C8.9738 88.9041 1.02322 116.477 1.52111 117.069Z" fill="#F7AD19"/>
<path d="M21.0553 80.56C10.9284 91.2023 -1.92281 111.025 0.29734 114.949C3.11245 119.921 22.5709 119.002 27.1114 118.024C29.0466 117.606 22.3517 102.059 20.2724 102.465C18.4594 102.819 16.8937 103.173 16.831 102.941C16.7653 102.7 22.1794 95.2979 25.4768 84.6296C27.7251 77.352 23.2034 78.3034 21.0553 80.56Z" fill="#F7A9A0"/>
<path d="M8.12236 107.828C9.3436 106.363 13.0355 103.7 16.8276 103.001C16.9122 102.987 16.9717 103.036 16.8965 103.068C12.8977 104.66 9.51896 106.85 8.14741 107.857C8.13176 107.871 8.10984 107.845 8.12236 107.828Z" fill="#263238"/>
<path d="M34.5183 95.0893C34.5183 95.0893 32.1009 92.4962 34.1425 91.1126C36.1842 89.729 38.1194 92.6499 38.1194 92.6499L34.5183 95.0893Z" fill="#455A64"/>
<path d="M53.3907 111.988L53.9293 115.306L54.114 116.4L53.0369 115.915L49.7865 114.433H49.7833V114.427L34.4302 94.9818L38.0344 92.5424L53.3907 111.988Z" fill="#455A64"/>
<path d="M53.9322 115.306L54.1138 116.4L53.0366 115.912L53.9322 115.306Z" fill="#37474F"/>
<path d="M38.2465 92.2274L34.041 95.0765L34.651 95.8491L38.8565 93L38.2465 92.2274Z" fill="#37474F"/>
<path d="M38.9296 93.0824L34.7241 95.932L35.3342 96.7046L39.5397 93.855L38.9296 93.0824Z" fill="#37474F"/>
<path d="M35.3315 96.7079L36.6874 95.7885L41.4972 103.333L40.9743 103.643L35.3315 96.7079Z" fill="#37474F"/>
<path d="M47.7388 103.351C47.695 105.315 42.4812 104.805 42.4812 104.805C42.4812 104.805 43.7087 105.544 44.0156 106.815C44.3694 108.271 42.0616 109.422 42.0616 109.422C42.0616 109.422 43.1357 110.409 43.3173 111.783C43.5052 113.208 41.3539 114.678 41.3539 114.678C41.3539 114.678 41.808 116.108 41.047 117.396C39.7444 119.603 35.6047 119.824 32.9743 119.989C30.344 120.155 22.7159 118.345 21.2254 118.133L19.9321 102.504C19.9321 102.504 31.4995 98.6525 34.6214 98.8642C37.2487 99.0469 47.8046 100.352 47.7388 103.351Z" fill="#F7A9A0"/>
<path d="M42.4409 104.75C39.6947 103.938 36.7418 103.738 33.8923 103.573C33.8296 103.57 33.8234 103.663 33.886 103.666C36.723 103.799 39.5914 104.637 42.4159 104.875C42.491 104.881 42.513 104.771 42.4409 104.75Z" fill="#263238"/>
<path d="M41.9914 109.222C41.3651 109.056 40.6794 109.082 40.0312 109.074C39.336 109.065 38.6377 109.068 37.9425 109.082C36.5491 109.108 35.1556 109.164 33.7621 109.259C33.6995 109.262 33.6932 109.352 33.7559 109.352C35.1462 109.329 36.5365 109.323 37.9269 109.352C38.622 109.367 39.3172 109.387 40.0124 109.413C40.6606 109.436 41.3401 109.512 41.9789 109.399C42.076 109.381 42.0854 109.248 41.9914 109.222Z" fill="#263238"/>
<path d="M41.2968 114.677C40.7582 114.511 40.085 114.61 39.5245 114.63C38.8888 114.653 38.2531 114.677 37.6175 114.694C36.3461 114.729 35.0779 114.764 33.8066 114.758C33.7439 114.758 33.7377 114.848 33.8003 114.851C35.0904 114.862 36.3837 114.891 37.6738 114.891C38.3095 114.891 38.942 114.888 39.5777 114.882C40.1163 114.877 40.7927 114.929 41.3 114.735C41.3281 114.726 41.3219 114.685 41.2968 114.677Z" fill="#263238"/>
<path d="M9.09619 93.6853L21.1645 97.9405C21.1645 97.9405 24.3304 90.1901 25.9493 83.5072C27.5682 76.8213 23.8231 77.5523 19.3515 81.7958C14.8799 86.0394 9.09619 93.6853 9.09619 93.6853Z" fill="#F7AD19"/>
<path d="M24.9023 89.2844C24.9148 89.2554 24.871 89.2351 24.8553 89.2641C24.6455 89.6267 24.4389 89.9922 24.2291 90.3576C24.4483 89.618 24.6487 88.8725 24.8334 88.1213C24.8397 88.0981 24.799 88.0836 24.7896 88.1068C24.179 89.7224 23.5746 91.338 22.989 92.9624C22.4066 94.5867 21.7396 96.1878 21.1728 97.818C20.8252 97.7541 20.6374 97.7019 20.3775 97.6613C20.318 97.6526 20.2804 97.7135 20.3336 97.7396C20.6593 97.8934 21.3043 98.1283 21.3231 98.0877C22.0872 96.5301 22.7072 94.781 23.3022 93.1625C23.5965 92.3649 23.8627 91.5614 24.1069 90.755C24.4044 90.2735 24.6768 89.792 24.9023 89.2844Z" fill="#263238"/>
<path d="M21.2745 95.7839C17.9709 94.4642 14.6047 93.2256 11.1696 92.2307C11.1195 92.2162 11.0913 92.2916 11.1383 92.3119C14.4199 93.681 17.8269 94.8267 21.2401 95.871C21.2965 95.8942 21.3278 95.8071 21.2745 95.7839Z" fill="#263238"/>
<path d="M91.5941 117.712H43.9595V118.796H91.5941V117.712Z" fill="#F7AD19"/>
<path d="M64.602 117.713V116.094L46.941 116.413L44.6206 117.713H64.602Z" fill="#EBEBEB"/>
<path d="M64.5994 117.711V116.095C64.5994 116.095 70.3423 116.188 71.3569 116.095C72.3715 116.002 77.5633 115.556 78.4025 115.599C79.2448 115.64 80.8826 116.556 80.8826 116.556V117.711H64.5994Z" fill="#DBDBDB"/>
<path d="M91.1242 117.711L90.7077 116.792C90.7077 116.792 88.1838 116.841 87.8206 116.792C87.4573 116.743 84.0347 115.829 83.2926 115.954C82.5505 116.078 80.8877 116.557 80.8877 116.557V117.711H91.1242Z" fill="#DBDBDB"/>
<path d="M25.3213 79.6092C25.3558 80.2531 27.7544 84.8041 30.8294 85.1841C31.8315 85.3059 32.7991 80.2676 32.7991 80.2676L32.9619 79.9108L35.2415 74.916L28.556 69.199C28.556 69.2019 25.3088 79.3365 25.3213 79.6092Z" fill="#F7A9A0"/>
<path d="M35.2408 74.9189L32.9611 79.9108L32.7983 80.2705C32.7983 80.2705 32.6229 81.1813 32.3442 82.2197C28.2985 80.9493 26.9614 77.7354 26.5261 75.5977C27.4436 72.6652 28.5584 69.199 28.5584 69.199L35.2408 74.9189Z" fill="#263238"/>
<path d="M45.0958 66.7923C44.3004 78.3888 36.71 79.259 34.0107 79.0966C31.5588 78.9486 23.2356 78.1626 22.7346 66.5486C22.2336 54.9376 28.3053 51.6135 33.9293 51.6744C39.5533 51.7353 45.8912 55.1928 45.0958 66.7923Z" fill="#F7A9A0"/>
<path d="M41.9926 68.6491C43.3767 68.7883 42.9727 71.3408 41.692 71.2132C40.4332 71.0856 40.834 68.5331 41.9926 68.6491Z" fill="#263238"/>
<path d="M35.5982 68.0487C34.2204 67.8602 33.9166 70.4243 35.1911 70.5983C36.4468 70.7695 36.7537 68.2054 35.5982 68.0487Z" fill="#263238"/>
<path d="M43.1348 67.153C42.8467 67.0863 42.5962 66.9789 42.3175 66.8832C42.0043 66.7759 41.7444 66.7208 41.5409 66.4626C41.4313 66.3234 41.4783 66.0739 41.6129 65.9637C41.9292 65.7056 42.3488 65.7462 42.7277 65.8593C43.141 65.984 43.426 66.1755 43.664 66.5119C43.8925 66.8397 43.5136 67.2429 43.1348 67.153Z" fill="#263238"/>
<path d="M34.6327 66.4743C34.9301 66.4801 35.2026 66.4366 35.4969 66.4134C35.8288 66.3873 36.095 66.3989 36.3643 66.1959C36.5084 66.0885 36.5365 65.8362 36.4363 65.697C36.2046 65.3692 35.7913 65.3083 35.3905 65.3257C34.9552 65.3431 34.6264 65.4591 34.3039 65.7289C33.9876 65.987 34.2412 66.4685 34.6327 66.4743Z" fill="#263238"/>
<path d="M34.9164 75.0462C35.0792 75.2637 35.2264 75.5509 35.5239 75.6321C35.812 75.7075 36.1783 75.6495 36.4664 75.6002C36.4946 75.5944 36.5165 75.6263 36.4946 75.6466C36.2128 75.9047 35.7149 76.0091 35.3423 75.8728C34.9759 75.7423 34.8538 75.4029 34.8287 75.0665C34.8256 75.02 34.8945 75.0143 34.9164 75.0462Z" fill="#263238"/>
<path d="M38.8795 72.6645C38.8795 72.6645 38.8795 73.8566 38.7981 74.4106C38.7887 74.4629 38.6415 74.4687 38.438 74.4541C38.4286 74.4571 38.4223 74.4599 38.4161 74.4512C37.342 74.4686 36.3306 73.9959 35.8108 73.1199C35.7763 73.0619 35.8609 73.0126 35.911 73.0561C36.6155 73.6913 37.4641 73.9407 38.3973 74.0742C38.463 73.9262 38.3284 72.009 38.4192 72.0351C38.8075 72.1482 39.4807 72.4005 39.7312 72.4933C39.75 71.7189 39.6874 69.5144 39.725 68.1048C39.7281 68.0177 39.8753 68.0061 39.8847 68.0903C40.1602 70.2483 40.2698 71.3737 40.273 73.0445C40.2667 73.1721 39.105 72.7892 38.8795 72.6645Z" fill="#263238"/>
<g opacity="0.2">
<path d="M30.451 69.6834C30.4072 69.7791 30.2882 69.8226 30.1849 69.782C30.0815 69.7414 30.0346 69.6312 30.0784 69.5354C30.1222 69.4397 30.2412 69.3962 30.3446 69.4368C30.4479 69.4803 30.4949 69.5905 30.451 69.6834Z" fill="black"/>
<path d="M34.4208 71.0603C34.3769 71.156 34.2579 71.1995 34.1546 71.1589C34.0513 71.1183 34.0043 71.0081 34.0481 70.9124C34.092 70.8167 34.211 70.7732 34.3143 70.8138C34.4176 70.8573 34.4646 70.9646 34.4208 71.0603Z" fill="black"/>
<path d="M32.4628 71.781C32.4189 71.8767 32.2999 71.9203 32.1966 71.8796C32.0933 71.839 32.0463 71.7288 32.0901 71.6331C32.134 71.5374 32.253 71.4939 32.3563 71.5345C32.4596 71.578 32.5066 71.6882 32.4628 71.781Z" fill="black"/>
<path d="M31.2167 68.3035C31.1728 68.3992 31.0538 68.4427 30.9505 68.4021C30.8472 68.3615 30.8002 68.2513 30.844 68.1556C30.8879 68.0598 31.0069 68.0163 31.1102 68.0569C31.2135 68.1004 31.2605 68.2078 31.2167 68.3035Z" fill="black"/>
<path d="M32.6019 70.0027C32.5581 70.0984 32.4391 70.1419 32.3358 70.1013C32.2324 70.0607 32.1854 69.9505 32.2293 69.8548C32.2731 69.7591 32.3921 69.7155 32.4955 69.7562C32.5988 69.7968 32.6458 69.907 32.6019 70.0027Z" fill="black"/>
<path d="M43.3236 71.3181C43.2798 71.4138 43.1608 71.4574 43.0574 71.4168C42.9541 71.3761 42.9071 71.2659 42.951 71.1702C42.9948 71.0745 43.1138 71.031 43.2171 71.0716C43.3205 71.1122 43.3674 71.2224 43.3236 71.3181Z" fill="black"/>
<path d="M41.4232 71.7166C41.3794 71.8123 41.2604 71.8558 41.157 71.8152C41.0537 71.7746 41.0067 71.6644 41.0506 71.5686C41.0944 71.4729 41.2134 71.4294 41.3167 71.47C41.4201 71.5135 41.467 71.6238 41.4232 71.7166Z" fill="black"/>
<path d="M41.265 72.9998C41.2212 73.0955 41.1022 73.139 40.9988 73.0984C40.8955 73.0578 40.8485 72.9476 40.8924 72.8518C40.9362 72.7561 41.0552 72.7126 41.1585 72.7532C41.2619 72.7938 41.3088 72.9041 41.265 72.9998Z" fill="black"/>
<path d="M42.8968 72.7127C42.853 72.8084 42.734 72.8519 42.6307 72.8113C42.5273 72.7707 42.4804 72.6605 42.5242 72.5647C42.568 72.469 42.687 72.4255 42.7904 72.4661C42.8906 72.5096 42.9407 72.6198 42.8968 72.7127Z" fill="black"/>
</g>
<path d="M23.2127 67.6458C25.6051 67.9387 27.2522 62.5349 27.2522 62.5349C27.2522 62.5349 30.4243 62.2623 32.7885 57.572C32.7885 57.572 33.3239 62.9178 43.2285 64.2666C43.2285 64.2666 44.4059 62.3116 43.8923 59.4632C43.8923 59.4632 44.5311 61.4878 44.9006 64.8612C44.9006 64.8612 49.3691 58.0535 43.3318 53.7316C40.9301 52.0116 36.7528 51.182 29.6539 52.4641C29.6539 52.4641 29.4755 48.6904 28.6237 48.9631C27.7688 49.2357 28.201 52.8296 28.201 52.8296C28.201 52.8296 25.6865 51.3474 25.0665 51.7621C24.5341 52.1189 26.9923 53.4329 26.9923 53.4329C26.9923 53.4329 22.4236 53.6127 21.8004 58.2798C21.2274 62.561 22.029 67.5007 23.2127 67.6458Z" fill="#263238"/>
<path d="M27.7699 53.5617C25.3117 52.8539 22.5843 53.9648 21.5509 56.1635C20.9779 57.3846 20.9153 58.8407 20.9998 60.1489C21.0906 61.5847 21.4914 62.9248 21.9643 64.2851C21.9893 64.3606 22.1146 64.3083 22.0864 64.2358C21.6386 63.0176 21.4821 61.692 21.4601 60.407C21.4382 59.2004 21.4914 57.8806 21.8923 56.7233C22.6876 54.426 25.2303 53.1759 27.7386 53.6922C27.8168 53.7096 27.8482 53.5849 27.7699 53.5617Z" fill="#263238"/>
<path d="M38.2173 51.1174C36.5013 51.0246 34.729 51.2102 33.0505 51.5322C31.441 51.8397 29.8346 52.266 28.4192 53.0579C28.3472 53.0985 28.391 53.2 28.4724 53.171C31.3784 52.1036 34.6319 51.7613 37.7445 51.7265C40.6567 51.6946 43.8538 52.5068 45.313 55.0622C45.3381 55.1028 45.407 55.0767 45.385 55.0332C44.1763 52.4314 41.0951 51.274 38.2173 51.1174Z" fill="#263238"/>
<path d="M32.7841 72.5964C30.8928 72.1439 29.493 70.5428 29.4993 68.6516C29.5087 66.4123 31.4815 64.5995 33.8958 64.6082C36.3132 64.6169 38.2703 66.4443 38.2609 68.6806C38.2515 70.917 36.2787 72.7327 33.8644 72.724C33.4918 72.724 33.1286 72.6776 32.7841 72.5964ZM34.832 65.2608C34.5314 65.1883 34.2183 65.1506 33.8958 65.1506C31.804 65.1419 30.0943 66.714 30.0849 68.6545C30.0786 70.5921 31.7758 72.1787 33.8676 72.1845C35.9593 72.1903 37.6691 70.6211 37.6785 68.6806C37.6816 67.0389 36.4697 65.6553 34.832 65.2608Z" fill="#455A64"/>
<path d="M42.3839 73.7219C40.7619 73.3332 39.7191 71.4391 40.0291 69.342C40.1857 68.2833 40.6585 67.3261 41.3631 66.6474C42.0896 65.9454 42.9757 65.6206 43.8557 65.7308C44.7418 65.841 45.4965 66.3776 45.9913 67.2333C46.4704 68.0628 46.6489 69.1013 46.4923 70.16C46.1635 72.376 44.4475 73.9975 42.6657 73.7712C42.5718 73.7625 42.4779 73.7451 42.3839 73.7219ZM43.9934 66.3109C43.9214 66.2935 43.8494 66.279 43.7742 66.2703C43.0853 66.1833 42.3777 66.4501 41.7827 67.0244C41.1658 67.622 40.7462 68.4718 40.6084 69.4174C40.3266 71.3376 41.2785 73.0519 42.744 73.2375C44.2064 73.4231 45.6249 72.0106 45.9099 70.0904C46.0508 69.1448 45.8942 68.2224 45.4715 67.4914C45.1114 66.8649 44.5915 66.453 43.9934 66.3109Z" fill="#455A64"/>
<path d="M38.0902 69.1329L37.8271 68.7442C38.4472 68.3816 39.8156 67.9639 40.5765 68.9646L40.1726 69.2286C39.493 68.3323 38.1465 69.101 38.0902 69.1329Z" fill="#455A64"/>
<path d="M20.298 67.77L19.894 67.506C20.0256 67.332 21.2217 65.8005 22.3397 65.7744C23.3824 65.7541 29.8581 67.1551 30.1337 67.2131L30.0209 67.6598C28.164 67.2566 23.1601 66.2124 22.3522 66.2327C21.6132 66.2501 20.6174 67.3494 20.298 67.77Z" fill="#455A64"/>
<path d="M25.0394 67.7575C25.0394 67.7575 22.9164 63.7924 21.0156 64.4393C19.1117 65.0861 20.2985 70.5711 22.2462 71.5718C24.194 72.5725 25.2273 70.9221 25.2273 70.9221L25.0394 67.7575Z" fill="#F7A9A0"/>
<path d="M21.3978 66.0038C21.3664 65.9951 21.3508 66.0386 21.379 66.0531C22.738 66.7986 23.2954 68.1474 23.6179 69.5106C23.2672 68.9537 22.7286 68.5999 21.9332 68.974C21.8925 68.9943 21.9176 69.0523 21.9614 69.0523C22.572 69.0175 22.9854 69.1742 23.3142 69.6673C23.5459 70.0182 23.6774 70.4388 23.8214 70.8275C23.8684 70.958 24.1127 70.9261 24.0876 70.7811C24.0845 70.7695 24.0814 70.7579 24.0814 70.7492C24.3914 69.0436 23.3486 66.4534 21.3978 66.0038Z" fill="#263238"/>
<path d="M132 113.346H98.3877V117.03H132V113.346Z" fill="#C7C7C7"/>
<path d="M106.353 113.346H104.982V117.03H106.353V113.346Z" fill="#DBDBDB"/>
<path d="M128.047 113.346H124.762V117.03H128.047V113.346Z" fill="#DBDBDB"/>
<path d="M112.699 114.325L111.898 115.293C111.879 115.32 111.851 115.328 111.825 115.328H111.819C111.788 115.328 111.763 115.32 111.744 115.293L110.942 114.328V116.117C110.942 116.158 110.902 116.193 110.858 116.193C110.808 116.193 110.767 116.158 110.767 116.117V114.098C110.767 114.072 110.783 114.052 110.802 114.04C110.802 114.038 110.805 114.038 110.808 114.035C110.848 114.014 110.902 114.02 110.93 114.055L111.822 115.128L112.712 114.055C112.737 114.02 112.793 114.014 112.834 114.035C112.843 114.043 112.853 114.049 112.859 114.061C112.865 114.072 112.875 114.09 112.875 114.101V116.12C112.875 116.161 112.834 116.196 112.79 116.196C112.74 116.196 112.705 116.161 112.705 116.12V114.325H112.699Z" fill="white"/>
<path d="M114.927 115.63H113.784L113.561 116.143C113.546 116.175 113.514 116.193 113.48 116.193C113.474 116.193 113.458 116.19 113.448 116.19C113.405 116.175 113.38 116.126 113.398 116.091L114.269 114.069C114.285 114.04 114.319 114.023 114.353 114.023C114.394 114.023 114.429 114.04 114.438 114.069L115.309 116.091C115.327 116.129 115.305 116.175 115.262 116.19C115.246 116.19 115.24 116.193 115.23 116.193C115.199 116.193 115.161 116.175 115.149 116.143L114.927 115.63ZM113.846 115.476H114.861L114.357 114.304L113.846 115.476Z" fill="white"/>
<path d="M116.158 114.165H115.4C115.353 114.165 115.315 114.13 115.315 114.087C115.315 114.046 115.356 114.011 115.4 114.011H117.084C117.131 114.011 117.169 114.046 117.169 114.087C117.169 114.13 117.128 114.165 117.084 114.165H116.327V116.117C116.327 116.158 116.286 116.192 116.242 116.192C116.195 116.192 116.158 116.158 116.158 116.117V114.165Z" fill="white"/>
<path d="M119.298 115.177H118.008V116.117C118.008 116.158 117.967 116.192 117.917 116.192C117.87 116.192 117.833 116.158 117.833 116.117V114.087C117.833 114.046 117.873 114.011 117.917 114.011C117.967 114.011 118.008 114.046 118.008 114.087V115.026H119.298V114.087C119.298 114.046 119.339 114.011 119.383 114.011C119.433 114.011 119.474 114.046 119.474 114.087V116.117C119.474 116.158 119.433 116.192 119.383 116.192C119.336 116.192 119.298 116.158 119.298 116.117V115.177Z" fill="white"/>
<path d="M131.155 98.387H97.543V103.135H131.155V98.387Z" fill="#F7AD19"/>
<path d="M113.804 101.504C113.832 101.472 113.882 101.469 113.913 101.495C114.101 101.626 114.411 101.779 114.737 101.776C114.956 101.776 115.153 101.721 115.288 101.634C115.429 101.547 115.504 101.431 115.504 101.309C115.504 101.185 115.435 101.092 115.3 101.011C115.163 100.932 114.962 100.874 114.718 100.834H114.712C114.48 100.796 114.273 100.741 114.12 100.651C113.966 100.564 113.863 100.434 113.863 100.271C113.863 100.106 113.966 99.9636 114.126 99.8621C114.283 99.7635 114.496 99.7026 114.73 99.7026C115.059 99.7026 115.307 99.8418 115.504 99.9549C115.538 99.9781 115.551 100.016 115.526 100.051C115.504 100.083 115.454 100.091 115.419 100.068C115.222 99.9549 115.006 99.8389 114.73 99.8389C114.527 99.8389 114.342 99.8911 114.217 99.9694C114.092 100.051 114.02 100.155 114.02 100.268C114.023 100.378 114.079 100.457 114.207 100.532C114.333 100.608 114.521 100.66 114.746 100.697H114.752C115.003 100.738 115.225 100.799 115.391 100.898C115.557 100.99 115.667 101.135 115.667 101.309C115.667 101.484 115.551 101.64 115.385 101.745C115.216 101.849 114.99 101.916 114.74 101.916C114.358 101.913 114.023 101.745 113.816 101.602C113.782 101.576 113.778 101.53 113.804 101.504Z" fill="white"/>
<path d="M117.503 99.6996C117.813 99.6996 118.095 99.7924 118.314 99.9403C118.355 99.9693 118.361 100.022 118.33 100.051C118.302 100.088 118.245 100.091 118.208 100.065C118.014 99.9345 117.77 99.8533 117.506 99.8533C116.88 99.8533 116.376 100.28 116.376 100.813C116.376 101.333 116.877 101.759 117.506 101.759C117.773 101.759 118.017 101.684 118.202 101.547C118.245 101.521 118.302 101.53 118.327 101.568C118.361 101.597 118.355 101.652 118.318 101.678C118.098 101.826 117.816 101.916 117.506 101.916C116.786 101.916 116.201 101.423 116.201 100.816C116.201 100.193 116.783 99.7025 117.503 99.6996Z" fill="white"/>
<path d="M119.094 99.8073C119.094 99.7667 119.135 99.7319 119.179 99.7319C119.229 99.7319 119.27 99.7667 119.27 99.8073V101.838C119.27 101.878 119.229 101.913 119.179 101.913C119.132 101.913 119.094 101.878 119.094 101.838V99.8073Z" fill="white"/>
<path d="M120.164 99.8073C120.164 99.7667 120.204 99.7319 120.248 99.7319H120.254H121.538C121.588 99.7319 121.623 99.7667 121.623 99.8073C121.623 99.8508 121.588 99.8856 121.538 99.8856H120.336V100.747H121.385C121.432 100.747 121.469 100.782 121.469 100.825C121.469 100.866 121.429 100.901 121.385 100.901H120.336V101.759H121.538C121.588 101.759 121.623 101.794 121.623 101.838C121.623 101.878 121.588 101.913 121.538 101.913H120.258H120.248H120.245C120.201 101.91 120.167 101.878 120.167 101.838V99.8073H120.164Z" fill="white"/>
<path d="M122.471 100.054V101.838C122.471 101.878 122.43 101.913 122.386 101.913C122.339 101.913 122.302 101.878 122.302 101.838V99.8394C122.292 99.8075 122.302 99.7785 122.333 99.7553C122.374 99.735 122.43 99.7408 122.455 99.7756L123.974 101.606V99.8307C123.974 99.7901 124.015 99.7553 124.059 99.7553C124.109 99.7553 124.149 99.7901 124.149 99.8307V101.841C124.149 101.881 124.109 101.916 124.059 101.916C124.03 101.916 124.008 101.908 123.99 101.887C123.986 101.884 123.98 101.881 123.974 101.876L122.471 100.054Z" fill="white"/>
<path d="M126.248 99.6996C126.558 99.6996 126.84 99.7924 127.059 99.9403C127.1 99.9693 127.106 100.022 127.075 100.051C127.047 100.088 126.99 100.091 126.953 100.065C126.759 99.9345 126.514 99.8533 126.251 99.8533C125.625 99.8533 125.121 100.28 125.121 100.813C125.121 101.333 125.622 101.759 126.251 101.759C126.518 101.759 126.762 101.684 126.947 101.547C126.99 101.521 127.047 101.53 127.072 101.568C127.106 101.597 127.1 101.652 127.062 101.678C126.843 101.826 126.561 101.916 126.251 101.916C125.531 101.916 124.946 101.423 124.946 100.816C124.942 100.193 125.525 99.7025 126.248 99.6996Z" fill="white"/>
<path d="M127.817 99.8073C127.817 99.7667 127.858 99.7319 127.902 99.7319H127.908H129.192C129.242 99.7319 129.277 99.7667 129.277 99.8073C129.277 99.8508 129.242 99.8856 129.192 99.8856H127.99V100.747H129.039C129.086 100.747 129.123 100.782 129.123 100.825C129.123 100.866 129.082 100.901 129.039 100.901H127.99V101.759H129.192C129.242 101.759 129.277 101.794 129.277 101.838C129.277 101.878 129.242 101.913 129.192 101.913H127.911H127.902H127.896C127.852 101.91 127.817 101.878 127.817 101.838V99.8073Z" fill="white"/>
<path d="M108.822 98.387H100.374V103.135H108.822V98.387Z" fill="#455A64"/>
<path d="M107.232 99.0521H101.962V99.8875H107.232V99.0521Z" fill="#F7AD19"/>
<path d="M107.232 100.347H101.962V101.182H107.232V100.347Z" fill="#F7AD19"/>
<path d="M107.232 101.639H101.962V102.474H107.232V101.639Z" fill="#F7AD19"/>
<path d="M112.81 103.136H95.4653V107.435H112.81V103.136Z" fill="#A6A6A6"/>
<path d="M128.843 103.136H112.81V107.435H128.843V103.136Z" fill="#A6A6A6"/>
<path d="M112.81 103.584H95.4653V106.99H112.81V103.584Z" fill="white"/>
<path d="M96.9771 104.284C98.7933 104.261 100.613 104.243 102.429 104.235L104.893 104.22L110.345 104.235C112.161 104.243 110.993 104.261 112.809 104.284C110.993 104.307 112.161 104.325 110.345 104.333L104.893 104.348L102.429 104.333C100.613 104.325 98.7964 104.307 96.9771 104.284Z" fill="#DBDBDB"/>
<path d="M96.9771 104.952C98.7933 104.929 100.613 104.911 102.429 104.903L104.893 104.888L110.345 104.903C112.161 104.911 110.993 104.929 112.809 104.952C110.993 104.975 112.161 104.993 110.345 105.001L104.893 105.016L102.429 105.001C100.613 104.993 98.7964 104.975 96.9771 104.952Z" fill="#DBDBDB"/>
<path d="M96.9771 105.62C98.7933 105.597 100.613 105.579 102.429 105.571L104.893 105.556L110.345 105.571C112.161 105.579 110.993 105.597 112.809 105.62C110.993 105.643 112.161 105.661 110.345 105.669L104.893 105.684L102.429 105.669C100.613 105.663 98.7964 105.646 96.9771 105.62Z" fill="#DBDBDB"/>
<path d="M96.9771 106.288C98.7933 106.265 100.613 106.247 102.429 106.239L104.893 106.224L110.345 106.239C112.161 106.247 110.993 106.265 112.809 106.288C110.993 106.311 112.161 106.328 110.345 106.337L104.893 106.352L102.429 106.337C100.613 106.328 98.7964 106.311 96.9771 106.288Z" fill="#DBDBDB"/>
<path d="M118.62 103.136H116.362V107.435H118.62V103.136Z" fill="#455A64"/>
<path d="M128.014 103.136H126.499V107.435H128.014V103.136Z" fill="#455A64"/>
<path d="M108.631 113.343H128.165V107.438H108.631V113.343Z" fill="#F7AD19"/>
<path d="M93.8019 113.343H108.635V107.438H93.8019V113.343Z" fill="#F7AD19"/>
<path d="M108.631 112.731H128.165V108.049H108.631V112.731Z" fill="white"/>
<path d="M126.904 111.766C125.382 111.79 123.86 111.807 122.335 111.816L117.766 111.83L113.198 111.816C111.676 111.807 110.154 111.79 108.629 111.766C110.151 111.743 111.673 111.726 113.198 111.717L117.766 111.703L122.335 111.717C123.86 111.726 125.382 111.743 126.904 111.766Z" fill="#DBDBDB"/>
<path d="M126.904 110.849C125.382 110.873 123.86 110.89 122.335 110.899L117.766 110.913L113.198 110.899C111.676 110.89 110.154 110.873 108.629 110.849C110.151 110.826 111.673 110.809 113.198 110.8L117.766 110.786L122.335 110.8C123.86 110.809 125.382 110.823 126.904 110.849Z" fill="#DBDBDB"/>
<path d="M126.904 109.929C125.382 109.953 123.86 109.97 122.335 109.979L117.766 109.993L113.198 109.979C111.676 109.97 110.154 109.953 108.629 109.929C110.151 109.906 111.673 109.889 113.198 109.88L117.766 109.866L122.335 109.88C123.86 109.889 125.382 109.906 126.904 109.929Z" fill="#DBDBDB"/>
<path d="M126.903 109.01C125.382 109.033 123.86 109.05 122.335 109.059L117.766 109.073L113.201 109.062C111.679 109.053 110.157 109.036 108.632 109.012C110.154 108.989 111.676 108.972 113.201 108.963L117.769 108.949L122.338 108.963C123.86 108.969 125.382 108.986 126.903 109.01Z" fill="#DBDBDB"/>
<path d="M98.9416 107.434H96.1641V113.34H98.9416V107.434Z" fill="#455A64"/>
</svg>
