<svg width="30" height="30" viewBox="0 0 30 30" fill="none" xmlns="http://www.w3.org/2000/svg">
<path d="M30 14.579C30 14.8538 30 15.1253 30 15.4001C29.9765 15.5811 29.9531 15.7655 29.9296 15.9464C29.8425 16.6335 29.8023 17.3273 29.6616 18.001C28.9514 21.3829 27.2796 24.2083 24.6397 26.4405C22.3281 28.3946 19.6613 29.5408 16.6495 29.8726C16.2341 29.9196 15.8186 29.9598 15.4032 30C15.1285 30 14.8571 30 14.5824 30C14.4384 29.9799 14.2977 29.943 14.1536 29.9363C12.8805 29.886 11.6242 29.6816 10.4282 29.2526C4.63906 27.188 1.18167 23.1324 0.16991 17.0424C-0.111506 15.3499 -0.0311016 13.6506 0.320668 11.9781C1.02086 8.63646 2.6457 5.8177 5.25885 3.61565C8.96751 0.488546 13.2491 -0.604099 17.9929 0.314259C21.4068 0.974538 24.2377 2.7107 26.4723 5.37528C28.412 7.68793 29.5477 10.3525 29.8693 13.359C29.9162 13.7645 29.9564 14.1734 30 14.579ZM16.1202 12.0987C16.1202 11.4016 16.1168 10.7413 16.1202 10.081C16.1235 9.49448 16.4183 9.20289 17.0046 9.19619C17.6311 9.19283 18.2542 9.19283 18.8807 9.19619C19.0449 9.19619 19.1655 9.18278 19.1655 8.96827C19.1588 7.98288 19.1621 6.99414 19.1655 6.00875C19.1655 5.82776 19.0851 5.77078 18.9176 5.77078C17.7484 5.79089 16.5691 5.73391 15.4066 5.83446C13.3362 6.0121 12.2105 7.47678 12.0497 9.34701C11.9827 10.1414 12.0095 10.9458 11.9894 11.7468C11.986 11.8608 11.9793 11.9714 11.9726 12.0987C11.4165 12.0987 10.9006 12.1121 10.3846 12.092C10.12 12.082 10.053 12.1792 10.0563 12.4272C10.0697 13.3657 10.0731 14.3041 10.0563 15.2426C10.0496 15.5275 10.1367 15.6146 10.4181 15.6012C10.9307 15.5811 11.4466 15.5945 11.9927 15.5945C11.9927 15.7588 11.9927 15.8828 11.9927 16.0101C11.9927 19.03 11.9961 22.0498 11.986 25.0697C11.986 25.3479 12.0597 25.4451 12.3445 25.4384C13.4668 25.425 14.5891 25.4317 15.7148 25.4317C16.1202 25.4317 16.1202 25.4317 16.1202 25.0328C16.1202 22.013 16.1202 18.9931 16.1202 15.9733C16.1202 15.8526 16.1202 15.7319 16.1202 15.5945C16.9477 15.5945 17.7182 15.5878 18.4887 15.5979C18.7166 15.6012 18.8104 15.5476 18.8271 15.2962C18.8774 14.6259 18.9645 13.9589 19.0348 13.2886C19.075 12.9031 19.1018 12.5177 19.1387 12.0954C18.1169 12.0987 17.1353 12.0987 16.1202 12.0987Z" fill="white"/>
</svg>
