<svg width="260" height="140" viewBox="0 0 260 140" fill="none" xmlns="http://www.w3.org/2000/svg">
<g clip-path="url(#clip0_1_13389)">
<path d="M192.826 75.9459L196.544 78.7077C195.337 80.6882 192.451 84.0861 187.462 84.0861C181.267 84.0861 176.653 78.7442 176.653 71.9487C176.653 64.7174 181.316 59.8115 186.941 59.8115C192.598 59.8115 195.37 64.8262 196.266 67.5334L196.756 68.9144L182.18 75.6371C183.289 78.0719 185.017 79.3074 187.462 79.3074C189.908 79.3074 191.603 77.9628 192.826 75.9459ZM181.397 71.5674L191.131 67.0612C190.593 65.5533 188.995 64.4814 187.087 64.4814C184.658 64.4814 181.283 66.8798 181.397 71.5674Z" fill="#FF302F"/>
<path d="M169.626 47.4382H174.321V82.9777H169.626V47.4379V47.4382Z" fill="#20B15A"/>
<path d="M162.224 60.7562H166.757V82.3416C166.757 91.299 162.012 94.9874 156.403 94.9874C151.121 94.9874 147.942 91.0266 146.752 87.8107L150.909 85.8845C151.659 87.8649 153.469 90.209 156.403 90.209C160.007 90.209 162.224 87.7197 162.224 83.0685V81.3243H162.061C160.985 82.7777 158.931 84.0858 156.322 84.0858C150.876 84.0858 145.887 78.7985 145.887 71.9851C145.887 65.135 150.876 59.7935 156.322 59.7935C158.914 59.7935 160.985 61.0835 162.061 62.5007H162.224V60.7565V60.7562ZM162.55 71.9851C162.55 67.697 159.99 64.5718 156.73 64.5718C153.436 64.5718 150.664 67.697 150.664 71.9851C150.664 76.2184 153.436 79.289 156.73 79.289C159.991 79.3074 162.55 76.2184 162.55 71.9851H162.55Z" fill="#3686F7"/>
<path d="M120.111 71.8942C120.111 78.8896 115.22 84.0313 109.22 84.0313C103.221 84.0313 98.3295 78.8715 98.3295 71.8942C98.3295 64.8627 103.221 59.739 109.22 59.739C115.22 59.739 120.111 64.8627 120.111 71.8942ZM115.351 71.8942C115.351 67.5338 112.514 64.5355 109.22 64.5355C105.927 64.5355 103.09 67.5338 103.09 71.8942C103.09 76.2185 105.927 79.253 109.22 79.253C112.514 79.253 115.351 76.2185 115.351 71.8942Z" fill="#FF302F"/>
<path d="M143.899 71.9487C143.899 78.944 139.007 84.0858 133.008 84.0858C127.008 84.0858 122.117 78.9437 122.117 71.9487C122.117 64.9172 127.008 59.8115 133.008 59.8115C139.007 59.8115 143.899 64.8991 143.899 71.9487ZM139.121 71.9487C139.121 67.5882 136.285 64.5899 132.991 64.5899C129.698 64.5899 126.861 67.5882 126.861 71.9487C126.861 76.2729 129.698 79.3074 132.991 79.3074C136.301 79.3074 139.121 76.2548 139.121 71.9487Z" fill="#FFBA40"/>
<path d="M80.4278 78.7623C73.5965 78.7623 68.249 72.6209 68.249 65.0079C68.249 57.3951 73.5965 51.2537 80.4278 51.2537C84.1126 51.2537 86.8025 52.8707 88.7916 54.9422L92.0688 51.2902C89.2972 48.3286 85.5963 46.0752 80.4278 46.0752C71.0696 46.0755 63.1947 54.579 63.1947 65.0079C63.1947 75.4373 71.0696 83.9405 80.4278 83.9405C85.4821 83.9405 89.2972 82.0873 92.2808 78.6351C95.3458 75.2191 96.2914 70.4224 96.2914 66.5342C96.2914 65.3167 96.1611 64.0632 96.0142 63.1365H80.4278V68.1876H91.5307C91.2046 71.3493 90.308 73.5114 88.9873 74.9829C87.3896 76.7819 84.8627 78.7623 80.4278 78.7623Z" fill="#3686F7"/>
</g>
<defs>
<clipPath id="clip0_1_13389">
<rect width="134" height="49" fill="white" transform="translate(63 46)"/>
</clipPath>
</defs>
</svg>
