<svg width="260" height="140" viewBox="0 0 260 140" fill="none" xmlns="http://www.w3.org/2000/svg">
<g clip-path="url(#clip0_1_13409)">
<path d="M216.39 68.0792V72.133H219.22V76.1557C219.228 76.4633 219.215 76.7925 219.172 77.0754L219.148 77.2125C219.144 77.2442 219.138 77.2758 219.131 77.3071L219.109 77.4058C219.104 77.4228 219.099 77.4398 219.094 77.4567L219.062 77.5611C218.807 78.3016 218.041 79.2404 216.319 79.2404C214.485 79.2404 213.749 78.163 213.548 77.4062L213.524 77.3071L213.506 77.2125C213.455 76.9027 213.434 76.5149 213.434 76.1557V63.4516C213.434 63.0522 213.457 62.6192 213.529 62.2668L213.578 62.0523L213.589 62.0067L213.615 61.9125L213.631 61.8635L213.666 61.7625C213.928 61.0608 214.62 60.1258 216.304 60.1258C217.604 60.1258 218.303 60.659 218.678 61.21L218.744 61.3133C218.765 61.3475 218.784 61.382 218.803 61.4166L218.855 61.5184L218.901 61.6186L218.941 61.7162L218.975 61.81L219.004 61.9004L219.029 61.9854L219.048 62.0652L219.064 62.1381C219.072 62.1746 219.078 62.2133 219.084 62.2535L219.1 62.3777L219.108 62.4423L219.125 62.6375L219.136 62.8243L219.146 63.0795L219.148 63.2105V64.753H226.102L226.104 63.7927L226.108 63.4494L226.107 63.1832L226.101 62.8729L226.095 62.7062L226.083 62.4461L226.065 62.1795L226.05 62.0014C225.579 57.3089 222.075 55.5032 217.811 55.1891L217.526 55.1701L217.238 55.1561C217.093 55.1499 216.949 55.1454 216.804 55.1424L216.512 55.1386C216.463 55.1378 216.414 55.1378 216.365 55.1378L216.071 55.1397L215.926 55.1424L215.635 55.1504L215.347 55.1629L215.061 55.1796L214.777 55.2005C214.683 55.2085 214.589 55.2168 214.496 55.2263L214.217 55.2567C214.171 55.262 214.125 55.2673 214.079 55.2734L213.804 55.3106C213.167 55.4029 212.554 55.5347 211.973 55.7105L211.726 55.7887C209.032 56.6785 207.074 58.5704 206.672 62.0014L206.63 62.3823L206.602 62.6773L206.575 62.9865L206.553 63.2941C206.541 63.4953 206.532 63.6844 206.532 63.8409L206.533 75.6768L206.535 75.8238L206.541 76.0471L206.548 76.2035L206.558 76.3706L206.57 76.5525L206.586 76.7527L206.617 77.0963L206.643 77.3599C207.033 81.7209 210.316 83.6606 214.334 84.1182L214.616 84.1478C215.087 84.1934 215.567 84.2185 216.053 84.2261L216.345 84.228L216.64 84.2261C217.122 84.2194 217.603 84.1933 218.083 84.1478L218.366 84.1182C222.397 83.6606 225.659 81.7209 226.056 77.3599L226.088 76.9756L226.112 76.6501L226.133 76.2856L226.146 75.9715L226.158 75.5272V68.0789H216.39L216.39 68.0792ZM168.439 55.8856H161.456V76.4481C161.467 76.8066 161.456 77.2091 161.394 77.5042L161.374 77.5938L161.348 77.6887C161.338 77.7223 161.328 77.7558 161.317 77.789L161.281 77.8934C161.017 78.6005 160.346 79.5229 158.741 79.5229C157.235 79.5229 156.547 78.6905 156.259 78.0009L156.217 77.8934C156.211 77.876 156.205 77.8585 156.199 77.841L156.166 77.7385L156.139 77.6405C156.134 77.625 156.131 77.6094 156.127 77.5938L156.108 77.5042C156.038 77.2091 156.029 76.8066 156.038 76.4485V55.8848H149.056V75.8101L149.055 75.97L149.057 76.2503L149.067 76.6623L149.086 77.1635L149.1 77.4153L149.109 77.5494L149.117 77.6477C149.46 81.3339 151.608 83.2528 154.642 84.0556L154.901 84.1209C155.485 84.259 156.078 84.3593 156.675 84.4213L156.961 84.4494L157.251 84.4729L157.543 84.4919C157.69 84.5006 157.838 84.5071 157.987 84.5124L158.287 84.5208L158.588 84.5246C158.639 84.5253 158.69 84.5253 158.741 84.5253L159.045 84.5234L159.195 84.5208L159.495 84.5124C159.645 84.5075 159.793 84.5006 159.941 84.4923L160.233 84.4733L160.523 84.4494L160.81 84.4213C164.894 83.9846 167.958 82.1128 168.38 77.6477L168.386 77.6033L168.397 77.4863L168.414 77.2532L168.429 76.9706L168.437 76.7667L168.446 76.4538L168.448 76.2503L168.447 76.0592L168.443 75.8868L168.439 75.8101V55.8856ZM104.272 55.8856L100.788 77.6128L97.3065 55.8856H86.0415L85.4439 83.6808H92.3455L92.5322 57.9499L97.2808 83.6808H104.283L109.036 57.9499L109.223 83.6808H116.142L115.524 55.8856H104.272ZM62.563 55.8856L57.4481 83.6808H64.9069L68.7618 57.9499L72.5238 83.6808H79.931L74.8372 55.8856H62.563ZM192.846 78.2641L186.343 55.8856H176.096V83.391H182.875L182.481 60.2967L189.465 83.391H199.292V55.8856H192.47L192.846 78.2641ZM130.144 63.1194C130.021 62.5703 130.057 61.9873 130.12 61.6824C130.138 61.6015 130.159 61.5199 130.184 61.4386L130.225 61.3167C130.5 60.5458 131.145 59.822 132.623 59.822C134.217 59.822 135.153 60.823 135.153 62.3246V64.0243H141.96V62.0872C141.96 57.7152 139.118 56.0333 136.08 55.4439L135.83 55.398L135.58 55.3566L135.329 55.3197L135.078 55.2875L134.828 55.259L134.578 55.2347C134.495 55.2271 134.412 55.2203 134.33 55.2142L134.083 55.1971L133.838 55.1834L133.595 55.1728L133.353 55.1652L133.116 55.1599L132.764 55.1572L132.609 55.158L132.301 55.1625C132.25 55.1633 132.199 55.1648 132.148 55.1663L131.844 55.1777C131.743 55.1819 131.643 55.1872 131.543 55.1929L131.245 55.2138C127.091 55.5335 123.851 57.2508 123.202 61.2776C123.01 62.5042 122.963 63.5925 123.268 64.9816C123.749 67.2643 125.638 68.8889 127.807 70.251L128.142 70.4587L128.311 70.5613L128.652 70.7629L128.995 70.9619L129.339 71.1575L129.855 71.4461L131.211 72.1942L131.54 72.378L131.864 72.561L132.181 72.7441L132.491 72.9271C133.969 73.8127 135.153 74.7104 135.579 75.7839C135.815 76.4219 135.764 77.2254 135.65 77.7385L135.63 77.8213C135.602 77.9461 135.566 78.069 135.522 78.1892L135.474 78.3096C135.161 79.0471 134.475 79.6759 132.969 79.6759C131.251 79.6759 130.216 78.6818 130.216 77.1829L130.214 74.5156H122.886V76.6361C122.886 81.6127 126.023 83.7746 129.952 84.4163L130.244 84.4611C130.44 84.4892 130.638 84.5135 130.837 84.5344L131.137 84.5633C131.488 84.5937 131.843 84.6142 132.201 84.6248L132.508 84.6316L132.663 84.6332L132.817 84.6339C132.92 84.6339 133.022 84.6332 133.124 84.6316L133.429 84.6248L133.58 84.6199L133.881 84.6062C133.981 84.6013 134.08 84.5948 134.179 84.5884L134.475 84.5656C134.669 84.5487 134.863 84.5285 135.056 84.5048L135.342 84.4676L135.625 84.4251C135.718 84.4099 135.811 84.3947 135.903 84.3776L136.179 84.3252C139.504 83.6546 141.979 81.8359 142.475 78.3392C142.544 77.8175 142.586 77.3359 142.609 76.8954L142.621 76.6084C142.623 76.5613 142.624 76.5149 142.625 76.469L142.63 76.2005V75.9442L142.626 75.7004L142.617 75.4691L142.606 75.2511C142.604 75.2163 142.602 75.1815 142.6 75.1467L142.585 74.9477L142.567 74.7616L142.548 74.5889L142.518 74.3546L142.487 74.1503L142.446 73.9251L142.427 73.8328C141.947 71.4123 139.842 69.7027 137.504 68.2953L137.168 68.0963L136.83 67.9011L136.491 67.7094L135.981 67.4284L135.306 67.0634L134.154 66.4463L133.68 66.1881L133.525 66.1027L133.222 65.9325L132.927 65.7628C131.476 64.9159 130.379 64.0843 130.144 63.1194ZM40.3396 63.0506C40.2144 62.5254 40.234 61.9729 40.2981 61.6516L40.3245 61.5316L40.3547 61.4124C40.5848 60.5777 41.2137 59.7176 42.839 59.7176C44.454 59.7176 45.4051 60.7277 45.4051 62.2422V63.9624H52.2932V62.0101C52.2932 57.8382 49.7146 56.0861 46.8334 55.4006L46.5822 55.3437C46.3723 55.2984 46.1613 55.2583 45.9495 55.2233L45.6956 55.1838L45.4417 55.1485L45.1878 55.1177L44.935 55.0911C44.851 55.0828 44.7668 55.0751 44.6827 55.068L44.4322 55.049L44.1832 55.033L43.9357 55.0205L43.6905 55.0114L43.4486 55.0049L43.0902 55H42.9729C42.8695 55 42.7665 55.0008 42.6643 55.0023L42.358 55.0087C42.155 55.0148 41.9535 55.0239 41.7544 55.0353L41.4563 55.0558C41.4073 55.0596 41.3579 55.0634 41.3088 55.068L41.0157 55.0953C40.919 55.1051 40.8224 55.1158 40.7259 55.1276L40.4392 55.1648C40.2023 55.1978 39.9688 55.2358 39.739 55.2795L39.4655 55.3342L39.1958 55.3942L38.9306 55.4595C38.8426 55.4823 38.7555 55.5054 38.6695 55.5301L38.4126 55.6061C35.7397 56.4332 33.813 58.1678 33.3271 61.1777C33.1264 62.4237 33.0917 63.5196 33.3818 64.9243C33.8926 67.3509 35.9751 69.0415 38.3051 70.4618L38.6476 70.6676L38.82 70.7694L39.166 70.9699L39.6873 71.2657L40.3815 71.6508L41.4046 72.2154L41.9019 72.4942L42.3851 72.7714L42.6983 72.9567C42.7496 72.9875 42.8009 73.0182 42.8514 73.0494L43.1517 73.2351C44.4306 74.0416 45.4327 74.8722 45.819 75.8462C46.0725 76.4792 46.0133 77.2832 45.8937 77.8125L45.8733 77.8984C45.8435 78.0217 45.8064 78.1432 45.7624 78.2622L45.7145 78.3818C45.393 79.1322 44.7023 79.7758 43.1763 79.7758C41.4514 79.7758 40.4196 78.7646 40.4196 77.2452L40.4098 74.5706H33V76.6957C33 82.6615 37.4687 84.6225 42.4176 84.7699L42.7273 84.7767L43.0382 84.779L43.3456 84.7771C43.4988 84.7748 43.6512 84.771 43.8021 84.7657L44.1039 84.752C44.2533 84.7444 44.4024 84.7346 44.5502 84.7232L44.8445 84.6981L45.135 84.6685C45.2316 84.6578 45.3274 84.6465 45.4232 84.6343L45.7073 84.5944C45.8016 84.5804 45.8956 84.5656 45.9884 84.55L46.2656 84.5006C49.7097 83.8513 52.2762 82.0129 52.793 78.4163C52.8591 77.9435 52.906 77.4682 52.9337 76.9915L52.9473 76.7067L52.9556 76.4344C52.9576 76.3475 52.9589 76.2605 52.9594 76.1735L52.9583 75.9248L52.9534 75.6882L52.9451 75.4642L52.9337 75.2519L52.9198 75.0522L52.9039 74.8649L52.8768 74.6075L52.8477 74.3789L52.8085 74.1187L52.764 73.8662C52.286 71.4746 50.2439 69.7725 47.946 68.3732L47.6079 68.1708C47.5515 68.1373 47.4949 68.104 47.4382 68.0709L47.096 67.8742L46.7531 67.6809L46.4098 67.491L46.0665 67.3046L44.5529 66.4957L44.0685 66.2344L43.7542 66.062L43.4475 65.8904L43.1495 65.7195L43.0042 65.6341L42.7213 65.4639C41.4703 64.6968 40.552 63.9294 40.3396 63.0506Z" fill="#1428A0"/>
</g>
<defs>
<clipPath id="clip0_1_13409">
<rect width="193.158" height="30" fill="white" transform="translate(33 55)"/>
</clipPath>
</defs>
</svg>
