<svg width="1512" height="14" viewBox="0 0 1512 14" fill="none" xmlns="http://www.w3.org/2000/svg">
<path d="M0.66667 8.0062C0.670095 10.9517 3.06068 13.3368 6.0062 13.3333C8.95172 13.3299 11.3368 10.9393 11.3333 7.9938C11.3299 5.04828 8.93932 2.66325 5.9938 2.66667C3.04828 2.6701 0.663245 5.06068 0.66667 8.0062ZM1500.67 6.26202C1500.67 9.20753 1503.06 11.5926 1506.01 11.5891C1508.95 11.5857 1511.34 9.19513 1511.33 6.24961C1511.33 3.3041 1508.94 0.91906 1505.99 0.922485C1503.05 0.92591 1500.66 3.3165 1500.67 6.26202ZM6.00116 9L1506 7.25581L1506 5.25582L5.99884 7L6.00116 9Z" fill="#F7AD19"/>
</svg>
