<svg width="30" height="30" viewBox="0 0 30 30" fill="none" xmlns="http://www.w3.org/2000/svg">
<path d="M0 15.1595C0 15.0421 0 14.9248 0 14.8074C0.0234694 14.6532 0.0502916 14.5023 0.0670554 14.3481C0.154227 13.5735 0.177697 12.7889 0.335277 12.0278C1.01924 8.71832 2.61181 5.91184 5.18003 3.70554C8.89155 0.520165 13.1965 -0.609806 17.9742 0.308924C21.7964 1.04324 24.8776 3.06176 27.1541 6.22367C29.6888 9.741 30.5136 13.6775 29.6955 17.9157C29.0249 21.4062 27.2614 24.2965 24.5088 26.5531C21.9037 28.689 18.9063 29.8256 15.53 29.9363C15.416 29.9396 15.3021 29.9765 15.1881 30C15.0707 30 14.9534 30 14.836 30C14.712 29.9765 14.5913 29.9497 14.4672 29.9363C13.8201 29.8692 13.163 29.8458 12.5226 29.7418C9.59228 29.2657 7.02406 28.0083 4.86487 25.9831C1.84402 23.1531 0.221283 19.6559 0.0637027 15.4981C0.0569971 15.3841 0.0201166 15.2701 0 15.1595ZM23.9824 22.3953C24.0025 22.3316 24.0126 22.3115 24.0126 22.2947C23.9958 19.9007 24.0193 17.5066 23.9388 15.1159C23.9019 14.0429 23.4593 13.0638 22.648 12.3094C21.9238 11.6321 21.0453 11.3437 20.0596 11.3102C19.0672 11.2767 18.1586 11.4879 17.3975 12.1552C17.1461 12.3765 16.9315 12.6414 16.6767 12.913C16.6767 12.5374 16.6666 12.1988 16.68 11.8568C16.6867 11.6288 16.6096 11.5516 16.3749 11.555C15.359 11.565 14.3432 11.5684 13.3239 11.555C13.0624 11.5516 12.9953 11.6321 12.9987 11.8869C13.0054 15.2903 13.0088 18.6902 12.9987 22.0936C12.9987 22.3786 13.1026 22.4389 13.3541 22.4356C14.323 22.4255 15.2886 22.4322 16.2576 22.4322C16.6767 22.4322 16.6767 22.4289 16.6767 22.0064C16.68 20.0516 16.6834 18.0967 16.6834 16.1419C16.6834 15.5585 16.9181 15.0824 17.3372 14.6934C18.0547 14.0295 19.255 14.0597 19.8451 14.7504C20.1971 15.1628 20.3312 15.6658 20.3346 16.1889C20.3547 18.1437 20.3547 20.0985 20.348 22.0533C20.348 22.3517 20.4452 22.4423 20.7369 22.4389C21.7125 22.4255 22.6916 22.4356 23.6706 22.4322C23.7712 22.4255 23.8751 22.4054 23.9824 22.3953ZM7.42639 16.9902C7.42639 18.6902 7.43309 20.3902 7.41968 22.0936C7.41633 22.3551 7.5035 22.4322 7.75161 22.4289C8.75744 22.4188 9.76327 22.4222 10.7725 22.4289C11.0038 22.4289 11.101 22.3584 11.101 22.1103C11.0943 18.7003 11.0943 15.2869 11.101 11.8769C11.101 11.612 11.0071 11.5483 10.759 11.5516C9.76327 11.565 8.76415 11.565 7.76837 11.5516C7.50686 11.5483 7.41633 11.6153 7.41968 11.8903C7.43309 13.5903 7.42639 15.2903 7.42639 16.9902ZM9.24359 10.14C10.0013 10.1333 10.6484 9.89188 11.0507 9.21122C11.433 8.55738 11.4028 7.88677 11.0273 7.23964C10.5981 6.50197 9.6124 6.18343 8.65015 6.42485C7.84884 6.62603 7.06764 7.37711 7.24869 8.54732C7.39621 9.5197 8.164 10.1367 9.24359 10.14Z" fill="white"/>
</svg>
