<svg width="230" height="50" viewBox="0 0 230 50" fill="none" xmlns="http://www.w3.org/2000/svg">
<path d="M107.566 19.2949H123.934V23.0665H100.649V2.75928H123.374V6.53091H107.566V19.2949ZM107.048 10.9397H121.525V14.5957H107.048V10.9397Z" fill="#F7AD19"/>
<path d="M138.756 23.2978C136.58 23.2978 134.617 22.9638 132.871 22.2958C131.124 21.6278 129.739 20.6952 128.723 19.4953C127.708 18.2955 127.198 16.885 127.198 15.2586C127.198 13.6323 127.708 12.1936 128.723 10.9937C129.739 9.79389 131.12 8.86639 132.871 8.20867C134.617 7.55094 136.58 7.22208 138.756 7.22208C140.704 7.22208 142.409 7.51241 143.87 8.09305C145.331 8.6737 146.461 9.55495 147.264 10.7342C148.066 11.9135 148.466 13.4216 148.466 15.2586C148.466 17.0957 148.078 18.5807 147.305 19.7702C146.533 20.9598 145.422 21.8436 143.976 22.4242C142.531 23.0049 140.788 23.2952 138.756 23.2952V23.2978ZM139.917 19.5852C141.005 19.5852 141.994 19.4105 142.881 19.0637C143.767 18.7168 144.479 18.2184 145.007 17.571C145.536 16.9235 145.803 16.1553 145.803 15.2638C145.803 14.3723 145.536 13.5809 145.007 12.9438C144.479 12.3066 143.767 11.8133 142.881 11.4639C141.994 11.117 141.005 10.9423 139.917 10.9423C138.829 10.9423 137.798 11.117 136.911 11.4639C136.025 11.8133 135.313 12.304 134.784 12.9438C134.255 13.5809 133.989 14.3568 133.989 15.2638C133.989 16.1707 134.255 16.9235 134.784 17.571C135.313 18.2184 136.025 18.7168 136.911 19.0637C137.798 19.4131 138.802 19.5852 139.917 19.5852ZM145.974 23.0666V19.8756L146.103 15.233L145.673 10.6212V1.5415H152.377V23.0666H145.974Z" fill="#F7AD19"/>
<path d="M168.311 23.2978C166.393 23.2978 164.681 23.046 163.179 22.5425C161.676 22.0389 160.508 21.2707 159.678 20.2353C158.849 19.1999 158.434 17.8819 158.434 16.2761V7.4585H165.138V15.6107C165.138 16.9056 165.545 17.8588 166.363 18.4677C167.181 19.0766 168.33 19.3823 169.821 19.3823C170.853 19.3823 171.769 19.2333 172.572 18.9327C173.375 18.6321 174.003 18.1696 174.463 17.5402C174.92 16.9107 175.152 16.1245 175.152 15.1765V7.4585H181.856V23.0666H175.498V18.7734L176.658 20.0221C175.886 21.1063 174.749 21.9233 173.242 22.4731C171.735 23.0229 170.099 23.3004 168.322 23.3004L168.311 23.2978Z" fill="#F7AD19"/>
<path d="M111.819 48.6742C109.586 48.6742 107.444 48.4276 105.397 47.9343C103.35 47.441 101.767 46.8089 100.649 46.033L101.897 44.3785C102.955 45.0747 104.381 45.6605 106.173 46.1332C107.962 46.6085 109.845 46.8449 111.823 46.8449C113.802 46.8449 115.251 46.6856 116.442 46.367C117.629 46.0485 118.504 45.6168 119.064 45.0773C119.623 44.5352 119.901 43.9365 119.901 43.2788C119.901 42.4849 119.562 41.8478 118.892 41.3647C118.219 40.8817 117.34 40.4989 116.252 40.2189C115.164 39.9388 113.961 39.6922 112.641 39.4789C111.325 39.2657 110.005 39.0396 108.688 38.7981C107.372 38.5566 106.162 38.2328 105.059 37.8269C103.955 37.421 103.069 36.884 102.395 36.216C101.722 35.548 101.387 34.6745 101.387 33.5902C101.387 32.5857 101.779 31.6607 102.57 30.8206C103.358 29.9805 104.568 29.3022 106.2 28.7909C107.832 28.2796 109.925 28.0227 112.474 28.0227C114.163 28.0227 115.837 28.182 117.5 28.5006C119.162 28.8192 120.593 29.2611 121.795 29.8212L120.722 31.5323C119.433 30.9516 118.067 30.5277 116.621 30.2554C115.175 29.9856 113.779 29.8494 112.432 29.8494C110.629 29.8494 109.137 30.0139 107.965 30.3427C106.79 30.6716 105.926 31.1109 105.367 31.6633C104.807 32.2131 104.53 32.8375 104.53 33.5337C104.53 34.3276 104.865 34.9648 105.538 35.4478C106.211 35.9308 107.098 36.3085 108.201 36.5783C109.305 36.8506 110.514 37.0921 111.831 37.3028C113.147 37.516 114.46 37.7473 115.761 37.999C117.062 38.2508 118.268 38.5746 119.372 38.9702C120.475 39.3659 121.362 39.8951 122.035 40.5503C122.708 41.208 123.043 42.0687 123.043 43.1324C123.043 44.119 122.644 45.0336 121.841 45.8737C121.038 46.7139 119.813 47.3922 118.166 47.9034C116.518 48.4173 114.407 48.6716 111.827 48.6716L111.819 48.6742Z" fill="#053F5C"/>
<path d="M157.487 33.1252C159.321 33.1252 160.915 33.3616 162.277 33.8369C163.635 34.3097 164.697 35.0316 165.457 35.9976C166.215 36.9637 166.595 38.1841 166.595 39.6537V48.5021H163.544V39.8566C163.544 38.2509 162.977 37.0382 161.847 36.216C160.713 35.3939 159.119 34.9828 157.057 34.9828C155.512 34.9828 154.173 35.2012 153.039 35.6354C151.909 36.0696 151.034 36.6991 150.418 37.5212C149.801 38.3434 149.493 39.3351 149.493 40.4938V48.5021H146.442V39.8566C146.442 38.2509 145.867 37.0382 144.722 36.216C143.577 35.3939 141.971 34.9828 139.909 34.9828C138.391 34.9828 137.059 35.2012 135.914 35.6354C134.769 36.0696 133.886 36.6991 133.274 37.5212C132.657 38.3434 132.349 39.3351 132.349 40.4938V48.5021H129.298V33.2717H132.22V37.3902L131.748 36.6656C132.437 35.5634 133.544 34.6976 135.077 34.0682C136.61 33.4387 138.421 33.1252 140.51 33.1252C142.717 33.1252 144.593 33.4978 146.137 34.2429C147.682 34.9879 148.686 36.1056 149.143 37.5931L147.941 37.2746C148.599 36.0362 149.767 35.0368 151.441 34.2711C153.115 33.5081 155.128 33.1252 157.475 33.1252H157.487Z" fill="#053F5C"/>
<path d="M181.243 48.646C179.554 48.646 178.085 48.4584 176.841 48.0808C175.597 47.7031 174.642 47.1815 173.984 46.5135C173.326 45.8455 172.995 45.0773 172.995 44.2064C172.995 43.4125 173.272 42.6931 173.832 42.0456C174.391 41.3982 175.308 40.8766 176.582 40.4784C177.857 40.0827 179.569 39.8849 181.715 39.8849H189.492V41.4213H181.802C179.626 41.4213 178.116 41.6834 177.271 42.2049C176.426 42.7265 176.004 43.3765 176.004 44.1498C176.004 45.0208 176.506 45.7171 177.507 46.2386C178.508 46.7602 179.912 47.0222 181.719 47.0222C183.526 47.0222 184.918 46.7576 186.166 46.2232C187.411 45.6914 188.32 44.9232 188.894 43.916L189.583 45.3368C189.008 46.344 188.015 47.1456 186.596 47.7442C185.177 48.3428 183.397 48.6434 181.247 48.6434L181.243 48.646ZM189.02 48.5021V45.1364L188.891 44.584V38.9548C188.891 37.6599 188.354 36.6631 187.281 35.9668C186.208 35.2706 184.61 34.9237 182.491 34.9237C181.03 34.9237 179.641 35.0881 178.325 35.417C177.009 35.7459 175.89 36.1801 174.973 36.7222L173.6 35.1858C174.745 34.528 176.118 34.0219 177.724 33.6622C179.329 33.3051 181.019 33.1252 182.792 33.1252C185.714 33.1252 187.97 33.6134 189.56 34.5897C191.151 35.566 191.946 37.051 191.946 39.0422V48.4995H189.024L189.02 48.5021Z" fill="#053F5C"/>
<path d="M200.232 48.502V33.2716H203.154V37.4209L202.854 36.6964C203.485 35.5351 204.543 34.6512 206.034 34.0423C207.522 33.4334 209.371 33.1277 211.578 33.1277V35.1291C211.464 35.1291 211.349 35.124 211.235 35.1137C211.121 35.1034 211.007 35.0983 210.893 35.0983C208.515 35.0983 206.654 35.5864 205.308 36.5628C203.961 37.5391 203.287 38.9265 203.287 40.7249V48.4994H200.236L200.232 48.502Z" fill="#053F5C"/>
<path d="M214.58 34.9827V33.2716H228.543V34.9827H214.58ZM225.233 48.6459C223.113 48.6459 221.481 48.2605 220.336 47.4846C219.191 46.7113 218.616 45.6193 218.616 44.2062V29.9033H221.668V44.0906C221.668 44.9796 222.003 45.6681 222.676 46.1512C223.349 46.6342 224.316 46.8757 225.575 46.8757C226.922 46.8757 228.037 46.6136 228.927 46.0921L230 47.5719C229.399 47.9393 228.676 48.2091 227.831 48.3838C226.987 48.5585 226.119 48.6459 225.233 48.6459Z" fill="#053F5C"/>
<path d="M111.819 48.6742C109.586 48.6742 107.444 48.4276 105.397 47.9343C103.35 47.441 101.767 46.8089 100.649 46.033L101.897 44.3785C102.955 45.0747 104.381 45.6605 106.173 46.1332C107.962 46.6085 109.845 46.8449 111.823 46.8449C113.802 46.8449 115.251 46.6856 116.442 46.367C117.629 46.0485 118.504 45.6168 119.064 45.0773C119.623 44.5352 119.901 43.9365 119.901 43.2788C119.901 42.4849 119.562 41.8478 118.892 41.3647C118.219 40.8817 117.34 40.4989 116.252 40.2189C115.164 39.9388 113.961 39.6922 112.641 39.4789C111.325 39.2657 110.005 39.0396 108.688 38.7981C107.372 38.5566 106.162 38.2328 105.059 37.8269C103.955 37.421 103.069 36.884 102.395 36.216C101.722 35.548 101.387 34.6745 101.387 33.5902C101.387 32.5857 101.779 31.6607 102.57 30.8206C103.358 29.9805 104.568 29.3022 106.2 28.7909C107.832 28.2796 109.925 28.0227 112.474 28.0227C114.163 28.0227 115.837 28.182 117.5 28.5006C119.162 28.8192 120.593 29.2611 121.795 29.8212L120.722 31.5323C119.433 30.9516 118.067 30.5277 116.621 30.2554C115.175 29.9856 113.779 29.8494 112.432 29.8494C110.629 29.8494 109.137 30.0139 107.965 30.3427C106.79 30.6716 105.926 31.1109 105.367 31.6633C104.807 32.2131 104.53 32.8375 104.53 33.5337C104.53 34.3276 104.865 34.9648 105.538 35.4478C106.211 35.9308 107.098 36.3085 108.201 36.5783C109.305 36.8506 110.514 37.0921 111.831 37.3028C113.147 37.516 114.46 37.7473 115.761 37.999C117.062 38.2508 118.268 38.5746 119.372 38.9702C120.475 39.3659 121.362 39.8951 122.035 40.5503C122.708 41.208 123.043 42.0687 123.043 43.1324C123.043 44.119 122.644 45.0336 121.841 45.8737C121.038 46.7139 119.813 47.3922 118.166 47.9034C116.518 48.4173 114.407 48.6716 111.827 48.6716L111.819 48.6742Z" fill="#053F5C"/>
<path d="M157.487 33.1252C159.321 33.1252 160.915 33.3616 162.277 33.8369C163.635 34.3097 164.697 35.0316 165.457 35.9976C166.215 36.9637 166.595 38.1841 166.595 39.6537V48.5021H163.544V39.8566C163.544 38.2509 162.977 37.0382 161.847 36.216C160.713 35.3939 159.119 34.9828 157.057 34.9828C155.512 34.9828 154.173 35.2012 153.039 35.6354C151.909 36.0696 151.034 36.6991 150.418 37.5212C149.801 38.3434 149.493 39.3351 149.493 40.4938V48.5021H146.442V39.8566C146.442 38.2509 145.867 37.0382 144.722 36.216C143.577 35.3939 141.971 34.9828 139.909 34.9828C138.391 34.9828 137.059 35.2012 135.914 35.6354C134.769 36.0696 133.886 36.6991 133.274 37.5212C132.657 38.3434 132.349 39.3351 132.349 40.4938V48.5021H129.298V33.2717H132.22V37.3902L131.748 36.6656C132.437 35.5634 133.544 34.6976 135.077 34.0682C136.61 33.4387 138.421 33.1252 140.51 33.1252C142.717 33.1252 144.593 33.4978 146.137 34.2429C147.682 34.9879 148.686 36.1056 149.143 37.5931L147.941 37.2746C148.599 36.0362 149.767 35.0368 151.441 34.2711C153.115 33.5081 155.128 33.1252 157.475 33.1252H157.487Z" fill="#053F5C"/>
<path d="M181.243 48.646C179.554 48.646 178.085 48.4584 176.841 48.0808C175.597 47.7031 174.642 47.1815 173.984 46.5135C173.326 45.8455 172.995 45.0773 172.995 44.2064C172.995 43.4125 173.272 42.6931 173.832 42.0456C174.391 41.3982 175.308 40.8766 176.582 40.4784C177.857 40.0827 179.569 39.8849 181.715 39.8849H189.492V41.4213H181.802C179.626 41.4213 178.116 41.6834 177.271 42.2049C176.426 42.7265 176.004 43.3765 176.004 44.1498C176.004 45.0208 176.506 45.7171 177.507 46.2386C178.508 46.7602 179.912 47.0222 181.719 47.0222C183.526 47.0222 184.918 46.7576 186.166 46.2232C187.411 45.6914 188.32 44.9232 188.894 43.916L189.583 45.3368C189.008 46.344 188.015 47.1456 186.596 47.7442C185.177 48.3428 183.397 48.6434 181.247 48.6434L181.243 48.646ZM189.02 48.5021V45.1364L188.891 44.584V38.9548C188.891 37.6599 188.354 36.6631 187.281 35.9668C186.208 35.2706 184.61 34.9237 182.491 34.9237C181.03 34.9237 179.641 35.0881 178.325 35.417C177.009 35.7459 175.89 36.1801 174.973 36.7222L173.6 35.1858C174.745 34.528 176.118 34.0219 177.724 33.6622C179.329 33.3051 181.019 33.1252 182.792 33.1252C185.714 33.1252 187.97 33.6134 189.56 34.5897C191.151 35.566 191.946 37.051 191.946 39.0422V48.4995H189.024L189.02 48.5021Z" fill="#053F5C"/>
<path d="M200.232 48.502V33.2716H203.154V37.4209L202.854 36.6964C203.485 35.5351 204.543 34.6512 206.034 34.0423C207.522 33.4334 209.371 33.1277 211.578 33.1277V35.1291C211.464 35.1291 211.349 35.124 211.235 35.1137C211.121 35.1034 211.007 35.0983 210.893 35.0983C208.515 35.0983 206.654 35.5864 205.308 36.5628C203.961 37.5391 203.287 38.9265 203.287 40.7249V48.4994H200.236L200.232 48.502Z" fill="#053F5C"/>
<path d="M214.58 34.9827V33.2716H228.543V34.9827H214.58ZM225.233 48.6459C223.113 48.6459 221.481 48.2605 220.336 47.4846C219.191 46.7113 218.616 45.6193 218.616 44.2062V29.9033H221.668V44.0906C221.668 44.9796 222.003 45.6681 222.676 46.1512C223.349 46.6342 224.316 46.8757 225.575 46.8757C226.922 46.8757 228.037 46.6136 228.927 46.0921L230 47.5719C229.399 47.9393 228.676 48.2091 227.831 48.3838C226.987 48.5585 226.119 48.6459 225.233 48.6459Z" fill="#053F5C"/>
<path d="M69.2449 7.65381C69.2449 9.29812 69.3894 10.9501 69.222 12.5867C68.3888 20.7389 63.5378 27.7889 55.8258 33.9551C53.0141 36.2031 49.7573 38.2046 46.5766 40.2266C45.0167 41.2209 43.647 42.2434 42.9127 43.618C42.6768 44.0599 42.3801 44.4864 42.011 45.0824C41.6838 44.5891 41.3909 44.232 41.2006 43.8543C40.3978 42.2511 38.8265 41.0796 36.9432 39.9902C27.0092 34.248 19.6319 27.3444 16.2115 18.7067C14.8989 15.3923 14.4424 12.0112 14.663 8.58644C14.6821 8.28841 14.7391 7.99038 14.956 7.6795C15.5686 8.81253 16.1354 9.95841 16.7937 11.0812C19.7689 16.1554 23.6991 20.8417 29.1931 24.8831C32.5868 27.3804 36.4828 29.4306 40.9723 30.9696C41.7028 31.2214 42.2811 31.2086 43.0078 30.9619C49.647 28.7061 54.8099 25.3353 59.0788 21.2939C63.4846 17.124 66.6729 12.5431 68.9709 7.66922C69.0622 7.66409 69.1535 7.65895 69.2449 7.65381Z" fill="#F7AD19"/>
<path d="M44.5717 43.4071C45.1082 43.4071 45.4848 43.4071 45.8653 43.4071C57.2489 43.4071 68.6363 43.4148 80.0199 43.3943C80.9063 43.3943 81.4504 43.5587 81.8575 44.0828C82.4853 44.8947 83.1853 45.6809 83.9653 46.6084C83.3185 46.6084 82.881 46.6084 82.4434 46.6084C71.5849 46.6084 60.7226 46.6033 49.864 46.6084C47.9351 46.6084 48.0872 46.4671 48.0834 47.78C48.0834 48.746 47.6878 49.5065 46.2458 49.8585C45.8958 49.9433 45.5001 49.9869 45.1234 49.9895C43.0917 50.0024 41.06 50.0024 39.0283 49.9947C36.8939 49.9844 35.9085 49.3035 35.8895 47.8493C35.8704 46.3515 35.9465 46.6187 33.9985 46.6161C23.2085 46.6058 12.4184 46.611 1.6284 46.6084C1.17564 46.6084 0.722888 46.6084 0 46.6084C0.913121 45.5422 1.70449 44.5607 2.59479 43.6229C2.75078 43.4585 3.33289 43.42 3.72097 43.4174C11.7793 43.4071 19.8338 43.4097 27.892 43.4097C31.2896 43.4097 34.6872 43.4097 38.0848 43.4097H39.3974C39.3974 44.1882 39.3898 44.9127 39.3974 45.6372C39.4088 46.8088 40.3828 47.5153 41.9731 47.5153C43.5711 47.5153 44.5451 46.8139 44.5603 45.6424C44.5679 44.9358 44.5603 44.2293 44.5603 43.4071H44.5717Z" fill="#053F5C"/>
<path d="M41.9808 6.07886C46.8203 10.4286 52.242 14.2131 59.9959 16.2093C58.4436 17.0752 56.9369 17.9513 55.3656 18.7734C54.7606 19.0895 54.5552 19.4158 54.6389 19.9142C54.7683 20.6875 54.8139 21.466 54.8976 22.3061C54.5438 22.3267 54.2546 22.3447 53.935 22.3652V19.6316C53.5203 19.832 53.1551 20.0092 52.748 20.2045C51.0625 16.4509 47.5242 14.2053 41.6117 14.3184C36.0455 14.4263 32.7658 16.6718 31.225 20.2379C28.7862 18.8839 26.393 17.5556 23.9771 16.2145C31.7081 14.2079 37.164 10.4517 41.9808 6.08143V6.07886Z" fill="#053F5C"/>
<path d="M41.973 27.9018C37.2248 27.8967 33.3326 25.2555 33.3706 22.0619C33.4087 18.8324 37.2552 16.2734 42.0491 16.2837C46.7555 16.294 50.5716 18.8761 50.6058 22.0773C50.6438 25.2581 46.7174 27.9069 41.973 27.9018Z" fill="#F7AD19"/>
<path d="M14.9601 34.7899C17.2695 33.9189 19.3811 33.1071 21.5308 32.3414C21.7324 32.2695 22.2308 32.4339 22.4705 32.5778C26.5758 35.0443 30.6582 37.5236 34.7482 39.9978C36.0456 40.7814 37.3468 41.5599 38.8192 42.4462C37.0424 42.4873 35.5966 42.5439 34.1014 41.9735C28.109 39.6817 22.0368 37.4825 15.9988 35.2472C15.7325 35.1496 15.489 35.0237 14.9563 34.7899H14.9601Z" fill="#053F5C"/>
<path d="M45.2375 42.4129C46.3637 41.7243 47.391 41.0923 48.4259 40.4654C52.7289 37.8602 57.0434 35.2653 61.3199 32.6421C61.9172 32.2747 62.37 32.2361 63.0396 32.5008C64.9572 33.2664 66.9014 34.0038 69.0472 34.8362C67.6128 35.3757 66.441 35.8202 65.2577 36.257C60.3459 38.0734 55.3998 39.8462 50.5413 41.7243C48.9015 42.3563 47.2883 42.6467 45.2375 42.4129Z" fill="#053F5C"/>
<path d="M77.585 40.4782C69.3326 41.0563 61.2629 42.5978 52.8127 42.3769C53.3035 42.233 53.7943 42.0943 54.2813 41.9478C59.9693 40.2367 65.6649 38.5359 71.3415 36.8042C71.9959 36.6038 72.3992 36.6449 72.8976 36.9738C74.5184 38.04 76.181 39.0806 77.8285 40.1288C77.7486 40.2444 77.6687 40.3626 77.5888 40.4782H77.585Z" fill="#053F5C"/>
<path d="M5.92383 40.3369C7.90226 39.0574 9.67523 37.8987 11.4786 36.7605C11.627 36.6655 12.0151 36.6398 12.2168 36.7015C18.5097 38.5796 24.7912 40.4731 31.0727 42.3666C31.0955 42.3743 31.0993 42.4026 31.126 42.4437C27.9034 42.6287 24.7417 42.382 21.5762 42.0352C16.7519 41.5059 11.9162 41.0178 7.08425 40.5091C6.82173 40.4808 6.55921 40.432 5.92383 40.3369Z" fill="#053F5C"/>
<path d="M38.9636 1.55439C40.9192 1.81645 41.6611 1.14588 41.9883 0C42.3079 1.14331 43.0384 1.82159 45.0245 1.51328C43.32 2.11448 42.989 2.90067 43.982 4.00544C42.6504 3.10364 41.3986 2.93407 40.0708 4.01314C40.767 2.94434 40.8698 2.08879 38.9674 1.55439H38.9636Z" fill="#F7AD19"/>
<path d="M32.7925 4.32652C33.1577 4.16466 33.5991 3.96683 34.0024 3.78955C34.322 3.936 34.7823 4.14667 35.1704 4.32395C35.0334 4.59372 34.847 4.9714 34.6948 5.27714H33.2224C33.0892 4.98425 32.9218 4.60657 32.7925 4.32652Z" fill="#F7AD19"/>
<path d="M50.7276 5.2772H49.2666C49.1296 4.99201 48.947 4.61947 48.791 4.30089C49.1106 4.17756 49.5672 4.00286 50.0466 3.81787C50.3205 3.94376 50.7809 4.15444 51.1727 4.33172C51.0472 4.60149 50.8722 4.97146 50.7276 5.2772Z" fill="#F7AD19"/>
</svg>
