<svg width="230" height="50" viewBox="0 0 230 50" fill="none" xmlns="http://www.w3.org/2000/svg">
<path d="M107.565 18.7534H123.933V22.525H100.648V2.21777H123.374V5.98941H107.565V18.7534ZM107.048 10.3982H121.525V14.0542H107.048V10.3982Z" fill="#F7AD19"/>
<path d="M138.756 22.7563C136.58 22.7563 134.616 22.4223 132.87 21.7543C131.124 21.0863 129.739 20.1536 128.723 18.9538C127.707 17.754 127.197 16.3435 127.197 14.7171C127.197 13.0908 127.707 11.652 128.723 10.4522C129.739 9.25238 131.12 8.32489 132.87 7.66716C134.616 7.00944 136.58 6.68058 138.756 6.68058C140.704 6.68058 142.408 6.9709 143.869 7.55155C145.33 8.1322 146.46 9.01344 147.263 10.1927C148.066 11.372 148.465 12.8801 148.465 14.7171C148.465 16.5541 148.077 18.0392 147.305 19.2287C146.533 20.4183 145.422 21.3021 143.976 21.8827C142.53 22.4634 140.788 22.7537 138.756 22.7537V22.7563ZM139.916 19.0437C141.004 19.0437 141.994 18.869 142.88 18.5222C143.767 18.1753 144.478 17.6769 145.007 17.0295C145.536 16.382 145.802 15.6138 145.802 14.7223C145.802 13.8308 145.536 13.0394 145.007 12.4023C144.478 11.7651 143.767 11.2718 142.88 10.9224C141.994 10.5755 141.004 10.4008 139.916 10.4008C138.828 10.4008 137.797 10.5755 136.911 10.9224C136.024 11.2718 135.313 11.7625 134.784 12.4023C134.255 13.0394 133.989 13.8153 133.989 14.7223C133.989 15.6292 134.255 16.382 134.784 17.0295C135.313 17.6769 136.024 18.1753 136.911 18.5222C137.797 18.8716 138.802 19.0437 139.916 19.0437ZM145.973 22.5251V19.3341L146.103 14.6915L145.673 10.0797V1H152.377V22.5251H145.973Z" fill="#F7AD19"/>
<path d="M168.311 22.7563C166.393 22.7563 164.681 22.5045 163.178 22.001C161.675 21.4974 160.507 20.7292 159.678 19.6938C158.848 18.6584 158.434 17.3404 158.434 15.7346V6.91699H165.137V15.0692C165.137 16.3641 165.545 17.3173 166.363 17.9262C167.181 18.5351 168.33 18.8408 169.821 18.8408C170.852 18.8408 171.769 18.6918 172.572 18.3912C173.375 18.0906 174.002 17.6281 174.463 16.9987C174.919 16.3692 175.151 15.583 175.151 14.635V6.91699H181.855V22.5251H175.498V18.2319L176.658 19.4806C175.886 20.5648 174.748 21.3818 173.241 21.9316C171.735 22.4814 170.099 22.7589 168.322 22.7589L168.311 22.7563Z" fill="#F7AD19"/>
<path d="M111.819 48.1327C109.586 48.1327 107.444 47.8861 105.397 47.3928C103.35 46.8995 101.767 46.2674 100.648 45.4915L101.896 43.837C102.954 44.5332 104.381 45.119 106.173 45.5917C107.961 46.067 109.844 46.3034 111.823 46.3034C113.801 46.3034 115.251 46.1441 116.442 45.8255C117.629 45.507 118.504 45.0753 119.063 44.5358C119.622 43.9937 119.9 43.395 119.9 42.7373C119.9 41.9434 119.561 41.3063 118.892 40.8232C118.218 40.3402 117.34 39.9574 116.251 39.6774C115.163 39.3973 113.961 39.1507 112.641 38.9374C111.324 38.7242 110.004 38.4981 108.688 38.2566C107.371 38.0151 106.161 37.6913 105.058 37.2854C103.955 36.8795 103.068 36.3425 102.395 35.6745C101.721 35.0065 101.387 34.1329 101.387 33.0487C101.387 32.0442 101.778 31.1192 102.57 30.2791C103.357 29.439 104.567 28.7607 106.199 28.2494C107.832 27.7381 109.924 27.4812 112.473 27.4812C114.163 27.4812 115.837 27.6405 117.499 27.9591C119.162 28.2777 120.593 28.7196 121.795 29.2797L120.722 30.9908C119.432 30.4101 118.066 29.9862 116.62 29.7139C115.175 29.4441 113.778 29.3079 112.432 29.3079C110.628 29.3079 109.137 29.4724 107.965 29.8012C106.789 30.1301 105.926 30.5694 105.366 31.1218C104.807 31.6716 104.529 32.2959 104.529 32.9922C104.529 33.7861 104.864 34.4233 105.537 34.9063C106.211 35.3893 107.097 35.767 108.201 36.0368C109.304 36.3091 110.514 36.5506 111.83 36.7613C113.147 36.9745 114.459 37.2058 115.761 37.4575C117.062 37.7093 118.268 38.033 119.371 38.4287C120.475 38.8244 121.361 39.3536 122.035 40.0088C122.708 40.6665 123.043 41.5272 123.043 42.5909C123.043 43.5775 122.643 44.4921 121.84 45.3322C121.038 46.1724 119.813 46.8507 118.165 47.3619C116.518 47.8758 114.406 48.1301 111.827 48.1301L111.819 48.1327Z" fill="#EBEBEB"/>
<path d="M157.486 32.5837C159.32 32.5837 160.914 32.8201 162.276 33.2954C163.634 33.7682 164.696 34.4901 165.456 35.4561C166.214 36.4222 166.594 37.6426 166.594 39.1122V47.9606H163.543V39.3151C163.543 37.7094 162.976 36.4967 161.846 35.6745C160.712 34.8524 159.118 34.4413 157.056 34.4413C155.511 34.4413 154.172 34.6597 153.038 35.0939C151.908 35.5281 151.033 36.1575 150.417 36.9797C149.8 37.8019 149.492 38.7936 149.492 39.9523V47.9606H146.441V39.3151C146.441 37.7094 145.866 36.4967 144.721 35.6745C143.576 34.8524 141.97 34.4413 139.908 34.4413C138.39 34.4413 137.058 34.6597 135.913 35.0939C134.768 35.5281 133.885 36.1575 133.273 36.9797C132.656 37.8019 132.348 38.7936 132.348 39.9523V47.9606H129.297V32.7302H132.219V36.8487L131.747 36.1241C132.436 35.0219 133.543 34.1561 135.076 33.5266C136.609 32.8972 138.42 32.5837 140.509 32.5837C142.716 32.5837 144.592 32.9563 146.136 33.7014C147.681 34.4464 148.685 35.5641 149.142 37.0516L147.94 36.7331C148.598 35.4947 149.766 34.4952 151.44 33.7296C153.114 32.9666 155.127 32.5837 157.474 32.5837H157.486Z" fill="#EBEBEB"/>
<path d="M181.243 48.1045C179.553 48.1045 178.085 47.9169 176.841 47.5393C175.597 47.1616 174.642 46.64 173.983 45.972C173.325 45.304 172.994 44.5358 172.994 43.6648C172.994 42.871 173.272 42.1516 173.831 41.5041C174.39 40.8567 175.307 40.3351 176.582 39.9369C177.857 39.5412 179.569 39.3434 181.714 39.3434H189.491V40.8798H181.802C179.626 40.8798 178.115 41.1419 177.271 41.6634C176.426 42.185 176.004 42.835 176.004 43.6083C176.004 44.4793 176.506 45.1756 177.506 45.6971C178.507 46.2187 179.911 46.4807 181.718 46.4807C183.525 46.4807 184.918 46.2161 186.166 45.6817C187.41 45.1499 188.319 44.3817 188.894 43.3745L189.582 44.7953C189.008 45.8025 188.015 46.6041 186.596 47.2027C185.177 47.8013 183.396 48.1019 181.246 48.1019L181.243 48.1045ZM189.019 47.9606V44.5949L188.89 44.0425V38.4133C188.89 37.1184 188.354 36.1216 187.281 35.4253C186.208 34.7291 184.61 34.3822 182.491 34.3822C181.03 34.3822 179.641 34.5466 178.324 34.8755C177.008 35.2044 175.889 35.6386 174.973 36.1807L173.599 34.6443C174.744 33.9865 176.118 33.4804 177.723 33.1207C179.329 32.7636 181.018 32.5837 182.791 32.5837C185.713 32.5837 187.969 33.0719 189.56 34.0482C191.15 35.0245 191.945 36.5095 191.945 38.5007V47.958H189.023L189.019 47.9606Z" fill="#EBEBEB"/>
<path d="M200.232 47.9605V32.7301H203.154V36.8794L202.854 36.1548C203.485 34.9936 204.543 34.1097 206.035 33.5008C207.522 32.8919 209.371 32.5862 211.578 32.5862V34.5876C211.464 34.5876 211.35 34.5825 211.236 34.5722C211.121 34.5619 211.007 34.5568 210.893 34.5568C208.515 34.5568 206.655 35.0449 205.308 36.0212C203.961 36.9976 203.288 38.3849 203.288 40.1834V47.9579H200.236L200.232 47.9605Z" fill="#EBEBEB"/>
<path d="M214.579 34.4412V32.7301H228.542V34.4412H214.579ZM225.232 48.1044C223.113 48.1044 221.481 47.719 220.336 46.9431C219.19 46.1697 218.616 45.0778 218.616 43.6647V29.3618H221.667V43.5491C221.667 44.4381 222.002 45.1266 222.675 45.6097C223.349 46.0927 224.315 46.3342 225.575 46.3342C226.921 46.3342 228.036 46.0721 228.927 45.5506L229.999 47.0304C229.398 47.3978 228.675 47.6676 227.831 47.8423C226.986 48.017 226.119 48.1044 225.232 48.1044Z" fill="#EBEBEB"/>
<path d="M111.819 48.1327C109.586 48.1327 107.444 47.8861 105.397 47.3928C103.35 46.8995 101.767 46.2674 100.648 45.4915L101.896 43.837C102.954 44.5332 104.381 45.119 106.173 45.5917C107.961 46.067 109.844 46.3034 111.823 46.3034C113.801 46.3034 115.251 46.1441 116.442 45.8255C117.629 45.507 118.504 45.0753 119.063 44.5358C119.622 43.9937 119.9 43.395 119.9 42.7373C119.9 41.9434 119.561 41.3063 118.892 40.8232C118.218 40.3402 117.34 39.9574 116.251 39.6774C115.163 39.3973 113.961 39.1507 112.641 38.9374C111.324 38.7242 110.004 38.4981 108.688 38.2566C107.371 38.0151 106.161 37.6913 105.058 37.2854C103.955 36.8795 103.068 36.3425 102.395 35.6745C101.721 35.0065 101.387 34.1329 101.387 33.0487C101.387 32.0442 101.778 31.1192 102.57 30.2791C103.357 29.439 104.567 28.7607 106.199 28.2494C107.832 27.7381 109.924 27.4812 112.473 27.4812C114.163 27.4812 115.837 27.6405 117.499 27.9591C119.162 28.2777 120.593 28.7196 121.795 29.2797L120.722 30.9908C119.432 30.4101 118.066 29.9862 116.62 29.7139C115.175 29.4441 113.778 29.3079 112.432 29.3079C110.628 29.3079 109.137 29.4724 107.965 29.8012C106.789 30.1301 105.926 30.5694 105.366 31.1218C104.807 31.6716 104.529 32.2959 104.529 32.9922C104.529 33.7861 104.864 34.4233 105.537 34.9063C106.211 35.3893 107.097 35.767 108.201 36.0368C109.304 36.3091 110.514 36.5506 111.83 36.7613C113.147 36.9745 114.459 37.2058 115.761 37.4575C117.062 37.7093 118.268 38.033 119.371 38.4287C120.475 38.8244 121.361 39.3536 122.035 40.0088C122.708 40.6665 123.043 41.5272 123.043 42.5909C123.043 43.5775 122.643 44.4921 121.84 45.3322C121.038 46.1724 119.813 46.8507 118.165 47.3619C116.518 47.8758 114.406 48.1301 111.827 48.1301L111.819 48.1327Z" fill="#EBEBEB"/>
<path d="M157.486 32.5837C159.32 32.5837 160.914 32.8201 162.276 33.2954C163.634 33.7682 164.696 34.4901 165.456 35.4561C166.214 36.4222 166.594 37.6426 166.594 39.1122V47.9606H163.543V39.3151C163.543 37.7094 162.976 36.4967 161.846 35.6745C160.712 34.8524 159.118 34.4413 157.056 34.4413C155.511 34.4413 154.172 34.6597 153.038 35.0939C151.908 35.5281 151.033 36.1575 150.417 36.9797C149.8 37.8019 149.492 38.7936 149.492 39.9523V47.9606H146.441V39.3151C146.441 37.7094 145.866 36.4967 144.721 35.6745C143.576 34.8524 141.97 34.4413 139.908 34.4413C138.39 34.4413 137.058 34.6597 135.913 35.0939C134.768 35.5281 133.885 36.1575 133.273 36.9797C132.656 37.8019 132.348 38.7936 132.348 39.9523V47.9606H129.297V32.7302H132.219V36.8487L131.747 36.1241C132.436 35.0219 133.543 34.1561 135.076 33.5266C136.609 32.8972 138.42 32.5837 140.509 32.5837C142.716 32.5837 144.592 32.9563 146.136 33.7014C147.681 34.4464 148.685 35.5641 149.142 37.0516L147.94 36.7331C148.598 35.4947 149.766 34.4952 151.44 33.7296C153.114 32.9666 155.127 32.5837 157.474 32.5837H157.486Z" fill="#EBEBEB"/>
<path d="M181.243 48.1045C179.553 48.1045 178.085 47.9169 176.841 47.5393C175.597 47.1616 174.642 46.64 173.983 45.972C173.325 45.304 172.994 44.5358 172.994 43.6648C172.994 42.871 173.272 42.1516 173.831 41.5041C174.39 40.8567 175.307 40.3351 176.582 39.9369C177.857 39.5412 179.569 39.3434 181.714 39.3434H189.491V40.8798H181.802C179.626 40.8798 178.115 41.1419 177.271 41.6634C176.426 42.185 176.004 42.835 176.004 43.6083C176.004 44.4793 176.506 45.1756 177.506 45.6971C178.507 46.2187 179.911 46.4807 181.718 46.4807C183.525 46.4807 184.918 46.2161 186.166 45.6817C187.41 45.1499 188.319 44.3817 188.894 43.3745L189.582 44.7953C189.008 45.8025 188.015 46.6041 186.596 47.2027C185.177 47.8013 183.396 48.1019 181.246 48.1019L181.243 48.1045ZM189.019 47.9606V44.5949L188.89 44.0425V38.4133C188.89 37.1184 188.354 36.1216 187.281 35.4253C186.208 34.7291 184.61 34.3822 182.491 34.3822C181.03 34.3822 179.641 34.5466 178.324 34.8755C177.008 35.2044 175.889 35.6386 174.973 36.1807L173.599 34.6443C174.744 33.9865 176.118 33.4804 177.723 33.1207C179.329 32.7636 181.018 32.5837 182.791 32.5837C185.713 32.5837 187.969 33.0719 189.56 34.0482C191.15 35.0245 191.945 36.5095 191.945 38.5007V47.958H189.023L189.019 47.9606Z" fill="#EBEBEB"/>
<path d="M200.232 47.9605V32.7301H203.154V36.8794L202.854 36.1548C203.485 34.9936 204.543 34.1097 206.035 33.5008C207.522 32.8919 209.371 32.5862 211.578 32.5862V34.5876C211.464 34.5876 211.35 34.5825 211.236 34.5722C211.121 34.5619 211.007 34.5568 210.893 34.5568C208.515 34.5568 206.655 35.0449 205.308 36.0212C203.961 36.9976 203.288 38.3849 203.288 40.1834V47.9579H200.236L200.232 47.9605Z" fill="#EBEBEB"/>
<path d="M214.579 34.4412V32.7301H228.542V34.4412H214.579ZM225.232 48.1044C223.113 48.1044 221.481 47.719 220.336 46.9431C219.19 46.1697 218.616 45.0778 218.616 43.6647V29.3618H221.667V43.5491C221.667 44.4381 222.002 45.1266 222.675 45.6097C223.349 46.0927 224.315 46.3342 225.575 46.3342C226.921 46.3342 228.036 46.0721 228.927 45.5506L229.999 47.0304C229.398 47.3978 228.675 47.6676 227.831 47.8423C226.986 48.017 226.119 48.1044 225.232 48.1044Z" fill="#EBEBEB"/>
<path d="M69.2444 7.65381C69.2444 9.29812 69.3889 10.9501 69.2215 12.5867C68.3883 20.7389 63.5374 27.7889 55.8253 33.9551C53.0136 36.2031 49.7568 38.2046 46.5761 40.2266C45.0162 41.2209 43.6465 42.2434 42.9122 43.618C42.6763 44.0599 42.3796 44.4864 42.0105 45.0824C41.6833 44.5891 41.3904 44.232 41.2001 43.8543C40.3973 42.2511 38.826 41.0796 36.9427 39.9902C27.0087 34.248 19.6315 27.3444 16.2111 18.7067C14.8984 15.3923 14.4419 12.0112 14.6626 8.58644C14.6816 8.28841 14.7386 7.99038 14.9555 7.6795C15.5681 8.81253 16.135 9.95841 16.7932 11.0812C19.7684 16.1554 23.6986 20.8417 29.1926 24.8831C32.5864 27.3804 36.4823 29.4306 40.9719 30.9696C41.7024 31.2214 42.2807 31.2086 43.0074 30.9619C49.6465 28.7061 54.8094 25.3353 59.0783 21.2939C63.4841 17.124 66.6724 12.5431 68.9704 7.66922C69.0617 7.66409 69.1531 7.65895 69.2444 7.65381Z" fill="#F7AD19"/>
<path d="M44.5717 43.4071C45.1082 43.4071 45.4848 43.4071 45.8653 43.4071C57.2489 43.4071 68.6363 43.4148 80.0199 43.3943C80.9063 43.3943 81.4504 43.5587 81.8575 44.0828C82.4853 44.8947 83.1853 45.6809 83.9653 46.6084C83.3185 46.6084 82.881 46.6084 82.4434 46.6084C71.5849 46.6084 60.7226 46.6033 49.864 46.6084C47.9351 46.6084 48.0872 46.4671 48.0834 47.78C48.0834 48.746 47.6878 49.5065 46.2458 49.8585C45.8958 49.9433 45.5001 49.9869 45.1234 49.9895C43.0917 50.0024 41.06 50.0024 39.0283 49.9947C36.8939 49.9844 35.9085 49.3035 35.8895 47.8493C35.8704 46.3515 35.9465 46.6187 33.9985 46.6161C23.2085 46.6058 12.4184 46.611 1.6284 46.6084C1.17564 46.6084 0.722888 46.6084 0 46.6084C0.913121 45.5422 1.70449 44.5607 2.59479 43.6229C2.75078 43.4585 3.33289 43.42 3.72097 43.4174C11.7793 43.4071 19.8338 43.4097 27.892 43.4097C31.2896 43.4097 34.6872 43.4097 38.0848 43.4097H39.3974C39.3974 44.1882 39.3898 44.9127 39.3974 45.6372C39.4088 46.8088 40.3828 47.5153 41.9731 47.5153C43.5711 47.5153 44.5451 46.8139 44.5603 45.6424C44.5679 44.9358 44.5603 44.2293 44.5603 43.4071H44.5717Z" fill="#EBEBEB"/>
<path d="M41.9803 6.0791C46.8198 10.4288 52.2415 14.2133 59.9954 16.2096C58.4431 17.0754 56.9364 17.9515 55.3651 18.7737C54.7602 19.0897 54.5547 19.416 54.6384 19.9144C54.7678 20.6878 54.8134 21.4662 54.8971 22.3064C54.5433 22.3269 54.2541 22.3449 53.9345 22.3655V19.6318C53.5198 19.8322 53.1546 20.0095 52.7475 20.2048C51.062 16.4511 47.5237 14.2056 41.6112 14.3186C36.045 14.4265 32.7654 16.6721 31.2245 20.2382C28.7857 18.8842 26.3925 17.5559 23.9766 16.2147C31.7077 14.2082 37.1636 10.4519 41.9803 6.08167V6.0791Z" fill="#EBEBEB"/>
<path d="M41.9728 27.9018C37.2245 27.8967 33.3323 25.2555 33.3704 22.0619C33.4084 18.8324 37.255 16.2734 42.0488 16.2837C46.7552 16.294 50.5713 18.8761 50.6056 22.0773C50.6436 25.2581 46.7172 27.9069 41.9728 27.9018Z" fill="#F7AD19"/>
<path d="M14.9599 34.7902C17.2693 33.9192 19.3809 33.1073 21.5305 32.3417C21.7322 32.2697 22.2306 32.4342 22.4703 32.5781C26.5755 35.0445 30.6579 37.5238 34.748 39.998C36.0453 40.7816 37.3465 41.5601 38.819 42.4465C37.0422 42.4876 35.5964 42.5441 34.1012 41.9737C28.1088 39.682 22.0365 37.4827 15.9985 35.2475C15.7322 35.1499 15.4887 35.024 14.9561 34.7902H14.9599Z" fill="#EBEBEB"/>
<path d="M45.2373 42.4129C46.3635 41.7243 47.3908 41.0923 48.4256 40.4654C52.7287 37.8602 57.0432 35.2653 61.3196 32.6421C61.917 32.2747 62.3697 32.2361 63.0394 32.5008C64.9569 33.2664 66.9011 34.0038 69.0469 34.8362C67.6126 35.3757 66.4407 35.8202 65.2575 36.257C60.3457 38.0734 55.3996 39.8462 50.541 41.7243C48.9012 42.3563 47.288 42.6467 45.2373 42.4129Z" fill="#EBEBEB"/>
<path d="M77.5847 40.4782C69.3324 41.0563 61.2627 42.5978 52.8125 42.3769C53.3033 42.233 53.7941 42.0943 54.2811 41.9478C59.9691 40.2367 65.6647 38.5359 71.3413 36.8042C71.9957 36.6038 72.399 36.6449 72.8974 36.9738C74.5182 38.04 76.1808 39.0806 77.8282 40.1288C77.7483 40.2444 77.6684 40.3626 77.5885 40.4782H77.5847Z" fill="#EBEBEB"/>
<path d="M5.92383 40.3369C7.90226 39.0574 9.67523 37.8987 11.4786 36.7605C11.627 36.6655 12.0151 36.6398 12.2168 36.7015C18.5097 38.5796 24.7912 40.4731 31.0727 42.3666C31.0955 42.3743 31.0993 42.4026 31.126 42.4437C27.9034 42.6287 24.7417 42.382 21.5762 42.0352C16.7519 41.5059 11.9162 41.0178 7.08425 40.5091C6.82173 40.4808 6.55921 40.432 5.92383 40.3369Z" fill="#EBEBEB"/>
<path d="M38.9636 1.55439C40.9192 1.81645 41.6611 1.14588 41.9883 0C42.3079 1.14331 43.0384 1.82159 45.0245 1.51328C43.32 2.11448 42.989 2.90067 43.982 4.00544C42.6504 3.10364 41.3986 2.93407 40.0708 4.01314C40.767 2.94434 40.8698 2.08879 38.9674 1.55439H38.9636Z" fill="#F7AD19"/>
<path d="M32.793 4.32652C33.1582 4.16466 33.5996 3.96683 34.0029 3.78955C34.3224 3.936 34.7828 4.14667 35.1709 4.32395C35.0339 4.59372 34.8475 4.9714 34.6953 5.27714H33.2229C33.0897 4.98425 32.9223 4.60657 32.793 4.32652Z" fill="#F7AD19"/>
<path d="M50.7276 5.2772H49.2666C49.1296 4.99201 48.947 4.61947 48.791 4.30089C49.1106 4.17756 49.5672 4.00286 50.0466 3.81787C50.3205 3.94376 50.7809 4.15444 51.1727 4.33172C51.0472 4.60149 50.8722 4.97146 50.7276 5.2772Z" fill="#F7AD19"/>
</svg>
