<svg width="128" height="120" viewBox="0 0 128 120" fill="none" xmlns="http://www.w3.org/2000/svg">
<path d="M35.4927 36.4163H34.7458V35.9184H34.9948V35.6695H35.4927V36.4163Z" fill="#EBEBEB"/>
<path d="M33.738 36.4155H32.7308V35.9181H33.738V36.4155ZM31.7236 36.4155H30.7164V35.9181H31.7236V36.4155ZM29.7092 36.4155H28.702V35.9181H29.7092V36.4155ZM27.6979 36.4155H26.6907V35.9181H27.6979V36.4155ZM25.6835 36.4155H24.6763V35.9181H25.6835V36.4155ZM23.6691 36.4155H22.6618V35.9181H23.6691V36.4155ZM21.6546 36.4155H20.6474V35.9181H21.6546V36.4155ZM19.6433 36.4155H18.6361V35.9181H19.6433V36.4155ZM17.6289 36.4155H16.6217V35.9181H17.6289V36.4155ZM15.6145 36.4155H14.6073V35.9181H15.6145V36.4155ZM13.6001 36.4155H12.5929V35.9181H13.6001V36.4155ZM11.5888 36.4155H10.5816V35.9181H11.5888V36.4155ZM9.57435 36.4155H8.56714V35.9181H9.57435V36.4155Z" fill="#EBEBEB"/>
<path d="M7.56053 36.4163H6.81372V35.6695H7.31159V35.9184H7.56053V36.4163Z" fill="#EBEBEB"/>
<path d="M7.31111 34.661H6.81372V33.6529H7.31111V34.661ZM7.31111 32.6447H6.81372V31.6365H7.31111V32.6447ZM7.31111 30.6283H6.81372V29.6201H7.31111V30.6283ZM7.31111 28.6119H6.81372V27.6037H7.31111V28.6119ZM7.31111 26.5986H6.81372V25.5904H7.31111V26.5986ZM7.31111 24.5822H6.81372V23.574H7.31111V24.5822ZM7.31111 22.5658H6.81372V21.5577H7.31111V22.5658ZM7.31111 20.5526H6.81372V19.5444H7.31111V20.5526ZM7.31111 18.5362H6.81372V17.528H7.31111V18.5362ZM7.31111 16.5198H6.81372V15.5116H7.31111V16.5198ZM7.31111 14.5034H6.81372V13.4952H7.31111V14.5034ZM7.31111 12.4902H6.81372V11.482H7.31111V12.4902ZM7.31111 10.4738H6.81372V9.46558H7.31111V10.4738Z" fill="#EBEBEB"/>
<path d="M7.31159 8.4575H6.81372V7.71069H7.56053V8.20857H7.31159V8.4575Z" fill="#EBEBEB"/>
<path d="M33.738 8.20808H32.7308V7.71069H33.738V8.20808ZM31.7236 8.20808H30.7164V7.71069H31.7236V8.20808ZM29.7092 8.20808H28.702V7.71069H29.7092V8.20808ZM27.6979 8.20808H26.6907V7.71069H27.6979V8.20808ZM25.6835 8.20808H24.6763V7.71069H25.6835V8.20808ZM23.6691 8.20808H22.6618V7.71069H23.6691V8.20808ZM21.6546 8.20808H20.6474V7.71069H21.6546V8.20808ZM19.6433 8.20808H18.6361V7.71069H19.6433V8.20808ZM17.6289 8.20808H16.6217V7.71069H17.6289V8.20808ZM15.6145 8.20808H14.6073V7.71069H15.6145V8.20808ZM13.6001 8.20808H12.5929V7.71069H13.6001V8.20808ZM11.5888 8.20808H10.5816V7.71069H11.5888V8.20808ZM9.57435 8.20808H8.56714V7.71069H9.57435V8.20808Z" fill="#EBEBEB"/>
<path d="M35.4927 8.4575H34.9948V8.20857H34.7458V7.71069H35.4927V8.4575Z" fill="#EBEBEB"/>
<path d="M35.492 34.661H34.9946V33.6529H35.492V34.661ZM35.492 32.6447H34.9946V31.6365H35.492V32.6447ZM35.492 30.6283H34.9946V29.6201H35.492V30.6283ZM35.492 28.615H34.9946V27.6068H35.492V28.615ZM35.492 26.5986H34.9946V25.5904H35.492V26.5986ZM35.492 24.5822H34.9946V23.574H35.492V24.5822ZM35.492 22.5658H34.9946V21.5577H35.492V22.5658ZM35.492 20.5526H34.9946V19.5444H35.492V20.5526ZM35.492 18.5362H34.9946V17.528H35.492V18.5362ZM35.492 16.5198H34.9946V15.5116H35.492V16.5198ZM35.492 14.5034H34.9946V13.4952H35.492V14.5034ZM35.492 12.4902H34.9946V11.482H35.492V12.4902ZM35.492 10.4738H34.9946V9.46558H35.492V10.4738Z" fill="#EBEBEB"/>
<path d="M8.81944 34.4089H5.30664V37.9252H8.81944V34.4089Z" fill="white"/>
<path d="M9.0678 38.1712H5.05762V34.1571H9.0678V38.1712ZM5.555 37.6733H8.5673V34.655H5.555V37.6733Z" fill="#EBEBEB"/>
<path d="M8.81944 20.3066H5.30664V23.8229H8.81944V20.3066Z" fill="white"/>
<path d="M9.0678 24.0689H5.05762V20.0548H9.0678V24.0689ZM5.555 23.571H8.5673V20.5527H5.555V23.571Z" fill="#EBEBEB"/>
<path d="M8.81968 6.20123H5.30688V9.71746H8.81968V6.20123Z" fill="white"/>
<path d="M9.06804 9.96698H5.05786V5.95288H9.06804V9.96698ZM5.55525 9.46911H8.56755V6.45387H5.55525V9.46911Z" fill="#EBEBEB"/>
<path d="M36.9989 34.4089H33.4861V37.9252H36.9989V34.4089Z" fill="white"/>
<path d="M37.2446 38.1712H33.2344V34.1571H37.2446V38.1712ZM33.7349 37.6733H36.7503V34.655H33.7349V37.6733Z" fill="#EBEBEB"/>
<path d="M36.9986 20.3066H33.4858V23.8229H36.9986V20.3066Z" fill="white"/>
<path d="M37.2446 24.0689H33.2344V20.0548H37.2446V24.0689ZM33.7349 23.571H36.7503V20.5527H33.7349V23.571Z" fill="#EBEBEB"/>
<path d="M36.9986 6.20123H33.4858V9.71746H36.9986V6.20123Z" fill="white"/>
<path d="M37.2446 9.96698H33.2344V5.95288H37.2446V9.96698ZM33.7349 9.46911H36.7503V6.45387H33.7349V9.46911Z" fill="#EBEBEB"/>
<path d="M22.9107 6.20123H19.3979V9.71746H22.9107V6.20123Z" fill="white"/>
<path d="M23.1565 9.96698H19.1494V5.95288H23.1596V9.96698H23.1565ZM19.6468 9.46911H22.6622V6.45387H19.6468V9.46911Z" fill="#EBEBEB"/>
<path d="M22.9107 34.4088H19.3979V37.925H22.9107V34.4088Z" fill="white"/>
<path d="M23.1565 38.1712H19.1494V34.1571H23.1596V38.1712H23.1565ZM19.6468 37.6733H22.6622V34.655H19.6468V37.6733Z" fill="#EBEBEB"/>
<path d="M29.0628 19.4917H28.5685C27.1665 15.2598 26.3645 13.5203 24.0019 13.5203H23.691V30.6067H25.8951V31.1512H16.4323V30.6067H18.6363V13.5203H18.2975C15.938 13.5203 15.0551 15.4682 13.7308 19.4917H13.2366L13.4946 12.9758H28.7986L29.0628 19.4917Z" fill="#EBEBEB"/>
<path d="M14.0074 78.3218H5.77563V81.8038H14.0074V78.3218Z" fill="#EBEBEB"/>
<path d="M57.0186 51.1346H48.7869V54.6166H57.0186V51.1346Z" fill="#EBEBEB"/>
<path d="M9.41584 82.712H1.18408V86.194H9.41584V82.712Z" fill="#EBEBEB"/>
<path d="M124.695 82.712H116.463V86.194H124.695V82.712Z" fill="#EBEBEB"/>
<path d="M120.103 0H111.871V3.482H120.103V0Z" fill="#EBEBEB"/>
<path d="M124.695 4.39069H116.463V7.87268H124.695V4.39069Z" fill="#EBEBEB"/>
<path d="M14.0074 0H5.77563V3.482H14.0074V0Z" fill="#EBEBEB"/>
<path d="M124.694 26.3652H64.9365V28.9324H124.694V26.3652Z" fill="#EBEBEB"/>
<path d="M73.626 39.0457H71.2976L70.365 28.9358H73.626V39.0457Z" fill="#EBEBEB"/>
<path d="M116.006 39.0457H118.335L119.27 28.9358H116.006V39.0457Z" fill="#EBEBEB"/>
<path d="M70.365 28.9358H73.626V32.4178H70.6852L70.365 28.9358Z" fill="#DBDBDB"/>
<path d="M119.267 28.9358L118.947 32.4178H116.01V28.9358H119.267Z" fill="#DBDBDB"/>
<path d="M86.5768 10.9594C83.9251 14.5535 81.1615 18.7263 80.4869 23.2351C80.4776 23.3036 80.5895 23.3254 80.605 23.2569C80.9128 22.0216 81.3013 20.8204 81.777 19.6473C83.5209 19.1681 85.2307 18.7729 86.1478 17.0397C87.0804 15.2598 86.9622 12.9385 86.785 10.9968C86.7726 10.8941 86.6327 10.8879 86.5768 10.9594Z" fill="#EBEBEB"/>
<path d="M81.8019 19.6128C82.9926 16.9367 84.522 14.2513 86.465 12.0514C86.4774 12.0358 86.4991 12.0576 86.4867 12.0732C85.2153 13.6415 84.2485 15.3467 83.3034 17.083C84.1801 16.1899 85.1438 15.3902 85.9738 14.4443C85.9893 14.4256 86.0173 14.4536 86.0018 14.4723C85.1748 15.4649 84.2733 16.5416 83.1977 17.2759C82.9086 17.808 82.6164 18.3432 82.3242 18.8785C82.3957 18.838 82.4703 18.8007 82.5449 18.7664C82.5574 18.7602 82.5698 18.7789 82.5574 18.7851C82.4765 18.8256 82.3957 18.8691 82.3087 18.9065C82.1688 19.1585 82.032 19.4137 81.8859 19.6657C81.8548 19.7186 81.7771 19.6688 81.8019 19.6128Z" fill="#A6A6A6"/>
<path d="M82.6883 18.6793C83.4001 18.2716 84.0841 17.8329 84.7244 17.3194C84.7431 17.3039 84.768 17.3288 84.7493 17.3443C84.1214 17.8764 83.453 18.3525 82.7194 18.729C82.6852 18.7446 82.6572 18.6979 82.6883 18.6793Z" fill="#A6A6A6"/>
<path d="M80.1973 23.1914C80.2035 23.2474 80.2968 23.2443 80.2937 23.1883C80.3061 21.704 80.2937 20.2135 80.3185 18.7199C80.6978 17.9513 81.5154 17.5281 82.0811 16.912C82.4915 16.467 82.8397 15.9661 83.1381 15.4371C83.8406 14.1799 84.2199 12.7703 84.366 11.3421C84.5214 9.7551 83.9215 4.51499 83.2531 4.69547C82.9049 4.78882 81.7827 7.38398 81.4874 8.24281C80.9993 9.65552 80.6574 11.118 80.4304 12.593C79.8864 16.0874 79.9299 19.6752 80.1973 23.1914Z" fill="#EBEBEB"/>
<path d="M80.1847 16.7873C80.1878 16.7842 80.1878 16.7842 80.1909 16.7811C80.2717 14.9016 80.6945 13.0066 81.0893 11.1831C81.5152 9.21964 82.0126 7.37129 83.0229 5.62251C83.0416 5.59139 83.0913 5.6194 83.0726 5.65052C82.3856 7.00411 81.8945 8.44171 81.5183 9.91977C81.5867 9.81398 81.6675 9.7144 81.739 9.61483C81.767 9.57438 81.8323 9.61172 81.8043 9.65217C81.7048 9.80153 81.6147 9.97267 81.4903 10.0971C81.4872 10.1003 81.481 10.1034 81.4779 10.1034C81.1297 11.5067 80.881 12.9412 80.6665 14.3726C80.6821 14.354 80.6976 14.3353 80.7132 14.3166C80.7256 14.3042 80.7411 14.3197 80.7349 14.3322C80.71 14.3788 80.679 14.4255 80.651 14.4753C80.5422 15.2003 80.4427 15.9285 80.3432 16.6473C81.6364 15.5426 82.74 14.2388 83.3617 12.6332C83.3649 12.627 83.3773 12.6301 83.3742 12.6363C82.7649 14.3011 81.8043 15.7822 80.3215 16.7935C80.2935 16.9865 80.2686 17.1825 80.2406 17.3723C80.2344 17.4128 80.1722 17.4003 80.1722 17.363C80.1722 17.1918 80.1816 17.0207 80.1878 16.8495C80.1723 16.834 80.1629 16.806 80.1847 16.7873Z" fill="#A6A6A6"/>
<path d="M80.7941 14.0647C81.7827 12.5897 82.7028 11.1552 83.4271 9.52468C83.4365 9.50601 83.4676 9.51845 83.4582 9.53712C82.8489 11.1583 81.9972 12.7982 80.8438 14.102C80.8221 14.13 80.7755 14.0958 80.7941 14.0647Z" fill="#A6A6A6"/>
<path d="M82.106 9.16068C82.5164 8.43566 82.9454 7.73241 83.3309 6.99183C83.3402 6.97004 83.3713 6.98871 83.3619 7.0105C83.0386 7.76664 82.6532 8.53212 82.1682 9.19802C82.1434 9.23536 82.0843 9.20425 82.106 9.16068Z" fill="#A6A6A6"/>
<path d="M81.9479 9.47803C81.9573 9.47803 81.9573 9.49047 81.9479 9.49047C81.9386 9.49047 81.9386 9.47803 81.9479 9.47803Z" fill="#A6A6A6"/>
<path d="M79.4705 19.3888C79.4457 20.3721 79.34 21.3554 79.1255 22.3138C79.141 22.4196 79.1566 22.5254 79.1721 22.6343C79.483 21.5701 79.6446 20.4779 79.6943 19.3732C79.7099 19.3421 79.7192 19.311 79.6975 19.2736C79.6975 19.2736 79.6975 19.2736 79.6975 19.2705C79.7534 17.7987 79.6166 16.3113 79.3711 14.8519C78.911 12.1229 77.9069 9.506 76.0075 7.46161C75.9484 7.39937 75.8272 7.43049 75.7961 7.50517C75.0282 9.45621 75.2956 11.7869 75.9515 13.7348C76.3059 14.7834 76.8157 15.7916 77.4592 16.694C78.112 17.6089 78.9421 18.3837 79.4705 19.3888Z" fill="#EBEBEB"/>
<path d="M76.2311 8.37342C78.0342 11.3015 79.287 14.7711 79.4393 18.2282C79.4424 18.2904 79.3398 18.306 79.3305 18.2437C79.287 17.9326 79.2403 17.6245 79.1906 17.3196H79.1875C78.4414 16.6039 77.6767 15.8508 77.142 14.9578C77.1327 14.9422 77.1544 14.9236 77.1669 14.9391C77.8166 15.6797 78.4196 16.4421 79.1533 17.1017C79.0227 16.3363 78.8704 15.5863 78.6901 14.8426C78.6404 14.7866 78.5937 14.7306 78.5471 14.6746C78.516 14.6373 78.5689 14.5844 78.5999 14.6217C78.6155 14.6373 78.6279 14.6528 78.6435 14.6684C78.3886 13.6509 78.0777 12.6551 77.7015 11.6749C77.2415 11.1273 76.7316 10.6543 76.3959 9.99461C76.3866 9.97906 76.4083 9.96661 76.4208 9.98217C76.6881 10.3587 76.9492 10.7383 77.2539 11.0899C77.3751 11.23 77.5088 11.3607 77.6332 11.4945C77.2228 10.4489 76.7379 9.42517 76.1596 8.41698C76.1348 8.36719 76.2032 8.32985 76.2311 8.37342Z" fill="#A6A6A6"/>
<path d="M76.5945 11.9831C77.1758 12.7673 77.8411 13.5172 78.382 14.3262C78.3975 14.348 78.3633 14.3729 78.3447 14.3542C77.6483 13.7008 77.0608 12.8077 76.5572 12.0049C76.5416 11.98 76.5789 11.9613 76.5945 11.9831Z" fill="#A6A6A6"/>
<path d="M78.4632 14.5098L78.4881 14.5347C78.5068 14.5534 78.4788 14.5783 78.4601 14.5627L78.4352 14.5378C78.4197 14.5192 78.4477 14.4911 78.4632 14.5098Z" fill="#A6A6A6"/>
<path d="M73.1319 13.2588C73.278 14.7649 74.0676 16.5635 75.0344 17.7241C75.4634 18.2376 75.9795 18.6296 76.5763 18.9284C77.2447 19.2582 77.9441 19.6409 78.6343 19.9117C78.9576 20.7363 79.2031 21.6013 79.3617 22.5006C79.3834 22.4259 79.4052 22.3481 79.427 22.2703C78.9824 18.4585 76.5204 15.2005 73.3682 13.1064C73.2531 13.0348 73.1195 13.1313 73.1319 13.2588Z" fill="#EBEBEB"/>
<path d="M74.2195 14.3853C74.1977 14.3666 74.2257 14.3262 74.2506 14.3448C75.9199 15.5833 77.4276 17.3912 78.267 19.2987C78.2887 19.3516 78.2172 19.3951 78.1893 19.3453C78.0432 19.0871 77.8939 18.8381 77.7416 18.5923C77.7416 18.5923 77.7416 18.5923 77.7385 18.5923C77.0204 18.4554 76.3365 17.9513 75.8049 17.469C75.7894 17.4565 75.8111 17.4348 75.8267 17.4472C76.1065 17.693 76.4049 17.9171 76.7375 18.0882C77.0297 18.2376 77.3468 18.3309 77.6515 18.4523C77.3841 18.0291 77.1074 17.6215 76.8152 17.2294C76.0412 16.9649 75.3044 16.4888 74.6516 16.0127C74.6298 15.9971 74.6485 15.9629 74.6734 15.9785C75.3355 16.3768 75.9914 16.7284 76.6847 17.0551C76.2494 16.4764 75.7769 15.9287 75.2671 15.3997C75.0215 15.269 74.7759 15.1414 74.5366 15.0014C74.5179 14.989 74.5304 14.9578 74.5521 14.9641C74.7417 15.0263 74.9345 15.1259 75.1117 15.2379C74.8257 14.9485 74.5335 14.6622 74.2195 14.3853Z" fill="#A6A6A6"/>
<path d="M74.2876 15.7017C74.3312 15.7297 74.3717 15.7546 74.409 15.7888C74.4214 15.7981 74.4059 15.8137 74.3934 15.8075C74.3468 15.7888 74.3094 15.7639 74.2659 15.7359C74.2441 15.7234 74.2659 15.6892 74.2876 15.7017Z" fill="#A6A6A6"/>
<path d="M83.3002 26.3654H76.8093L77.1295 22.1086L77.2508 20.7177H82.8028L82.9241 22.1086L83.3002 26.3654Z" fill="#DBDBDB"/>
<path d="M82.9237 22.1086H77.1292L77.2504 20.7177H82.8025L82.9237 22.1086Z" fill="#C7C7C7"/>
<path d="M83.2445 19.5787H76.8096V21.0039H83.2445V19.5787Z" fill="#DBDBDB"/>
<path d="M99.074 26.3574V10.8923H95.1819V26.3574H99.074Z" fill="#C7C7C7"/>
<path d="M99.0745 11.7648V10.0659H95.1824V11.7648H99.0745Z" fill="#DBDBDB"/>
<path d="M99.0759 14.5745V13.9434H95.1839V14.5745H99.0759Z" fill="#DBDBDB"/>
<path d="M99.0732 24.3287V22.6297H95.1812V24.3287H99.0732Z" fill="#DBDBDB"/>
<path d="M101.795 26.355V8.31647H99.0753V26.355H101.795Z" fill="#DBDBDB"/>
<path d="M101.24 16.9516V10.0125H99.6084V16.9516H101.24Z" fill="#EBEBEB"/>
<path d="M121.158 24.4033L108.342 11.7222L106.429 13.6586L119.246 26.3397L121.158 24.4033Z" fill="#C7C7C7"/>
<path d="M117.777 21.8088L112.847 16.9307L111.699 18.0925L116.63 22.9707L117.777 21.8088Z" fill="#DBDBDB"/>
<path d="M106.409 26.3626V12.6586H101.793V26.3626H106.409Z" fill="#A6A6A6"/>
<path d="M106.408 24.9054V23.6296H101.792V24.9054H106.408Z" fill="#C7C7C7"/>
<path d="M106.41 22.7916V22.2973H101.794V22.7916H106.41Z" fill="#C7C7C7"/>
<path d="M90.1316 26.3651L95.2063 14.5331L92.2755 13.2737L87.2008 25.1056L90.1316 26.3651Z" fill="#A6A6A6"/>
<path d="M90.6697 25.1121L91.1431 24.0084L88.2122 22.7489L87.7389 23.8526L90.6697 25.1121Z" fill="#C7C7C7"/>
<path d="M93.6863 18.0753L94.1597 16.9716L91.2288 15.7121L90.7555 16.8158L93.6863 18.0753Z" fill="#C7C7C7"/>
<path d="M93.1866 19.2578L93.3704 18.8292L90.44 17.5703L90.2562 17.9988L93.1866 19.2578Z" fill="#C7C7C7"/>
<path d="M102.086 61.8795L84.0959 66.5875L78.0588 43.4738L91.4137 39.9762L96.0456 38.7657L97.1958 43.1688L102.086 61.8795Z" fill="#EBEBEB"/>
<path d="M80.9801 47.4858L95.6333 43.6503L95.4784 43.0572L80.8252 46.8927L80.9801 47.4858Z" fill="#DBDBDB"/>
<path d="M81.371 48.9818L96.0242 45.1462L95.8692 44.5532L81.216 48.3887L81.371 48.9818Z" fill="#DBDBDB"/>
<path d="M81.7623 50.481L96.4155 46.6454L96.2606 46.0524L81.6074 49.8879L81.7623 50.481Z" fill="#DBDBDB"/>
<path d="M82.1534 51.9803L96.8066 48.1448L96.6517 47.5517L81.9985 51.3872L82.1534 51.9803Z" fill="#DBDBDB"/>
<path d="M82.5428 53.4767L97.196 49.6412L97.0411 49.0481L82.3879 52.8836L82.5428 53.4767Z" fill="#DBDBDB"/>
<path d="M82.9349 54.9761L97.5881 51.1406L97.4332 50.5475L82.78 54.383L82.9349 54.9761Z" fill="#DBDBDB"/>
<path d="M83.3263 56.4727L97.9795 52.6372L97.8246 52.0441L83.1713 55.8797L83.3263 56.4727Z" fill="#DBDBDB"/>
<path d="M83.7201 57.9713L98.3733 54.1357L98.2184 53.5427L83.5651 57.3782L83.7201 57.9713Z" fill="#DBDBDB"/>
<path d="M84.1114 59.4704L98.7646 55.6349L98.6097 55.0418L83.9565 58.8773L84.1114 59.4704Z" fill="#DBDBDB"/>
<path d="M84.5021 60.9669L99.1553 57.1313L99.0003 56.5383L84.3471 60.3738L84.5021 60.9669Z" fill="#DBDBDB"/>
<path d="M84.8924 62.4665L99.5457 58.6309L99.3907 58.0378L84.7375 61.8734L84.8924 62.4665Z" fill="#DBDBDB"/>
<path d="M85.2836 63.9627L99.9368 60.1271L99.7818 59.5341L85.1286 63.3696L85.2836 63.9627Z" fill="#DBDBDB"/>
<path d="M106.861 68.548L88.2994 69.5873L86.9658 45.7329L100.75 44.9612L105.783 49.2398L106.861 68.548Z" fill="#EBEBEB"/>
<path d="M100.75 44.9612L105.782 49.2398L101.004 49.5074L100.75 44.9612Z" fill="#DBDBDB"/>
<path d="M89.0394 50.2516L99.3591 49.6732L99.3249 49.0618L89.0052 49.6402L89.0394 50.2516Z" fill="#DBDBDB"/>
<path d="M89.1243 51.797L99.4441 51.2186L99.4099 50.6072L89.0901 51.1856L89.1243 51.797Z" fill="#DBDBDB"/>
<path d="M89.21 53.3455L99.5298 52.7672L99.4956 52.1557L89.1758 52.7341L89.21 53.3455Z" fill="#DBDBDB"/>
<path d="M89.2956 54.8907L104.417 54.0432L104.383 53.4318L89.2614 54.2792L89.2956 54.8907Z" fill="#DBDBDB"/>
<path d="M89.3842 56.4359L104.505 55.5884L104.471 54.977L89.35 55.8245L89.3842 56.4359Z" fill="#DBDBDB"/>
<path d="M89.4702 57.9815L104.591 57.134L104.557 56.5226L89.436 57.3701L89.4702 57.9815Z" fill="#DBDBDB"/>
<path d="M89.5556 59.5269L104.677 58.6794L104.643 58.068L89.5214 58.9155L89.5556 59.5269Z" fill="#DBDBDB"/>
<path d="M89.6413 61.0761L104.762 60.2286L104.728 59.6172L89.6071 60.4647L89.6413 61.0761Z" fill="#DBDBDB"/>
<path d="M89.7272 62.6215L104.848 61.774L104.814 61.1626L89.693 62.0101L89.7272 62.6215Z" fill="#DBDBDB"/>
<path d="M89.8159 64.1664L104.937 63.319L104.903 62.7075L89.7817 63.555L89.8159 64.1664Z" fill="#DBDBDB"/>
<path d="M89.902 65.7121L105.023 64.8646L104.989 64.2532L89.8678 65.1006L89.902 65.7121Z" fill="#DBDBDB"/>
<path d="M89.987 67.2577L105.108 66.4102L105.074 65.7988L89.9528 66.6462L89.987 67.2577Z" fill="#DBDBDB"/>
<path d="M0 112.158L15.7361 112.08L31.4691 112.052L62.9412 112.003L94.4103 112.052L110.143 112.08L125.879 112.158L110.143 112.233L94.4103 112.261L62.9412 112.313L31.4691 112.261L15.7361 112.233L0 112.158Z" fill="#263238"/>
<path d="M35.1655 41.5817C33.2505 37.2782 29.0942 34.4559 25.0965 35.5263C16.5259 37.8196 17.6916 50.7892 11.5365 59.1752C4.10054 69.3038 4.01039 77.8206 10.4826 79.0559C17.7352 80.4406 24.5089 72.6583 23.738 56.356C23.2562 46.1621 25.4011 42.5525 28.1585 41.7715C30.1854 41.1958 32.4485 43.651 32.4485 43.651L35.1655 41.5817Z" fill="#263238"/>
<path d="M23.6137 50.7333C23.5733 52.3545 23.7194 53.9726 23.8002 55.5875C23.9059 57.2025 24.0054 58.8113 24.0551 60.4231C24.0955 62.0319 24.1079 63.6406 23.9898 65.24C23.881 66.8363 23.6696 68.4295 23.2468 69.9605C22.8365 71.4915 22.2117 72.9757 21.2604 74.2391C20.3029 75.4838 19.0657 76.5853 17.7134 77.4441C16.3518 78.2999 14.7975 78.8724 13.1748 79.0373C12.3665 79.1245 11.5427 79.1151 10.7313 78.9938C10.3272 78.9347 9.92308 78.8475 9.53139 78.7324C9.1397 78.6173 8.7449 78.4866 8.39673 78.2625C9.06509 78.7479 9.88267 79.0031 10.694 79.1867C11.5116 79.3641 12.3572 79.4325 13.2027 79.3983C14.0483 79.3578 14.8876 79.2023 15.7021 78.9595C16.5135 78.7106 17.2906 78.3559 18.0243 77.9358C18.7579 77.5157 19.4449 77.0178 20.0822 76.4671L20.5516 76.047L20.9993 75.6082C21.2977 75.3126 21.5837 74.9921 21.8417 74.6561C22.88 73.3087 23.5453 71.7404 23.9867 70.1472C24.8292 66.9328 24.854 63.6251 24.6489 60.392C24.5463 58.7708 24.366 57.1589 24.1701 55.5533C23.9649 53.9477 23.7473 52.3451 23.6137 50.7333Z" fill="#263238"/>
<path d="M33.285 39.0925C32.5855 38.2056 31.827 37.3655 30.941 36.6902C30.0488 36.0243 29.0323 35.5327 27.9598 35.318C26.8904 35.0908 25.7806 35.1406 24.7175 35.3895C24.1952 35.5545 23.6605 35.6883 23.1787 35.9403C22.6657 36.1332 22.2243 36.4506 21.7673 36.7369C20.9124 37.3966 20.1664 38.1901 19.5757 39.108C19.0037 40.0353 18.5063 41.0217 18.1302 42.0704C17.3313 44.1428 16.7748 46.3303 16.1313 48.5023C15.4754 50.6711 14.779 52.8431 13.7874 54.9186C12.7833 56.9785 11.546 58.8985 10.2528 60.753C8.97205 62.6138 7.64154 64.4342 6.62501 66.4257C6.09342 67.409 5.67686 68.4514 5.40952 69.5343L5.22921 70.3526C5.19191 70.6296 5.17326 70.9096 5.14528 71.1866L5.10176 71.6067L5.11109 72.0267L5.12974 72.8731C4.75981 70.6327 5.26341 68.2896 6.23331 66.2328C7.19389 64.1572 8.47467 62.2716 9.68394 60.3734C10.8901 58.4722 12.0994 56.5802 13.0289 54.5576C13.9615 52.5444 14.6485 50.4035 15.2827 48.2502C15.9417 46.1 16.4981 43.9001 17.3499 41.7654C17.7572 40.695 18.2981 39.6588 18.926 38.6817C19.5664 37.7047 20.4151 36.8583 21.3756 36.1799C21.8824 35.8812 22.3766 35.5607 22.9331 35.3709C23.4647 35.1219 24.0336 34.9975 24.5931 34.845C25.734 34.621 26.9277 34.6054 28.0562 34.8979C29.1846 35.1935 30.2105 35.7723 31.084 36.5098C31.9607 37.2472 32.6663 38.1527 33.285 39.0925Z" fill="#263238"/>
<path d="M36.8131 42.3938C36.8162 41.5754 36.2038 40.5361 35.6723 40.4054C35.1407 40.2716 31.2611 42.0484 30.9471 43.0628C30.6331 44.0772 32.3988 44.9236 32.3988 44.9236L36.8131 42.3938Z" fill="#FFC727"/>
<path d="M32.9805 74.6964C35.2312 88.1857 38.5978 98.9522 42.1604 101.734C45.0328 103.981 49.186 105.729 53.4915 107.067C58.5431 108.633 63.8278 109.644 67.5396 110.26C69.0006 110.503 70.2192 110.68 71.0834 110.811C73.2222 111.125 77.9007 97.1972 76.5174 95.3395C76.1972 94.9163 74.8076 94.4931 72.8398 94.0792C66.2153 92.6945 52.3475 91.6085 51.6232 90.7933C50.8709 89.9438 44.2059 80.145 38.8248 72.5774C35.0571 67.2781 31.7339 67.2159 32.9805 74.6964Z" fill="#F7A9A0"/>
<path d="M66.8833 109.025C67.1413 109.171 70.8034 111.128 73.0851 111.903C74.7887 112.482 79.7377 114.01 80.5584 112.196C81.121 110.96 78.317 109.715 76.3523 108.791C75.3171 108.306 74.0675 107.142 74.4094 106.479C75.0063 105.319 77.6642 106.629 79.4019 107.746C82.7624 109.905 87.1985 113.723 89.3839 112.065C90.2077 111.436 89.3372 110.192 88.0378 108.947C90.1735 110.422 92.4646 111.657 93.4096 110.998C93.9505 110.621 94.0002 110.076 93.736 109.435C94.4044 109.687 95.0043 109.669 95.4427 109.246C96.1887 108.53 95.8903 107.41 95.1598 106.246C95.4116 106.23 95.6416 106.112 95.8281 105.848C97.4415 103.607 90.1704 96.6495 87.5808 95.912C79.9646 93.7369 71.7453 94.0418 71.7453 94.0418C68.618 96.3321 66.8771 109.022 66.8833 109.025Z" fill="#F7A9A0"/>
<path d="M78.5219 102.347C80.3219 102.711 82.0969 103.442 83.5673 104.553C85.3082 105.866 86.6604 107.618 88.2583 109.087C88.3018 109.127 88.2365 109.193 88.193 109.152C87.4438 108.396 86.6138 107.711 85.8366 106.983C85.0781 106.274 84.332 105.536 83.5269 104.88C82.0472 103.682 80.3716 102.811 78.5126 102.375C78.494 102.372 78.5033 102.341 78.5219 102.347Z" fill="#263238"/>
<path d="M80.1012 99.1388C82.1 99.7829 84.1486 100.433 85.9827 101.476C87.9909 102.615 89.5235 104.394 91.0312 106.109C91.9358 107.139 92.8218 108.188 93.6798 109.258C93.7171 109.302 93.6549 109.37 93.6176 109.323C92.0882 107.553 90.5059 105.826 88.8738 104.155C87.335 102.58 85.5973 101.351 83.5797 100.477C82.442 99.9852 81.2669 99.5776 80.0949 99.1762C80.0701 99.1668 80.0794 99.1326 80.1012 99.1388Z" fill="#263238"/>
<path d="M82.3894 96.3756C84.3385 96.8673 86.0358 97.2873 87.73 98.42C89.9714 99.9167 92.0915 102.369 92.8345 103.237C93.6552 104.195 94.4448 105.182 95.2188 106.181C95.2499 106.221 95.1815 106.277 95.1473 106.237C93.3754 104.052 91.4542 101.964 89.415 100.026C88.4388 99.0984 87.3726 98.2831 86.1602 97.695C84.9602 97.1131 83.6639 96.7552 82.3862 96.3881C82.3769 96.3881 82.38 96.3756 82.3894 96.3756Z" fill="#263238"/>
<path d="M35.1223 88.8205L46.8419 81.9032C46.8419 81.9032 41.8401 73.8128 37.5657 69.9947C33.2913 66.1766 31.569 69.1732 32.2157 74.7214C32.8623 80.2727 35.1223 88.8205 35.1223 88.8205Z" fill="#FFC727"/>
<path d="M38.9675 85.3011C38.9022 85.7834 38.7405 86.2222 38.5509 86.6485C38.5167 86.7169 38.4856 86.7885 38.4514 86.857L37.9696 87.1401C38.0411 86.9223 38.1281 86.7076 38.2214 86.496C38.4203 86.0759 38.6442 85.6652 38.9675 85.3011ZM34.1957 79.1182C33.7698 78.9283 33.3315 78.7634 32.8496 78.7012C33.2133 79.0248 33.6237 79.2488 34.0433 79.4511C34.4692 79.6378 34.9075 79.8027 35.3894 79.8681C35.0257 79.5445 34.6153 79.3204 34.1957 79.1182ZM38.2121 72.2786C38.3799 72.7143 38.5727 73.1406 38.868 73.5264C38.84 73.0379 38.7095 72.5898 38.554 72.1511C38.3861 71.7154 38.1934 71.2891 37.8981 70.9033C37.9261 71.3887 38.0597 71.8399 38.2121 72.2786ZM43.5994 77.8486C43.2015 77.889 42.8253 78.0104 42.4616 78.1349C42.0202 78.3029 41.6036 78.4989 41.2119 78.7914C41.7 78.7634 42.1476 78.6296 42.5891 78.4771C42.9528 78.3371 43.3103 78.1753 43.6367 77.9606C43.6274 77.9201 43.6149 77.8859 43.5994 77.8486Z" fill="white"/>
<path d="M44.995 80.1453C43.1173 81.1068 38.103 83.8669 35.0907 86.1104C35.0721 86.1229 35.1187 86.2038 35.1374 86.1913C37.9352 84.7257 43.279 81.39 45.0634 80.2635C45.0944 80.2418 45.0292 80.1266 44.995 80.1453Z" fill="#263238"/>
<path d="M45.8784 82.4759L35.1255 88.8207C35.1255 88.8207 32.8686 80.2729 32.2158 74.7216C31.7992 71.14 32.3681 68.6226 33.9753 68.3146L45.8784 82.4759Z" fill="#263238"/>
<path d="M46.4436 112.146H7.69409C7.69409 112.146 16.1093 79.6131 23.8996 70.4522C24.0737 70.2406 24.254 70.0415 24.4343 69.8548C24.4716 69.8112 24.5027 69.7801 24.54 69.7427C25.2114 69.0395 25.914 68.5105 26.6197 68.1309C26.7564 68.0562 26.8932 67.9877 27.0362 67.9255C30.0361 66.5439 33.2038 67.689 35.4918 69.6494C36.2192 70.2717 44.4323 80.9667 45.1567 85.0461C45.7846 88.6463 43.3567 92.5142 43.3567 92.5142L46.4436 112.146Z" fill="#FFC727"/>
<path d="M29.3216 72.4625C29.2563 72.9448 29.0916 73.3836 28.9051 73.8099C28.7061 74.23 28.4792 74.6407 28.1559 75.0048C28.2211 74.5225 28.3859 74.0837 28.5724 73.6574C28.7745 73.2373 28.9983 72.8297 29.3216 72.4625ZM23.4929 90.6722C23.3032 91.0985 23.1385 91.5373 23.0763 92.0196C23.3996 91.6555 23.6234 91.2448 23.8255 90.8247C24.012 90.3984 24.1768 89.9596 24.242 89.4773C23.9187 89.8414 23.6949 90.2521 23.4929 90.6722ZM18.7024 109.675C18.5128 110.102 18.348 110.54 18.2858 111.023C18.6091 110.659 18.833 110.248 19.035 109.828C19.2215 109.402 19.3863 108.963 19.4516 108.481C19.1283 108.845 18.9045 109.255 18.7024 109.675ZM38.2186 86.4994C38.029 86.9257 37.8642 87.3645 37.8021 87.8468C38.1254 87.4827 38.3492 87.072 38.5513 86.6519C38.7378 86.2256 38.9025 85.7868 38.9678 85.3045C38.6445 85.6655 38.4207 86.0762 38.2186 86.4994ZM44.3614 98.912C44.1779 99.3321 44.0163 99.7646 43.951 100.244C44.15 100.017 44.3147 99.774 44.4577 99.5219V99.5188L44.3614 98.912ZM29.6045 107.743C29.4149 108.169 29.2501 108.608 29.1879 109.09C29.5112 108.726 29.7351 108.316 29.9371 107.896C30.1237 107.469 30.2884 107.03 30.3537 106.548C30.0304 106.912 29.8066 107.32 29.6045 107.743ZM34.196 79.1185C33.7701 78.9286 33.3318 78.7637 32.85 78.7015C33.2137 79.0251 33.624 79.2492 34.0437 79.4514C34.4696 79.6381 34.9079 79.803 35.3897 79.8684C35.026 79.5448 34.6157 79.3207 34.196 79.1185ZM36.7544 94.565C36.3286 94.3751 35.8902 94.2102 35.4084 94.148C35.7721 94.4716 36.1824 94.6957 36.6021 94.8979C37.028 95.0846 37.4663 95.2495 37.9482 95.3149C37.5876 94.9882 37.1772 94.7641 36.7544 94.565ZM37.687 111.449C37.2612 111.259 36.8228 111.094 36.341 111.032C36.7047 111.356 37.115 111.58 37.5347 111.782C37.9606 111.969 38.3989 112.134 38.8808 112.199C38.5171 111.875 38.1067 111.651 37.687 111.449ZM18.9449 97.2379C18.519 97.0481 18.0807 96.8832 17.5988 96.8209C17.9625 97.1446 18.3729 97.3686 18.7926 97.5709C19.2184 97.7576 19.6568 97.9225 20.1386 97.9878C19.7749 97.6611 19.3645 97.4371 18.9449 97.2379ZM44.1437 89.6236C44.1655 89.9534 44.2308 90.2646 44.3209 90.5695C44.3738 90.4388 44.4297 90.3019 44.4826 90.1619C44.3862 89.9783 44.2743 89.7978 44.1437 89.6236ZM43.3883 107.64C43.5562 108.076 43.7489 108.502 44.0443 108.888C44.0163 108.4 43.8857 107.952 43.7303 107.513C43.5624 107.077 43.3697 106.651 43.0744 106.265C43.1023 106.75 43.2329 107.198 43.3883 107.64ZM23.3094 81.53C23.4773 81.9657 23.6701 82.392 23.9654 82.7778C23.9374 82.2893 23.8068 81.8412 23.6514 81.4025C23.4835 80.9668 23.2908 80.5405 22.9955 80.1547C23.0234 80.6432 23.154 81.0913 23.3094 81.53ZM29.4615 97.4931C29.6294 97.9287 29.8221 98.355 30.1174 98.7409C30.0895 98.2523 29.9589 97.8042 29.8035 97.3655C29.6356 96.9299 29.4429 96.5036 29.1475 96.1177C29.1755 96.6031 29.3061 97.0512 29.4615 97.4931ZM12.7524 104C12.9203 104.435 13.113 104.862 13.4083 105.247C13.3804 104.759 13.2498 104.311 13.0944 103.872C12.9265 103.436 12.7338 103.01 12.4384 102.624C12.4664 103.113 12.597 103.561 12.7524 104ZM36.6145 103.284C37.0498 103.116 37.4756 102.923 37.8611 102.627C37.3731 102.655 36.9254 102.786 36.4871 102.942C36.0519 103.11 35.626 103.303 35.2405 103.598C35.7286 103.57 36.1762 103.44 36.6145 103.284ZM14.1575 90.9834V90.9865C14.1078 91.1327 14.0549 91.2759 14.0052 91.4221C14.0736 91.4004 14.1389 91.3786 14.2073 91.3537C14.6425 91.1856 15.0684 90.9927 15.4538 90.694C14.9969 90.7189 14.5741 90.8403 14.1575 90.9834ZM41.8744 78.3903C41.6475 78.5023 41.4268 78.633 41.2123 78.7948C41.4983 78.7793 41.7718 78.7264 42.0392 78.6517C41.9832 78.5646 41.9273 78.4774 41.8744 78.3903ZM23.5084 103.284C23.9436 103.116 24.3695 102.923 24.755 102.627C24.2669 102.655 23.8193 102.786 23.3809 102.942C22.9457 103.11 22.5198 103.303 22.1344 103.598C22.6193 103.57 23.0701 103.44 23.5084 103.284ZM8.7329 110.298C8.52462 110.379 8.31944 110.463 8.11738 110.562C8.0894 110.674 8.06143 110.78 8.03345 110.88C8.31634 110.82 8.58679 110.736 8.85724 110.64C9.29246 110.472 9.71835 110.279 10.1069 109.983C9.61887 110.011 9.17122 110.142 8.7329 110.298ZM29.8656 85.9611C30.3008 85.7931 30.7267 85.6001 31.1122 85.3045C30.6241 85.3325 30.1765 85.4632 29.7382 85.6188C29.303 85.7868 28.8771 85.9798 28.4916 86.2754C28.9797 86.2474 29.4273 86.1167 29.8656 85.9611Z" fill="white"/>
<path d="M37.541 91.123C35.8965 91.3066 34.2489 91.5462 32.648 91.9725C31.8521 92.1841 31.0688 92.4331 30.2885 92.6976C29.8999 92.8282 29.5082 92.9496 29.1165 93.0647C28.7124 93.1861 28.2803 93.2981 27.8544 93.3137C27.8171 93.3168 27.8171 93.3728 27.8544 93.3728C28.2647 93.3821 28.6595 93.3884 29.0699 93.3386C29.4585 93.295 29.8471 93.2079 30.2263 93.1083C31.0377 92.8998 31.8366 92.6571 32.6449 92.4424C34.2738 92.0068 35.9027 91.5742 37.5597 91.2568C37.6405 91.2444 37.6187 91.1137 37.541 91.123Z" fill="#263238"/>
<path d="M41.6349 92.5509C40.2795 92.4235 38.8993 92.3613 37.5377 92.3893C36.8538 92.4048 36.1761 92.4577 35.4953 92.5292C35.1689 92.5634 34.8456 92.6038 34.5223 92.6473C34.1648 92.6971 33.8166 92.7934 33.4591 92.8369C33.4218 92.8401 33.4218 92.8991 33.4591 92.896C33.798 92.8649 34.1399 92.8898 34.4788 92.8805C34.8207 92.868 35.1596 92.8556 35.5015 92.8432C36.1823 92.8214 36.8662 92.8059 37.547 92.7779C38.9117 92.7188 40.2702 92.6753 41.638 92.666C41.7126 92.6629 41.7033 92.5572 41.6349 92.5509Z" fill="#263238"/>
<path d="M22.9335 71.0059C16.7877 77.5934 3.02562 101.267 7.76323 105.823C12.535 110.413 42.2104 110.469 47.5045 110.469C49.9137 110.469 44.9771 94.5957 42.3938 94.2752C40.2426 94.0076 24.6029 93.5004 24.2827 92.8688C23.9221 92.1531 25.9676 86.3777 27.7706 76.6225C29.7073 66.1703 25.6474 68.0965 22.9335 71.0059Z" fill="#F7A9A0"/>
<path d="M50.9651 91.0206C56.3058 90.2769 57.7917 90.9055 61.9667 87.8809C64.7054 85.8956 67.1488 86.7949 65.5852 89.9502C63.0298 95.1094 56.34 97.5179 53.7815 97.6859L50.9651 91.0206Z" fill="#F7A9A0"/>
<path d="M36.7795 96.1674C36.7795 96.1674 42.7824 92.8317 48.3935 91.475C52.2763 90.5352 61.3536 89.0634 69.2465 98.0033C71.7365 100.823 71.8671 104.809 68.0496 102.428C65.0871 100.58 63.4923 98.7346 61.5059 98.1776C61.5059 98.1776 62.5939 103.844 60.4831 105.739C59.5412 106.585 56.9113 108.835 54.6171 110.295C54.6171 110.295 54.1663 109.881 53.6658 109.271C53.6658 109.271 51.5271 110.855 47.5013 110.469L36.7795 96.1674Z" fill="#F7A9A0"/>
<path d="M52.2426 91.1703C54.0985 92.138 57.9968 94.2571 60.5863 97.1012C63.4587 100.26 68.1466 107.121 65.7933 109.221C64.068 110.762 62.0505 108.3 62.0505 108.3C62.0505 108.3 63.3903 111.546 61.5282 112.594C59.8309 113.55 58.3853 111.552 58.3853 111.552C58.3853 111.552 58.861 113.659 57.0486 114.265C54.8694 114.993 54.2322 110.457 51.3877 109.287C50.7473 109.025 52.2426 91.1703 52.2426 91.1703Z" fill="#F7A9A0"/>
<path d="M56.6571 99.6277C58.2519 100.826 61.1802 104.476 61.9916 108.256C62.0103 108.344 61.9543 108.403 61.9232 108.328C60.1482 104.354 57.7358 101.012 56.6292 99.6557C56.6136 99.637 56.6385 99.6152 56.6571 99.6277Z" fill="#263238"/>
<path d="M53.6418 102.581C54.9132 103.757 57.7639 107.653 58.4509 111.514C58.4664 111.602 58.4074 111.658 58.3763 111.58C56.6914 107.351 54.6334 104.028 53.6076 102.606C53.5982 102.587 53.6262 102.565 53.6418 102.581Z" fill="#263238"/>
<path d="M48.683 110.528C49.314 110.515 49.9482 110.469 50.573 110.379C51.1948 110.285 51.8227 110.154 52.3885 109.881L52.404 109.874L52.4165 109.887C53.0351 110.453 53.5884 111.082 54.0796 111.76C54.3221 112.099 54.549 112.454 54.748 112.824C54.9438 113.188 55.1801 113.531 55.4816 113.808C55.7863 114.072 56.1624 114.277 56.5634 114.284C56.9645 114.302 57.353 114.128 57.6484 113.857C57.9437 113.59 58.1116 113.201 58.2017 112.809C58.2919 112.414 58.3167 111.993 58.2888 111.592L58.2701 111.328L58.438 111.536C58.8514 112.056 59.4079 112.51 60.0483 112.69C60.3685 112.778 60.7073 112.781 61.0275 112.697C61.3446 112.606 61.6492 112.451 61.8668 112.208C62.3052 111.71 62.3735 110.982 62.3331 110.316C62.2865 109.641 62.1311 108.963 61.9072 108.322L61.7207 107.786L62.0813 108.225C62.5134 108.751 63.0637 109.221 63.6978 109.47C64.0149 109.594 64.3538 109.644 64.6864 109.607C65.0159 109.566 65.3392 109.429 65.6035 109.233C65.8677 109.034 66.0511 108.745 66.1568 108.427C66.2594 108.107 66.2874 107.762 66.2749 107.419C66.2501 106.732 66.0666 106.047 65.8366 105.39C65.361 104.074 64.6677 102.839 63.9061 101.656C63.1414 100.474 62.2896 99.3506 61.3943 98.2646L61.1052 97.9099L61.5342 98.0406C62.0502 98.1962 62.4823 98.4327 62.9269 98.6785C63.3652 98.9274 63.7849 99.2013 64.1983 99.4875C65.0252 100.057 65.7931 100.704 66.5889 101.292C67.3878 101.874 68.2023 102.459 69.0976 102.836C69.5328 103.01 70.0395 103.138 70.4095 102.923C70.7856 102.708 70.9037 102.21 70.8726 101.744C70.8447 101.271 70.7203 100.785 70.54 100.343C70.3473 99.8983 70.0986 99.472 69.8188 99.0675C69.2561 98.2584 68.5909 97.5178 67.8852 96.8239C67.1795 96.13 66.4272 95.4766 65.6439 94.8698C64.8605 94.263 64.0429 93.6904 63.1849 93.205L63.0481 93.1272L63.16 93.0152C64.0429 92.1315 64.8636 91.1482 65.4387 90.0404C65.7216 89.4896 65.9236 88.8828 65.9112 88.273C65.9081 87.9711 65.8366 87.6662 65.6874 87.4172C65.5382 87.1652 65.2895 86.9847 65.0035 86.9131C64.4222 86.7731 63.7942 86.9816 63.2409 87.2492C62.6813 87.5324 62.1373 87.856 61.6088 88.1952C60.5519 88.8735 59.5198 89.667 58.2856 90.056C57.6732 90.2551 57.0391 90.3422 56.4111 90.4325C55.7832 90.5196 55.1552 90.5943 54.5242 90.6721C53.2683 90.8246 52.0123 90.9864 50.7627 91.1917C48.2695 91.6025 45.7826 92.1501 43.4231 93.0837C45.7701 92.1221 48.254 91.5402 50.7471 91.0984C51.9968 90.8806 53.2496 90.7001 54.5055 90.5321L56.3862 90.2769C57.0111 90.1835 57.6359 90.0933 58.2297 89.8973C59.4296 89.5145 60.4431 88.7304 61.5062 88.0427C62.0409 87.6973 62.5849 87.3706 63.1538 87.0781C63.7258 86.8011 64.3786 86.5646 65.0501 86.7202C65.3796 86.8011 65.6843 87.0189 65.8584 87.3114C66.0356 87.6039 66.1102 87.9431 66.1164 88.2698C66.1319 88.9326 65.9205 89.5705 65.6283 90.14C65.0377 91.2882 64.217 92.2808 63.3186 93.1895L63.2937 92.9996C64.1704 93.4913 64.9973 94.0638 65.7931 94.6737C66.5858 95.2836 67.3474 95.9402 68.0655 96.6372C68.7836 97.3373 69.4613 98.0842 70.0395 98.9119C70.3286 99.3257 70.5898 99.7645 70.7949 100.234C70.9908 100.714 71.1213 101.208 71.1555 101.731C71.168 101.992 71.1555 102.263 71.0654 102.525C70.9783 102.786 70.8043 103.035 70.5525 103.181C70.3006 103.334 70.0022 103.358 69.738 103.324C69.4706 103.293 69.2188 103.215 68.9795 103.119C68.0282 102.724 67.2075 102.132 66.4024 101.538C65.5972 100.934 64.8418 100.29 64.0274 99.7271C63.6201 99.444 63.2067 99.1733 62.7808 98.9274C62.358 98.6847 61.9041 98.4451 61.4658 98.3113L61.6057 98.0873C62.501 99.1857 63.3559 100.321 64.1206 101.516C64.8822 102.711 65.5786 103.962 66.0573 105.31C66.2905 105.985 66.477 106.685 66.5019 107.41C66.5143 107.771 66.4801 108.141 66.3682 108.496C66.2501 108.848 66.0387 109.18 65.734 109.408C65.4325 109.629 65.0812 109.772 64.7082 109.818C64.3382 109.859 63.959 109.8 63.6201 109.663C62.9362 109.389 62.3766 108.904 61.9197 108.343L62.0938 108.247C62.3207 108.913 62.4761 109.597 62.5228 110.298C62.5445 110.649 62.5321 111.004 62.4606 111.356C62.3891 111.704 62.2461 112.049 62.0005 112.326C61.4907 112.865 60.6949 113.048 60.0016 112.852C59.3053 112.65 58.7426 112.18 58.3043 111.626L58.4535 111.57C58.4815 112 58.4535 112.423 58.3571 112.84C58.2608 113.251 58.0805 113.668 57.7478 113.963C57.4245 114.249 56.9955 114.436 56.5572 114.408C56.1158 114.393 55.7179 114.169 55.4039 113.885C55.093 113.593 54.8537 113.235 54.6578 112.865C54.4651 112.498 54.2475 112.143 54.0081 111.804C53.5294 111.125 52.9854 110.487 52.3792 109.921L52.4072 109.924C51.8258 110.195 51.1979 110.316 50.5699 110.403C49.9482 110.487 49.3171 110.528 48.683 110.528Z" fill="#263238"/>
<path d="M13.2971 82.538L26.0986 87.1527C26.0986 87.1527 29.1265 78.135 29.3347 72.4032C29.543 66.6715 26.139 67.2565 22.2843 71.2986C18.4326 75.3407 13.2971 82.538 13.2971 82.538Z" fill="#FFC727"/>
<path d="M29.3221 72.462C29.2568 72.9444 29.0921 73.3831 28.9055 73.8094C28.7066 74.2295 28.4796 74.6402 28.1563 75.0043C28.2216 74.522 28.3864 74.0832 28.5729 73.6569C28.775 73.2369 28.9988 72.8292 29.3221 72.462ZM15.2554 83.2441L15.5942 83.3654C15.7714 82.964 15.9175 82.5502 15.9797 82.099C15.6657 82.4475 15.4481 82.8396 15.2554 83.2441ZM23.3099 81.5295C23.4778 81.9652 23.6705 82.3915 23.9659 82.7773C23.9379 82.2888 23.8073 81.8407 23.6519 81.402C23.484 80.9663 23.2913 80.54 22.996 80.1542C23.0239 80.6427 23.1545 81.0908 23.3099 81.5295ZM19.4707 75.1163C19.1972 75.2221 18.9236 75.3404 18.6625 75.4866C18.6625 75.4866 18.6594 75.4866 18.6594 75.4897C18.5879 75.5769 18.5195 75.664 18.4511 75.7511C18.8521 75.7044 19.2283 75.5893 19.5982 75.4586C20.0334 75.2906 20.4593 75.0977 20.8448 74.7989C20.3598 74.8269 19.9122 74.9607 19.4707 75.1163Z" fill="white"/>
<path d="M26.2727 84.6104C24.336 83.7765 19.0108 81.673 15.3644 80.783C15.3426 80.7768 15.3115 80.8639 15.3302 80.8702C18.2399 82.09 24.2179 84.0814 26.2261 84.7349C26.2634 84.7473 26.3069 84.626 26.2727 84.6104Z" fill="#263238"/>
<path d="M28.7474 79.7559C28.7536 79.7372 28.7226 79.7279 28.7163 79.7434C28.4863 80.1853 28.2811 80.6334 28.0853 81.0908C28.3091 80.0888 28.5081 79.0837 28.6821 78.0755C28.6884 78.0382 28.6355 78.0289 28.6262 78.0631C27.7682 81.0161 26.8356 83.9567 26.0398 86.9283C25.7134 86.9128 25.3839 86.891 25.0605 86.8474C25.0046 86.8412 24.989 86.919 25.045 86.9315C25.3994 87.0186 25.7476 87.1306 26.0895 87.2489C26.1672 87.2769 26.276 87.2675 26.3102 87.1742C26.9413 85.4938 27.448 83.7606 27.8677 82.0087C28.0013 81.7411 28.135 81.4735 28.2469 81.1997C28.4521 80.7267 28.6169 80.2537 28.7474 79.7559Z" fill="#263238"/>
<path d="M29.4522 68.663C29.5113 69.3569 32.0884 74.1707 35.1722 74.4663C36.1763 74.5596 36.9379 69.0955 36.9379 69.0955L37.0871 68.7034L39.1606 63.233L33.1391 58.0209L32.2625 57.3208C32.2625 57.3208 31.7931 58.8549 31.2304 60.7717C31.2024 60.8619 31.1776 60.949 31.1496 61.0455C31.1154 61.1544 31.0812 61.254 31.0532 61.3567C30.9662 61.643 30.876 61.9323 30.7952 62.2248C30.733 62.4458 30.6677 62.6636 30.6118 62.897C30.5465 63.1335 30.4905 63.3606 30.4253 63.5971C29.8377 65.9278 29.4305 68.3705 29.4522 68.663Z" fill="#F7A9A0"/>
<path d="M31.2271 60.7717C32.2001 65.5015 35.5263 67.8508 37.0869 68.7065L39.1604 63.2362L33.1389 58.0241L32.2622 57.3239C32.2591 57.3208 31.7928 58.8549 31.2271 60.7717Z" fill="#263238"/>
<path d="M48.1411 55.3044C47.6126 65.5574 41.417 66.4007 39.2068 66.2825C37.2017 66.1767 30.3875 65.5606 29.8559 55.3075C29.3243 45.0544 34.2547 42.0579 38.8524 42.0579C43.4501 42.0579 48.6696 45.0513 48.1411 55.3044Z" fill="#F7A9A0"/>
<path d="M46.7862 53.4591C46.5468 53.4125 46.3354 53.3316 46.1054 53.2631C45.8442 53.1853 45.6297 53.148 45.4494 52.9301C45.3531 52.8119 45.3779 52.591 45.4836 52.4852C45.7292 52.2425 46.0712 52.258 46.3883 52.3389C46.7333 52.426 46.9758 52.5847 47.1872 52.871C47.3892 53.148 47.1001 53.5214 46.7862 53.4591Z" fill="#263238"/>
<path d="M40.2327 53.0237C40.4752 53.0143 40.6959 52.9646 40.9352 52.9272C41.2057 52.8868 41.4233 52.8837 41.6316 52.6938C41.7435 52.5912 41.7528 52.3671 41.6627 52.2489C41.4544 51.9719 41.1156 51.9377 40.7891 51.9719C40.4348 52.0093 40.1736 52.1275 39.9218 52.3796C39.6825 52.6254 39.9125 53.0361 40.2327 53.0237Z" fill="#263238"/>
<path d="M41.274 55.5595C41.2709 55.5315 41.218 55.5906 41.218 55.6187C41.2056 56.3188 41.0719 57.1154 40.4284 57.3176C40.4098 57.3239 40.4098 57.3581 40.4315 57.3581C41.2087 57.2865 41.3735 56.2254 41.274 55.5595Z" fill="#263238"/>
<path d="M40.6898 54.8003C39.5707 54.6572 39.3718 56.9069 40.4069 57.0376C41.4235 57.1652 41.6255 54.9186 40.6898 54.8003Z" fill="#263238"/>
<path d="M40.2361 54.8782C40.0278 54.9871 39.8164 55.1956 39.577 55.1987C39.3003 55.2018 39.1138 54.9467 38.9553 54.704C38.9397 54.6791 38.918 54.6977 38.9149 54.7257C38.8714 55.1552 38.9957 55.6126 39.4527 55.7184C39.8692 55.8148 40.205 55.4601 40.3511 55.0369C40.3791 54.9591 40.32 54.8347 40.2361 54.8782Z" fill="#263238"/>
<path d="M45.0886 55.7527C45.098 55.7278 45.1384 55.79 45.1353 55.8181C45.0451 56.512 45.0606 57.321 45.6668 57.6135C45.6855 57.6228 45.6793 57.6571 45.6575 57.6508C44.9021 57.4704 44.8928 56.3968 45.0886 55.7527Z" fill="#263238"/>
<path d="M45.7819 55.087C46.9072 55.1119 46.7767 57.3647 45.7353 57.343C44.7063 57.3212 44.8369 55.0683 45.7819 55.087Z" fill="#263238"/>
<path d="M46.2419 55.264C46.4129 55.3947 46.5776 55.6218 46.789 55.6467C47.0346 55.6779 47.2304 55.4445 47.4014 55.2204C47.4201 55.1987 47.4356 55.2173 47.4356 55.2484C47.4232 55.681 47.2553 56.1197 46.8356 56.1788C46.4533 56.2317 46.1984 55.8459 46.1206 55.4134C46.1051 55.3293 46.1735 55.2111 46.2419 55.264Z" fill="#263238"/>
<path d="M40.7579 60.9274C40.9009 61.1108 41.0377 61.3564 41.2864 61.4124C41.5257 61.4652 41.8211 61.3937 42.0542 61.3378C42.076 61.3315 42.0977 61.3595 42.0791 61.3782C41.8646 61.6207 41.4636 61.7357 41.1496 61.6362C40.8449 61.5398 40.7268 61.2476 40.6895 60.9492C40.6802 60.9057 40.7361 60.8994 40.7579 60.9274Z" fill="#263238"/>
<path d="M43.7235 58.9699C43.7235 58.9699 43.7857 60.0216 43.7484 60.5133C43.7453 60.56 41.9267 60.7871 41.2397 59.5207C41.2117 59.4678 41.277 59.4242 41.3174 59.4584C41.9267 59.9843 42.6324 60.1617 43.4002 60.2364C43.4468 60.1026 43.2323 58.4378 43.31 58.4378C43.5805 58.4347 44.0934 58.6587 44.4043 58.777C44.3359 56.5801 43.9193 54.4144 43.882 52.2268C43.882 52.149 43.994 52.1335 44.0126 52.205C44.6126 54.4455 44.7463 56.9691 44.8737 59.2344C44.8955 59.5144 43.9131 59.0695 43.7235 58.9699Z" fill="#263238"/>
<path d="M29.9682 55.0865C32.3805 54.598 33.0334 52.3576 33.0334 52.3576C41.8122 52.1429 44.7157 46.6912 44.7157 46.6912C46.4006 51.2809 47.9052 52.0682 48.1539 52.759C48.1539 52.759 48.8845 48.7791 47.554 45.7452C46.3789 43.0598 43.3666 40.1846 38.6196 40.7945C35.9306 41.1399 33.6675 43.4674 33.6675 43.4674C33.6675 43.4674 30.7609 43.7755 29.5703 46.1217C27.5745 50.0549 29.9682 55.0865 29.9682 55.0865Z" fill="#263238"/>
<path d="M44.8489 46.3458C44.5567 47.4847 43.9101 48.5209 43.1049 49.386C42.2935 50.2572 41.277 50.9169 40.1983 51.4117L39.3652 51.7291C39.0854 51.8255 38.7932 51.8847 38.5072 51.9625C37.9383 52.1367 37.3445 52.1834 36.7632 52.2643C36.1757 52.3141 35.585 52.3078 35.0006 52.3296C34.4131 52.2767 33.8286 52.2363 33.2473 52.174C33.8349 52.1554 34.4162 52.1616 34.9975 52.1554C35.5757 52.0994 36.157 52.0776 36.729 51.9936C37.8699 51.8069 39.0077 51.5673 40.0522 51.0849C41.106 50.6338 42.079 49.9959 42.906 49.193C43.7329 48.3933 44.4199 47.4318 44.8489 46.3458Z" fill="#263238"/>
<path d="M38.9829 58.9327C37.5622 58.6277 36.468 57.3893 36.4089 55.8708C36.3405 54.0753 37.7425 52.5568 39.5362 52.4852C41.3299 52.4137 42.8469 53.8201 42.9184 55.6156C42.9868 57.411 41.5848 58.9296 39.7911 59.0011C39.5145 59.0105 39.244 58.9887 38.9829 58.9327ZM40.2512 52.98C40.0274 52.9333 39.7911 52.9115 39.5518 52.9209C37.9974 52.98 36.7819 54.2962 36.841 55.8521C36.9032 57.4079 38.2181 58.6277 39.7694 58.5624C41.3237 58.5001 42.5392 57.187 42.4801 55.6312C42.4304 54.318 41.4822 53.2445 40.2512 52.98Z" fill="#455A64"/>
<path d="M46.4286 59.5893C45.21 59.3279 44.3707 57.8436 44.5292 56.1509C44.61 55.2951 44.9271 54.5141 45.4276 53.9447C45.9437 53.3565 46.5903 53.0672 47.2493 53.1294C47.9115 53.1885 48.4897 53.5961 48.8876 54.2683C49.273 54.9186 49.4409 55.7463 49.3601 56.6021C49.1922 58.3913 47.9736 59.748 46.6431 59.6235C46.5685 59.6142 46.5001 59.6048 46.4286 59.5893ZM47.3705 53.5899C47.3177 53.5775 47.2617 53.5713 47.2058 53.565C46.6897 53.5152 46.1737 53.7548 45.7509 54.234C45.3126 54.7319 45.0328 55.4289 44.9613 56.1913C44.8183 57.7409 45.5831 59.0883 46.6804 59.1879C47.7716 59.2906 48.7788 58.1112 48.9249 56.5616C48.9964 55.7992 48.8503 55.0618 48.5114 54.4892C48.2192 54.0007 47.8213 53.6864 47.3705 53.5899Z" fill="#455A64"/>
<path d="M42.7724 55.9789L42.5237 55.6214C43.0553 55.2546 44.2428 54.807 44.9547 55.7271L44.6096 55.9945C43.9754 55.1676 42.8221 55.9479 42.7724 55.9789Z" fill="#455A64"/>
<path d="M28.2462 55.4633L27.8794 55.2268C27.9882 55.0557 28.9799 53.5527 29.9622 53.4874C30.8793 53.4282 36.6427 54.5173 36.8852 54.564L36.8044 54.9934C35.1537 54.6791 30.7021 53.8763 29.9933 53.923C29.3436 53.9666 28.5136 55.0494 28.2462 55.4633Z" fill="#455A64"/>
<path d="M31.5163 55.4166C31.5163 55.4166 29.7412 51.9346 28.19 52.5258C26.6419 53.1171 27.6708 57.9495 29.2718 58.8146C30.8728 59.6796 31.7028 58.2109 31.7028 58.2109L31.5163 55.4166Z" fill="#F7A9A0"/>
<path d="M28.5224 53.9041C28.4945 53.8979 28.4851 53.9352 28.5069 53.9476C29.626 54.5918 30.0954 55.7804 30.3752 56.9784C30.083 56.4899 29.6385 56.185 28.9918 56.521C28.9577 56.5397 28.9794 56.5926 29.0136 56.5895C29.5141 56.5521 29.853 56.6859 30.1265 57.1216C30.3193 57.4296 30.4312 57.7999 30.5524 58.1422C30.5928 58.2574 30.7918 58.2262 30.77 58.0987C30.7669 58.0893 30.7669 58.08 30.7638 58.0706C31.0032 56.5584 30.1203 54.2806 28.5224 53.9041Z" fill="#263238"/>
<path d="M72.4664 112.152C71.4499 112.068 70.4551 111.894 69.4603 111.695C68.4687 111.486 67.4832 111.256 66.5195 110.932C67.5361 111.016 68.5308 111.191 69.5256 111.39C70.5142 111.598 71.4996 111.832 72.4664 112.152Z" fill="#263238"/>
<path d="M81.1152 109.498C80.9939 108.306 80.9659 107.114 80.9597 105.923C80.9628 104.731 80.9908 103.539 81.1152 102.347C81.2395 103.539 81.2675 104.731 81.2706 105.923C81.2644 107.114 81.2364 108.306 81.1152 109.498Z" fill="#263238"/>
<path d="M78.0769 109.548C77.3899 108.648 76.7837 107.699 76.1962 106.738C75.618 105.773 75.0584 104.796 74.5828 103.766C75.2698 104.665 75.876 105.615 76.4635 106.576C77.0386 107.544 77.5982 108.521 78.0769 109.548Z" fill="#263238"/>
<path d="M67.1843 104.046C67.8745 104.578 68.5428 105.135 69.205 105.695C69.8702 106.252 70.5199 106.831 71.1727 107.407C71.8194 107.989 72.4628 108.57 73.0908 109.171L74.0327 110.073C74.3405 110.381 74.6514 110.683 74.9529 111.001C74.6047 110.736 74.2721 110.459 73.9301 110.189L72.9291 109.351C72.2639 108.794 71.6142 108.216 70.9645 107.64C70.321 107.058 69.6744 106.476 69.0464 105.876C68.4154 105.275 67.7874 104.675 67.1843 104.046Z" fill="#263238"/>
<path d="M86.7568 111.607C87.7236 111.284 88.7091 111.054 89.7007 110.845C90.6924 110.646 91.6903 110.472 92.7068 110.388C91.74 110.711 90.7546 110.942 89.7629 111.15C88.7713 111.349 87.7734 111.523 86.7568 111.607Z" fill="#263238"/>
<path d="M91.5442 103.436C90.938 104.065 90.3132 104.665 89.6821 105.263C89.0542 105.863 88.4076 106.445 87.7641 107.027C87.1144 107.603 86.4646 108.178 85.7994 108.739L84.7984 109.576C84.4564 109.846 84.1238 110.123 83.7756 110.388C84.0772 110.07 84.388 109.772 84.6958 109.46L85.6377 108.558C86.2657 107.958 86.9123 107.376 87.5558 106.794C88.2055 106.218 88.8552 105.642 89.5236 105.082C90.1857 104.525 90.8541 103.968 91.5442 103.436Z" fill="#263238"/>
<path d="M119.809 109.143L120.691 109.028L119.261 74.4725L109.003 60.0093L108.238 60.6379L118.438 75.0358L119.809 109.143Z" fill="#263238"/>
<path d="M120.103 74.7527C120.103 75.4466 119.541 76.0068 118.851 76.0068C118.157 76.0068 117.598 75.4435 117.598 74.7527C117.598 74.0588 118.161 73.4987 118.851 73.4987C119.541 73.4987 120.103 74.0588 120.103 74.7527Z" fill="#FFC727"/>
<path d="M109.978 60.4511C109.978 61.145 109.416 61.7051 108.726 61.7051C108.032 61.7051 107.473 61.1419 107.473 60.4511C107.473 59.7572 108.036 59.1971 108.726 59.1971C109.416 59.1971 109.978 59.7572 109.978 60.4511Z" fill="#FFC727"/>
<path d="M100.208 60.9397L105.045 68.3363L108.238 65.4237L110.184 63.6438L106.559 58.105L104.153 59.1785L100.208 60.9397Z" fill="#FFC727"/>
<path opacity="0.1" d="M100.208 60.9396L105.045 68.3362L108.238 65.4236L104.153 59.1784L100.208 60.9396Z" fill="black"/>
<path d="M91.2734 62.8657L99.7073 75.7606L107.765 68.1742L101.445 58.5093L91.2734 62.8657Z" fill="#FFC727"/>
<path d="M112.18 112.158H127.384L126.452 107.375H113.112L112.18 112.158Z" fill="#FFC727"/>
<path d="M62.5804 30.884C62.0395 36.0588 57.4076 39.8177 52.2379 39.2763C50.1489 39.0584 48.293 38.1685 46.8537 36.8429L42.144 37.5337L44.5004 33.4574C43.9284 32.0664 43.6891 30.5168 43.8538 28.9205C44.3947 23.7458 49.0266 19.9868 54.1963 20.5282C59.3661 21.0728 63.1213 25.7092 62.5804 30.884Z" fill="white"/>
<path d="M62.5804 30.8836C62.3846 32.6044 61.7566 34.2909 60.681 35.6601C60.4355 36.0179 60.1153 36.3197 59.8293 36.6434C59.5029 36.9296 59.1982 37.2408 58.8345 37.4866C58.1475 38.0187 57.3734 38.4326 56.5652 38.7531C55.76 39.0923 54.8958 39.2541 54.0316 39.3568C53.5964 39.3817 53.1612 39.419 52.7229 39.3817C52.2845 39.3723 51.8493 39.3256 51.4203 39.2447C49.6981 38.9336 48.0661 38.1245 46.7635 36.9421L46.8754 36.9763L42.172 37.6982L41.8301 37.7511L42.0042 37.4493L44.345 33.3667L44.3326 33.5285C43.1917 30.84 43.4497 27.6381 44.9108 25.13C45.6413 23.876 46.6578 22.7932 47.8578 21.9872C49.0577 21.1782 50.4504 20.671 51.8742 20.478C53.3011 20.2882 54.7684 20.4189 56.13 20.8701C57.4916 21.3275 58.7381 22.0992 59.7609 23.0981C61.8406 25.0803 62.8851 28.0457 62.5804 30.8836ZM62.5804 30.8836C62.8664 28.0457 61.8002 25.0958 59.7236 23.1448C58.6915 22.1677 57.4418 21.4302 56.0927 21.0008C54.7435 20.5776 53.298 20.4781 51.9053 20.6865C50.5157 20.9012 49.1696 21.4178 48.0194 22.2237C46.8723 23.0296 45.9024 24.0876 45.203 25.2981C44.4911 26.5085 44.1212 27.8932 44.0093 29.2842C43.9222 30.6813 44.1491 32.094 44.6714 33.3885L44.7056 33.4725L44.6621 33.5503L42.2933 37.6173L42.1254 37.3684L46.8381 36.7087L46.9034 36.6994L46.9501 36.7429C48.1966 37.9129 49.7727 38.7313 51.4576 39.0674C51.8773 39.1514 52.3063 39.2043 52.7353 39.223C53.1643 39.2696 53.5933 39.2354 54.0223 39.2198C54.8741 39.1327 55.7352 38.9865 56.5372 38.666C57.3423 38.3641 58.1226 37.9689 58.8065 37.4399C59.1671 37.2003 59.4718 36.8923 59.8013 36.6091C60.0904 36.2886 60.4106 35.993 60.6562 35.6352C61.7318 34.2785 62.3722 32.6012 62.5804 30.8836Z" fill="#263238"/>
<path d="M58.4645 30.1896C58.4645 30.8182 57.9547 31.3285 57.3267 31.3285C56.6988 31.3285 56.189 30.8182 56.189 30.1896C56.189 29.561 56.6988 29.0507 57.3267 29.0507C57.9547 29.0507 58.4645 29.5579 58.4645 30.1896Z" fill="#263238"/>
<path d="M54.3827 30.1896C54.3827 30.8182 53.8729 31.3285 53.245 31.3285C52.617 31.3285 52.1072 30.8182 52.1072 30.1896C52.1072 29.5611 52.617 29.0507 53.245 29.0507C53.8729 29.0476 54.3827 29.5579 54.3827 30.1896Z" fill="#263238"/>
<path d="M50.2985 30.1898C50.2985 30.8183 49.7887 31.3287 49.1607 31.3287C48.5328 31.3287 48.0229 30.8183 48.0229 30.1898C48.0229 29.5612 48.5328 29.0509 49.1607 29.0509C49.7887 29.0509 50.2985 29.5581 50.2985 30.1898Z" fill="#263238"/>
<path d="M78.4072 43.5546H53.0591V57.548H78.4072V43.5546Z" fill="#455A64"/>
<path d="M73.5205 57.5479H78.4073V61.0859L73.5205 57.5479Z" fill="#455A64"/>
<path d="M67.6353 46.1372H56.1426V46.4512H67.6353V46.1372Z" fill="white"/>
<path d="M75.4443 47.8394H56.1426V48.1534H75.4443V47.8394Z" fill="white"/>
<path d="M75.4443 49.5416H56.1426V49.8555H75.4443V49.5416Z" fill="white"/>
<path d="M71.745 51.2437H56.1426V51.5577H71.745V51.2437Z" fill="white"/>
<path d="M75.4443 52.9454H56.1426V53.2594H75.4443V52.9454Z" fill="white"/>
<path d="M63.2428 54.6482H56.1426V54.9622H63.2428V54.6482Z" fill="white"/>
<path d="M86.8873 62.6385H61.7102V73.0191H86.8873V62.6385Z" fill="#FFC727"/>
<path d="M86.8904 76.3549V73.016H81.8357L86.8904 76.3549Z" fill="#FFC727"/>
<path d="M83.8652 65.221H64.7749V65.535H83.8652V65.221Z" fill="white"/>
<path d="M75.6674 66.9232H64.7747V67.2371H75.6674V66.9232Z" fill="white"/>
<path d="M79.4973 68.6253H64.7747V68.9393H79.4973V68.6253Z" fill="white"/>
<path d="M69.904 70.3275H64.7747V70.6414H69.904V70.3275Z" fill="white"/>
<path d="M68.8408 113.337H66.3135V114.989H68.8408V113.337Z" fill="#EBEBEB"/>
<path d="M72.1206 113.228H69.5933V114.881H72.1206V113.228Z" fill="#EBEBEB"/>
<path d="M75.397 113.12H72.8696V114.772H75.397V113.12Z" fill="#EBEBEB"/>
<path d="M78.677 113.01H76.1497V114.663H78.677V113.01Z" fill="#EBEBEB"/>
<path d="M81.9536 112.901H79.4263V114.554H81.9536V112.901Z" fill="#EBEBEB"/>
<path d="M85.2332 112.792H82.7058V114.445H85.2332V112.792Z" fill="#EBEBEB"/>
<path d="M88.5098 112.683H85.9824V114.336H88.5098V112.683Z" fill="#EBEBEB"/>
<path d="M91.7866 112.575H89.2593V114.227H91.7866V112.575Z" fill="#EBEBEB"/>
<path d="M95.0659 112.466H92.5386V114.118H95.0659V112.466Z" fill="#EBEBEB"/>
<path d="M95.6844 115.942H65.6951V113.932L95.6844 113.095V115.942Z" fill="#DBDBDB"/>
<path d="M118.045 108.981H76.2646L82.911 77.8453H124.691L118.045 108.981Z" fill="#EBEBEB"/>
<path d="M119.59 108.981H77.8123L84.4555 77.8453H126.236L119.59 108.981Z" fill="#DBDBDB"/>
<path d="M104.671 93.3708C105.805 92.3224 105.998 90.6866 105.104 89.7172C104.209 88.7478 102.565 88.8118 101.431 89.8602C100.297 90.9086 100.104 92.5444 100.998 93.5138C101.893 94.4833 103.537 94.4192 104.671 93.3708Z" fill="white"/>
<path d="M107.774 117.112H87.2261V115.516L107.774 114.85V117.112Z" fill="#EBEBEB"/>
<path d="M113.36 117.109H102.328L95.6846 99.6646H106.717L113.36 117.109Z" fill="#EBEBEB"/>
<path d="M115.179 117.109H104.147L97.5002 99.6646H108.533L115.179 117.109Z" fill="#A6A6A6"/>
<path d="M62.9535 117.535C62.9535 117.535 43.5772 117.535 41.7679 117.535C39.9587 117.535 42.5762 112.382 49.1728 110.406C55.7725 108.43 65.0332 115.603 62.9535 117.535Z" fill="#DBDBDB"/>
<path d="M54.6411 117.535C54.6535 116.95 54.7592 116.368 54.9302 115.805C55.0981 115.242 55.3437 114.697 55.6452 114.19C55.9436 113.68 56.3291 113.219 56.7705 112.824C57.1995 112.413 57.7311 112.13 58.2596 111.897C58.0327 112.083 57.7746 112.214 57.5664 112.416L57.24 112.693L56.9384 112.998C56.5498 113.412 56.1954 113.857 55.9126 114.352C55.6172 114.837 55.3716 115.354 55.1603 115.886C54.952 116.421 54.7717 116.969 54.6411 117.535Z" fill="#263238"/>
<path d="M57.1489 112.634C57.78 112.827 58.3862 113.092 58.9768 113.381C59.5706 113.674 60.1395 114.01 60.6804 114.392C61.2182 114.778 61.7342 115.211 62.157 115.733C62.3653 115.995 62.5549 116.275 62.7041 116.577C62.8409 116.882 62.9466 117.208 62.9528 117.538C62.8751 117.218 62.7476 116.919 62.5704 116.648C62.4026 116.374 62.2005 116.126 61.9767 115.892C61.529 115.432 61.0285 115.021 60.5001 114.647C59.9747 114.268 59.4214 113.929 58.8618 113.593C58.582 113.425 58.2991 113.266 58.01 113.107C57.7302 112.939 57.438 112.79 57.1489 112.634Z" fill="#263238"/>
<path opacity="0.6" d="M23.6441 107.13C23.6441 107.13 31.2012 103.644 31.2012 98.9738C31.2012 94.3031 21.4027 91.2972 21.4027 87.6441C21.4027 83.9941 25.6771 81.847 25.6771 81.847C25.6771 81.847 18.9282 84.1559 18.9282 88.7736C18.9282 93.3914 25.388 96.5187 26.0067 99.4561C26.8615 103.539 23.6441 107.13 23.6441 107.13Z" fill="#DBDBDB"/>
<path opacity="0.6" d="M24.0171 107.129C24.0171 107.129 16.46 104.391 16.46 100.716C16.46 97.0413 26.2585 94.6795 26.2585 91.8105C26.2585 88.9415 21.9841 87.2518 21.9841 87.2518C21.9841 87.2518 28.733 89.066 28.733 92.6973C28.733 96.3287 21.3157 98.8243 20.7841 101.774C20.2681 104.665 24.0171 107.129 24.0171 107.129Z" fill="#DBDBDB"/>
<path d="M27.3191 118.877H20.1318V120H27.3191V118.877Z" fill="#455A64"/>
<path d="M27.3191 118.877H20.1318V119.617H27.3191V118.877Z" fill="#263238"/>
<path d="M11.5985 115.858C12.4471 117.053 13.9517 117.908 15.6459 117.591C15.8853 117.544 16.1278 117.479 16.3765 117.383C16.7122 117.252 17.048 117.078 17.393 116.847L16.4791 115.491C16.2925 115.621 16.1122 115.721 15.9382 115.799C14.2253 116.577 13.1435 115.226 12.929 114.915C11.9435 113.53 11.5922 110.363 12.5901 109.146C12.6554 109.056 12.9445 108.913 14.1009 109.158C14.3154 109.208 14.5579 109.261 14.8315 109.336C15.1361 109.423 15.3164 109.473 15.4874 109.479L15.5154 108.667L15.5962 107.855C15.5216 107.842 15.4035 107.808 15.2542 107.764C14.819 107.646 14.2284 107.487 13.6191 107.425C12.7673 107.338 11.8751 107.438 11.328 108.113C9.70838 110.098 10.3643 114.118 11.5985 115.858Z" fill="#455A64"/>
<path d="M16.4789 115.491C16.2924 115.621 16.1121 115.721 15.938 115.799L16.3732 117.383C16.7089 117.252 17.0447 117.078 17.3897 116.847L16.4789 115.491Z" fill="#263238"/>
<path d="M13.6216 107.422L14.1034 109.159C14.3179 109.208 14.5604 109.261 14.834 109.336C15.1386 109.423 15.3189 109.473 15.4899 109.479L15.5179 108.667L15.5987 107.855C15.5241 107.842 15.406 107.808 15.2567 107.765C14.8184 107.643 14.2309 107.484 13.6216 107.422Z" fill="#263238"/>
<path d="M33.2844 105.3C33.2844 105.3 32.4233 112.631 30.9312 115.721C29.4421 118.805 27.3624 119.15 26.0723 119.15C24.7822 119.15 24.8973 119.15 23.7253 119.15C22.5471 119.15 22.6683 119.15 21.372 119.15C20.0819 119.15 18.0022 118.805 16.5132 115.721C15.0241 112.631 14.1599 105.3 14.1599 105.3H33.2844Z" fill="#455A64"/>
<path d="M17.2872 107.394C17.2872 107.864 16.9079 108.243 16.4385 108.243C15.9691 108.243 15.5898 107.864 15.5898 107.394C15.5898 106.924 15.9691 106.544 16.4385 106.544C16.9079 106.544 17.2872 106.927 17.2872 107.394ZM23.9273 106.367C23.4579 106.367 23.0786 106.747 23.0786 107.217C23.0786 107.686 23.4579 108.066 23.9273 108.066C24.3967 108.066 24.776 107.686 24.776 107.217C24.776 106.75 24.3967 106.367 23.9273 106.367ZM23.9273 117.04C23.4579 117.04 23.0786 117.42 23.0786 117.89C23.0786 118.36 23.4579 118.739 23.9273 118.739C24.3967 118.739 24.776 118.36 24.776 117.89C24.776 117.42 24.3967 117.04 23.9273 117.04ZM30.0825 112.226C29.613 112.226 29.2338 112.606 29.2338 113.076C29.2338 113.546 29.613 113.925 30.0825 113.925C30.5519 113.925 30.9311 113.546 30.9311 113.076C30.9311 112.606 30.5519 112.226 30.0825 112.226ZM20.6508 114.735C20.1813 114.735 19.8021 115.114 19.8021 115.584C19.8021 116.054 20.1813 116.433 20.6508 116.433C21.1202 116.433 21.4994 116.054 21.4994 115.584C21.4963 115.117 21.1171 114.735 20.6508 114.735ZM30.6171 106.367C30.1477 106.367 29.7685 106.747 29.7685 107.217C29.7685 107.686 30.1477 108.066 30.6171 108.066C31.0866 108.066 31.4658 107.686 31.4658 107.217C31.4658 106.75 31.0866 106.367 30.6171 106.367ZM23.8278 112.093C23.3584 112.093 22.9791 112.472 22.9791 112.942C22.9791 113.412 23.3584 113.792 23.8278 113.792C24.2972 113.792 24.6765 113.412 24.6765 112.942C24.6765 112.472 24.2972 112.093 23.8278 112.093ZM17.3929 112.226C16.9235 112.226 16.5442 112.606 16.5442 113.076C16.5442 113.546 16.9235 113.925 17.3929 113.925C17.8623 113.925 18.2415 113.546 18.2415 113.076C18.2415 112.606 17.8592 112.226 17.3929 112.226ZM27.3189 109.382C26.8494 109.382 26.4702 109.762 26.4702 110.232C26.4702 110.702 26.8494 111.081 27.3189 111.081C27.7883 111.081 28.1675 110.702 28.1675 110.232C28.1675 109.762 27.7883 109.382 27.3189 109.382ZM27.0857 114.875C26.6163 114.875 26.237 115.254 26.237 115.724C26.237 116.194 26.6163 116.574 27.0857 116.574C27.5551 116.574 27.9344 116.194 27.9344 115.724C27.9344 115.254 27.5551 114.875 27.0857 114.875ZM20.2497 109.382C19.7803 109.382 19.4011 109.762 19.4011 110.232C19.4011 110.702 19.7803 111.081 20.2497 111.081C20.7191 111.081 21.0984 110.702 21.0984 110.232C21.0984 109.762 20.7191 109.382 20.2497 109.382Z" fill="#37474F"/>
</svg>
