<svg width="310" height="252" viewBox="0 0 310 252" fill="none" xmlns="http://www.w3.org/2000/svg">
<rect width="310" height="252" rx="5" fill="#F7AD19" fill-opacity="0.1"/>
<path d="M260.091 147.883H267.527" stroke="#263238" stroke-miterlimit="10" stroke-linecap="round" stroke-linejoin="round"/>
<path d="M43.9731 147.884H256.755" stroke="#263238" stroke-miterlimit="10" stroke-linecap="round" stroke-linejoin="round"/>
<path d="M248.668 86.3669V82.2532L244.994 81.6911C244.651 79.6789 243.921 77.8085 242.882 76.1799L245.116 72.9856L242.402 70.075L239.434 72.4602C237.92 71.3359 236.186 70.5426 234.31 70.1643L233.781 66.2082H229.945L229.421 70.1485C227.545 70.5163 225.801 71.2991 224.283 72.4129L221.304 70.0172L218.591 72.9278L220.815 76.1116C219.766 77.735 219.027 79.5948 218.674 81.607L214.985 82.1744V86.2881L218.659 86.8503C219.002 88.8625 219.732 90.7328 220.771 92.3615L218.537 95.5558L221.251 98.4663L224.219 96.0811C225.733 97.2054 227.467 97.9988 229.343 98.377L229.872 102.333H233.707L234.232 98.3928C236.108 98.025 237.852 97.2422 239.37 96.1284L242.348 98.5241L245.062 95.6135L242.838 92.4298C243.887 90.8064 244.626 88.9465 244.979 86.9343L248.668 86.3669ZM231.831 94.2423C226.698 94.2423 222.534 89.7766 222.534 84.2707C222.534 78.7647 226.698 74.299 231.831 74.299C236.965 74.299 241.129 78.7647 241.129 84.2707C241.129 89.7766 236.965 94.2423 231.831 94.2423Z" stroke="#263238" stroke-miterlimit="10"/>
<path d="M259.296 110.908V107.965L256.671 107.561C256.426 106.121 255.907 104.782 255.162 103.621L256.759 101.335L254.819 99.2547L252.698 100.962C251.616 100.158 250.376 99.5909 249.034 99.3177L248.657 96.4912H245.914L245.537 99.3072C244.194 99.5699 242.945 100.127 241.863 100.925L239.732 99.2127L237.792 101.293L239.384 103.568C238.635 104.729 238.105 106.058 237.851 107.498L235.215 107.902V110.845L237.841 111.249C238.086 112.689 238.605 114.028 239.35 115.189L237.753 117.475L239.693 119.555L241.814 117.848C242.896 118.652 244.136 119.219 245.478 119.492L245.855 122.319H248.598L248.975 119.503C250.317 119.24 251.567 118.683 252.649 117.885L254.78 119.597L256.72 117.517L255.128 115.242C255.877 114.081 256.406 112.752 256.661 111.312L259.296 110.908ZM247.256 116.534C243.582 116.534 240.609 113.34 240.609 109.405C240.609 105.47 243.587 102.276 247.256 102.276C250.93 102.276 253.903 105.47 253.903 109.405C253.903 113.34 250.93 116.534 247.256 116.534Z" stroke="#263238" stroke-miterlimit="10"/>
<path d="M65.4868 108.886V112.637L68.8374 113.152C69.1509 114.991 69.8171 116.693 70.7625 118.18L68.7247 121.095L71.1985 123.749L73.9074 121.568C75.2888 122.593 76.871 123.318 78.5855 123.665L79.0655 127.274H82.5631L83.0431 123.68C84.7576 123.344 86.3447 122.63 87.731 121.616L90.4497 123.801L92.9234 121.148L90.8905 118.243C91.8458 116.761 92.5217 115.064 92.8451 113.225L96.2103 112.71V108.959L92.8597 108.444C92.5462 106.606 91.88 104.903 90.9346 103.416L92.9724 100.501L90.4987 97.8475L87.7898 100.028C86.4084 99.0033 84.8262 98.2783 83.1117 97.9316L82.6316 94.3222H79.1341L78.654 97.9158C76.9396 98.252 75.3524 98.9665 73.9662 99.9805L71.2475 97.795L68.7737 100.448L70.8066 103.353C69.8514 104.835 69.1754 106.532 68.8521 108.371L65.4868 108.886ZM80.8486 101.699C85.5316 101.699 89.3328 105.77 89.3328 110.798C89.3328 115.821 85.5365 119.898 80.8486 119.898C76.1607 119.898 72.3643 115.826 72.3643 110.798C72.3692 105.77 76.1656 101.699 80.8486 101.699Z" stroke="#263238" stroke-miterlimit="10"/>
<path d="M56.8315 88.4547V90.7453L58.8742 91.0606C59.0653 92.1796 59.4718 93.2199 60.0499 94.1288L58.8056 95.9045L60.3144 97.5227L61.9652 96.1935C62.8077 96.8187 63.7727 97.26 64.8161 97.4702L65.11 99.6715H67.2458L67.5397 97.4807C68.5831 97.2758 69.553 96.8397 70.4004 96.2198L72.0561 97.5542L73.5649 95.9361L72.3256 94.1655C72.9085 93.2619 73.32 92.2269 73.5159 91.1078L75.5684 90.7926V88.502L73.5257 88.1867C73.3347 87.0677 72.9281 86.0274 72.3501 85.1185L73.5943 83.3428L72.0855 81.7246L70.4347 83.0538C69.5922 82.4286 68.6272 81.9873 67.5838 81.7771L67.2899 79.5758H65.1541L64.8602 81.7666C63.8168 81.9715 62.8469 82.4076 61.9995 83.0275L60.3438 81.6931L58.835 83.3112L60.0744 85.0818C59.4914 85.9854 59.08 87.0204 58.884 88.1395L56.8315 88.4547ZM66.2024 84.073C69.0582 84.073 71.3753 86.5581 71.3753 89.621C71.3753 92.684 69.0582 95.169 66.2024 95.169C63.3466 95.169 61.0296 92.684 61.0296 89.621C61.0296 86.5581 63.3466 84.073 66.2024 84.073Z" stroke="#263238" stroke-miterlimit="10"/>
<path d="M139.053 46.6804V49.8222L141.86 50.253C142.12 51.7924 142.678 53.2214 143.472 54.4665L141.767 56.9095L143.839 59.1319L146.107 57.3088C147.263 58.1652 148.591 58.7746 150.026 59.0636L150.428 62.0845H153.357L153.759 59.0741C155.194 58.7956 156.526 58.1967 157.687 57.3456L159.965 59.1739L162.037 56.9516L160.337 54.5191C161.136 53.2792 161.704 51.8554 161.973 50.3161L164.79 49.8852V46.7435L161.983 46.3127C161.724 44.7733 161.165 43.3443 160.372 42.0992L162.076 39.6561L160.004 37.4338L157.736 39.2569C156.58 38.4005 155.253 37.7911 153.817 37.5021L153.416 34.4812H150.486L150.085 37.4916C148.649 37.77 147.317 38.369 146.156 39.2201L143.878 37.3918L141.806 39.6141L143.506 42.0466C142.708 43.2865 142.139 44.7103 141.87 46.2496L139.053 46.6804ZM151.922 40.6649C155.845 40.6649 159.029 44.0746 159.029 48.2881C159.029 52.4964 155.85 55.9113 151.922 55.9113C147.998 55.9113 144.814 52.5016 144.814 48.2881C144.819 44.0746 147.998 40.6649 151.922 40.6649Z" stroke="#263238" stroke-miterlimit="10"/>
<path d="M227.853 151.294H85.2861V50.7103C85.2861 48.3986 87.0349 46.523 89.1903 46.523H223.949C226.104 46.523 227.853 48.3986 227.853 50.7103V151.294Z" fill="#263238" stroke="#263238" stroke-miterlimit="10" stroke-linecap="round" stroke-linejoin="round"/>
<path d="M249.24 197.606H63.9043L85.2863 151.294H227.853L249.24 197.606Z" fill="white" stroke="#263238" stroke-miterlimit="10" stroke-linecap="round" stroke-linejoin="round"/>
<path d="M219.217 54.8176H93.9229V142.997H219.217V54.8176Z" fill="#053F5C" stroke="#263238" stroke-miterlimit="10" stroke-linecap="round" stroke-linejoin="round"/>
<path d="M150.623 165.952L150.873 160.309H143.339L142.839 165.952H150.623Z" fill="#263238" stroke="white" stroke-miterlimit="10" stroke-linecap="round" stroke-linejoin="round"/>
<path d="M166.195 165.952L165.936 160.309H158.402L158.407 165.952H166.195Z" fill="#263238" stroke="white" stroke-miterlimit="10" stroke-linecap="round" stroke-linejoin="round"/>
<path d="M206.741 171.989H214.794L212.903 165.952H205.12L206.741 171.989Z" fill="#263238" stroke="white" stroke-miterlimit="10" stroke-linecap="round" stroke-linejoin="round"/>
<path d="M142.84 165.952L143.34 160.309H135.806L135.056 165.952H142.84Z" fill="#263238" stroke="white" stroke-miterlimit="10" stroke-linecap="round" stroke-linejoin="round"/>
<path d="M127.267 165.952L128.271 160.309H120.737L119.483 165.952H127.267Z" fill="#263238" stroke="white" stroke-miterlimit="10" stroke-linecap="round" stroke-linejoin="round"/>
<path d="M197.331 165.952L196.067 160.309H188.538L189.547 165.952H197.331Z" fill="#263238" stroke="white" stroke-miterlimit="10" stroke-linecap="round" stroke-linejoin="round"/>
<path d="M205.12 165.952L203.601 160.309H196.067L197.331 165.952H205.12Z" fill="#263238" stroke="white" stroke-miterlimit="10" stroke-linecap="round" stroke-linejoin="round"/>
<path d="M119.484 165.952L120.738 160.309H113.209L111.7 165.952H119.484Z" fill="#263238" stroke="white" stroke-miterlimit="10" stroke-linecap="round" stroke-linejoin="round"/>
<path d="M173.979 165.952L173.469 160.309H165.936L166.195 165.952H173.979Z" fill="#263238" stroke="white" stroke-miterlimit="10" stroke-linecap="round" stroke-linejoin="round"/>
<path d="M212.903 165.952L211.135 160.309H203.601L205.12 165.952H212.903Z" fill="#263238" stroke="white" stroke-miterlimit="10" stroke-linecap="round" stroke-linejoin="round"/>
<path d="M189.547 165.952L188.538 160.309H181.004L181.763 165.952H189.547Z" fill="#263238" stroke="white" stroke-miterlimit="10" stroke-linecap="round" stroke-linejoin="round"/>
<path d="M181.763 165.952L181.004 160.309H173.47L173.979 165.952H181.763Z" fill="#263238" stroke="white" stroke-miterlimit="10" stroke-linecap="round" stroke-linejoin="round"/>
<path d="M158.407 165.952L158.402 160.309H150.873L150.623 165.952H158.407Z" fill="#263238" stroke="white" stroke-miterlimit="10" stroke-linecap="round" stroke-linejoin="round"/>
<path d="M103.916 165.952H96.1319L93.9814 171.989H102.035L103.916 165.952Z" fill="#263238" stroke="white" stroke-miterlimit="10" stroke-linecap="round" stroke-linejoin="round"/>
<path d="M105.675 160.309H98.1412L96.1328 165.952H103.917L105.675 160.309Z" fill="#263238" stroke="white" stroke-miterlimit="10" stroke-linecap="round" stroke-linejoin="round"/>
<path d="M111.7 165.952L113.209 160.309H105.675L103.916 165.952H111.7Z" fill="#263238" stroke="white" stroke-miterlimit="10" stroke-linecap="round" stroke-linejoin="round"/>
<path d="M91.6788 178.456L89.2002 185.402H97.8559L100.021 178.456H91.6788Z" fill="#263238" stroke="white" stroke-miterlimit="10" stroke-linecap="round" stroke-linejoin="round"/>
<path d="M102.035 171.988H93.9815L91.6792 178.456H100.021L102.035 171.988Z" fill="#263238" stroke="white" stroke-miterlimit="10" stroke-linecap="round" stroke-linejoin="round"/>
<path d="M100.021 178.456L97.856 185.402H106.507L108.363 178.456H100.021Z" fill="#263238" stroke="white" stroke-miterlimit="10" stroke-linecap="round" stroke-linejoin="round"/>
<path d="M135.056 165.952L135.805 160.309H128.271L127.267 165.952H135.056Z" fill="#263238" stroke="white" stroke-miterlimit="10" stroke-linecap="round" stroke-linejoin="round"/>
<path d="M134.252 171.989L135.056 165.952H127.267L126.199 171.989H134.252Z" fill="#263238" stroke="white" stroke-miterlimit="10" stroke-linecap="round" stroke-linejoin="round"/>
<path d="M126.198 171.989L127.266 165.952H119.482L118.14 171.989H126.198Z" fill="#263238" stroke="white" stroke-miterlimit="10" stroke-linecap="round" stroke-linejoin="round"/>
<path d="M142.306 171.989L142.84 165.952H135.056L134.252 171.989H142.306Z" fill="#263238" stroke="white" stroke-miterlimit="10" stroke-linecap="round" stroke-linejoin="round"/>
<path d="M111.7 165.952H103.916L102.035 171.989H110.088L111.7 165.952Z" fill="#263238" stroke="white" stroke-miterlimit="10" stroke-linecap="round" stroke-linejoin="round"/>
<path d="M208.475 178.456H216.822L214.794 171.988H206.741L208.475 178.456Z" fill="#263238" stroke="white" stroke-miterlimit="10" stroke-linecap="round" stroke-linejoin="round"/>
<path d="M118.141 171.989L119.483 165.952H111.7L110.088 171.989H118.141Z" fill="#263238" stroke="white" stroke-miterlimit="10" stroke-linecap="round" stroke-linejoin="round"/>
<path d="M102.034 171.988L100.021 178.456H108.363L110.087 171.988H102.034Z" fill="#263238" stroke="white" stroke-miterlimit="10" stroke-linecap="round" stroke-linejoin="round"/>
<path d="M190.63 171.989L189.547 165.952H181.764L182.577 171.989H190.63Z" fill="#263238" stroke="white" stroke-miterlimit="10" stroke-linecap="round" stroke-linejoin="round"/>
<path d="M182.575 171.989L181.762 165.952H173.979L174.522 171.989H182.575Z" fill="#263238" stroke="white" stroke-miterlimit="10" stroke-linecap="round" stroke-linejoin="round"/>
<path d="M206.741 171.989L205.119 165.952H197.331L198.683 171.989H206.741Z" fill="#263238" stroke="white" stroke-miterlimit="10" stroke-linecap="round" stroke-linejoin="round"/>
<path d="M158.412 171.989L158.407 165.952H150.623L150.359 171.989H158.412Z" fill="#263238" stroke="white" stroke-miterlimit="10" stroke-linecap="round" stroke-linejoin="round"/>
<path d="M174.523 171.989L173.98 165.952H166.196L166.47 171.989H174.523Z" fill="#263238" stroke="white" stroke-miterlimit="10" stroke-linecap="round" stroke-linejoin="round"/>
<path d="M166.47 171.989L166.196 165.952H158.407L158.412 171.989H166.47Z" fill="#263238" stroke="white" stroke-miterlimit="10" stroke-linecap="round" stroke-linejoin="round"/>
<path d="M150.358 171.989L150.623 165.952H142.839L142.305 171.989H150.358Z" fill="#263238" stroke="white" stroke-miterlimit="10" stroke-linecap="round" stroke-linejoin="round"/>
<path d="M174.523 171.988L175.106 178.456H183.448L182.576 171.988H174.523Z" fill="#263238" stroke="white" stroke-miterlimit="10" stroke-linecap="round" stroke-linejoin="round"/>
<path d="M182.576 171.988L183.448 178.456H191.79L190.629 171.988H182.576Z" fill="#263238" stroke="white" stroke-miterlimit="10" stroke-linecap="round" stroke-linejoin="round"/>
<path d="M110.088 171.988L108.364 178.456H116.706L118.141 171.988H110.088Z" fill="#263238" stroke="white" stroke-miterlimit="10" stroke-linecap="round" stroke-linejoin="round"/>
<path d="M190.629 171.988L191.79 178.456H200.133L198.683 171.988H190.629Z" fill="#263238" stroke="white" stroke-miterlimit="10" stroke-linecap="round" stroke-linejoin="round"/>
<path d="M158.412 171.988L158.421 178.456H166.764L166.47 171.988H158.412Z" fill="#263238" stroke="white" stroke-miterlimit="10" stroke-linecap="round" stroke-linejoin="round"/>
<path d="M198.681 171.988L200.131 178.456H208.473L206.739 171.988H198.681Z" fill="#263238" stroke="white" stroke-miterlimit="10" stroke-linecap="round" stroke-linejoin="round"/>
<path d="M166.47 171.988L166.764 178.456H175.106L174.523 171.988H166.47Z" fill="#263238" stroke="white" stroke-miterlimit="10" stroke-linecap="round" stroke-linejoin="round"/>
<path d="M126.199 171.988L125.048 178.456H133.39L134.252 171.988H126.199Z" fill="#263238" stroke="white" stroke-miterlimit="10" stroke-linecap="round" stroke-linejoin="round"/>
<path d="M118.141 171.988L116.706 178.456H125.048L126.199 171.988H118.141Z" fill="#263238" stroke="white" stroke-miterlimit="10" stroke-linecap="round" stroke-linejoin="round"/>
<path d="M150.358 171.988L150.074 178.456H158.421L158.411 171.988H150.358Z" fill="#263238" stroke="white" stroke-miterlimit="10" stroke-linecap="round" stroke-linejoin="round"/>
<path d="M142.305 171.988L141.732 178.456H150.074L150.358 171.988H142.305Z" fill="#263238" stroke="white" stroke-miterlimit="10" stroke-linecap="round" stroke-linejoin="round"/>
<path d="M134.253 171.988L133.391 178.456H141.733L142.306 171.988H134.253Z" fill="#263238" stroke="white" stroke-miterlimit="10" stroke-linecap="round" stroke-linejoin="round"/>
<path d="M198.683 171.989L197.331 165.952H189.547L190.629 171.989H198.683Z" fill="#263238" stroke="white" stroke-miterlimit="10" stroke-linecap="round" stroke-linejoin="round"/>
<path d="M105.674 160.309L107.472 154.53H100.198L98.1404 160.309H105.674Z" fill="#263238" stroke="white" stroke-miterlimit="10" stroke-linecap="round" stroke-linejoin="round"/>
<path d="M98.1398 160.309H91.1888L88.9453 165.952H96.1314L98.1398 160.309Z" fill="#263238" stroke="white" stroke-miterlimit="10" stroke-linecap="round" stroke-linejoin="round"/>
<path d="M100.197 154.53H93.4815L91.189 160.309H98.14L100.197 154.53Z" fill="#263238" stroke="white" stroke-miterlimit="10" stroke-linecap="round" stroke-linejoin="round"/>
<path d="M96.1323 165.952H88.9462L86.5459 171.989H93.9819L96.1323 165.952Z" fill="#263238" stroke="white" stroke-miterlimit="10" stroke-linecap="round" stroke-linejoin="round"/>
<path d="M93.9813 171.988H86.5454L83.9736 178.456H91.679L93.9813 171.988Z" fill="#263238" stroke="white" stroke-miterlimit="10" stroke-linecap="round" stroke-linejoin="round"/>
<path d="M91.6795 178.456H83.9742L81.2163 185.402H89.2009L91.6795 178.456Z" fill="#263238" stroke="white" stroke-miterlimit="10" stroke-linecap="round" stroke-linejoin="round"/>
<path d="M220.687 165.952L222.847 171.989H229.974L227.574 165.952H220.687Z" fill="#263238" stroke="white" stroke-miterlimit="10" stroke-linecap="round" stroke-linejoin="round"/>
<path d="M225.164 178.456H232.541L229.975 171.988H222.847L225.164 178.456Z" fill="#263238" stroke="white" stroke-miterlimit="10" stroke-linecap="round" stroke-linejoin="round"/>
<path d="M227.647 185.402H235.304L232.541 178.456H225.164L227.647 185.402Z" fill="#263238" stroke="white" stroke-miterlimit="10" stroke-linecap="round" stroke-linejoin="round"/>
<path d="M165.936 160.309L165.677 154.53H158.397L158.402 160.309H165.936Z" fill="#263238" stroke="white" stroke-miterlimit="10" stroke-linecap="round" stroke-linejoin="round"/>
<path d="M220.687 165.952H227.574L225.33 160.309H218.668L220.687 165.952Z" fill="#263238" stroke="white" stroke-miterlimit="10" stroke-linecap="round" stroke-linejoin="round"/>
<path d="M216.822 178.456H225.164L222.847 171.988H214.794L216.822 178.456Z" fill="#263238" stroke="white" stroke-miterlimit="10" stroke-linecap="round" stroke-linejoin="round"/>
<path d="M113.209 160.309L114.747 154.53H107.473L105.675 160.309H113.209Z" fill="#263238" stroke="white" stroke-miterlimit="10" stroke-linecap="round" stroke-linejoin="round"/>
<path d="M211.134 160.309L212.903 165.952H220.686L218.668 160.309H211.134Z" fill="#263238" stroke="white" stroke-miterlimit="10" stroke-linecap="round" stroke-linejoin="round"/>
<path d="M225.33 160.309L223.033 154.53H216.601L218.668 160.309H225.33Z" fill="#263238" stroke="white" stroke-miterlimit="10" stroke-linecap="round" stroke-linejoin="round"/>
<path d="M218.668 160.309L216.601 154.53H209.327L211.134 160.309H218.668Z" fill="#263238" stroke="white" stroke-miterlimit="10" stroke-linecap="round" stroke-linejoin="round"/>
<path d="M191.79 178.456L193.039 185.402H201.69L200.132 178.456H191.79Z" fill="#263238" stroke="white" stroke-miterlimit="10" stroke-linecap="round" stroke-linejoin="round"/>
<path d="M218.997 185.402H227.648L225.164 178.456H216.822L218.997 185.402Z" fill="#263238" stroke="white" stroke-miterlimit="10" stroke-linecap="round" stroke-linejoin="round"/>
<path d="M211.135 160.309L209.327 154.53H202.048L203.601 160.309H211.135Z" fill="#263238" stroke="white" stroke-miterlimit="10" stroke-linecap="round" stroke-linejoin="round"/>
<path d="M208.475 178.456L210.341 185.402H218.997L216.822 178.456H208.475Z" fill="#263238" stroke="white" stroke-miterlimit="10" stroke-linecap="round" stroke-linejoin="round"/>
<path d="M200.132 178.456L201.69 185.402H210.341L208.475 178.456H200.132Z" fill="#263238" stroke="white" stroke-miterlimit="10" stroke-linecap="round" stroke-linejoin="round"/>
<path d="M214.794 171.989H222.847L220.687 165.952H212.903L214.794 171.989Z" fill="#263238" stroke="white" stroke-miterlimit="10" stroke-linecap="round" stroke-linejoin="round"/>
<path d="M143.339 160.309L143.849 154.53H136.574L135.805 160.309H143.339Z" fill="#263238" stroke="white" stroke-miterlimit="10" stroke-linecap="round" stroke-linejoin="round"/>
<path d="M203.602 160.309L202.049 154.53H194.774L196.068 160.309H203.602Z" fill="#263238" stroke="white" stroke-miterlimit="10" stroke-linecap="round" stroke-linejoin="round"/>
<path d="M135.805 160.309L136.574 154.53H129.3L128.271 160.309H135.805Z" fill="#263238" stroke="white" stroke-miterlimit="10" stroke-linecap="round" stroke-linejoin="round"/>
<path d="M158.402 160.309L158.397 154.53H151.123L150.873 160.309H158.402Z" fill="#263238" stroke="white" stroke-miterlimit="10" stroke-linecap="round" stroke-linejoin="round"/>
<path d="M128.272 160.309L129.301 154.53H122.026L120.738 160.309H128.272Z" fill="#263238" stroke="white" stroke-miterlimit="10" stroke-linecap="round" stroke-linejoin="round"/>
<path d="M120.737 160.309L122.026 154.53H114.746L113.208 160.309H120.737Z" fill="#263238" stroke="white" stroke-miterlimit="10" stroke-linecap="round" stroke-linejoin="round"/>
<path d="M150.873 160.309L151.123 154.53H143.849L143.339 160.309H150.873Z" fill="#263238" stroke="white" stroke-miterlimit="10" stroke-linecap="round" stroke-linejoin="round"/>
<path d="M196.067 160.309L194.773 154.53H187.499L188.538 160.309H196.067Z" fill="#263238" stroke="white" stroke-miterlimit="10" stroke-linecap="round" stroke-linejoin="round"/>
<path d="M188.537 160.309L187.499 154.53H180.225L181.003 160.309H188.537Z" fill="#263238" stroke="white" stroke-miterlimit="10" stroke-linecap="round" stroke-linejoin="round"/>
<path d="M173.47 160.309L172.951 154.53H165.676L165.936 160.309H173.47Z" fill="#263238" stroke="white" stroke-miterlimit="10" stroke-linecap="round" stroke-linejoin="round"/>
<path d="M191.79 178.456H183.448H175.106H166.764H158.421H150.074H141.732H133.39H125.048H116.706H108.363L106.507 185.402H115.163H123.813H132.464H141.12H149.771H158.426H167.077H175.733H184.384H193.039L191.79 178.456Z" fill="#263238" stroke="white" stroke-miterlimit="10" stroke-linecap="round" stroke-linejoin="round"/>
<path d="M181.004 160.309L180.225 154.53H172.951L173.47 160.309H181.004Z" fill="#263238" stroke="white" stroke-miterlimit="10" stroke-linecap="round" stroke-linejoin="round"/>
<path d="M249.323 197.605H63.9043V200.427H249.323V197.605Z" fill="#263238" stroke="#263238" stroke-miterlimit="10" stroke-linecap="round" stroke-linejoin="round"/>
<path d="M102.001 61.7747H110.079" stroke="#FFC727" stroke-width="3" stroke-miterlimit="10" stroke-linecap="round" stroke-linejoin="round"/>
<path d="M102.001 66.2181H132.347" stroke="white" stroke-width="3" stroke-miterlimit="10" stroke-linecap="round" stroke-linejoin="round"/>
<path d="M148.938 66.2181H179.284" stroke="white" stroke-width="3" stroke-miterlimit="10" stroke-linecap="round" stroke-linejoin="round"/>
<path d="M134.311 66.2181H146.322" stroke="#FFC727" stroke-width="3" stroke-miterlimit="10" stroke-linecap="round" stroke-linejoin="round"/>
<path d="M102.001 70.669H119.469" stroke="#FFC727" stroke-width="3" stroke-miterlimit="10" stroke-linecap="round" stroke-linejoin="round"/>
<path d="M121.647 70.669H139.116" stroke="#FFC727" stroke-width="3" stroke-miterlimit="10" stroke-linecap="round" stroke-linejoin="round"/>
<path d="M141.297 70.669H158.765" stroke="#FFC727" stroke-width="3" stroke-miterlimit="10" stroke-linecap="round" stroke-linejoin="round"/>
<path d="M160.949 70.669H168.37" stroke="#FFC727" stroke-width="3" stroke-miterlimit="10" stroke-linecap="round" stroke-linejoin="round"/>
<path d="M112.264 61.7746H120.341" stroke="#FFC727" stroke-width="3" stroke-miterlimit="10" stroke-linecap="round" stroke-linejoin="round"/>
<path d="M160.293 61.7744H168.371" stroke="#FFC727" stroke-width="3" stroke-miterlimit="10" stroke-linecap="round" stroke-linejoin="round"/>
<path d="M149.594 61.7744H157.672" stroke="white" stroke-width="3" stroke-miterlimit="10" stroke-linecap="round" stroke-linejoin="round"/>
<path d="M122.525 61.7746H146.101" stroke="#FFC727" stroke-width="3" stroke-miterlimit="10" stroke-linecap="round" stroke-linejoin="round"/>
<path d="M102.001 88.9365H110.079" stroke="#FFC727" stroke-width="3" stroke-miterlimit="10" stroke-linecap="round" stroke-linejoin="round"/>
<path d="M102.001 93.3814H132.347" stroke="white" stroke-width="3" stroke-miterlimit="10" stroke-linecap="round" stroke-linejoin="round"/>
<path d="M148.938 93.3814H179.284" stroke="#FFC727" stroke-width="3" stroke-miterlimit="10" stroke-linecap="round" stroke-linejoin="round"/>
<path d="M134.311 93.3814H146.322" stroke="#FFC727" stroke-width="3" stroke-miterlimit="10" stroke-linecap="round" stroke-linejoin="round"/>
<path d="M102.001 97.8303H119.469" stroke="#FFC727" stroke-width="3" stroke-miterlimit="10" stroke-linecap="round" stroke-linejoin="round"/>
<path d="M121.647 97.8303H139.116" stroke="#FFC727" stroke-width="3" stroke-miterlimit="10" stroke-linecap="round" stroke-linejoin="round"/>
<path d="M141.297 97.8303H158.765" stroke="white" stroke-width="3" stroke-miterlimit="10" stroke-linecap="round" stroke-linejoin="round"/>
<path d="M160.949 97.8303H168.37" stroke="#FFC727" stroke-width="3" stroke-miterlimit="10" stroke-linecap="round" stroke-linejoin="round"/>
<path d="M112.264 88.9364H120.341" stroke="#FFC727" stroke-width="3" stroke-miterlimit="10" stroke-linecap="round" stroke-linejoin="round"/>
<path d="M160.293 88.9363H168.371" stroke="#FFC727" stroke-width="3" stroke-miterlimit="10" stroke-linecap="round" stroke-linejoin="round"/>
<path d="M149.594 88.9363H157.672" stroke="white" stroke-width="3" stroke-miterlimit="10" stroke-linecap="round" stroke-linejoin="round"/>
<path d="M122.525 88.9364H146.101" stroke="#FFC727" stroke-width="3" stroke-miterlimit="10" stroke-linecap="round" stroke-linejoin="round"/>
<path d="M102.001 128.975H110.079" stroke="#FFC727" stroke-width="3" stroke-miterlimit="10" stroke-linecap="round" stroke-linejoin="round"/>
<path d="M102.001 133.425H132.347" stroke="white" stroke-width="3" stroke-miterlimit="10" stroke-linecap="round" stroke-linejoin="round"/>
<path d="M148.938 133.425H179.284" stroke="#FFC727" stroke-width="3" stroke-miterlimit="10" stroke-linecap="round" stroke-linejoin="round"/>
<path d="M134.311 133.425H146.322" stroke="#FFC727" stroke-width="3" stroke-miterlimit="10" stroke-linecap="round" stroke-linejoin="round"/>
<path d="M102.001 137.869H119.469" stroke="#FFC727" stroke-width="3" stroke-miterlimit="10" stroke-linecap="round" stroke-linejoin="round"/>
<path d="M121.647 137.869H139.116" stroke="#FFC727" stroke-width="3" stroke-miterlimit="10" stroke-linecap="round" stroke-linejoin="round"/>
<path d="M141.297 137.869H158.765" stroke="white" stroke-width="3" stroke-miterlimit="10" stroke-linecap="round" stroke-linejoin="round"/>
<path d="M160.949 137.869H168.37" stroke="#FFC727" stroke-width="3" stroke-miterlimit="10" stroke-linecap="round" stroke-linejoin="round"/>
<path d="M112.264 128.975H120.341" stroke="#FFC727" stroke-width="3" stroke-miterlimit="10" stroke-linecap="round" stroke-linejoin="round"/>
<path d="M160.293 128.975H168.371" stroke="#FFC727" stroke-width="3" stroke-miterlimit="10" stroke-linecap="round" stroke-linejoin="round"/>
<path d="M149.594 128.975H157.672" stroke="white" stroke-width="3" stroke-miterlimit="10" stroke-linecap="round" stroke-linejoin="round"/>
<path d="M122.525 128.975H146.101" stroke="#FFC727" stroke-width="3" stroke-miterlimit="10" stroke-linecap="round" stroke-linejoin="round"/>
<path d="M147.41 75.3548H155.487" stroke="#FFC727" stroke-width="3" stroke-miterlimit="10" stroke-linecap="round" stroke-linejoin="round"/>
<path d="M136.711 75.3548H144.794" stroke="#FFC727" stroke-width="3" stroke-miterlimit="10" stroke-linecap="round" stroke-linejoin="round"/>
<path d="M109.643 75.3546H133.219" stroke="#FFC727" stroke-width="3" stroke-miterlimit="10" stroke-linecap="round" stroke-linejoin="round"/>
<path d="M147.41 83.3146H155.487" stroke="#FFC727" stroke-width="3" stroke-miterlimit="10" stroke-linecap="round" stroke-linejoin="round"/>
<path d="M136.711 83.3146H144.794" stroke="#FFC727" stroke-width="3" stroke-miterlimit="10" stroke-linecap="round" stroke-linejoin="round"/>
<path d="M109.643 83.3149H133.219" stroke="white" stroke-width="3" stroke-miterlimit="10" stroke-linecap="round" stroke-linejoin="round"/>
<path d="M117.72 79.3324H109.643" stroke="#FFC727" stroke-width="3" stroke-miterlimit="10" stroke-linecap="round" stroke-linejoin="round"/>
<path d="M128.418 79.3326H120.341" stroke="#FFC727" stroke-width="3" stroke-miterlimit="10" stroke-linecap="round" stroke-linejoin="round"/>
<path d="M155.487 79.3326H131.911" stroke="white" stroke-width="3" stroke-miterlimit="10" stroke-linecap="round" stroke-linejoin="round"/>
<path d="M147.41 103.216H155.487" stroke="#FFC727" stroke-width="3" stroke-miterlimit="10" stroke-linecap="round" stroke-linejoin="round"/>
<path d="M136.711 103.216H144.794" stroke="#FFC727" stroke-width="3" stroke-miterlimit="10" stroke-linecap="round" stroke-linejoin="round"/>
<path d="M109.643 103.216H133.219" stroke="#FFC727" stroke-width="3" stroke-miterlimit="10" stroke-linecap="round" stroke-linejoin="round"/>
<path d="M147.41 111.181H155.487" stroke="#FFC727" stroke-width="3" stroke-miterlimit="10" stroke-linecap="round" stroke-linejoin="round"/>
<path d="M136.711 111.181H144.794" stroke="#FFC727" stroke-width="3" stroke-miterlimit="10" stroke-linecap="round" stroke-linejoin="round"/>
<path d="M109.643 111.181H133.219" stroke="white" stroke-width="3" stroke-miterlimit="10" stroke-linecap="round" stroke-linejoin="round"/>
<path d="M117.72 107.198H109.643" stroke="#FFC727" stroke-width="3" stroke-miterlimit="10" stroke-linecap="round" stroke-linejoin="round"/>
<path d="M128.418 107.198H120.341" stroke="#FFC727" stroke-width="3" stroke-miterlimit="10" stroke-linecap="round" stroke-linejoin="round"/>
<path d="M155.487 107.198H131.911" stroke="white" stroke-width="3" stroke-miterlimit="10" stroke-linecap="round" stroke-linejoin="round"/>
<path d="M117.72 115.862H109.643" stroke="#FFC727" stroke-width="3" stroke-miterlimit="10" stroke-linecap="round" stroke-linejoin="round"/>
<path d="M128.418 115.862H120.341" stroke="#FFC727" stroke-width="3" stroke-miterlimit="10" stroke-linecap="round" stroke-linejoin="round"/>
<path d="M155.487 115.862H131.911" stroke="white" stroke-width="3" stroke-miterlimit="10" stroke-linecap="round" stroke-linejoin="round"/>
<path d="M117.72 123.822H109.643" stroke="#FFC727" stroke-width="3" stroke-miterlimit="10" stroke-linecap="round" stroke-linejoin="round"/>
<path d="M128.418 123.822H120.341" stroke="#FFC727" stroke-width="3" stroke-miterlimit="10" stroke-linecap="round" stroke-linejoin="round"/>
<path d="M155.487 123.822H131.911" stroke="white" stroke-width="3" stroke-miterlimit="10" stroke-linecap="round" stroke-linejoin="round"/>
<path d="M147.41 119.844H155.487" stroke="#FFC727" stroke-width="3" stroke-miterlimit="10" stroke-linecap="round" stroke-linejoin="round"/>
<path d="M136.711 119.844H144.794" stroke="#FFC727" stroke-width="3" stroke-miterlimit="10" stroke-linecap="round" stroke-linejoin="round"/>
<path d="M109.643 119.844H133.219" stroke="white" stroke-width="3" stroke-miterlimit="10" stroke-linecap="round" stroke-linejoin="round"/>
<path d="M99.0073 60.2251H96.4258V62.957H99.0073V60.2251Z" fill="#FFC727"/>
<path d="M99.0073 64.7158H96.4258V67.4478H99.0073V64.7158Z" fill="#FFC727"/>
<path d="M99.0073 69.2032H96.4258V71.9351H99.0073V69.2032Z" fill="#FFC727"/>
<path d="M99.0073 73.6896H96.4258V76.4215H99.0073V73.6896Z" fill="#FFC727"/>
<path d="M99.0073 78.1813H96.4258V80.9133H99.0073V78.1813Z" fill="#FFC727"/>
<path d="M99.0073 82.6687H96.4258V85.4006H99.0073V82.6687Z" fill="#FFC727"/>
<path d="M99.0073 87.155H96.4258V89.887H99.0073V87.155Z" fill="#FFC727"/>
<path d="M99.0073 91.6468H96.4258V94.3787H99.0073V91.6468Z" fill="#FFC727"/>
<path d="M99.0073 96.1336H96.4258V98.8656H99.0073V96.1336Z" fill="#FFC727"/>
<path d="M99.0073 100.621H96.4258V103.352H99.0073V100.621Z" fill="#FFC727"/>
<path d="M99.0073 105.112H96.4258V107.844H99.0073V105.112Z" fill="#FFC727"/>
<path d="M99.0073 109.599H96.4258V112.331H99.0073V109.599Z" fill="#FFC727"/>
<path d="M99.0073 114.086H96.4258V116.818H99.0073V114.086Z" fill="#FFC727"/>
<path d="M99.0073 118.577H96.4258V121.309H99.0073V118.577Z" fill="#FFC727"/>
<path d="M99.0073 123.065H96.4258V125.797H99.0073V123.065Z" fill="#FFC727"/>
<path d="M99.0073 127.55H96.4258V130.282H99.0073V127.55Z" fill="#FFC727"/>
<path d="M99.0073 132.043H96.4258V134.775H99.0073V132.043Z" fill="#FFC727"/>
<path d="M99.0073 136.531H96.4258V139.263H99.0073V136.531Z" fill="#FFC727"/>
<path d="M219.066 11.1485C203.591 11.1485 191.051 24.6034 191.051 41.1948C191.051 49.7322 194.377 57.4342 199.707 62.9034L195.72 70.8839L205.497 67.4847C209.519 69.8751 214.143 71.2411 219.066 71.2411C234.54 71.2411 247.081 57.7862 247.081 41.1948C247.085 24.5982 234.54 11.1485 219.066 11.1485Z" fill="#263238" stroke="#263238" stroke-miterlimit="10" stroke-linecap="round" stroke-linejoin="round"/>
<path d="M217.734 9C202.259 9 189.719 22.4549 189.719 39.0463C189.719 47.5837 193.045 55.2857 198.375 60.7549L194.388 68.7354L204.165 65.3362C208.187 67.7266 212.811 69.0926 217.734 69.0926C233.208 69.0926 245.748 55.6377 245.748 39.0463C245.748 22.4549 233.208 9 217.734 9Z" fill="white" stroke="#263238" stroke-miterlimit="10" stroke-linecap="round" stroke-linejoin="round"/>
<path d="M208.353 51.4295L197.586 43.2756V38.957L208.353 30.7191V35.0798L200.638 41.0953L208.353 47.1109V51.4295Z" fill="#053F5C"/>
<path d="M211.626 52.885L219.831 20.1855H223.333L215.089 52.885H211.626Z" fill="#053F5C"/>
<path d="M226.61 51.4295V47.1109L234.365 41.0533L226.61 35.0798V30.7191L237.412 38.915V43.2336L226.61 51.4295Z" fill="#053F5C"/>
<path d="M209.685 49.6431L198.918 41.4892V37.1706L209.685 28.9327V33.2934L201.97 39.3089L209.685 45.3245V49.6431Z" fill="#263238"/>
<path d="M212.962 51.0927L221.167 18.3933H224.67L216.425 51.0927H212.962Z" fill="#263238"/>
<path d="M227.941 49.6431V45.3245L235.696 39.2669L227.941 33.2934V28.9327L238.743 37.1286V41.4472L227.941 49.6431Z" fill="#263238"/>
<path d="M196.434 200.737L213.398 215.758C213.398 215.758 214.397 218.621 216.734 221.837C219.07 225.057 246.419 237.22 246.419 237.22L251.087 238.649L200.059 197.512L196.434 200.737Z" fill="#263238" stroke="#263238" stroke-miterlimit="10" stroke-linecap="round" stroke-linejoin="round"/>
<path d="M229.471 188.805C229.471 188.805 224.92 182.837 222.897 179.044C220.874 175.245 218.008 166.388 215.818 161.144C213.629 155.901 210.425 154.272 206.55 152.649C202.676 151.02 201.157 151.383 201.157 152.47C201.157 153.553 202.676 155.544 202.676 155.544L196.102 156.81C196.102 156.81 193.403 155.181 191.718 155.728C190.033 156.269 186.829 159.705 186.829 159.705C186.829 159.705 183.459 158.439 181.436 158.98C179.413 159.521 173.853 162.416 171.492 163.682C169.131 164.948 166.603 165.127 166.774 166.214C166.941 167.296 169.302 169.109 171.492 168.746C173.681 168.384 177.389 166.939 179.751 166.939C182.112 166.939 183.292 167.48 184.468 168.384C185.648 169.288 190.537 176.701 191.208 177.604C191.884 178.508 192.555 182.123 192.555 182.123C192.555 182.123 189.582 180.762 187.73 178.955C185.874 177.147 183.224 172.907 180.191 172.545C177.159 172.182 173.848 175.072 175.533 176.522C177.218 177.967 178.903 178.87 180.084 180.499C181.264 182.128 183.116 187.009 186.319 192.252C189.523 197.495 196.435 200.747 196.435 200.747L210.763 207.073C210.763 207.073 214.471 197.674 221.383 195.141C228.295 192.609 230.318 191.527 230.318 191.527L229.471 188.805Z" fill="white" stroke="#263238" stroke-miterlimit="10" stroke-linecap="round" stroke-linejoin="round"/>
<path d="M166.769 166.209C166.769 166.209 168.415 165.762 168.885 165.589C169.36 165.421 169.909 164.911 169.909 164.911" stroke="#263238" stroke-miterlimit="10" stroke-linecap="round" stroke-linejoin="round"/>
<path d="M186.829 159.699C186.829 159.699 194.593 164.354 196.782 165.62C197.684 166.141 199.819 167.212 200.476 169.582C201.255 172.382 202.827 173.906 202.827 173.906" stroke="#263238" stroke-miterlimit="10" stroke-linecap="round" stroke-linejoin="round"/>
<path d="M196.096 156.81C196.096 156.81 203.679 163.135 204.189 163.319C204.693 163.498 206.55 163.682 207.392 165.311C208.235 166.939 209.077 168.746 209.077 168.746" stroke="#263238" stroke-miterlimit="10" stroke-linecap="round" stroke-linejoin="round"/>
<path d="M202.67 155.544C202.67 155.544 205.369 155.003 206.379 157.173C207.388 159.343 211.772 164.586 211.772 164.586" stroke="#263238" stroke-miterlimit="10" stroke-linecap="round" stroke-linejoin="round"/>
<path d="M178.569 178.866C178.569 178.866 180.592 177.784 179.578 176.155C178.569 174.527 176.546 174.527 176.546 174.527" stroke="#263238" stroke-miterlimit="10" stroke-linecap="round" stroke-linejoin="round"/>
<path d="M229.132 186.457C229.132 186.457 220.03 188.989 214.299 195.856C208.568 202.722 208.568 208.512 209.072 209.416C209.577 210.319 220.535 216.645 220.535 216.645C220.535 216.645 227.275 202.728 231.997 199.292C236.715 195.856 240.09 194.952 240.09 194.952C240.09 194.952 231.664 189.168 231.326 188.443C230.988 187.723 230.312 185.916 229.132 186.457Z" fill="#FFC727" stroke="#263238" stroke-miterlimit="10" stroke-linecap="round" stroke-linejoin="round"/>
<path d="M254.757 240.871C254.757 240.871 245.489 235.812 243.294 234.545C241.105 233.279 226.1 224.605 226.1 224.605C226.1 224.605 224.244 224.064 223.235 223.523C222.226 222.982 220.707 223.161 220.031 219.367C219.355 215.569 221.04 207.977 228.628 200.385C236.211 192.794 240.933 193.156 240.933 193.156C240.933 193.156 244.137 192.794 244.979 193.519C245.822 194.244 245.988 196.414 246.836 196.771C247.678 197.133 271 204.63 271 204.63" fill="#FFC727"/>
<path d="M254.757 240.871C254.757 240.871 245.489 235.812 243.294 234.545C241.105 233.279 226.1 224.605 226.1 224.605C226.1 224.605 224.244 224.064 223.235 223.523C222.226 222.982 220.707 223.161 220.031 219.367C219.355 215.569 221.04 207.977 228.628 200.385C236.211 192.794 240.933 193.156 240.933 193.156C240.933 193.156 244.137 192.794 244.979 193.519C245.822 194.244 245.988 196.414 246.836 196.771C247.678 197.133 271 204.63 271 204.63" stroke="#263238" stroke-miterlimit="10" stroke-linecap="round" stroke-linejoin="round"/>
<path d="M228.289 213.03C228.289 213.03 227.279 218.452 229.636 222.97" stroke="#263238" stroke-miterlimit="10" stroke-linecap="round" stroke-linejoin="round"/>
<path d="M230.651 220.081C230.651 220.081 229.642 220.443 232.336 225.14" stroke="#263238" stroke-miterlimit="10" stroke-linecap="round" stroke-linejoin="round"/>
<path d="M126.782 184.786C126.782 184.786 115.672 198.945 112.337 201.808C109.001 204.671 105.998 206.458 105.998 206.458L93.9916 219.335C93.9916 219.335 94.3247 221.121 90.9888 223.27C87.6529 225.418 80.9811 227.919 79.3156 228.634C77.6501 229.348 59.3052 238.29 59.3052 238.29L126.782 184.786Z" fill="#263238" stroke="#263238" stroke-miterlimit="10" stroke-linecap="round" stroke-linejoin="round"/>
<path d="M142.903 163.115C141.737 163.493 137.529 163.241 137.529 163.241C137.529 163.241 134.957 161.113 133.674 159.857C132.391 158.607 129.118 151.215 127.482 150.836C125.846 150.458 118.954 154.719 118.954 154.719C118.954 154.719 113.345 152.087 111.944 152.339C110.543 152.591 105.988 156.973 105.988 156.973C105.988 156.973 99.6783 155.969 98.5125 157.976C97.3466 159.983 95.4754 166.372 93.6091 170.381C91.7378 174.389 84.9681 185.039 84.9681 185.039L84.0325 186.415C84.0325 186.415 85.4334 186.914 89.7539 189.294C94.0744 191.674 100.967 202.949 100.967 202.949C100.967 202.949 110.543 198.189 115.917 195.557C121.291 192.924 125.611 187.161 126.782 184.781C127.948 182.401 129.937 180.147 132.391 178.014C134.845 175.886 139.4 175.009 140.449 173.506C141.502 172.004 139.748 169.75 139.748 169.75C139.748 169.75 141.032 168.999 141.615 168.5C142.197 168.001 144.534 166.619 144.769 165.116C145.004 163.614 144.069 162.736 142.903 163.115ZM124.916 175.14L127.135 167.874C128.07 168.626 132.156 170.254 132.156 170.254C129.471 171.006 124.916 175.14 124.916 175.14Z" fill="white" stroke="#263238" stroke-miterlimit="10" stroke-linecap="round" stroke-linejoin="round"/>
<path d="M101.555 165.242C101.555 165.242 101.202 163.114 101.437 162.363C101.672 161.611 105.993 156.978 105.993 156.978" stroke="#263238" stroke-miterlimit="10" stroke-linecap="round" stroke-linejoin="round"/>
<path d="M105.292 167.747L106.228 164.49L118.959 154.718" stroke="#263238" stroke-miterlimit="10" stroke-linecap="round" stroke-linejoin="round"/>
<path d="M111.602 170.129C111.602 170.129 112.067 166.997 112.655 166.498C113.238 165.999 117.676 164.87 117.676 164.87C117.676 164.87 124.45 158.607 125.616 158.607C126.782 158.607 135.31 163.493 137.529 163.241" stroke="#263238" stroke-miterlimit="10" stroke-linecap="round" stroke-linejoin="round"/>
<path d="M141.268 163.74C141.268 163.74 139.744 163.745 140.562 164.749C141.38 165.752 143.134 165.248 143.947 165.001" stroke="#263238" stroke-miterlimit="10" stroke-linecap="round" stroke-linejoin="round"/>
<path d="M132.156 170.254C132.156 170.254 136.359 167.622 139.748 169.755" stroke="#263238" stroke-miterlimit="10" stroke-linecap="round" stroke-linejoin="round"/>
<path d="M138.699 170.502L136.363 171.379C136.363 171.379 137.298 173.386 137.416 174.138C137.534 174.889 137.534 174.889 137.534 174.889" stroke="#263238" stroke-miterlimit="10" stroke-linecap="round" stroke-linejoin="round"/>
<path d="M124.916 175.14L122.815 180.147" stroke="#263238" stroke-miterlimit="10" stroke-linecap="round" stroke-linejoin="round"/>
<path d="M69.4346 194.553C69.4346 194.553 76.7921 189.415 79.4814 187.287C82.1658 185.159 83.5717 185.532 84.9727 185.033C86.3736 184.534 93.3834 186.788 98.0566 193.05C102.73 199.313 102.26 203.947 101.677 205.202C101.094 206.453 86.3736 215.978 86.3736 215.978C86.3736 215.978 84.2722 206.957 78.0805 201.572C71.8887 196.181 69.4346 194.553 69.4346 194.553Z" fill="#FFC727" stroke="#263238" stroke-miterlimit="10" stroke-linecap="round" stroke-linejoin="round"/>
<path d="M40 209.542C40 209.542 53.6326 200.605 55.9055 199.139C58.1784 197.674 60.8089 195.672 60.8089 195.672C60.8089 195.672 61.5241 191.805 64.9923 191.674C68.4604 191.542 71.8061 193.008 76.3519 195.672C80.8977 198.341 86.5163 208.071 87.114 211.938C87.7116 215.804 88.9068 217.002 87.9516 219.54C86.9964 222.072 83.4058 222.209 82.6906 222.209C81.9754 222.209 80.3001 223.811 80.3001 223.811L54.7103 241.679" fill="#FFC727"/>
<path d="M40 209.542C40 209.542 53.6326 200.605 55.9055 199.139C58.1784 197.674 60.8089 195.672 60.8089 195.672C60.8089 195.672 61.5241 191.805 64.9922 191.674C68.4604 191.542 71.8061 193.008 76.3519 195.672C80.8977 198.341 86.5163 208.071 87.114 211.938C87.7116 215.804 88.9068 217.002 87.9516 219.54C86.9964 222.072 83.4058 222.209 82.6906 222.209C81.9754 222.209 80.3001 223.811 80.3001 223.811L54.7103 241.679" stroke="#263238" stroke-miterlimit="10" stroke-linecap="round" stroke-linejoin="round"/>
<path d="M82.2983 215.42C82.2983 215.42 83.3662 216.271 81.2305 219.849" stroke="#263238" stroke-miterlimit="10" stroke-linecap="round" stroke-linejoin="round"/>
<path d="M80.7705 217.122C80.7705 217.122 80.6187 220.874 77.4102 224.278" stroke="#263238" stroke-miterlimit="10" stroke-linecap="round" stroke-linejoin="round"/>
</svg>
