<svg width="260" height="140" viewBox="0 0 260 140" fill="none" xmlns="http://www.w3.org/2000/svg">
<g clip-path="url(#clip0_1_13406)">
<path d="M93.9153 55.7303V72.176C93.9153 75.8097 95.9369 77.9553 99.4454 77.9553C103.37 77.9553 105.626 75.5714 105.626 70.983V55.7303H112.941V84.0318H105.631V80.7532C103.908 83.4342 101.112 84.7456 97.2478 84.7456C90.7066 84.7477 86.6042 79.981 86.6042 73.0686V55.7303H93.9153ZM172.473 55.1948C180.799 55.2112 186.672 61.8942 186.652 69.7662C186.654 70.5446 186.593 71.3219 186.47 72.0905L164.945 72.0503C165.77 75.4473 168.56 77.8953 172.783 77.9044C175.339 77.9044 178.077 76.9608 179.746 74.8189L184.734 78.8258C182.169 82.4562 177.645 84.5927 172.831 84.5833C164.332 84.5545 157.802 78.1666 157.817 69.8845C157.833 61.9596 163.494 55.1784 172.473 55.1948ZM218.887 55.1948C223.346 55.1948 225.904 56.5645 227.627 59.1877L228.312 55.7266H235V84.0318H228.312L227.449 81.1173C225.487 83.2629 223.048 84.5779 218.887 84.5779C212.464 84.5689 205.149 78.9079 205.149 70.0904C205.149 61.2129 212.344 55.1948 218.887 55.1948ZM69.0249 55.1948C77.4089 55.1948 84.0695 61.7521 84.0695 69.8521C84.0695 77.8953 77.4089 84.5689 69.0249 84.5689C60.6992 84.5689 54.0403 77.8879 54.0403 69.8521C54.0403 61.7479 60.6992 55.1948 69.0249 55.1948ZM144.239 55.0144C148.955 55.0144 153.132 57.1074 155.401 60.9942L148.959 64.4093C148.004 62.4951 146.213 61.4188 143.945 61.4188C141.738 61.4188 140.662 62.1963 140.662 63.5114C140.662 67.9374 156.061 65.1273 156.061 75.7152C156.061 81.2179 151.585 84.5652 144.363 84.5652C138.215 84.5599 133.917 82.5269 131.771 77.8625L138.272 74.4527C139.346 76.7862 141.494 78.1612 144.539 78.1612C147.344 78.1612 148.418 77.2653 148.418 76.0082C148.418 71.4548 133.02 74.2144 133.02 63.8048C133.02 58.0637 138.033 55.0144 144.239 55.0144ZM39.9846 55.1348C42.488 55.1172 44.9564 55.7241 47.1674 56.9005C49.3784 58.077 51.2625 59.7862 52.6499 61.8741L46.4073 65.5025C45.685 64.4682 44.7236 63.6244 43.6051 63.0433C42.4867 62.4622 41.2445 62.161 39.9846 62.1655C35.7034 62.1655 32.195 65.7408 32.195 69.8521C32.195 73.9629 35.7034 77.5382 39.9846 77.5382C41.3039 77.5469 42.6033 77.2165 43.7588 76.5788C44.9144 75.9411 45.8875 75.0173 46.5853 73.8955L52.7663 77.5892C51.3959 79.7382 49.5047 81.5047 47.2691 82.7239C45.0335 83.9432 42.5262 84.5755 39.981 84.5619C31.6589 84.5689 25 77.8879 25 69.8521C25 61.6904 31.6589 55.1348 39.9846 55.1348ZM131.727 55L130.378 61.8396C130.13 61.8125 129.879 61.7985 129.629 61.7977C125.706 61.8067 123.45 64.1944 123.461 68.7811L123.501 84.0297L116.188 84.0462L116.126 55.7467L123.439 55.7303V59.0089C125.143 56.3459 127.909 55.0308 131.727 55ZM205.216 55.0201L203.86 61.8523C203.611 61.8261 203.361 61.8121 203.111 61.8104C199.192 61.8104 196.93 64.1927 196.93 68.7811V84.0318H189.617V55.7286H196.93V59.0068C198.64 56.3492 201.404 55.0403 205.216 55.0201ZM69.0249 62.2255C64.7441 62.2255 61.2357 65.8008 61.2357 69.8521C61.2357 73.9629 64.7441 77.5382 69.0249 77.5382C73.3734 77.5382 76.8745 73.9629 76.8745 69.8521C76.8745 65.8012 73.366 62.2255 69.0249 62.2255ZM220.137 62.2284C219.111 62.2322 218.095 62.4386 217.148 62.8359C216.201 63.2332 215.341 63.8135 214.618 64.5437C213.895 65.2737 213.322 66.1392 212.933 67.0909C212.544 68.0427 212.346 69.0619 212.35 70.0904C212.35 74.0233 215.858 77.5382 220.141 77.5382C224.476 77.5382 227.983 74.0229 227.983 70.0304C227.975 67.9534 227.144 65.9646 225.672 64.5015C224.201 63.0384 222.21 62.2207 220.137 62.2284H220.137ZM172.402 61.8688C169.012 61.8688 166.274 63.8833 165.198 66.9195L179.29 66.9449C178.879 64.0851 175.91 61.8737 172.402 61.8688Z" fill="#0056D2"/>
</g>
<defs>
<clipPath id="clip0_1_13406">
<rect width="210" height="30" fill="white" transform="translate(25 55)"/>
</clipPath>
</defs>
</svg>
