<svg width="30" height="30" viewBox="0 0 30 30" fill="none" xmlns="http://www.w3.org/2000/svg">
<path d="M29.9998 14.5734C29.9277 14.4559 29.9089 14.3392 29.9998 14.2217C29.9998 14.3384 29.9998 14.4559 29.9998 14.5734Z" fill="#35BAF5"/>
<path d="M29.9997 15.9767C29.9151 15.918 29.9347 15.8592 29.9997 15.8013C29.9997 15.86 29.9997 15.9188 29.9997 15.9767Z" fill="#7ED2F8"/>
<path fill-rule="evenodd" clip-rule="evenodd" d="M16.2448 0.000782084H16.0696C16.0109 0.0437967 15.9523 0.0437967 15.8944 0H14.1383C14.0992 0.0359759 14.0601 0.0359759 14.021 0H13.7871C13.7452 0.0353004 13.6974 0.0324791 13.6498 0.0296697C13.63 0.0284956 13.6101 0.0273235 13.5908 0.0289371C13.4138 0.0439382 13.2364 0.0535746 13.0589 0.0632098C12.6536 0.0852217 12.2484 0.107227 11.8496 0.193175C10.5174 0.479418 9.25417 0.947104 8.04018 1.57043C6.33418 2.44636 4.86753 3.6234 3.6113 5.05461C2.19237 6.67118 1.16141 8.51768 0.541898 10.5847C0.334612 11.2761 0.15001 11.9721 0.0905621 12.6956C-0.0126899 13.9485 -0.0228586 15.2037 0.0358073 16.4582C0.0373469 16.4908 0.0388595 16.5235 0.0403724 16.5562C0.060382 16.9884 0.0804591 17.422 0.16409 17.8495C0.459766 19.3628 0.974462 20.7933 1.7027 22.1541C2.65465 23.9333 3.94061 25.4326 5.48313 26.7144C6.77613 27.789 8.23261 28.593 9.80798 29.1772C10.724 29.5167 11.6595 29.8029 12.6341 29.896C13.924 30.0195 15.2193 30.0234 16.5131 29.9577C16.538 29.9565 16.5629 29.9552 16.5878 29.954C17.0284 29.932 17.4694 29.91 17.9054 29.8256C19.4487 29.526 20.9052 28.9919 22.2858 28.2403C24.0388 27.2861 25.5124 26.0012 26.782 24.4722C27.73 23.3304 28.4559 22.0524 29.0207 20.6854C29.4485 19.6483 29.7896 18.5808 29.9014 17.4546C29.9165 17.3027 29.924 17.1503 29.9315 16.9979C29.9436 16.7539 29.9556 16.5101 29.9984 16.2689V15.9764C29.9554 15.9185 29.9554 15.8599 29.9984 15.8012V14.5726C29.9523 14.4553 29.9523 14.3387 29.9984 14.2214V13.753C29.9631 13.711 29.966 13.6633 29.9688 13.6157C29.9699 13.5959 29.9711 13.576 29.9695 13.5567C29.9554 13.3851 29.9459 13.213 29.9365 13.0409C29.9139 12.631 29.8914 12.2211 29.806 11.8173C29.6065 10.871 29.3077 9.9575 28.9315 9.06592C28.0296 6.9277 26.6826 5.11092 24.9485 3.58508C23.3262 2.15699 21.4708 1.12698 19.3963 0.505227C18.7713 0.317526 18.1432 0.145468 17.4877 0.0961964C17.3552 0.0864484 17.2225 0.0798158 17.0898 0.073184C16.8072 0.059065 16.5247 0.0449494 16.2448 0.000782084ZM11.1742 19.4558C9.50417 20.7118 7.6777 21.2343 5.65725 21.1185C5.64091 21.1169 5.6233 21.1114 5.60571 21.106C5.5492 21.0887 5.493 21.0714 5.48047 21.1787C5.50124 21.1915 5.52189 21.2043 5.54251 21.2171C5.59642 21.2506 5.65008 21.2839 5.70496 21.3156C7.93192 22.6084 10.3255 23.0761 12.8771 22.7781C15.2777 22.4981 17.3936 21.576 19.1324 19.893C21.5667 17.5366 22.7713 14.6429 22.7447 11.2486C22.7431 11.0836 22.7916 10.9843 22.923 10.8881C23.3485 10.5752 23.7303 10.2116 24.0736 9.81036C24.213 9.64752 24.3431 9.47731 24.4872 9.28893C24.5583 9.19596 24.6328 9.09856 24.7135 8.99543C24.5777 9.03995 24.4509 9.08282 24.3302 9.12366C24.0712 9.21126 23.8396 9.28959 23.6043 9.35519C23.2687 9.44904 22.9293 9.54133 22.4983 9.55775C23.3126 9.00169 23.8562 8.33222 24.1691 7.40233C23.433 7.81761 22.7149 8.10386 21.9585 8.2939C21.7544 8.34552 21.612 8.31893 21.4438 8.15938C19.8223 6.6265 17.2019 6.77275 15.7486 8.46831C14.939 9.41306 14.6472 10.5111 14.8263 11.7351C14.8545 11.9275 14.8295 12.001 14.612 11.9658C14.4609 11.9412 14.3078 11.9281 14.1548 11.915C13.9967 11.9015 13.8386 11.888 13.6827 11.8618C10.9254 11.3964 8.62418 10.1177 6.80241 7.98811C6.79282 7.97683 6.7841 7.96403 6.77527 7.95106C6.74733 7.91006 6.71832 7.86748 6.6577 7.86688C5.70653 9.36067 5.97404 11.7617 7.75671 13.0513C7.73637 13.1491 7.72933 13.1522 7.57836 13.117C7.1458 13.0818 6.73044 12.9731 6.34638 12.776C6.09685 12.6478 6.08434 12.7369 6.09998 12.9583C6.13753 13.4909 6.26972 13.9953 6.51142 14.47C7.0754 15.5775 7.97729 16.2649 9.2171 16.5973C8.62652 16.7787 8.07037 16.7475 7.4712 16.6818C8.14468 18.3773 9.36024 19.272 11.1742 19.4558Z" fill="white"/>
<path d="M7.75676 13.052C7.7975 13.0583 7.83981 13.0967 7.82022 13.1209C7.74501 13.2126 7.65961 13.1554 7.57812 13.1178C7.63532 13.0904 7.7168 13.1272 7.75676 13.052Z" fill="#85D5F9"/>
<path d="M5.65813 21.119C5.60172 21.1479 5.52494 21.1174 5.48028 21.1808C5.43797 21.1761 5.40663 21.1542 5.4035 21.1127C5.40036 21.072 5.43954 21.0704 5.46461 21.0751C5.52964 21.0861 5.59388 21.1041 5.65813 21.119Z" fill="#96DBF9"/>
</svg>
