<svg width="260" height="140" viewBox="0 0 260 140" fill="none" xmlns="http://www.w3.org/2000/svg">
<path d="M78.3024 56.8971L66.6496 50.9487L55 56.8971V50.9487L66.6514 45L78.3042 50.9487V56.8971H78.3024Z" fill="#A435F0"/>
<path d="M55 61.7723H61.1034V74.7024C61.1034 78.0432 63.9646 79.6714 66.6514 79.6714C69.3613 79.6714 72.2008 77.9998 72.2008 74.6577V61.7726H78.3042V75.0104C78.3042 78.0879 77.1944 80.4626 74.9755 82.0908C72.7548 83.7181 69.9815 84.5102 66.5998 84.5102C63.2213 84.5102 60.4466 83.7194 58.2789 82.0911C56.1095 80.4636 55 78.1773 55 75.1418V61.7723ZM131.071 77.8421C129.223 79.2768 127.118 79.9795 124.718 79.9795C120.34 79.9795 117.404 77.8046 117.072 74.4362H136.792C136.792 74.4362 136.925 73.349 136.925 72.3279C136.925 69.1608 135.764 66.5215 133.393 64.3667C131.074 62.212 128.049 61.1562 124.365 61.1562C120.482 61.1562 117.303 62.212 114.78 64.3667C112.309 66.5215 111.049 69.3358 111.049 72.8557V73.0294C111.049 76.5043 112.309 79.2752 114.78 81.3431C117.252 83.4098 120.531 84.4655 124.516 84.4655C129.15 84.4655 132.837 82.8718 135.603 80.1241L131.071 77.8421ZM119.471 67.0492C120.831 66.1253 122.498 65.6422 124.363 65.6422C126.128 65.6422 127.591 66.1253 128.853 67.0942C130.057 67.9763 130.708 69.0597 130.764 70.3047H117.229C117.424 69.0175 118.171 67.9331 119.472 67.0508L119.471 67.0492ZM192.51 87.4533C190.033 92.5509 187.443 94.2849 183.471 94.2849H180.717V89.5675H182.943C184.31 89.5675 185.58 89.1191 186.791 86.6839L188.002 84.2456L177.559 61.7723H183.764L191.179 77.9579L198.797 61.7723H205L192.511 87.4531L192.51 87.4533ZM102.064 53.2849V63.7797C100.064 62.2179 96.9528 61.288 93.944 61.288C90.3616 61.288 87.3364 62.387 84.8652 64.6286C82.4438 66.828 81.233 69.5542 81.233 72.8529C81.233 76.1531 82.4438 78.879 84.8652 81.1219C87.3364 83.3214 90.3634 84.4221 93.9443 84.4221C98.074 84.4221 100.684 83.0064 102.064 81.8972V83.9378H108.118V53.2862H102.064V53.2849ZM100.248 77.6932C98.7854 78.9687 96.9197 79.6296 94.7503 79.6296C92.5809 79.6296 90.8163 78.9687 89.3532 77.6932C87.9435 76.4177 87.2354 74.7908 87.2354 72.8557C87.2354 70.9194 87.942 69.2924 89.3535 68.0169C90.8163 66.7414 92.5809 66.0818 94.75 66.0818C96.9197 66.0818 98.7854 66.7414 100.248 68.0169C101.761 69.2924 102.52 70.9194 102.52 72.8557C102.52 74.7908 101.761 76.4177 100.248 77.6932ZM168.149 61.3327C163.551 61.3327 161.162 62.9957 159.525 64.5982C158.869 63.5092 157.025 61.3327 152.716 61.3327C149.074 61.3327 146.928 62.938 145.856 64.0804V61.7752H139.856V83.9406H145.856V71.1855C145.856 68.1947 147.976 66.04 150.799 66.04C153.677 66.04 155.34 67.9316 155.34 70.9656V83.9391H161.342V71.184C161.342 68.15 163.409 66.0387 166.384 66.0387C169.26 66.0387 170.924 67.93 170.924 70.9628V83.9378H176.977V70.2164C176.977 64.4375 173.415 61.334 168.149 61.334V61.3327Z" fill="black"/>
</svg>
