<svg width="27" height="27" viewBox="0 0 27 27" fill="none" xmlns="http://www.w3.org/2000/svg">
<path d="M13.5 26C20.4036 26 26 20.4036 26 13.5C26 6.59644 20.4036 1 13.5 1C6.59644 1 1 6.59644 1 13.5C1 20.4036 6.59644 26 13.5 26Z" stroke="#263238" stroke-linecap="round" stroke-linejoin="round"/>
<path d="M5.00439 6.50772V15.7362C9.43579 16.4659 13.3672 17.4048 16.2707 18.7752V10.1397C12.819 8.13541 8.97676 6.89676 5.00439 6.50772Z" stroke="#263238" stroke-linecap="round" stroke-linejoin="round"/>
<path d="M22.8675 8.80569V17.8859C18.976 18.5569 15.1634 19.6249 11.4896 21.0731V12.4377C14.8082 10.2109 18.7245 9.24465 22.8675 8.80569Z" stroke="#263238" stroke-linecap="round" stroke-linejoin="round"/>
</svg>
