<svg width="310" height="252" viewBox="0 0 310 252" fill="none" xmlns="http://www.w3.org/2000/svg">
<rect width="310" height="252" rx="5" fill="#F7AD19" fill-opacity="0.1"/>
<path d="M147.812 191.559H26.5788C24.601 191.553 23 189.952 23 187.974V17.5537C23.0188 15.5885 24.6136 14.0063 26.5788 14H147.812C149.79 14 151.397 15.6073 151.397 17.5851V187.974C151.391 189.952 149.79 191.559 147.812 191.559ZM26.5788 14.1256C24.6889 14.1319 23.157 15.6638 23.157 17.5537V187.974C23.157 189.864 24.6889 191.396 26.5788 191.402H147.812C149.702 191.396 151.234 189.864 151.24 187.974V17.5537C151.234 15.6638 149.702 14.1319 147.812 14.1256H26.5788Z" fill="#E6E6E6"/>
<path d="M283.619 191.559H162.379C160.401 191.553 158.8 189.952 158.794 187.974V17.5537C158.813 15.5885 160.414 14.0063 162.379 14H283.619C285.584 14.0063 287.173 15.5885 287.191 17.5537V187.974C287.191 189.952 285.597 191.553 283.619 191.559ZM162.385 14.1256C160.495 14.1319 158.963 15.6638 158.957 17.5537V187.974C158.963 189.864 160.495 191.396 162.385 191.402H283.625C285.515 191.396 287.047 189.864 287.053 187.974V17.5537C287.047 15.6638 285.515 14.1319 283.625 14.1256H162.385Z" fill="#E6E6E6"/>
<path d="M50.4248 40.1127H49.2947V128.245H50.4248V40.1127Z" fill="#E0E0E0"/>
<path d="M120.777 40.1126H119.646V128.245H120.777V40.1126Z" fill="#E0E0E0"/>
<path d="M125.203 45.6567H44.8678L43.1726 41.7012H126.898L125.203 45.6567Z" fill="#EBEBEB"/>
<path d="M125.203 51.0875H44.8678L43.1726 47.132H126.898L125.203 51.0875Z" fill="#EBEBEB"/>
<path d="M125.203 56.5189H44.8678L43.1726 52.5633H126.898L125.203 56.5189Z" fill="#EBEBEB"/>
<path d="M125.203 61.9497H44.8678L43.1726 57.9941H126.898L125.203 61.9497Z" fill="#EBEBEB"/>
<path d="M125.203 67.3807H44.8678L43.1726 63.4252H126.898L125.203 67.3807Z" fill="#EBEBEB"/>
<path d="M125.203 72.8118H44.8678L43.1726 68.8563H126.898L125.203 72.8118Z" fill="#EBEBEB"/>
<path d="M125.203 78.2429H44.8678L43.1726 74.2874H126.898L125.203 78.2429Z" fill="#EBEBEB"/>
<path d="M125.203 83.6734H44.8678L43.1726 79.7179H126.898L125.203 83.6734Z" fill="#EBEBEB"/>
<path d="M125.203 89.0985H44.8678L43.1726 85.143H126.898L125.203 89.0985Z" fill="#EBEBEB"/>
<path d="M125.203 94.5295H44.8678L43.1726 90.574H126.898L125.203 94.5295Z" fill="#EBEBEB"/>
<path d="M125.203 99.9601H44.8678L43.1726 96.0046H126.898L125.203 99.9601Z" fill="#EBEBEB"/>
<path d="M125.203 105.391H44.8678L43.1726 101.436H126.898L125.203 105.391Z" fill="#EBEBEB"/>
<path d="M125.203 110.822H44.8678L43.1726 106.867H126.898L125.203 110.822Z" fill="#EBEBEB"/>
<path d="M125.203 116.253H44.8678L43.1726 112.297H126.898L125.203 116.253Z" fill="#EBEBEB"/>
<path d="M125.203 121.684H44.8678L43.1726 117.729H126.898L125.203 121.684Z" fill="#EBEBEB"/>
<path d="M125.203 127.115H44.8678L43.1726 123.16H126.898L125.203 127.115Z" fill="#EBEBEB"/>
<path d="M126.898 127.115H43.1726V129.376H126.898V127.115Z" fill="#E0E0E0"/>
<path d="M129.818 36.7472H40.2539V42.0212H129.818V36.7472Z" fill="#E0E0E0"/>
<path d="M41.1769 89.8389C40.6746 89.8389 40.2665 89.4308 40.2665 88.9285V58.1634C40.2665 57.6611 40.6746 57.253 41.1769 57.253C41.6792 57.253 42.0873 57.6611 42.0873 58.1634V88.9223C42.0873 89.4308 41.6792 89.8389 41.1769 89.8389Z" fill="#E0E0E0"/>
<path d="M41.503 40.9603H40.8438V59.231H41.503V40.9603Z" fill="#E0E0E0"/>
<path d="M273.046 159.494H225.448V210.721H273.046V159.494Z" fill="#E6E6E6"/>
<path d="M280.317 155.683H274.333V217.37H280.317V155.683Z" fill="#E6E6E6"/>
<path d="M236.925 163.532H233.026V182.675H236.925V163.532Z" fill="#FAFAFA"/>
<path d="M253.098 163.532H249.199V182.675H253.098V163.532Z" fill="#F5F5F5"/>
<path d="M240.824 164.875H236.925V182.675H240.824V164.875Z" fill="#F5F5F5"/>
<path d="M249.194 164.875H245.295V182.675H249.194V164.875Z" fill="#FAFAFA"/>
<path d="M245.294 163.532H242.776V182.675H245.294V163.532Z" fill="#EBEBEB"/>
<path d="M242.783 164.875H240.83V182.675H242.783V164.875Z" fill="#FAFAFA"/>
<path d="M256.998 163.532H253.099V182.675H256.998V163.532Z" fill="#EBEBEB"/>
<path d="M260.897 164.875H256.998V182.675H260.897V164.875Z" fill="#E6E6E6"/>
<path d="M269.266 164.875H265.367V182.675H269.266V164.875Z" fill="#E6E6E6"/>
<path d="M265.367 163.532H262.849V182.675H265.367V163.532Z" fill="#FAFAFA"/>
<path d="M262.849 164.875H260.896V182.675H262.849V164.875Z" fill="#EBEBEB"/>
<path d="M271.219 163.983H269.266V182.675H271.219V163.983Z" fill="#FAFAFA"/>
<path d="M267.315 208.336H271.214V189.193H267.315V208.336Z" fill="#FAFAFA"/>
<path d="M251.149 208.336H255.048V189.193H251.149V208.336Z" fill="#FAFAFA"/>
<path d="M263.42 208.331H267.319V190.532H263.42V208.331Z" fill="#F0F0F0"/>
<path d="M255.05 208.331H258.949V190.532H255.05V208.331Z" fill="#EBEBEB"/>
<path d="M258.952 208.336H261.47V189.193H258.952V208.336Z" fill="#FAFAFA"/>
<path d="M261.463 208.331H263.416V190.532H261.463V208.331Z" fill="#F5F5F5"/>
<path d="M247.248 208.336H251.147V189.193H247.248V208.336Z" fill="#EBEBEB"/>
<path d="M243.347 208.331H247.246V190.532H243.347V208.331Z" fill="#F5F5F5"/>
<path d="M234.977 208.331H238.876V190.532H234.977V208.331Z" fill="#E6E6E6"/>
<path d="M238.879 208.336H241.397V189.193H238.879V208.336Z" fill="#FAFAFA"/>
<path d="M230.508 208.336H233.026V189.193H230.508V208.336Z" fill="#FAFAFA"/>
<path d="M241.397 208.331H243.349V190.532H241.397V208.331Z" fill="#EBEBEB"/>
<path d="M233.027 208.331H234.979V189.64H233.027V208.331Z" fill="#F0F0F0"/>
<path d="M272.807 155.683H271.213H223.947V213.917H271.213V217.377H274.402V155.689H272.807V155.683ZM271.213 208.335H226.955V185.889H271.213V208.335ZM271.213 182.694H226.955V161.265H271.213V182.694Z" fill="#F0F0F0"/>
<path d="M177.778 210.728H225.376V159.501H177.778V210.728Z" fill="#E6E6E6"/>
<path d="M179.607 217.375H185.59V213.294H179.607V217.375Z" fill="#E6E6E6"/>
<path d="M219.869 182.672H223.768V163.528H219.869V182.672Z" fill="#FAFAFA"/>
<path d="M203.703 182.672H207.602V163.528H203.703V182.672Z" fill="#F5F5F5"/>
<path d="M215.973 182.674H219.872V164.874H215.973V182.674Z" fill="#F5F5F5"/>
<path d="M207.602 182.674H211.501V164.874H207.602V182.674Z" fill="#FAFAFA"/>
<path d="M211.505 182.672H214.023V163.528H211.505V182.672Z" fill="#EBEBEB"/>
<path d="M214.016 182.674H215.969V164.874H214.016V182.674Z" fill="#FAFAFA"/>
<path d="M202.369 182.672H206.268V163.528H202.369V182.672Z" fill="#EBEBEB"/>
<path d="M198.475 182.674H202.374V164.874H198.475V182.674Z" fill="#E6E6E6"/>
<path d="M190.104 182.674H194.003V164.874H190.104V182.674Z" fill="#E6E6E6"/>
<path d="M194.007 182.672H196.525V163.528H194.007V182.672Z" fill="#FAFAFA"/>
<path d="M196.518 182.674H198.47V164.874H196.518V182.674Z" fill="#EBEBEB"/>
<path d="M188.147 182.674H190.1V163.982H188.147V182.674Z" fill="#F5F5F5"/>
<path d="M190.219 189.186H186.32V208.33H190.219V189.186Z" fill="#FAFAFA"/>
<path d="M206.386 189.186H202.487V208.33H206.386V189.186Z" fill="#FAFAFA"/>
<path d="M194.117 190.536H190.218V208.335H194.117V190.536Z" fill="#F5F5F5"/>
<path d="M202.487 190.536H198.588V208.335H202.487V190.536Z" fill="#EBEBEB"/>
<path d="M198.588 189.186H196.07V208.33H198.588V189.186Z" fill="#FAFAFA"/>
<path d="M196.07 190.536H194.117V208.335H196.07V190.536Z" fill="#F5F5F5"/>
<path d="M207.717 189.186H203.818V208.33H207.717V189.186Z" fill="#EBEBEB"/>
<path d="M211.616 190.536H207.717V208.335H211.616V190.536Z" fill="#F5F5F5"/>
<path d="M219.985 190.536H216.086V208.335H219.985V190.536Z" fill="#E6E6E6"/>
<path d="M216.086 189.186H213.569V208.33H216.086V189.186Z" fill="#FAFAFA"/>
<path d="M223.941 189.186H221.424V208.33H223.941V189.186Z" fill="#FAFAFA"/>
<path d="M213.569 190.536H211.616V208.335H213.569V190.536Z" fill="#EBEBEB"/>
<path d="M221.938 189.644H219.985V208.336H221.938V189.644Z" fill="#EBEBEB"/>
<path d="M176.424 155.683V217.37H179.614V213.911H226.879V155.677H179.614H178.019H176.424V155.683ZM179.614 185.883H223.871V208.329H179.614V185.883ZM179.614 161.271H223.871V182.7H179.614V161.271Z" fill="#F0F0F0"/>
<path d="M56.9295 196.965C56.9295 196.965 52.3587 175.366 60.6842 163.669C69.0096 151.972 53.1624 163.538 51.3416 174.487C51.3416 174.487 48.6104 154.911 56.6847 141.135C64.759 127.36 49.6526 138.668 48.3718 152.864C48.3718 152.864 45.898 135.397 49.6087 125.577C53.3193 115.764 46.8649 122.074 44.3849 128.227C41.9049 134.38 45.1572 149.618 45.1572 149.618C45.1572 149.618 38.6839 121.446 32.556 123.687C26.4281 125.929 41.7165 144.388 43.8387 153.994C43.8387 153.994 36.612 141.073 31.1308 143.76C25.6496 146.447 39.6194 147.791 46.0173 167.06L48.2651 176.095C48.2651 176.095 41.616 163.343 37.265 167.367C32.9139 171.392 50.1549 178.336 54.1607 197.662L56.9295 196.965Z" fill="#EBEBEB"/>
<path d="M65.5057 217.377H47.9445C44.1334 217.377 41.0443 214.288 41.0443 210.477V203.564H72.4122V210.477C72.4059 214.282 69.3169 217.377 65.5057 217.377Z" fill="#EBEBEB"/>
<path d="M73.8755 207.96H39.5755C38.1126 207.96 36.9323 206.773 36.9323 205.316V198.234C36.9323 196.771 38.1189 195.591 39.5755 195.591H73.8693C75.3322 195.591 76.5126 196.777 76.5126 198.234V205.316C76.5188 206.773 75.3322 207.96 73.8755 207.96Z" fill="#F5F5F5"/>
<path d="M56.0381 198.208C56.0381 198.208 55.0775 170.977 41.6225 159.45C28.1674 147.922 50.5946 157.045 56.0381 169.621C56.0381 169.621 53.4765 145.354 39.7012 131.265C25.926 117.17 47.3862 126.217 53.1563 142.837C53.1563 142.837 50.9148 121.175 43.5437 110.527C36.1789 99.8721 45.7852 105.51 50.5883 112.141C55.3914 118.771 56.0319 137.99 56.0319 137.99C56.0319 137.99 55.3914 102.315 63.3967 103.175C71.4019 104.035 58.5935 130.7 58.9137 142.83C58.9137 142.83 63.7169 125.2 71.0879 126.789C78.459 128.377 62.1158 134.141 60.1946 159.13V170.619C60.1946 170.619 64.3573 153.366 70.7677 156.888C77.1719 160.41 58.5935 173.865 59.5542 198.208H56.0381Z" fill="#F5F5F5"/>
<path d="M265.925 37.3689H228.567V93.0538H265.925V37.3689Z" fill="#EBEBEB"/>
<path d="M263.352 41.2116H231.149V89.2115H263.352V41.2116Z" fill="#F5F5F5"/>
<path d="M254.96 58.7139C255.78 55.2414 253.63 51.7616 250.157 50.9417C246.684 50.1217 243.205 52.272 242.385 55.7446C241.565 59.2171 243.715 62.6968 247.188 63.5167C250.66 64.3367 254.14 62.1864 254.96 58.7139Z" fill="#E0E0E0"/>
<path d="M242.198 82.33L251.648 71.0285L255.12 82.33H242.198Z" fill="#EBEBEB"/>
<path d="M237.646 49.1854C233.126 56.5502 236.397 65.6919 241.533 71.6942C242.324 72.6172 243.649 71.2798 242.864 70.3631C238.274 65.0012 235.223 56.7386 239.272 50.1398C239.913 49.0975 238.28 48.1494 237.646 49.1854Z" fill="#EBEBEB"/>
<path d="M256.671 44.2628L253.218 47.7977L256.671 50.7549L259.81 47.5089L256.671 44.2628Z" fill="#EBEBEB"/>
<path d="M256.2 146.654H239.649L243.774 140.062H253.739V141.945H244.817L243.052 144.771H256.2V146.654Z" fill="#E0E0E0"/>
<path d="M252.081 140.712L250.219 140.998L250.795 144.747L252.657 144.46L252.081 140.712Z" fill="#E0E0E0"/>
<path d="M257.347 141.341L255.154 145.387L256.81 146.285L259.003 142.238L257.347 141.341Z" fill="#EBEBEB"/>
<path d="M267.319 143.013L257.161 143.327C256.42 143.352 255.804 142.837 255.804 142.203V141.575C255.804 140.935 256.42 140.426 257.161 140.451L267.319 140.765C268.023 140.784 268.581 141.286 268.581 141.889C268.581 142.498 268.029 142.994 267.319 143.013Z" fill="#E0E0E0"/>
<path d="M235.775 152.795L240.754 150.221V148.758L235.775 146.184V152.795Z" fill="#E6E6E6"/>
<path d="M235.776 146.184H235.085V152.795H235.776V146.184Z" fill="#E0E0E0"/>
<path d="M262.303 154.666L254.512 150.635V148.343L262.303 144.313V154.666Z" fill="#E6E6E6"/>
<path d="M263.383 144.313H262.303V154.672H263.383V144.313Z" fill="#E0E0E0"/>
<path d="M257.091 155.564H242.908C240.151 155.564 237.916 153.328 237.916 150.566V149.304C237.916 146.548 240.151 144.306 242.908 144.306H257.091V155.564Z" fill="#EBEBEB"/>
<path d="M184.298 159.639H180.38L174.108 233.946C174.038 234.775 174.691 235.484 175.527 235.484C176.255 235.484 176.87 234.932 176.939 234.203L184.298 159.639Z" fill="#263238"/>
<path opacity="0.1" d="M184.298 159.639H180.38L174.108 233.946C174.038 234.775 174.691 235.484 175.527 235.484C176.255 235.484 176.87 234.932 176.939 234.203L184.298 159.639Z" fill="white"/>
<path d="M90.1315 159.118H86.2136L79.9413 233.946C79.8722 234.775 80.5252 235.484 81.3603 235.484C82.0886 235.484 82.7039 234.932 82.7729 234.203L90.1315 159.118Z" fill="#263238"/>
<path opacity="0.1" d="M90.1315 159.118H86.2136L79.9413 233.946C79.8722 234.775 80.5252 235.484 81.3603 235.484C82.0886 235.484 82.7039 234.932 82.7729 234.203L90.1315 159.118Z" fill="white"/>
<path d="M107.51 159.118H111.428L111.541 234.172C111.541 234.957 110.906 235.597 110.115 235.597C109.337 235.597 108.703 234.97 108.69 234.197L107.51 159.118Z" fill="#263238"/>
<path opacity="0.2" d="M107.51 159.118H111.428L111.541 234.172C111.541 234.957 110.906 235.597 110.115 235.597C109.337 235.597 108.703 234.97 108.69 234.197L107.51 159.118Z" fill="white"/>
<path d="M200.421 159.118H204.339L204.452 234.172C204.452 234.957 203.818 235.597 203.027 235.597C202.248 235.597 201.614 234.97 201.601 234.197L200.421 159.118Z" fill="#263238"/>
<path opacity="0.2" d="M204.345 159.118L204.458 234.172C204.458 234.957 203.824 235.597 203.033 235.597C202.254 235.597 201.62 234.97 201.608 234.197L200.421 159.118H204.345Z" fill="white"/>
<path d="M85.0331 173.188L204.257 172.303V159.118H86.2072L85.0331 173.188Z" fill="#FFC727"/>
<path opacity="0.3" d="M107.51 159.218L107.73 173.018L85.0331 173.188L86.2072 159.118L107.51 159.218Z" fill="black"/>
<path d="M208.859 155.953C208.859 154.176 208.2 152.738 207.384 152.732H84.4299C83.6137 152.738 82.9545 154.176 82.9545 155.953C82.9545 157.73 83.6137 159.167 84.4299 159.174H207.384C208.194 159.167 208.853 157.73 208.859 155.953Z" fill="#263238"/>
<path opacity="0.1" d="M208.859 155.953C208.859 154.176 208.2 152.738 207.384 152.732H84.4299C83.6137 152.738 82.9545 154.176 82.9545 155.953C82.9545 157.73 83.6137 159.167 84.4299 159.174H207.384C208.194 159.167 208.853 157.73 208.859 155.953Z" fill="white"/>
<path opacity="0.3" d="M114.687 155.953C114.687 154.176 114.027 152.738 113.211 152.732H84.4299C83.6137 152.738 82.9545 154.176 82.9545 155.953C82.9545 157.73 83.6137 159.167 84.4299 159.174H113.211C114.027 159.167 114.687 157.73 114.687 155.953Z" fill="black"/>
<path d="M177.246 153.065H164.331L164.626 151.665C166.001 147.96 173.065 147.96 173.065 147.96C174.816 148.061 176.524 149.699 177.014 151.991L177.246 153.065Z" fill="#FFC727"/>
<path d="M141.408 150.992H154.379L155.924 137.431H144.145L141.408 150.992Z" fill="#263238"/>
<path d="M139.116 152.713H139.732V152.864H161.738V150.986H141.408L144.145 137.425H155.924L156.577 131.673C156.546 130.889 155.893 130.273 155.108 130.273H145.012C144.221 130.273 143.574 130.895 143.536 131.673L139.116 152.713Z" fill="#263238"/>
<path d="M141.408 150.992H154.379L155.805 138.498L155.924 137.431H144.145L141.408 150.992Z" fill="#263238"/>
<path opacity="0.1" d="M155.384 141.945L155.924 137.431H142.331L141.383 141.945H155.384Z" fill="black"/>
<path d="M162.008 151.388H163.546C163.709 151.388 163.841 151.268 163.841 151.118V149.63C163.841 149.479 163.709 149.36 163.546 149.36H162.441C162.309 149.36 162.19 149.441 162.158 149.561L161.725 151.049C161.675 151.224 161.813 151.388 162.008 151.388Z" fill="#263238"/>
<path d="M159.879 151.388H161.418C161.581 151.388 161.713 151.268 161.713 151.118V149.63C161.713 149.479 161.581 149.36 161.418 149.36H160.313C160.181 149.36 160.061 149.441 160.03 149.561L159.597 151.049C159.547 151.224 159.685 151.388 159.879 151.388Z" fill="#263238"/>
<path d="M157.75 151.388H159.289C159.452 151.388 159.584 151.268 159.584 151.118V149.63C159.584 149.479 159.452 149.36 159.289 149.36H158.184C158.052 149.36 157.933 149.441 157.901 149.561L157.468 151.049C157.418 151.224 157.556 151.388 157.75 151.388Z" fill="#263238"/>
<path d="M155.623 151.388H157.161C157.324 151.388 157.456 151.268 157.456 151.118V149.63C157.456 149.479 157.324 149.36 157.161 149.36H156.056C155.924 149.36 155.805 149.441 155.773 149.561L155.34 151.049C155.29 151.224 155.428 151.388 155.623 151.388Z" fill="#263238"/>
<path d="M153.494 151.388H155.032C155.196 151.388 155.327 151.268 155.327 151.118V149.63C155.327 149.479 155.196 149.36 155.032 149.36H153.927C153.795 149.36 153.676 149.441 153.645 149.561L153.212 151.049C153.161 151.224 153.299 151.388 153.494 151.388Z" fill="#263238"/>
<path d="M151.366 151.388H152.904C153.067 151.388 153.199 151.268 153.199 151.118V149.63C153.199 149.479 153.067 149.36 152.904 149.36H151.799C151.667 149.36 151.548 149.441 151.516 149.561L151.083 151.049C151.033 151.224 151.171 151.388 151.366 151.388Z" fill="#263238"/>
<path d="M149.237 151.388H150.775C150.938 151.388 151.07 151.268 151.07 151.118V149.63C151.07 149.479 150.938 149.36 150.775 149.36H149.67C149.538 149.36 149.419 149.441 149.387 149.561L148.954 151.049C148.904 151.224 149.042 151.388 149.237 151.388Z" fill="#263238"/>
<path d="M147.109 151.388H148.647C148.81 151.388 148.942 151.268 148.942 151.118V149.63C148.942 149.479 148.81 149.36 148.647 149.36H147.542C147.41 149.36 147.291 149.441 147.259 149.561L146.826 151.049C146.77 151.224 146.914 151.388 147.109 151.388Z" fill="#263238"/>
<path d="M144.98 151.388H146.518C146.682 151.388 146.814 151.268 146.814 151.118V149.63C146.814 149.479 146.682 149.36 146.518 149.36H145.413C145.282 149.36 145.162 149.441 145.131 149.561L144.698 151.049C144.641 151.224 144.786 151.388 144.98 151.388Z" fill="#263238"/>
<path d="M142.846 151.388H144.384C144.547 151.388 144.679 151.268 144.679 151.118V149.63C144.679 149.479 144.547 149.36 144.384 149.36H143.279C143.147 149.36 143.028 149.441 142.996 149.561L142.563 151.049C142.513 151.224 142.657 151.388 142.846 151.388Z" fill="#263238"/>
<path d="M140.717 151.388H142.255C142.419 151.388 142.551 151.268 142.551 151.118V149.63C142.551 149.479 142.419 149.36 142.255 149.36H141.15C141.019 149.36 140.899 149.441 140.868 149.561L140.435 151.049C140.384 151.224 140.529 151.388 140.717 151.388Z" fill="#263238"/>
<path d="M138.589 151.388H140.127C140.29 151.388 140.422 151.268 140.422 151.118V149.63C140.422 149.479 140.29 149.36 140.127 149.36H139.022C138.89 149.36 138.771 149.441 138.739 149.561L138.306 151.049C138.256 151.224 138.4 151.388 138.589 151.388Z" fill="#263238"/>
<path d="M136.46 151.388H137.998C138.161 151.388 138.293 151.268 138.293 151.118V149.63C138.293 149.479 138.161 149.36 137.998 149.36H136.893C136.761 149.36 136.642 149.441 136.61 149.561L136.177 151.049C136.127 151.224 136.265 151.388 136.46 151.388Z" fill="#263238"/>
<path d="M134.332 151.388H135.87C136.033 151.388 136.165 151.268 136.165 151.118V149.63C136.165 149.479 136.033 149.36 135.87 149.36H134.765C134.633 149.36 134.514 149.441 134.482 149.561L134.049 151.049C133.999 151.224 134.137 151.388 134.332 151.388Z" fill="#263238"/>
<path d="M132.204 151.388H133.742C133.905 151.388 134.037 151.269 134.037 151.118V149.63C134.037 149.479 133.905 149.36 133.742 149.36H132.637C132.505 149.36 132.386 149.442 132.354 149.561L131.921 151.049C131.871 151.225 132.009 151.388 132.204 151.388Z" fill="#263238"/>
<path d="M130.653 151.551C130.653 152.198 131.23 152.719 131.934 152.719H163.81C164.52 152.719 165.091 152.198 165.091 151.551C165.091 151.225 164.947 150.93 164.721 150.722C164.494 150.515 164.187 150.39 163.842 150.383H131.934C131.808 150.383 131.689 150.402 131.576 150.427C131.048 150.565 130.653 151.018 130.653 151.551Z" fill="#263238"/>
<path opacity="0.2" d="M130.653 151.551C130.653 152.198 131.23 152.719 131.934 152.719H163.81C164.52 152.719 165.091 152.198 165.091 151.551C165.091 151.225 164.947 150.93 164.721 150.722C164.494 150.515 164.187 150.39 163.842 150.383H131.934C131.808 150.383 131.689 150.402 131.576 150.427C131.048 150.565 130.653 151.018 130.653 151.551Z" fill="white"/>
<path d="M130.653 151.551C130.653 152.198 131.23 152.719 131.934 152.719H142.727C143.241 152.568 143.618 152.123 143.618 151.601C143.618 151.526 143.612 151.457 143.599 151.394C143.549 151.156 143.424 150.942 143.241 150.773C143.16 150.697 143.066 150.635 142.965 150.578C142.915 150.553 142.865 150.534 142.814 150.509C142.658 150.452 142.494 150.421 142.325 150.421H131.582C131.048 150.566 130.653 151.018 130.653 151.551Z" fill="#263238"/>
<path d="M121.48 99.3391H124.739L128.399 139.07H125.141C124.601 139.07 124.117 138.568 124.061 137.94L120.608 100.469C120.551 99.8414 120.94 99.3391 121.48 99.3391Z" fill="#FFC727"/>
<path opacity="0.3" d="M121.48 99.3391H124.739L128.399 139.07H125.141C124.601 139.07 124.117 138.568 124.061 137.94L120.608 100.469C120.551 99.8414 120.94 99.3391 121.48 99.3391Z" fill="black"/>
<path d="M126.515 139.063H175.338C175.878 139.063 176.267 138.561 176.21 137.933L172.757 100.462C172.701 99.8409 172.217 99.3323 171.677 99.3323H122.855C122.315 99.3323 121.926 99.8346 121.982 100.462L125.435 137.933C125.492 138.561 125.975 139.063 126.515 139.063Z" fill="#FFC727"/>
<path d="M127.991 131.095H172.33L169.869 102.986H125.53L127.991 131.095Z" fill="#FFC727"/>
<path d="M128.599 133.293H172.292C173.529 133.293 174.446 132.289 174.339 131.052L171.897 103.118C171.79 101.881 170.697 100.877 169.454 100.877H125.761C124.525 100.877 123.608 101.881 123.715 103.118L126.157 131.052C126.27 132.289 127.362 133.293 128.599 133.293Z" fill="#263238"/>
<path d="M127.991 131.095H172.33L169.869 102.986H125.53L127.991 131.095Z" fill="#FFC727"/>
<path opacity="0.4" d="M127.991 131.095H172.33L169.869 102.986H125.53L127.991 131.095Z" fill="white"/>
<path d="M142.507 104.525L144.648 129.012H128.392L126.251 104.525H142.507ZM143.084 103.897H142.507H126.251H125.567L125.63 104.582L127.771 129.068L127.821 129.639H128.399H144.654H145.338L145.275 128.955L143.134 104.469L143.084 103.897Z" fill="#FFC727"/>
<path d="M144.647 129.012H128.398L126.251 104.525H142.506L144.647 129.012Z" fill="white"/>
<path d="M133.177 112.009H128.229L127.689 105.793H132.63L133.177 112.009Z" fill="#FFC727"/>
<g opacity="0.2">
<path d="M128.273 105.793H127.846H127.683L128.103 110.615H128.267L128.235 110.264H128.662L128.693 110.615H128.857L128.436 105.793H128.273ZM128.072 108.38L128.009 107.677H128.436L128.499 108.38H128.072ZM128.511 108.537L128.574 109.24H128.147L128.084 108.537H128.511ZM127.997 107.52L127.934 106.817H128.361L128.423 107.52H127.997ZM127.921 106.653L127.858 105.95H128.285L128.348 106.653H127.921ZM128.223 110.1L128.16 109.397H128.587L128.65 110.1H128.223Z" fill="black"/>
</g>
<g opacity="0.2">
<path d="M132.467 105.793H132.04H131.877L132.298 110.615H132.461L132.43 110.264H132.857L132.888 110.615H133.051L132.631 105.793H132.467ZM132.273 108.38L132.21 107.677H132.637L132.7 108.38H132.273ZM132.712 108.537L132.775 109.24H132.348L132.285 108.537H132.712ZM132.197 107.52L132.135 106.817H132.562L132.624 107.52H132.197ZM132.122 106.654L132.059 105.95H132.486L132.549 106.654H132.122ZM132.423 110.101L132.361 109.397H132.788L132.85 110.101H132.423Z" fill="black"/>
</g>
<path opacity="0.2" d="M132.304 110.609L128.857 110.615L128.436 105.793H131.883L132.304 110.609Z" fill="white"/>
<path opacity="0.2" d="M131.802 108.267C131.871 109.058 131.287 109.692 130.502 109.692C129.711 109.692 129.021 109.052 128.951 108.267C128.882 107.476 129.466 106.842 130.251 106.842C131.036 106.842 131.733 107.482 131.802 108.267Z" fill="white"/>
<path d="M129.925 107.52L131.18 108.349L130.069 109.171L129.925 107.52Z" fill="white"/>
<path d="M133.854 119.794H128.913L128.367 113.578H133.308L133.854 119.794Z" fill="#FFC727"/>
<g opacity="0.2">
<path d="M128.957 113.578H128.53H128.367L128.788 118.4H128.951L128.919 118.049H129.346L129.378 118.4H129.541L129.12 113.578H128.957ZM128.756 116.165L128.693 115.462H129.12L129.183 116.165H128.756ZM129.196 116.328L129.259 117.032H128.832L128.769 116.328H129.196ZM128.681 115.305L128.618 114.602H129.045L129.108 115.305H128.681ZM128.606 114.445L128.543 113.742H128.97L129.032 114.445H128.606ZM128.907 117.892L128.844 117.189H129.271L129.334 117.892H128.907Z" fill="black"/>
</g>
<g opacity="0.2">
<path d="M133.151 113.578H132.725H132.561L132.982 118.4H133.145L133.114 118.049H133.541L133.572 118.4H133.735L133.315 113.578H133.151ZM132.951 116.165L132.888 115.462H133.315L133.377 116.165H132.951ZM133.39 116.328L133.453 117.032H133.026L132.963 116.328H133.39ZM132.875 115.305L132.812 114.602H133.239L133.302 115.305H132.875ZM132.8 114.445L132.737 113.742H133.164L133.227 114.445H132.8ZM133.101 117.892L133.038 117.189H133.465L133.528 117.892H133.101Z" fill="black"/>
</g>
<path opacity="0.2" d="M132.988 118.394L129.535 118.4L129.114 113.578H132.561L132.988 118.394Z" fill="white"/>
<path opacity="0.2" d="M132.486 116.052C132.555 116.843 131.971 117.477 131.186 117.477C130.402 117.477 129.705 116.837 129.636 116.052C129.566 115.261 130.15 114.626 130.935 114.626C131.72 114.626 132.417 115.267 132.486 116.052Z" fill="white"/>
<path d="M130.609 115.311L131.864 116.134L130.753 116.956L130.609 115.311Z" fill="white"/>
<path d="M139.656 112.009H134.715L134.169 105.793H139.116L139.656 112.009Z" fill="#FFC727"/>
<g opacity="0.2">
<path d="M134.759 105.793H134.332H134.169L134.59 110.615H134.753L134.721 110.264H135.148L135.18 110.615H135.343L134.922 105.793H134.759ZM134.558 108.38L134.495 107.677H134.922L134.985 108.38H134.558ZM134.998 108.537L135.061 109.24H134.634L134.571 108.537H134.998ZM134.483 107.52L134.42 106.817H134.847L134.91 107.52H134.483ZM134.408 106.653L134.345 105.95H134.772L134.834 106.653H134.408ZM134.709 110.1L134.646 109.397H135.073L135.136 110.1H134.709Z" fill="black"/>
</g>
<g opacity="0.2">
<path d="M138.953 105.793H138.526H138.363L138.783 110.615H138.947L138.915 110.264H139.342L139.374 110.615H139.537L139.116 105.793H138.953ZM138.752 108.38L138.689 107.677H139.116L139.179 108.38H138.752ZM139.192 108.537L139.254 109.24H138.827L138.765 108.537H139.192ZM138.677 107.52L138.614 106.817H139.041L139.104 107.52H138.677ZM138.601 106.654L138.539 105.95H138.966L139.028 106.654H138.601ZM138.903 110.101L138.84 109.397H139.267L139.33 110.101H138.903Z" fill="black"/>
</g>
<path opacity="0.2" d="M138.79 110.609L135.343 110.615L134.916 105.793H138.369L138.79 110.609Z" fill="white"/>
<path opacity="0.2" d="M138.288 108.267C138.357 109.058 137.773 109.692 136.988 109.692C136.203 109.692 135.506 109.052 135.437 108.267C135.368 107.476 135.952 106.842 136.737 106.842C137.522 106.842 138.219 107.482 138.288 108.267Z" fill="white"/>
<path d="M136.41 107.52L137.666 108.349L136.555 109.171L136.41 107.52Z" fill="white"/>
<path d="M134.538 127.586H129.591L129.051 121.371H133.992L134.538 127.586Z" fill="#FFC727"/>
<g opacity="0.2">
<path d="M129.635 121.371H129.209H129.045L129.466 126.192H129.629L129.598 125.841H130.025L130.056 126.192H130.219L129.799 121.371H129.635ZM129.435 123.957L129.372 123.254H129.799L129.862 123.957H129.435ZM129.874 124.114L129.937 124.817H129.51L129.447 124.114H129.874ZM129.359 123.091L129.296 122.388H129.723L129.786 123.091H129.359ZM129.284 122.231L129.221 121.527H129.648L129.711 122.231H129.284ZM129.585 125.678L129.522 124.974H129.949L130.012 125.678H129.585Z" fill="black"/>
</g>
<g opacity="0.2">
<path d="M133.83 121.371H133.403H133.24L133.66 126.193H133.824L133.792 125.841H134.219L134.251 126.193H134.414L133.993 121.371H133.83ZM133.635 123.957L133.573 123.254H133.999L134.062 123.957H133.635ZM134.075 124.114L134.138 124.818H133.711L133.648 124.114H134.075ZM133.56 123.091L133.497 122.388H133.924L133.987 123.091H133.56ZM133.485 122.231L133.422 121.528H133.849L133.912 122.231H133.485ZM133.786 125.678L133.723 124.975H134.15L134.213 125.678H133.786Z" fill="black"/>
</g>
<path opacity="0.2" d="M133.666 126.186L130.219 126.193L129.799 121.371H133.246L133.666 126.186Z" fill="white"/>
<path opacity="0.2" d="M133.164 123.845C133.233 124.636 132.649 125.27 131.864 125.27C131.073 125.27 130.382 124.629 130.313 123.845C130.244 123.053 130.828 122.419 131.613 122.419C132.398 122.419 133.095 123.053 133.164 123.845Z" fill="white"/>
<path d="M131.287 123.097L132.549 123.92L131.431 124.748L131.287 123.097Z" fill="white"/>
<path opacity="0.1" d="M140.749 100.889L132.09 133.281H135.004L143.568 100.889H140.749Z" fill="white"/>
<path opacity="0.1" d="M145.244 100.889L136.586 133.281H142.362L150.927 100.889H145.244Z" fill="white"/>
<path d="M171.25 125.043H143.078L141.621 108.405H169.793L171.25 125.043Z" fill="#263238"/>
<path d="M159.754 114.891C159.923 116.825 158.492 118.394 156.558 118.394C154.624 118.394 152.917 116.825 152.747 114.891C152.578 112.957 154.009 111.387 155.943 111.387C157.877 111.387 159.584 112.951 159.754 114.891Z" fill="white"/>
<path d="M158.172 115.016L155.108 113.334L155.403 116.699L158.172 115.016Z" fill="#263238"/>
<path d="M170.591 121.778H143.166L143.116 121.239H170.541L170.591 121.778Z" fill="white"/>
<path d="M158.536 121.778H143.166L143.116 121.239H158.492L158.536 121.778Z" fill="#FFC727"/>
<path d="M143.637 123.781H143.373L143.279 122.739H143.543L143.637 123.781Z" fill="white"/>
<path d="M144.095 123.781H143.832L143.744 122.739H144.007L144.095 123.781Z" fill="white"/>
<path d="M146.475 123.781H145.432L145.344 122.739H146.38L146.475 123.781Z" fill="white"/>
<path d="M147.856 123.26L148.71 122.739L148.798 123.781L147.856 123.26Z" fill="white"/>
<path d="M147.9 123.781H147.637L147.542 122.739H147.806L147.9 123.781Z" fill="white"/>
<path d="M150.769 123.26L149.828 122.739L149.916 123.781L150.769 123.26Z" fill="white"/>
<path d="M150.82 123.781H151.084L150.99 122.739H150.726L150.82 123.781Z" fill="white"/>
<path d="M152.704 122.72L152.239 123.348H153.281L152.704 122.72Z" fill="white"/>
<path d="M153.338 123.8L153.319 123.536H152.239L152.264 123.8H153.338Z" fill="white"/>
<path d="M170.785 123.862H168.776L168.669 122.632H170.678L170.785 123.862ZM168.933 123.693H170.597L170.521 122.801H168.858L168.933 123.693Z" fill="white"/>
<path d="M167.301 123.862H166.893L166.861 123.504L167.031 123.492L167.05 123.693H167.301V123.862Z" fill="white"/>
<path d="M168.198 123.862H167.79V123.693H168.016L167.997 123.504L168.167 123.492L168.198 123.862Z" fill="white"/>
<path d="M167.954 123.027L167.941 122.808H167.702V122.638H168.092L168.129 123.015L167.954 123.027Z" fill="white"/>
<path d="M166.824 123.027L166.786 122.638H167.207V122.808H166.974L166.993 123.015L166.824 123.027Z" fill="white"/>
<path opacity="0.1" d="M146.883 108.405H150.067L146.293 125.043H143.072L146.883 108.405Z" fill="white" stroke="#263238" stroke-miterlimit="10" stroke-linecap="round" stroke-linejoin="round"/>
<path opacity="0.1" d="M162.718 125.043L166.529 108.405H169.718L165.945 125.043H162.718Z" fill="white" stroke="#263238" stroke-miterlimit="10" stroke-linecap="round" stroke-linejoin="round"/>
<g opacity="0.1">
<path d="M169.969 110.427L167.496 121.238L167.37 121.778L167.156 122.72L166.956 123.587L166.623 125.043H167.452L167.979 122.72L168.192 121.778L168.312 121.238L170.189 112.969" fill="white"/>
<path d="M169.969 110.427L167.496 121.238L167.37 121.778L167.156 122.72L166.956 123.587L166.623 125.043H167.452L167.979 122.72L168.192 121.778L168.312 121.238L170.189 112.969" stroke="#263238" stroke-miterlimit="10" stroke-linecap="round" stroke-linejoin="round"/>
</g>
<path d="M169.794 108.405H141.622L141.49 106.898H169.662L169.794 108.405Z" fill="#FFC727"/>
<path d="M143.618 107.664C143.643 107.921 143.449 108.129 143.191 108.129C142.934 108.129 142.708 107.921 142.683 107.664C142.657 107.406 142.852 107.199 143.11 107.199C143.367 107.199 143.593 107.406 143.618 107.664Z" fill="white"/>
<path d="M145.012 107.664C145.037 107.922 144.843 108.129 144.585 108.129C144.328 108.129 144.102 107.922 144.077 107.664C144.052 107.407 144.246 107.199 144.504 107.199C144.761 107.199 144.987 107.407 145.012 107.664Z" fill="white"/>
<path d="M146.4 107.664C146.425 107.922 146.23 108.129 145.973 108.129C145.715 108.129 145.489 107.922 145.464 107.664C145.439 107.407 145.634 107.199 145.891 107.199C146.155 107.199 146.381 107.407 146.4 107.664Z" fill="white"/>
<path d="M116.871 152.738H100.773L96.5596 104.65H112.664L116.871 152.738Z" fill="#FFC727"/>
<path opacity="0.3" d="M116.871 152.738H100.773L96.5596 104.65H112.664L116.871 152.738Z" fill="black"/>
<path d="M118.453 152.738H102.349L98.1421 104.65H114.247L118.453 152.738Z" fill="#FFC727"/>
<path opacity="0.5" d="M106.712 108.349C103.328 108.349 100.823 111.092 101.118 114.476C101.413 117.861 104.395 120.604 107.779 120.604C111.163 120.604 113.669 117.861 113.374 114.476C113.078 111.092 110.096 108.349 106.712 108.349Z" fill="black"/>
<path d="M105.588 114.891C105.67 115.852 106.524 116.636 107.484 116.636C108.445 116.636 109.161 115.858 109.073 114.891C108.991 113.93 108.137 113.145 107.177 113.145C106.216 113.152 105.5 113.93 105.588 114.891Z" fill="#FFC727"/>
<path opacity="0.5" d="M105.35 126.431C105.494 128.082 106.951 129.42 108.602 129.42C110.253 129.42 111.478 128.082 111.333 126.431C111.189 124.78 109.732 123.442 108.081 123.442C106.424 123.436 105.205 124.78 105.35 126.431Z" fill="black"/>
<path opacity="0.5" d="M106.411 134.085C106.536 135.51 107.792 136.671 109.224 136.671C110.655 136.671 111.71 135.516 111.584 134.085C111.459 132.653 110.203 131.498 108.772 131.498C107.34 131.498 106.285 132.659 106.411 134.085Z" fill="black"/>
<path opacity="0.5" d="M107.415 141.135C107.522 142.341 108.583 143.314 109.789 143.314C110.994 143.314 111.886 142.341 111.779 141.135C111.672 139.93 110.611 138.957 109.406 138.957C108.2 138.957 107.309 139.93 107.415 141.135Z" fill="black"/>
<path opacity="0.5" d="M108.313 146.968C108.401 147.948 109.261 148.745 110.241 148.745C111.22 148.745 111.948 147.948 111.86 146.968C111.773 145.989 110.912 145.191 109.933 145.191C108.953 145.197 108.231 145.989 108.313 146.968Z" fill="black"/>
<path d="M198.838 152.675H182.74L178.527 104.588H194.632L198.838 152.675Z" fill="#FFC727"/>
<path opacity="0.3" d="M198.838 152.675H182.74L178.527 104.588H194.632L198.838 152.675Z" fill="black"/>
<path d="M200.42 152.675H184.316L180.109 104.587H196.213L200.42 152.675Z" fill="#FFC727"/>
<path opacity="0.5" d="M188.68 108.285C185.296 108.285 182.791 111.029 183.086 114.413C183.381 117.798 186.363 120.541 189.747 120.541C193.131 120.541 195.637 117.798 195.341 114.413C195.046 111.029 192.064 108.285 188.68 108.285Z" fill="black"/>
<path d="M187.556 114.835C187.637 115.795 188.491 116.58 189.452 116.58C190.412 116.58 191.128 115.801 191.04 114.835C190.959 113.874 190.105 113.089 189.144 113.089C188.184 113.089 187.468 113.868 187.556 114.835Z" fill="#FFC727"/>
<path opacity="0.5" d="M187.317 126.369C187.461 128.02 188.918 129.357 190.569 129.357C192.221 129.357 193.445 128.02 193.301 126.369C193.156 124.717 191.7 123.38 190.048 123.38C188.391 123.38 187.173 124.717 187.317 126.369Z" fill="black"/>
<path opacity="0.5" d="M188.379 134.022C188.504 135.447 189.76 136.609 191.191 136.609C192.623 136.609 193.678 135.453 193.552 134.022C193.427 132.597 192.171 131.435 190.739 131.435C189.308 131.441 188.253 132.597 188.379 134.022Z" fill="black"/>
<path opacity="0.5" d="M189.383 141.073C189.49 142.278 190.551 143.251 191.757 143.251C192.962 143.251 193.854 142.278 193.747 141.073C193.64 139.867 192.579 138.894 191.374 138.894C190.168 138.894 189.276 139.867 189.383 141.073Z" fill="black"/>
<path opacity="0.5" d="M190.281 146.912C190.369 147.891 191.229 148.689 192.208 148.689C193.188 148.689 193.916 147.891 193.828 146.912C193.74 145.932 192.88 145.135 191.901 145.135C190.921 145.135 190.199 145.932 190.281 146.912Z" fill="black"/>
<path d="M70.5094 90.3224L67.5773 41.7261C67.571 41.6633 67.571 41.6005 67.571 41.5377C67.5836 40.2506 68.6321 39.2146 69.9192 39.2272L199.384 38.9321C200.784 38.9572 201.933 40.0371 202.04 41.431L204.972 90.0274C204.978 90.0901 204.978 90.1592 204.978 90.222C204.966 91.5091 203.911 92.5388 202.624 92.5262L73.159 92.8213C71.7652 92.8025 70.6162 91.7163 70.5094 90.3224Z" fill="white"/>
<path d="M118.579 39.4718H83.0417L83.0166 39.2019L118.547 39.114L118.579 39.4718Z" fill="white"/>
<path d="M204.978 90.222C204.966 91.5029 203.911 92.5388 202.624 92.5263L73.159 92.8214C71.7589 92.8025 70.6099 91.7163 70.5094 90.3288L67.5773 41.7324C67.5773 41.6696 67.571 41.6068 67.571 41.5377C67.5836 40.2569 68.6384 39.2209 69.9255 39.2272L79.8708 39.2084L79.6699 36.8916C79.4816 34.782 81.0449 33.0742 83.1545 33.0742H111.05C113.16 33.0742 115.025 34.782 115.201 36.8916L115.401 39.1205L199.384 38.9321C200.778 38.9572 201.933 40.0434 202.034 41.4373L204.966 90.0274C204.978 90.0965 204.978 90.1592 204.978 90.222Z" fill="white"/>
<path d="M111.057 33.0681C113.167 33.0681 115.032 34.7759 115.207 36.8855L115.408 39.1144L199.391 38.926C200.785 38.9512 201.94 40.0374 202.04 41.4312L204.973 90.0213C204.979 90.0904 204.979 90.1532 204.979 90.2222C204.966 91.4968 203.924 92.5265 202.649 92.5265C202.643 92.5265 202.631 92.5265 202.624 92.5265L73.1596 92.8216C71.7595 92.8027 70.6105 91.7165 70.51 90.329L67.5779 41.7326C67.5779 41.6698 67.5716 41.607 67.5716 41.5379C67.5842 40.2571 68.6327 39.2274 69.9136 39.2274C69.9198 39.2274 69.9198 39.2274 69.9261 39.2274L79.8714 39.2086L79.6705 36.8918C79.4821 34.7822 81.0455 33.0744 83.1551 33.0744H111.057M111.057 31.1469H83.1614C81.598 31.1469 80.1665 31.7622 79.1431 32.886C78.1134 34.0099 77.6237 35.4917 77.7618 37.0613L77.7806 37.2873L69.9261 37.2999C67.5905 37.2999 65.6755 39.1897 65.6504 41.5128C65.6504 41.5945 65.6504 41.6572 65.6567 41.7263V41.7828L65.6629 41.8393L68.5951 90.4357C68.7771 92.8655 70.7298 94.7052 73.1408 94.7428L202.637 94.4477C204.979 94.4477 206.888 92.5579 206.913 90.2411C206.913 90.1155 206.913 90.0025 206.9 89.8832L203.968 41.3119C203.792 38.8884 201.84 37.0487 199.435 36.9985H199.416H199.397L117.179 37.1806L117.135 36.7097C116.859 33.5955 114.19 31.1469 111.057 31.1469Z" fill="#053F5C"/>
<path d="M103.31 28.4657H74.5536V64.6242H103.31V28.4657Z" fill="#053F5C"/>
<g opacity="0.2">
<path d="M77.9687 28.466L75.495 28.4598V28.466H74.5594V56.5125H75.495V54.472H77.9687V56.5125H78.9042V28.466H77.9687ZM75.4887 43.5033V39.4222H77.9624V43.5033H75.4887ZM77.9687 44.4388V48.5199H75.495V44.4388H77.9687ZM75.4887 38.4867V34.4056H77.9624V38.4867H75.4887ZM75.4887 33.4764V29.3953H77.9624V33.4764H75.4887ZM75.4887 53.5365V49.4554H77.9624V53.5365H75.4887Z" fill="black"/>
</g>
<g opacity="0.2">
<path d="M102.381 28.466L99.907 28.4598V28.466H98.9714V56.5125H99.907V54.472H102.381V56.5125H103.316V28.466H102.381ZM99.907 43.5033V39.4222H102.381V43.5033H99.907ZM102.381 44.4388V48.5199H99.907V44.4388H102.381ZM99.907 38.4867V34.4056H102.381V38.4867H99.907ZM99.907 33.4764V29.3953H102.381V33.4764H99.907ZM99.907 53.5365V49.4554H102.381V53.5365H99.907Z" fill="black"/>
</g>
<path opacity="0.2" d="M98.9712 56.4749L78.9048 56.5125V28.466H98.9712V56.4749Z" fill="white"/>
<path opacity="0.2" d="M97.2383 42.8564C97.2383 47.4398 93.5214 51.1567 88.938 51.1567C84.3546 51.1567 80.6377 47.4398 80.6377 42.8564C80.6377 38.273 84.3546 34.5561 88.938 34.5561C93.5214 34.5561 97.2383 38.273 97.2383 42.8564Z" fill="white"/>
<path d="M86.7024 38.5117L93.5963 43.3148L86.7024 48.1179V38.5117Z" fill="white"/>
<path d="M93.5966 43.3085L93.0692 43.679L86.6964 39.2463V38.5117L93.5966 43.3085Z" fill="#053F5C"/>
<path d="M85.5538 63.0549L85.5475 60.1856L84.1411 62.5526H83.6451L82.2449 60.2484V63.0549H81.209V58.2706H82.1257L83.9151 61.2404L85.6793 58.2706H86.5897L86.6023 63.0549H85.5538Z" fill="white"/>
<path d="M89.4649 61.1774L88.8245 61.8492V63.061H87.7257V58.2767H88.8245V60.5119L90.9404 58.2767H92.171L90.1869 60.4114L92.284 63.061H90.9906L89.4649 61.1774Z" fill="white"/>
<path d="M97.1061 58.2707L95.0341 63.055H93.9416L91.876 58.2707H93.0689L94.5255 61.6862L96.001 58.2707H97.1061Z" fill="white"/>
<path d="M134.659 36.5214H105.903V72.6799H134.659V36.5214Z" fill="#053F5C"/>
<g opacity="0.2">
<path d="M109.318 36.5211L106.845 36.5148V36.5211H105.909V64.5676H106.845V62.5271H109.318V64.5676H110.254V36.5211H109.318ZM106.838 51.5646V47.4836H109.312V51.5646H106.838ZM109.318 52.5002V56.5813H106.845V52.5002H109.318ZM106.838 46.548V42.467H109.312V46.548H106.838ZM106.838 41.5377V37.4566H109.312V41.5377H106.838ZM106.838 61.5916V57.5105H109.312V61.5916H106.838Z" fill="black"/>
</g>
<g opacity="0.2">
<path d="M133.729 36.5211L131.255 36.5148V36.5211H130.32V64.5676H131.255V62.5271H133.729V64.5676H134.665V36.5211H133.729ZM131.255 51.5646V47.4836H133.729V51.5646H131.255ZM133.729 52.5002V56.5813H131.255V52.5002H133.729ZM131.255 46.548V42.467H133.729V46.548H131.255ZM131.255 41.5377V37.4566H133.729V41.5377H131.255ZM131.255 61.5916V57.5105H133.729V61.5916H131.255Z" fill="black"/>
</g>
<path opacity="0.2" d="M130.32 64.5365L110.254 64.5679V36.5214H130.32V64.5365Z" fill="white"/>
<path opacity="0.2" d="M128.587 50.918C128.587 55.5014 124.87 59.2183 120.287 59.2183C115.703 59.2183 111.986 55.5014 111.986 50.918C111.986 46.3346 115.703 42.6177 120.287 42.6177C124.87 42.6114 128.587 46.3284 128.587 50.918Z" fill="white"/>
<path d="M118.052 46.5733L124.946 51.3764L118.052 56.1733V46.5733Z" fill="white"/>
<path d="M124.946 51.3702L124.425 51.7343L118.052 47.3016V46.5733L124.946 51.3702Z" fill="#053F5C"/>
<path d="M117.379 70.0928H115.157L114.736 71.1163H113.6L115.734 66.332H116.827L118.968 71.1163H117.806L117.379 70.0928ZM117.034 69.2515L116.274 67.4182L115.515 69.2515H117.034Z" fill="white"/>
<path d="M123.803 66.3319L121.731 71.1162H120.639L118.573 66.3319H119.766L121.223 69.7475L122.698 66.3319H123.803Z" fill="white"/>
<path d="M124.199 66.3319H125.304V71.1162H124.199V66.3319Z" fill="white"/>
<path d="M165.876 22.9093H137.12V59.0678H165.876V22.9093Z" fill="#053F5C"/>
<g opacity="0.2">
<path d="M140.529 22.9093L138.056 22.903V22.9093H137.12V50.9558H138.056V48.9153H140.529V50.9558H141.465V22.9093H140.529ZM138.056 37.9528V33.8717H140.529V37.9528H138.056ZM140.529 38.8821V42.9632H138.056V38.8821H140.529ZM138.056 32.9362V28.8551H140.529V32.9362H138.056ZM138.056 27.9196V23.8385H140.529V27.9196H138.056ZM138.056 47.9798V43.8987H140.529V47.9798H138.056Z" fill="black"/>
</g>
<g opacity="0.2">
<path d="M164.941 22.9093L162.467 22.903V22.9093H161.531V50.9558H162.467V48.9153H164.941V50.9558H165.876V22.9093H164.941ZM162.467 37.9528V33.8717H164.941V37.9528H162.467ZM164.941 38.882V42.9631H162.467V38.882H164.941ZM162.467 32.9362V28.8551H164.941V32.9362H162.467ZM162.467 27.9196V23.8385H164.941V27.9196H162.467ZM162.467 47.9797V43.8987H164.941V47.9797H162.467Z" fill="black"/>
</g>
<path opacity="0.2" d="M161.531 50.9179L141.465 50.9555V22.909H161.531V50.9179Z" fill="white"/>
<path opacity="0.2" d="M159.798 37.2999C159.798 41.8833 156.081 45.6002 151.498 45.6002C146.914 45.6002 143.198 41.8833 143.198 37.2999C143.198 32.7165 146.914 28.9996 151.498 28.9996C156.081 28.9996 159.798 32.7165 159.798 37.2999Z" fill="white"/>
<path d="M149.263 32.9615L156.163 37.7583L149.263 42.5615V32.9615Z" fill="white"/>
<path d="M156.163 37.7583L155.636 38.1225L149.263 33.6898V32.9615L156.163 37.7583Z" fill="#053F5C"/>
<path d="M148.114 57.5042L148.108 54.6348L146.701 57.0019H146.205L144.805 54.6976V57.5042H143.769V52.7199H144.686L146.475 55.6897L148.239 52.7199H149.15L149.162 57.5042H148.114Z" fill="white"/>
<path d="M154.436 54.453C154.436 55.5204 153.639 56.1797 152.358 56.1797H151.398V57.4982H150.292V52.7139H152.364C153.633 52.7201 154.436 53.3794 154.436 54.453ZM153.312 54.453C153.312 53.9256 152.973 53.618 152.295 53.618H151.391V55.2818H152.295C152.973 55.2818 153.312 54.9742 153.312 54.453Z" fill="white"/>
<path d="M159.158 56.4999H158.379V57.5044H157.299V56.4999H154.725V55.7527L156.979 52.7201H158.141L156.05 55.5957H157.337V54.6979H158.386V55.5957H159.164V56.4999H159.158Z" fill="white"/>
<path d="M197.012 29.119H168.256V65.2774H197.012V29.119Z" fill="#053F5C"/>
<g opacity="0.2">
<path d="M171.67 29.1184L169.196 29.1122V29.1184H168.261V57.165H169.196V55.1244H171.67V57.165H172.606V29.1184H171.67ZM169.19 44.162V40.0809H171.664V44.162H169.19ZM171.67 45.0975V49.1786H169.196V45.0975H171.67ZM169.19 39.1454V35.0643H171.664V39.1454H169.19ZM169.19 34.135V30.054H171.664V34.135H169.19ZM169.19 54.1952V50.1141H171.664V54.1952H169.19Z" fill="black"/>
</g>
<g opacity="0.2">
<path d="M196.082 29.1188L193.608 29.1125V29.1188H192.673V57.1653H193.608V55.1248H196.082V57.1653H197.017V29.1188H196.082ZM193.608 44.1623V40.0812H196.082V44.1623H193.608ZM196.082 45.0978V49.1789H193.608V45.0978H196.082ZM193.608 39.1457V35.0646H196.082V39.1457H193.608ZM193.608 34.1354V30.0543H196.082V34.1354H193.608ZM193.608 54.1955V50.1144H196.082V54.1955H193.608Z" fill="black"/>
</g>
<path opacity="0.2" d="M192.673 57.1342L172.606 57.1656V29.1191H192.673V57.1342Z" fill="white"/>
<path opacity="0.2" d="M182.64 51.816C187.224 51.816 190.94 48.0998 190.94 43.5157C190.94 38.9315 187.224 35.2154 182.64 35.2154C178.056 35.2154 174.339 38.9315 174.339 43.5157C174.339 48.0998 178.056 51.816 182.64 51.816Z" fill="white"/>
<path d="M180.404 39.171L187.298 43.9741L180.404 48.771V39.171Z" fill="white"/>
<path d="M187.305 43.9741L186.778 44.3383L180.411 39.9056V39.1773L187.305 43.9741Z" fill="#053F5C"/>
<path d="M179.255 63.7138L179.249 60.8445L177.843 63.2116H177.347L175.946 60.9073V63.7138H174.91V58.9296H175.815L177.604 61.8993L179.368 58.9296H180.279L180.291 63.7138H179.255Z" fill="white"/>
<path d="M181.126 61.3221C181.126 59.9031 182.231 58.8483 183.744 58.8483C185.245 58.8483 186.362 59.8906 186.362 61.3221C186.362 62.7473 185.251 63.7958 183.744 63.7958C182.231 63.7958 181.126 62.741 181.126 61.3221ZM185.238 61.3221C185.238 60.4117 184.598 59.7901 183.744 59.7901C182.89 59.7901 182.25 60.4117 182.25 61.3221C182.25 62.2325 182.89 62.8541 183.744 62.8541C184.598 62.8541 185.238 62.2325 185.238 61.3221Z" fill="white"/>
<path d="M191.63 58.9297L189.558 63.714H188.466L186.4 58.9297H187.593L189.049 62.3452L190.525 58.9297H191.63Z" fill="white"/>
<path d="M144.685 89.0539H135.342C133.528 89.0539 131.921 87.5785 131.764 85.7639L131.688 84.9352C131.531 83.1206 132.875 81.6452 134.689 81.6452H144.032L144.685 89.0539Z" fill="#053F5C"/>
<path d="M150.355 88.4635L144.987 85.8013L144.855 84.2945L149.758 81.6386L150.355 88.4635Z" fill="#053F5C"/>
<path d="M151.064 88.4636H150.355L149.758 81.6388H150.468L151.064 88.4636Z" fill="#053F5C"/>
<path d="M137.735 78.4492C137.861 79.8744 136.806 81.0359 135.374 81.0359C133.949 81.0359 132.687 79.8807 132.561 78.4492C132.436 77.0239 133.491 75.8624 134.922 75.8624C136.354 75.8686 137.609 77.0239 137.735 78.4492Z" fill="#053F5C"/>
<path d="M142.908 78.4489C143.034 79.8742 141.979 81.0357 140.547 81.0357C139.122 81.0357 137.86 79.8805 137.735 78.4489C137.609 77.0237 138.664 75.8622 140.095 75.8622C141.521 75.8684 142.782 77.0237 142.908 78.4489Z" fill="#053F5C"/>
<path d="M187.581 104.939C187.248 106.145 186.752 107.3 186.112 108.374C186.828 108.907 187.927 108.474 187.927 108.474L187.581 104.939Z" fill="#A02724"/>
<path d="M201.463 108.582L198.475 111.702L194.394 115.953C194.726 116.449 194.971 116.995 195.103 117.579C195.467 118.853 195.781 119.789 193.019 121.026C192.416 121.271 192.014 121.848 191.983 122.495C191.989 123.28 192.598 124.134 195.335 124.184C197.979 124.171 200.547 123.317 202.663 121.742C203.705 121.001 203.598 120.323 202.951 119.255C201.036 116.216 201.08 111.953 201.463 108.582Z" fill="#FF8B7B"/>
<path d="M186.614 104.733C186.583 105.153 186.734 105.505 186.947 105.524C187.167 105.543 187.368 105.216 187.399 104.796C187.43 104.375 187.28 104.023 187.066 104.004C186.847 103.986 186.646 104.312 186.614 104.733Z" fill="#263238"/>
<path d="M186.985 102.384C187.915 102.246 188.907 102.629 189.503 103.357" stroke="#263238" stroke-miterlimit="10" stroke-linecap="round" stroke-linejoin="round"/>
<path d="M187.55 110.421C188.203 112.825 189.942 114.621 192.008 115.469C192.742 115.77 193.521 115.952 194.312 115.996C196.133 116.09 197.991 115.456 199.467 113.893C202.06 111.143 201.89 108.035 202.06 102.748C202.104 101.675 201.909 100.607 201.501 99.6215C199.931 95.8732 195.63 94.1026 191.876 95.6597C186.759 97.8195 186.269 105.687 187.55 110.421Z" fill="#FF8B7B"/>
<path opacity="0.2" d="M192.008 115.469C192.742 115.77 193.521 115.952 194.312 115.996L194.4 115.958L193.898 114.979C193.898 114.973 193.59 115.808 192.008 115.469Z" fill="black"/>
<path d="M204.169 106.164C203.604 108.072 202.832 110.025 201.388 111.394C200.854 111.902 196.245 112.373 196.245 112.373C196.026 110.816 193.169 105.812 191.92 104.18C191.75 104.964 191.455 108.324 191.197 109.064C190.676 109.052 189.854 108.261 189.854 108.261C190.695 106.082 190.896 103.715 190.457 101.423L190.275 100.475C190.256 100.676 187.229 102.108 185.748 99.3388C180.216 88.9854 194.406 90.8188 198.343 94.8622C199.611 94.2155 201.218 94.5106 202.355 95.3582C203.497 96.2121 204.194 97.5432 204.558 98.9119C205.174 101.285 204.86 103.809 204.169 106.164Z" fill="#263238"/>
<path d="M199.988 92.5579C199.259 92.4951 198.55 93.0162 198.286 93.7006C198.129 94.1087 197.972 95.0944 198.431 95.3016C198.939 94.3535 199.278 93.4055 199.988 92.5579Z" fill="#263238"/>
<path d="M195.455 105.561C195.216 106.729 194.55 107.765 193.59 108.475C192.353 109.372 191.104 108.098 191.116 106.597C191.129 105.247 192.014 103.383 193.42 103.088C194.82 102.786 195.743 104.117 195.455 105.561Z" fill="#FF8B7B"/>
<path d="M170.566 227.887L165.436 226.362L166.993 214.244L173.303 216.492L170.566 227.887Z" fill="#FF8B7B"/>
<path opacity="0.2" d="M174.013 213.113L167.351 210.633L166.353 219.348L172.261 221.006L174.013 213.113Z" fill="black"/>
<path d="M165.003 225.494L170.849 227.083C171.056 227.127 171.188 227.359 171.15 227.604L170.265 233.173C170.133 233.77 169.624 234.146 169.116 234.021C167.094 233.431 166.146 233.029 163.578 232.332C161.996 231.905 158.386 230.875 156.169 230.467C153.953 230.059 154.405 227.472 155.378 227.403C159.754 227.133 162.266 226.606 164.024 225.633C164.331 225.457 164.677 225.413 165.003 225.494Z" fill="#263238"/>
<path d="M162.272 226.323C162.737 226.417 163.207 226.467 163.678 226.461C163.729 226.461 163.773 226.436 163.791 226.392C163.816 226.354 163.823 226.304 163.798 226.26C163.659 226.103 162.416 224.747 161.726 224.841C161.562 224.86 161.424 224.96 161.362 225.111C161.236 225.331 161.23 225.601 161.355 225.821C161.588 226.091 161.914 226.273 162.272 226.323ZM163.421 226.21C162.441 226.141 161.763 225.978 161.575 225.676C161.506 225.532 161.512 225.356 161.606 225.224C161.632 225.149 161.701 225.092 161.782 225.08C162.14 225.03 162.906 225.676 163.421 226.21Z" fill="#053F5C"/>
<path d="M163.684 226.461C163.684 226.461 163.722 226.461 163.741 226.467C163.785 226.455 163.816 226.424 163.829 226.38C163.835 226.317 164.325 224.841 163.917 224.213C163.816 224.044 163.64 223.931 163.44 223.918C163.226 223.874 163.006 223.981 162.912 224.176C162.655 224.716 163.176 225.99 163.615 226.424C163.64 226.449 163.659 226.461 163.684 226.461ZM163.477 224.176C163.578 224.201 163.659 224.264 163.716 224.345C163.885 224.917 163.86 225.526 163.659 226.078C163.264 225.563 163.082 224.923 163.151 224.283C163.157 224.213 163.239 224.138 163.421 224.157L163.477 224.176Z" fill="#053F5C"/>
<path d="M196.553 162.213C196.553 162.213 167.853 162.119 166.924 177.966C166.014 189.104 165.436 193.669 165.989 217.936L173.63 218.356C173.63 218.356 181.403 192.093 180.354 181.664C188.918 181.664 208.513 182.418 211.364 174.689C212.777 170.764 213.467 166.621 213.392 162.452L196.553 162.213Z" fill="#053F5C"/>
<g opacity="0.3">
<path d="M196.553 162.213C196.553 162.213 167.853 162.119 166.924 177.966C166.014 189.104 165.436 193.669 165.989 217.936L173.63 218.356C173.63 218.356 181.403 192.093 180.354 181.664C188.918 181.664 208.513 182.418 211.364 174.689C212.777 170.764 213.467 166.621 213.392 162.452L196.553 162.213Z" fill="black"/>
</g>
<path d="M174.848 219.838L164.865 218.124L165.028 213.71L175.363 216.008L174.848 219.838Z" fill="#053F5C"/>
<path d="M150.757 229.476L145.922 227.184L149.307 215.449L155.202 218.626L150.757 229.476Z" fill="#FF8B7B"/>
<path opacity="0.2" d="M156.42 215.4L150.217 211.934L147.894 220.397L153.482 222.934L156.42 215.4Z" fill="black"/>
<path d="M145.628 226.262L151.159 228.723C151.354 228.798 151.454 229.049 151.379 229.288L149.652 234.656C149.433 235.227 148.867 235.523 148.39 235.315C146.482 234.424 145.603 233.878 143.173 232.798C141.672 232.132 138.263 230.562 136.134 229.828C134.006 229.087 134.847 226.594 135.82 226.682C140.184 227.084 142.752 226.946 144.636 226.255C144.968 226.123 145.314 226.13 145.628 226.262Z" fill="#263238"/>
<path d="M142.803 226.662C143.242 226.826 143.7 226.945 144.171 227.014C144.222 227.027 144.266 227.002 144.291 226.964C144.322 226.926 144.335 226.876 144.322 226.832C144.209 226.656 143.192 225.13 142.489 225.112C142.325 225.105 142.169 225.187 142.087 225.325C141.924 225.52 141.886 225.783 141.974 226.022C142.156 226.33 142.457 226.562 142.803 226.662ZM143.952 226.725C142.997 226.506 142.344 226.248 142.212 225.915C142.162 225.758 142.2 225.595 142.313 225.476C142.351 225.407 142.426 225.363 142.508 225.363C142.872 225.369 143.525 226.123 143.952 226.725Z" fill="#053F5C"/>
<path d="M144.171 227.021C144.171 227.021 144.202 227.027 144.227 227.033C144.271 227.027 144.309 227.002 144.327 226.964C144.34 226.902 145.05 225.52 144.742 224.836C144.667 224.654 144.51 224.516 144.315 224.472C144.108 224.39 143.875 224.465 143.756 224.648C143.417 225.144 143.737 226.481 144.108 226.977C144.133 226.996 144.152 227.015 144.171 227.021ZM144.315 224.729C144.409 224.767 144.484 224.842 144.522 224.936C144.604 225.527 144.491 226.123 144.202 226.644C143.894 226.079 143.806 225.414 143.97 224.792C143.982 224.723 144.076 224.666 144.258 224.71L144.315 224.729Z" fill="#053F5C"/>
<path d="M187.512 162.213C187.311 162.213 155.548 159.124 153.419 177.181C150.047 199.294 147.925 217.936 147.925 217.936L154.618 221.251C154.618 221.251 166.271 197.656 166.096 182.851C175.407 180.176 199.498 184.665 202.348 176.949C204.684 170.633 203.422 162.213 203.422 162.213H187.512Z" fill="#053F5C"/>
<path opacity="0.3" d="M187.512 162.213C187.311 162.213 155.548 159.124 153.419 177.181C150.047 199.294 147.925 217.936 147.925 217.936L154.618 221.251C154.618 221.251 166.271 197.656 166.096 182.851C175.407 180.176 199.498 184.665 202.348 176.949C204.684 170.633 203.422 162.213 203.422 162.213H187.512Z" fill="black"/>
<path d="M155.686 222.211L146.713 218.174L147.435 214.501L156.897 217.766L155.686 222.211Z" fill="#053F5C"/>
<path d="M202.869 122.978C203.591 124.962 204.156 126.864 204.721 128.836C205.286 130.807 205.764 132.773 206.184 134.782C206.611 136.791 206.95 138.838 207.183 140.954C207.446 143.151 207.478 145.367 207.283 147.571C207.164 148.865 206.856 150.133 206.373 151.338C206.071 152.079 205.669 152.77 205.173 153.398C204.891 153.756 204.571 154.082 204.219 154.371L203.937 154.603C203.78 154.71 203.61 154.829 203.453 154.917C203.183 155.068 202.901 155.193 202.605 155.294C202.172 155.445 201.72 155.545 201.268 155.595C200.91 155.639 200.546 155.658 200.188 155.658C199.573 155.646 198.958 155.589 198.349 155.495C197.262 155.344 196.189 155.131 195.134 154.848C191.191 153.768 187.367 152.299 183.713 150.459L184.881 147.213C188.673 148.011 192.541 148.846 196.214 149.336C197.131 149.417 198.022 149.536 198.857 149.568C199.228 149.58 199.604 149.568 199.975 149.524C200.282 149.499 200.552 149.411 200.458 149.411C200.395 149.423 200.339 149.449 200.282 149.48C200.22 149.511 200.157 149.549 200.1 149.593C200.1 149.593 200.132 149.549 200.163 149.492C200.257 149.329 200.333 149.153 200.389 148.971C200.584 148.318 200.697 147.647 200.728 146.968C200.791 145.229 200.684 143.49 200.414 141.776C200.163 139.93 199.786 138.122 199.366 136.276C198.945 134.43 198.474 132.584 197.947 130.738C197.419 128.892 196.848 127.034 196.283 125.288L202.869 122.978Z" fill="#FF8B7B"/>
<path d="M186.463 148.268L182.659 145.662L180.266 149.819C180.266 149.819 184.774 152.18 185.861 151.049L186.463 148.268Z" fill="#FF8B7B"/>
<path d="M179.343 146.196L177.265 148.934L180.273 149.788L182.665 145.631L179.343 146.196Z" fill="#FF8B7B"/>
<path d="M163.039 144.608L157.463 143.974L155.862 150.102C155.862 150.102 162.235 150.152 163.24 148.331L163.039 144.608Z" fill="#FF8B7B"/>
<path d="M153.281 146.246L152.327 148.595C152.038 149.298 152.553 150.07 153.313 150.076L155.862 150.102L157.463 143.974L153.827 145.675C153.576 145.794 153.388 145.995 153.281 146.246Z" fill="#FF8B7B"/>
<path d="M211.502 121.716C211.05 120.504 208.928 119.292 207.622 119.292H206.762C205.261 119.292 203.384 119.412 201.57 119.625C198.104 120.008 194.669 120.586 191.266 121.358C189.703 121.772 188.196 122.294 186.997 122.739C186.984 122.746 186.966 122.752 186.953 122.758C185.559 123.311 184.724 124.748 184.931 126.236C185.471 130.136 186.501 138.065 187.116 145.958C187.6 152.117 187.399 158.232 187.549 162.433H213.398C214.29 157.378 214.152 152.971 214.221 143.848C214.265 138.367 213.373 126.701 211.502 121.716Z" fill="#053F5C"/>
<path opacity="0.8" d="M211.502 121.716C211.05 120.504 208.928 119.292 207.622 119.292H206.762C205.261 119.292 203.384 119.412 201.57 119.625C198.104 120.008 194.669 120.586 191.266 121.358C189.703 121.772 188.196 122.294 186.997 122.739C186.984 122.746 186.966 122.752 186.953 122.758C185.559 123.311 184.724 124.748 184.931 126.236C185.471 130.136 186.501 138.065 187.116 145.958C187.6 152.117 187.399 158.232 187.549 162.433H213.398C214.29 157.378 214.152 152.971 214.221 143.848C214.265 138.367 213.373 126.701 211.502 121.716Z" fill="white"/>
<path d="M189.157 123.06C191.273 123.857 192.334 126.224 191.518 128.327C189.672 133.105 186.57 140.677 185.201 143.346C184.68 144.294 184.159 145.236 183.563 146.184C183.268 146.661 182.935 147.138 182.577 147.628C182.382 147.879 182.225 148.105 181.993 148.362L181.66 148.745L181.472 148.959C180.944 149.505 180.298 149.926 179.588 150.19C179.212 150.334 178.829 150.453 178.439 150.547C177.799 150.686 177.152 150.773 176.505 150.805C175.382 150.874 174.258 150.861 173.134 150.78C168.977 150.434 164.865 149.668 160.865 148.488L160.445 144.244C164.394 144.357 168.425 144.489 172.192 144.3C173.077 144.25 173.963 144.162 174.842 144.018C175.193 143.955 175.545 143.867 175.884 143.754C175.997 143.716 176.104 143.666 176.198 143.603C176.236 143.597 176.192 143.559 176.041 143.679C175.984 143.716 175.934 143.76 175.89 143.817C175.89 143.817 175.928 143.76 175.947 143.741L176.097 143.54C176.198 143.421 176.311 143.227 176.424 143.07C176.644 142.731 176.863 142.373 177.083 141.983C177.516 141.217 177.931 140.376 178.339 139.522C179.155 137.814 179.896 136.012 180.618 134.198C181.127 132.911 182.627 128.993 183.895 125.489C184.668 123.355 187.035 122.262 189.157 123.06Z" fill="#053F5C"/>
<path opacity="0.2" d="M186.552 139.767C186.746 142.09 186.671 141.337 186.884 143.773C193.201 134.022 191.11 127.587 191.11 127.587L186.552 139.767Z" fill="black"/>
<path opacity="0.8" d="M189.157 123.06C191.273 123.857 192.334 126.224 191.518 128.327C189.672 133.105 186.57 140.677 185.201 143.346C184.68 144.294 184.159 145.236 183.563 146.184C183.268 146.661 182.935 147.138 182.577 147.628C182.382 147.879 182.225 148.105 181.993 148.362L181.66 148.745L181.472 148.959C180.944 149.505 180.298 149.926 179.588 150.19C179.212 150.334 178.829 150.453 178.439 150.547C177.799 150.686 177.152 150.773 176.505 150.805C175.382 150.874 174.258 150.861 173.134 150.78C168.977 150.434 164.865 149.668 160.865 148.488L160.445 144.244C164.394 144.357 168.425 144.489 172.192 144.3C173.077 144.25 173.963 144.162 174.842 144.018C175.193 143.955 175.545 143.867 175.884 143.754C175.997 143.716 176.104 143.666 176.198 143.603C176.236 143.597 176.192 143.559 176.041 143.679C175.984 143.716 175.934 143.76 175.89 143.817C175.89 143.817 175.928 143.76 175.947 143.741L176.097 143.54C176.198 143.421 176.311 143.227 176.424 143.07C176.644 142.731 176.863 142.373 177.083 141.983C177.516 141.217 177.931 140.376 178.339 139.522C179.155 137.814 179.896 136.012 180.618 134.198C181.127 132.911 182.627 128.993 183.895 125.489C184.668 123.355 187.035 122.262 189.157 123.06Z" fill="white"/>
<path d="M180.675 234.637C180.675 236.093 179.495 237.274 178.038 237.274C176.581 237.274 175.401 236.093 175.401 234.637C175.401 233.18 176.581 232 178.038 232C179.495 232 180.675 233.18 180.675 234.637Z" fill="#263238"/>
<path d="M219.382 234.637C219.382 236.093 220.563 237.274 222.019 237.274C223.476 237.274 224.656 236.093 224.656 234.637C224.656 233.18 223.476 232 222.019 232C220.563 232 219.382 233.18 219.382 234.637Z" fill="#263238"/>
<path d="M196.554 233.795C196.554 235.252 197.734 236.432 199.191 236.432C200.647 236.432 201.828 235.252 201.828 233.795C201.828 232.338 200.647 231.158 199.191 231.158C197.734 231.158 196.554 232.338 196.554 233.795Z" fill="#263238"/>
<path d="M227.758 231.096C227.639 231.711 227.086 232.144 226.458 232.125L198.97 231.749L173.228 232.333C172.6 232.351 172.054 231.912 171.935 231.303C171.797 230.606 172.249 229.94 172.939 229.796L186.997 227.065C188.46 226.795 189.936 226.65 191.417 226.65H206.524C208.005 226.65 209.487 226.789 210.937 227.065L226.734 229.595C227.438 229.733 227.896 230.399 227.758 231.096Z" fill="#263238"/>
<path d="M203.649 203.72H194.3V230.63H203.649V203.72Z" fill="#263238"/>
<path d="M202.311 186.674H195.643V203.859H202.311V186.674Z" fill="#263238"/>
<path opacity="0.2" d="M195.643 189.858L202.311 191.534V186.674H195.643V189.858Z" fill="black"/>
<path d="M174.397 162.118H171.012V176.571H174.397V162.118Z" fill="#263238"/>
<path d="M174.397 162.118H171.012V176.571H174.397V162.118Z" fill="#263238"/>
<path d="M196.855 129.721C196.798 130.117 196.767 130.512 196.767 130.908V186.668H191.386V130.908C191.386 130.864 191.386 130.82 191.392 130.776L196.855 129.721Z" fill="#263238"/>
<path d="M228.185 186.605V186.668H227.281C227.589 186.668 227.884 186.643 228.185 186.605Z" fill="#263238"/>
<path d="M233.566 129.363L233.164 122.739C233.051 120.868 232.273 119.098 230.979 117.741L226.754 113.327L224.582 102.29C224.249 100.569 222.742 99.3325 220.984 99.3325H211.258C209.695 99.3325 208.301 100.324 207.793 101.813L203.718 113.685L195.945 118.47C193.955 119.694 192.611 121.735 192.266 124.039L191.261 130.801L191.374 130.776L196.843 129.715C196.786 130.11 196.755 130.506 196.755 130.901V186.662H227.269C227.583 186.662 227.878 186.636 228.173 186.599H228.179C231.224 186.159 233.56 183.535 233.56 180.377V130.418C233.56 130.06 233.535 129.702 233.491 129.344L233.566 129.363ZM207.767 125.15L198.343 126.048L197.929 126.092L198.94 121.778L205.25 118.733L207.353 117.722L207.767 118.733L207.836 118.903L208.219 119.832L207.767 125.15ZM226.421 125.263L225.234 124.962C225.191 124.598 225.14 124.221 225.096 123.85C224.833 121.785 224.594 119.838 224.594 119.838L224.688 119.154L224.883 117.722L229.372 121.778L229.435 122.745L229.667 126.092L226.421 125.263Z" fill="#263238"/>
<path d="M196.761 174.519V186.668H161.281C158.876 186.674 156.923 184.722 156.917 182.317C156.917 181.526 157.13 180.766 157.526 180.088C159.567 176.641 163.271 174.519 167.277 174.519H196.761Z" fill="#263238"/>
<path d="M184.209 166.532C176.757 163.933 168.638 163.933 161.186 166.532C159.641 167.116 157.896 166.451 157.13 164.988C156.439 163.525 157.368 161.635 159.246 160.976C167.954 157.937 177.428 157.937 186.137 160.976C188.014 161.629 188.943 163.525 188.253 164.988C187.48 166.444 185.748 167.103 184.209 166.532Z" fill="#263238"/>
<path opacity="0.4" d="M184.209 166.532C176.757 163.933 168.638 163.933 161.186 166.532C159.641 167.116 157.896 166.451 157.13 164.988C156.439 163.525 157.368 161.635 159.246 160.976C167.954 157.937 177.428 157.937 186.137 160.976C188.014 161.629 188.943 163.525 188.253 164.988C187.48 166.444 185.748 167.103 184.209 166.532Z" fill="#263238"/>
</svg>
