<svg width="310" height="252" viewBox="0 0 310 252" fill="none" xmlns="http://www.w3.org/2000/svg">
<rect width="310" height="252" rx="5" fill="#F7AD19" fill-opacity="0.1"/>
<path d="M148.302 195.129H28.5355C26.5817 195.123 25 193.508 25 191.512V19.5854C25.0186 17.6028 26.5941 16.0066 28.5355 16.0003H148.302C150.256 16.0003 151.844 17.6218 151.844 19.617V191.512C151.844 193.508 150.256 195.129 148.302 195.129ZM28.5355 16.1269C26.6685 16.1333 25.1551 17.6788 25.1551 19.5854V191.512C25.1551 193.419 26.6685 194.964 28.5355 194.971H148.302C150.169 194.964 151.682 193.419 151.688 191.512V19.5854C151.682 17.6788 150.169 16.1333 148.302 16.1269H28.5355Z" fill="#E6E6E6"/>
<path d="M282.471 195.129H162.698C160.744 195.122 159.162 193.507 159.156 191.512V19.5851C159.175 17.6025 160.757 16.0063 162.698 16H282.471C284.412 16.0063 285.981 17.6025 286 19.5851V191.512C286 193.507 284.424 195.122 282.471 195.129ZM162.698 16.1267C160.831 16.133 159.318 17.6785 159.311 19.5851V191.512C159.318 193.419 160.831 194.964 162.698 194.97H282.471C284.338 194.964 285.851 193.419 285.857 191.512V19.5851C285.851 17.6785 284.338 16.133 282.471 16.1267H162.698Z" fill="#E6E6E6"/>
<path d="M256.259 51.148H226.728V72.2216H256.259V51.148Z" fill="#E6E6E6"/>
<path d="M240.045 51.148H226.728V72.2216H240.045V51.148Z" fill="#F0F0F0"/>
<path opacity="0.4" d="M233.371 54.0109C235.803 54.0109 237.769 56.0188 237.769 58.5018C237.769 60.9847 235.803 62.9927 233.371 62.9927C230.94 62.9927 228.974 60.9847 228.974 58.5018C228.974 56.0188 230.946 54.0109 233.371 54.0109Z" fill="#E0E0E0"/>
<path d="M235.517 67.2618C235.517 68.4716 234.555 69.4534 233.37 69.4534C232.186 69.4534 231.224 68.4716 231.224 67.2618C231.224 66.052 232.186 65.0702 233.37 65.0702C234.555 65.0639 235.517 66.0457 235.517 67.2618Z" fill="#E0E0E0"/>
<path d="M233.34 60.0855C234.032 60.0855 234.593 59.5127 234.593 58.806C234.593 58.0994 234.032 57.5265 233.34 57.5265C232.648 57.5265 232.087 58.0994 232.087 58.806C232.087 59.5127 232.648 60.0855 233.34 60.0855Z" fill="#FAFAFA"/>
<path d="M193.209 43.6049H180.438V72.2351H193.209V43.6049Z" fill="#F0F0F0"/>
<path d="M209.807 43.6052H192.861V72.2354H209.807V43.6052Z" fill="#E6E6E6"/>
<path d="M186.777 52.6943C187.751 52.6943 188.545 53.505 188.545 54.4995C188.545 55.4939 187.751 56.3047 186.777 56.3047C185.803 56.3047 185.009 55.4939 185.009 54.4995C185.009 53.505 185.803 52.6943 186.777 52.6943Z" fill="white"/>
<path d="M186.777 49.8758C187.267 49.8758 187.664 50.2812 187.664 50.7816C187.664 51.282 187.267 51.6873 186.777 51.6873C186.287 51.6873 185.89 51.282 185.89 50.7816C185.89 50.2812 186.293 49.8758 186.777 49.8758Z" fill="white"/>
<path d="M186.777 47.1392C187.267 47.1392 187.664 47.5445 187.664 48.0449C187.664 48.5453 187.267 48.9507 186.777 48.9507C186.287 48.9507 185.89 48.5453 185.89 48.0449C185.89 47.5445 186.293 47.1392 186.777 47.1392Z" fill="white"/>
<path d="M209.503 59.6622H180.722V60.1119H209.503V59.6622Z" fill="#E0E0E0"/>
<path d="M209.503 62.2019H180.723V62.6516H209.503V62.2019Z" fill="#E0E0E0"/>
<path d="M209.503 64.7423H180.723V65.192H209.503V64.7423Z" fill="#E0E0E0"/>
<path d="M209.503 67.2819H180.723V67.7316H209.503V67.2819Z" fill="#E0E0E0"/>
<path d="M209.503 69.8223H180.723V70.272H209.503V69.8223Z" fill="#E0E0E0"/>
<path d="M187.081 60.435H185.865V61.6765H187.081V60.435Z" fill="#E0E0E0"/>
<path d="M187.081 63.1081H185.865V64.3496H187.081V63.1081Z" fill="#E0E0E0"/>
<path d="M187.081 65.5147H185.865V66.7562H187.081V65.5147Z" fill="#E0E0E0"/>
<path d="M187.081 68.1117H185.865V69.3532H187.081V68.1117Z" fill="#E0E0E0"/>
<path d="M187.081 70.6327H185.865V71.8742H187.081V70.6327Z" fill="#E0E0E0"/>
<path d="M156.036 100.428H155.416V76.1684C155.416 73.4447 157.587 71.2278 160.254 71.2278H180.722V71.8612H160.254C157.928 71.8612 156.036 73.7931 156.036 76.1684V100.428Z" fill="#E0E0E0"/>
<path d="M154.796 100.46H154.176V75.9848C154.176 72.6784 156.806 69.9927 160.043 69.9927H180.723V70.6261H160.043C157.153 70.6261 154.796 73.0268 154.796 75.9848V100.46Z" fill="#E0E0E0"/>
<path d="M86.8833 39.6074H67.4629V60.719H86.8833V39.6074Z" fill="#E6E6E6"/>
<path d="M91.8578 39.6074H86.8833V60.719H91.8578V39.6074Z" fill="#F5F5F5"/>
<path d="M76.9592 36.352H62.3706V60.7194H76.9592V36.352Z" fill="#E6E6E6"/>
<path d="M81.1714 36.352H76.9536V60.7194H81.1714V36.352Z" fill="#F5F5F5"/>
<path d="M72.6606 39.6074H60.3608V60.719H72.6606V39.6074Z" fill="#EBEBEB"/>
<path d="M75.4709 39.6074H72.6611V60.719H75.4709V39.6074Z" fill="#F5F5F5"/>
<path d="M62.5942 43.1802H46.4612V60.7193H62.5942V43.1802Z" fill="#E6E6E6"/>
<path d="M66.7252 43.1802H62.5942V60.7193H66.7252V43.1802Z" fill="#F5F5F5"/>
<path d="M54.3514 40.4756H42.2314V60.7194H54.3514V40.4756Z" fill="#E6E6E6"/>
<path d="M57.8494 40.4756H54.345V60.7194H57.8494V40.4756Z" fill="#F5F5F5"/>
<path d="M50.7779 43.1802H39.0054V60.7193H50.7779V43.1802Z" fill="#E6E6E6"/>
<path d="M53.1169 43.1802H50.7847V60.7193H53.1169V43.1802Z" fill="#F0F0F0"/>
<path d="M25.2461 66.8215L151.78 66.8215V60.7091L25.2461 60.7091V66.8215Z" fill="#E6E6E6"/>
<path d="M47.9502 66.965H54.953L49.8544 74.8257H47.9502V66.965Z" fill="#E0E0E0"/>
<path d="M47.9563 66.9649H46.9453V74.8255H47.9563V66.9649Z" fill="#E0E0E0"/>
<path d="M126.543 66.965H133.54L128.441 74.8257H126.543V66.965Z" fill="#E0E0E0"/>
<path d="M126.543 66.9649H125.532V74.8255H126.543V66.9649Z" fill="#E0E0E0"/>
<path d="M285.901 72.2345H159.368V78.3469H285.901V72.2345Z" fill="#E6E6E6"/>
<path d="M263.192 86.3468H261.294L256.196 78.4862H263.192V86.3468Z" fill="#E0E0E0"/>
<path d="M264.204 78.4859H263.193V86.3465H264.204V78.4859Z" fill="#E0E0E0"/>
<path d="M184.6 86.3468H182.702L177.603 78.4862H184.6V86.3468Z" fill="#E0E0E0"/>
<path d="M185.61 78.4859H184.599V86.3465H185.61V78.4859Z" fill="#E0E0E0"/>
<path d="M122.909 48.4057C122.909 47.4746 122.772 46.5752 122.518 45.7264L124.819 43.6615L123.368 41.0962L120.465 42.097C119.262 40.7858 117.692 39.8357 115.925 39.4176L115.323 36.3519H112.426L111.825 39.4176C110.057 39.8357 108.481 40.7858 107.278 42.097L104.375 41.0962L102.924 43.6615L105.225 45.7264C104.971 46.5752 104.834 47.4746 104.834 48.4057C104.834 49.3369 104.971 50.2363 105.225 51.0851L102.924 53.15L104.375 55.7153L107.278 54.7145C108.481 56.0257 110.051 56.9758 111.825 57.4002L112.426 60.4659H115.323L115.925 57.4002C117.692 56.9758 119.268 56.0257 120.465 54.7145L123.368 55.7153L124.819 53.15L122.518 51.0851C122.772 50.2363 122.909 49.3369 122.909 48.4057ZM113.871 53.3844C111.279 53.3844 109.176 51.2371 109.176 48.5894C109.176 45.9418 111.279 43.7945 113.871 43.7945C116.464 43.7945 118.567 45.9418 118.567 48.5894C118.567 51.2371 116.464 53.3844 113.871 53.3844Z" fill="#F0F0F0"/>
<path d="M138.576 49.9577C138.26 49.432 137.882 48.9759 137.46 48.5895L138.055 46.6196L136.381 45.6885L135.09 47.272C133.974 46.9553 132.771 46.9743 131.636 47.3607L130.265 45.8469L128.64 46.8667L129.334 48.7986C128.485 49.6537 127.92 50.7431 127.684 51.8959L125.718 52.352L125.768 54.2966L127.753 54.6513C127.895 55.215 128.125 55.7661 128.435 56.2918C128.751 56.8176 129.13 57.2736 129.558 57.66L128.962 59.6299L130.637 60.561L131.927 58.9775C133.044 59.2942 134.247 59.2752 135.382 58.8888L136.753 60.4027L138.378 59.3829L137.683 57.451C138.533 56.5895 139.097 55.5064 139.333 54.3473L141.299 53.8912L141.25 51.9466L139.265 51.5919C139.116 51.0282 138.886 50.4771 138.576 49.9577ZM135.177 55.9244C133.72 56.8366 131.822 56.3678 130.928 54.8793C130.035 53.3908 130.494 51.4462 131.952 50.5404C133.41 49.6283 135.314 50.0971 136.201 51.5856C137.094 53.0678 136.635 55.0123 135.177 55.9244Z" fill="#F0F0F0"/>
<path d="M282.142 151.797H29.3113V155.046H282.142V151.797Z" fill="#FFC727"/>
<path d="M44.3713 154.128V231.62H46.3438L48.8248 154.128H44.3713Z" fill="#FFC727"/>
<path d="M67.6562 156.662V228.453H69.6287L72.1097 156.662H67.6562Z" fill="#FFC727"/>
<path opacity="0.5" d="M67.6562 156.662V228.453H69.6287L72.1097 156.662H67.6562Z" fill="black"/>
<path d="M267.982 154.128V231.62H266.016L263.529 154.128H267.982Z" fill="#FFC727"/>
<path d="M244.703 156.662V228.453H242.731L240.25 156.662H244.703Z" fill="#FFC727"/>
<path opacity="0.5" d="M244.703 156.662V228.453H242.731L240.25 156.662H244.703Z" fill="black"/>
<path d="M272.479 158.524H39.7192L34.571 155.046H277.627L272.479 158.524Z" fill="#FFC727"/>
<path opacity="0.5" d="M272.479 158.524H39.7192L34.571 155.046H277.627L272.479 158.524Z" fill="black"/>
<path d="M45.9272 141.834V144.342C45.9272 144.767 46.0885 145.159 46.38 145.463L48.3463 147.471C48.5261 147.655 48.7432 147.782 48.9851 147.858C49.7853 149.619 51.5344 150.847 53.5627 150.847H54.3008C57.092 150.847 59.3497 148.535 59.3497 145.691V139.782H48.5137V140.263H47.4779C46.6281 140.257 45.9272 140.966 45.9272 141.834ZM47.1678 141.834C47.1678 141.663 47.3042 141.517 47.4779 141.517H48.5137V145.679C48.5137 145.736 48.5199 145.793 48.5199 145.85L47.2546 144.564C47.1988 144.507 47.1616 144.425 47.1616 144.342V141.834H47.1678Z" fill="#FFC727"/>
<path opacity="0.5" d="M45.9272 141.834V144.342C45.9272 144.767 46.0885 145.159 46.38 145.463L48.3463 147.471C48.5261 147.655 48.7432 147.782 48.9851 147.858C49.7853 149.619 51.5344 150.847 53.5627 150.847H54.3008C57.092 150.847 59.3497 148.535 59.3497 145.691V139.782H48.5137V140.263H47.4779C46.6281 140.257 45.9272 140.966 45.9272 141.834ZM47.1678 141.834C47.1678 141.663 47.3042 141.517 47.4779 141.517H48.5137V145.679C48.5137 145.736 48.5199 145.793 48.5199 145.85L47.2546 144.564C47.1988 144.507 47.1616 144.425 47.1616 144.342V141.834H47.1678Z" fill="white"/>
<path d="M61.9298 151.69H46.3365C45.3254 151.69 44.5005 150.752 44.5005 150.752H63.7658C63.7658 150.752 62.9409 151.69 61.9298 151.69Z" fill="#FFC727"/>
<path opacity="0.5" d="M61.9298 151.69H46.3365C45.3254 151.69 44.5005 150.752 44.5005 150.752H63.7658C63.7658 150.752 62.9409 151.69 61.9298 151.69Z" fill="white"/>
<path d="M271.715 143.968C271.635 141.454 269.762 140.839 267.312 140.554V139.636C267.305 139.414 267.132 139.243 266.915 139.243H266.908H258.461C258.243 139.237 258.057 139.408 258.045 139.636V151.613H267.312V150.302C269.762 150.024 271.641 146.489 271.715 143.968ZM267.312 148.757V142.106C269.11 142.378 270.351 142.625 270.09 144.462C269.88 145.932 268.751 148.541 267.312 148.757Z" fill="#407BFF"/>
<g opacity="0.5">
<path d="M271.715 143.968C271.635 141.454 269.762 140.839 267.312 140.554V139.636C267.305 139.414 267.132 139.243 266.915 139.243H266.908H258.461C258.243 139.237 258.057 139.408 258.045 139.636V151.613H267.312V150.302C269.762 150.024 271.641 146.489 271.715 143.968ZM267.312 148.757V142.106C269.11 142.378 270.351 142.625 270.09 144.462C269.88 145.932 268.751 148.541 267.312 148.757Z" fill="white"/>
</g>
<path d="M159.157 136.348H151.844V151.518H159.157V136.348Z" fill="#FFC727"/>
<path opacity="0.5" d="M159.157 136.348H151.844V151.518H159.157V136.348Z" fill="white"/>
<path d="M162.457 151.791H148.606L151.98 148.757H159.076L162.457 151.791Z" fill="#FFC727"/>
<path opacity="0.5" d="M162.457 151.791H148.606L151.98 148.757H159.076L162.457 151.791Z" fill="white"/>
<path d="M192.917 146.882H158.282L164.54 151.81H199.17L192.917 146.882Z" fill="#FFC727"/>
<path opacity="0.4" d="M192.917 146.882H158.282L164.54 151.81H199.17L192.917 146.882Z" fill="white"/>
<path d="M159.082 151.81L158.282 146.882L164.54 151.81H159.082Z" fill="#FFC727"/>
<path opacity="0.5" d="M159.082 151.81L158.282 146.882L164.54 151.81H159.082Z" fill="black"/>
<path d="M123.801 100.44H186.845C187.502 100.44 188.042 100.985 188.042 101.663V141.137C188.042 141.808 187.508 142.359 186.845 142.359H123.801C123.144 142.359 122.604 141.815 122.604 141.137V101.663C122.604 100.991 123.144 100.44 123.801 100.44Z" fill="#FFC727"/>
<path opacity="0.5" d="M185.592 103.062H124.98V139.591H185.592V103.062Z" fill="black"/>
<path opacity="0.4" d="M183.669 110.575H153.084V132.079H183.669V110.575Z" fill="black"/>
<path d="M183.669 110.575H153.084V112.545H183.669V110.575Z" fill="#FFC727"/>
<path d="M158.692 122.47L163.691 125.302C163.939 125.447 164.107 125.574 164.194 125.688C164.274 125.802 164.318 125.941 164.318 126.119C164.318 126.34 164.237 126.53 164.082 126.689C163.927 126.847 163.747 126.929 163.542 126.929C163.406 126.929 163.201 126.853 162.935 126.701L156.484 123.04C156.05 122.793 156.05 122.154 156.484 121.906L162.935 118.245C163.207 118.1 163.406 118.024 163.536 118.024C163.747 118.024 163.933 118.106 164.088 118.264C164.243 118.423 164.324 118.613 164.324 118.834C164.324 119.012 164.281 119.151 164.2 119.265C164.119 119.379 163.952 119.506 163.697 119.652L158.692 122.47Z" fill="white"/>
<path d="M171.556 117.194L166.606 128.083C166.482 128.355 166.37 128.532 166.265 128.615C166.135 128.722 165.973 128.773 165.793 128.773C165.583 128.773 165.403 128.697 165.248 128.545C165.092 128.393 165.018 128.216 165.018 128.019C165.018 127.88 165.08 127.677 165.198 127.411L170.16 116.529C170.284 116.257 170.396 116.079 170.489 115.997C170.625 115.889 170.78 115.832 170.966 115.832C171.177 115.832 171.357 115.908 171.506 116.06C171.655 116.212 171.729 116.383 171.729 116.58C171.735 116.726 171.673 116.928 171.556 117.194Z" fill="white"/>
<path d="M177.777 122.47L172.778 119.639C172.53 119.493 172.362 119.367 172.275 119.253C172.195 119.139 172.151 118.999 172.151 118.822C172.151 118.6 172.232 118.41 172.387 118.252C172.542 118.094 172.728 118.011 172.939 118.011C173.069 118.011 173.268 118.087 173.541 118.233L179.991 121.894C180.426 122.141 180.426 122.781 179.991 123.028L173.541 126.689C173.268 126.841 173.069 126.917 172.939 126.917C172.728 126.917 172.542 126.835 172.381 126.67C172.232 126.518 172.151 126.315 172.151 126.1C172.151 125.929 172.195 125.783 172.275 125.669C172.356 125.555 172.524 125.429 172.778 125.283L177.777 122.47Z" fill="white"/>
<path d="M129.539 106.433H127.467V108.548H129.539V106.433Z" fill="white"/>
<path d="M129.539 111.906H127.467V114.021H129.539V111.906Z" fill="white"/>
<path d="M129.539 117.385H127.467V119.5H129.539V117.385Z" fill="white"/>
<path d="M129.539 122.857H127.467V124.973H129.539V122.857Z" fill="white"/>
<path d="M129.539 128.329H127.467V130.445H129.539V128.329Z" fill="white"/>
<path d="M129.539 133.802H127.467V135.918H129.539V133.802Z" fill="white"/>
<path d="M139.761 106.908H131.505V107.541H139.761V106.908Z" fill="white"/>
<path d="M136.368 112.4H133.427V113.033H136.368V112.4Z" fill="white"/>
<path d="M149.164 118.556H146.224V119.19H149.164V118.556Z" fill="white"/>
<path d="M136.368 123.44H133.427V124.073H136.368V123.44Z" fill="white"/>
<path d="M140.611 123.44H137.671V124.073H140.611V123.44Z" fill="white"/>
<path d="M145.182 118.556H137.671V119.19H145.182V118.556Z" fill="white"/>
<path d="M146.987 123.44H142.043V124.073H146.987V123.44Z" fill="white"/>
<path d="M144.972 135.177H142.031V135.81H144.972V135.177Z" fill="white"/>
<path d="M149.207 135.177H146.267V135.81H149.207V135.177Z" fill="white"/>
<path d="M152.29 135.177H150.646V135.81H152.29V135.177Z" fill="white"/>
<path d="M146.993 112.4H137.844V113.033H146.993V112.4Z" fill="white"/>
<path d="M140.611 129.159H137.671V129.793H140.611V129.159Z" fill="white"/>
<path d="M143.29 129.159H141.591V129.793H143.29V129.159Z" fill="white"/>
<path d="M149.393 129.159H144.592V129.793H149.393V129.159Z" fill="white"/>
<path d="M150.188 82.9962C150.039 90.6604 142.236 97.0832 132.765 97.3429C129.862 97.4443 126.984 96.8995 124.28 95.7404C123.331 98.1474 121.315 100.212 115.553 101.137C121.569 96.3928 118.276 92.3833 116.905 88.8489C116.21 87.373 115.85 85.6692 115.869 83.9209C116.018 76.2503 123.821 69.8339 133.292 69.5742C142.77 69.3018 150.337 75.3319 150.188 82.9962Z" fill="#FFC727"/>
<path d="M133.236 74.9707H124.98V75.6041H133.236V74.9707Z" fill="white"/>
<path d="M129.843 80.4625H126.903V81.0959H129.843V80.4625Z" fill="white"/>
<path d="M142.639 86.6195H139.698V87.2529H142.639V86.6195Z" fill="white"/>
<path d="M129.843 91.503H126.903V92.1364H129.843V91.503Z" fill="white"/>
<path d="M134.079 91.503H131.139V92.1364H134.079V91.503Z" fill="white"/>
<path d="M138.651 86.6195H131.139V87.2529H138.651V86.6195Z" fill="white"/>
<path d="M140.462 91.503H135.518V92.1364H140.462V91.503Z" fill="white"/>
<path d="M140.462 80.4625H131.313V81.0959H140.462V80.4625Z" fill="white"/>
<path d="M185.995 228.206L181.474 226.825L182.528 215.506L187.05 216.887L185.995 228.206Z" fill="#7F3E3B"/>
<path opacity="0.2" d="M187.422 214.329L182.9 212.954L182.311 219.295L186.882 220.162L187.422 214.329Z" fill="black"/>
<path d="M212.76 158.297C212.76 158.297 181.666 160.976 182.429 174.765C183.055 186.053 184.693 182.987 181.474 216.552L189.295 216.995C189.295 216.995 197.253 189.543 196.18 178.636C204.944 178.636 225.01 179.421 227.925 171.345C229.37 167.247 230.077 162.908 230.003 158.55L212.76 158.297Z" fill="#053F5C"/>
<path d="M190.542 218.534L180.32 216.748L180.488 212.13L191.069 214.531L190.542 218.534Z" fill="#263238"/>
<path d="M181.009 224.925L186.231 225.983C186.417 226.008 186.548 226.211 186.529 226.432L186.095 231.474C186.014 232.019 185.592 232.387 185.14 232.304C183.328 231.899 182.472 231.601 180.177 231.139C178.763 230.854 175.532 230.157 173.565 229.935C171.599 229.714 171.835 227.364 172.685 227.243C176.506 226.724 178.676 226.097 180.159 225.121C180.419 224.938 180.717 224.874 181.009 224.925Z" fill="#263238"/>
<path d="M178.664 225.837C179.073 225.894 179.489 225.906 179.905 225.875C179.948 225.875 179.985 225.843 179.998 225.805C180.016 225.767 180.016 225.723 179.998 225.685C179.867 225.552 178.695 224.418 178.093 224.545C177.951 224.57 177.833 224.671 177.79 224.811C177.69 225.013 177.703 225.254 177.827 225.444C178.05 225.678 178.348 225.818 178.664 225.837ZM179.663 225.666C178.801 225.666 178.193 225.564 178.013 225.305C177.938 225.178 177.938 225.026 178.013 224.899C178.031 224.83 178.087 224.779 178.156 224.76C178.472 224.69 179.179 225.222 179.663 225.666Z" fill="#053F5C"/>
<path d="M179.911 225.874C179.911 225.874 179.942 225.874 179.961 225.874C179.998 225.862 180.023 225.83 180.035 225.792C180.035 225.735 180.377 224.386 179.98 223.847C179.88 223.702 179.719 223.613 179.545 223.613C179.353 223.588 179.167 223.695 179.099 223.879C178.907 224.379 179.44 225.488 179.856 225.849C179.874 225.868 179.893 225.874 179.911 225.874ZM179.589 223.841C179.676 223.854 179.756 223.904 179.806 223.98C179.986 224.481 180.004 225.025 179.862 225.539C179.483 225.101 179.285 224.538 179.303 223.961C179.303 223.898 179.372 223.828 179.533 223.835L179.589 223.841Z" fill="#053F5C"/>
<path d="M165.837 229.967L161.532 227.991L164.509 217.147L168.814 219.123L165.837 229.967Z" fill="#7F3E3B"/>
<path opacity="0.2" d="M169.54 216.33L165.235 214.354L163.703 219.947L168.008 221.923L169.54 216.33Z" fill="black"/>
<path d="M203.506 158.296C203.302 158.296 168.647 161.938 168.604 173.941C168.53 193.792 162.978 216.551 162.978 216.551L169.826 220.015C169.826 220.015 181.754 195.344 181.574 179.87C191.107 177.076 215.769 181.77 218.684 173.7C221.072 167.1 219.782 158.296 219.782 158.296H203.506Z" fill="#053F5C"/>
<path d="M170.923 221.017L161.743 216.798L162.482 212.96L172.164 216.374L170.923 221.017Z" fill="#263238"/>
<path d="M161.96 224.342L167.195 225.451C167.375 225.483 167.506 225.704 167.487 225.945L167.078 231.487C167.009 232.089 166.581 232.501 166.129 232.406C164.317 231.975 163.462 231.652 161.167 231.164C159.752 230.867 155.901 229.916 153.959 229.397C152.018 228.878 152.452 226.357 153.339 226.338C157.178 226.281 159.666 225.641 161.142 224.545C161.39 224.368 161.681 224.292 161.96 224.342Z" fill="#263238"/>
<path d="M159.814 225.54C160.18 225.337 160.521 225.096 160.837 224.817C160.875 224.786 160.887 224.741 160.875 224.697C160.862 224.659 160.825 224.627 160.782 224.621C160.602 224.589 159.001 224.38 158.586 224.849C158.493 224.957 158.462 225.109 158.499 225.248C158.536 225.47 158.685 225.66 158.896 225.736C159.212 225.799 159.541 225.723 159.814 225.54ZM160.515 224.805C159.839 225.343 159.274 225.609 158.983 225.514C158.853 225.457 158.76 225.33 158.747 225.178C158.722 225.109 158.741 225.039 158.784 224.982C159.001 224.76 159.87 224.741 160.515 224.805Z" fill="#053F5C"/>
<path d="M160.832 224.823L160.875 224.792C160.9 224.76 160.9 224.722 160.887 224.69C160.856 224.646 160.342 223.348 159.715 223.151C159.554 223.094 159.374 223.126 159.231 223.227C159.064 223.322 158.977 223.525 159.027 223.715C159.157 224.234 160.23 224.804 160.782 224.842C160.801 224.836 160.819 224.83 160.832 224.823ZM159.393 223.379C159.473 223.335 159.566 223.322 159.647 223.354C160.087 223.652 160.416 224.076 160.602 224.576C160.044 224.456 159.554 224.12 159.231 223.645C159.194 223.595 159.213 223.5 159.343 223.405L159.393 223.379Z" fill="#053F5C"/>
<path d="M215.278 120C216.19 122.002 216.94 123.927 217.691 125.929C218.441 127.93 219.105 129.932 219.719 131.984C220.333 134.036 220.866 136.139 221.294 138.318C221.76 140.579 221.995 142.891 221.989 145.203C221.983 146.559 221.784 147.914 221.4 149.213C221.158 150.011 220.811 150.771 220.364 151.468C220.103 151.867 219.806 152.234 219.477 152.57L219.21 152.836C219.061 152.963 218.9 153.102 218.745 153.21C218.485 153.393 218.205 153.552 217.914 153.678C217.486 153.875 217.033 154.02 216.574 154.115C216.214 154.191 215.842 154.248 215.476 154.28C214.844 154.318 214.217 154.318 213.585 154.28C212.468 154.223 211.352 154.096 210.248 153.9C206.129 153.134 202.097 151.956 198.208 150.378L199.108 146.888C203.046 147.37 207.066 147.883 210.855 148.06C211.798 148.06 212.716 148.104 213.572 148.06C213.95 148.041 214.335 147.99 214.707 147.914C215.017 147.857 215.284 147.743 215.191 147.75C215.129 147.769 215.073 147.8 215.017 147.838C214.955 147.876 214.9 147.921 214.844 147.971C214.844 147.971 214.875 147.921 214.899 147.864C214.98 147.68 215.042 147.496 215.086 147.3C215.222 146.603 215.278 145.894 215.253 145.184C215.16 143.373 214.899 141.568 214.465 139.807C214.044 137.906 213.498 136.057 212.902 134.176C212.307 132.294 211.662 130.413 210.955 128.538C210.248 126.663 209.503 124.782 208.771 123.015L215.278 120Z" fill="#7F3E3B"/>
<path d="M200.82 147.839L196.707 145.476L194.642 150.024C194.642 150.024 199.449 152.07 200.46 150.79L200.82 147.839Z" fill="#7F3E3B"/>
<path d="M193.377 146.337L191.497 149.378L194.642 149.992L196.708 145.444L193.377 146.337Z" fill="#7F3E3B"/>
<path d="M205.688 123.611C204.9 125.632 204.076 127.563 203.207 129.521C202.339 131.478 201.47 133.403 200.552 135.329C198.704 139.25 196.632 143.057 194.35 146.73C193.73 147.668 193.109 148.599 192.415 149.53C192.067 149.999 191.683 150.461 191.273 150.936C191.05 151.177 190.87 151.399 190.61 151.646L190.238 152.013L190.027 152.216C189.437 152.729 188.743 153.109 187.992 153.318C187.595 153.432 187.198 153.521 186.789 153.578C186.125 153.66 185.461 153.685 184.792 153.66C183.638 153.622 182.49 153.508 181.355 153.312C177.15 152.552 173.031 151.361 169.062 149.752L169.967 146.255C173.98 146.749 178.08 147.275 181.938 147.44C182.85 147.478 183.762 147.465 184.668 147.402C185.034 147.37 185.399 147.313 185.753 147.225C185.871 147.199 185.983 147.155 186.088 147.098C186.125 147.098 186.088 147.053 185.92 147.161C185.858 147.193 185.803 147.237 185.753 147.288C185.753 147.288 185.796 147.231 185.815 147.212L185.989 147.015C186.1 146.901 186.237 146.711 186.367 146.559C186.621 146.23 186.882 145.875 187.142 145.489C187.657 144.735 188.16 143.899 188.656 143.05C189.648 141.353 190.572 139.548 191.478 137.723C192.384 135.899 193.252 134.037 194.108 132.162C195.814 128.425 197.482 124.593 199.07 120.824L205.688 123.611Z" fill="#7F3E3B"/>
<path d="M171.73 147.167L167.611 144.773L165.546 149.321C165.546 149.321 170.353 151.373 171.37 150.094L171.73 147.167Z" fill="#7F3E3B"/>
<path d="M164.286 145.672L162.401 148.706L165.546 149.321L167.611 144.773L164.286 145.672Z" fill="#7F3E3B"/>
<path d="M216.339 101.138L213.709 104.248L209.696 108.485C209.776 108.694 209.888 108.967 210 109.252C210.31 110.031 210.49 110.86 210.533 111.703C210.62 113.4 210.459 114.838 207.835 115.991C207.835 115.991 205.081 119.665 211.631 118.645C218.181 117.625 219.167 114.154 219.167 114.154C216.27 112.051 216.109 105.039 216.339 101.138Z" fill="#7F3E3B"/>
<path d="M202.985 97.6288C202.985 98.0468 202.78 98.4016 202.507 98.4142C202.234 98.4269 202.017 98.0975 202.011 97.6795C202.005 97.2614 202.222 96.9067 202.488 96.894C202.755 96.8814 202.978 97.2107 202.985 97.6288Z" fill="#263238"/>
<path d="M204.355 96.0703C204.275 96.0703 204.2 96.0259 204.157 95.9562C203.834 95.4115 203.276 95.0505 202.656 94.9808C202.526 94.9744 202.42 94.8604 202.42 94.7274C202.426 94.5881 202.532 94.4804 202.668 94.4867C203.45 94.5564 204.157 95.0061 204.566 95.6902C204.634 95.8042 204.603 95.9562 204.492 96.0322C204.455 96.0576 204.405 96.0703 204.355 96.0703Z" fill="#263238"/>
<path d="M202.836 97.8633C202.501 99.0034 202.023 100.093 201.409 101.106C201.924 101.404 202.544 101.448 203.096 101.233L202.836 97.8633Z" fill="#630F0F"/>
<path d="M216.711 95.5193C216.469 100.688 216.58 103.754 214.068 106.49C211.618 109.245 207.45 109.448 204.752 106.952C203.766 106.034 203.071 104.837 202.767 103.507C201.626 98.927 202.221 91.2437 207.109 88.9381C210.409 87.2722 214.403 88.6468 216.035 92.0165C216.562 93.0996 216.797 94.3095 216.711 95.5193Z" fill="#7F3E3B"/>
<path d="M219.012 97.2417C218.28 99.4333 217.17 101.473 215.725 103.259L209.137 104.526C209.137 104.526 203.933 102.303 205.323 98.6415C204.442 97.8814 204.771 95.5315 205.391 94.2393C206.383 95.0501 208.015 95.1198 208.908 94.1443C209.627 95.4935 211.786 95.6835 212.723 94.4673C213.796 95.6835 216.084 95.3098 216.729 93.8086C217.523 94.3407 218.665 94.2647 219.384 93.6312C219.415 93.5996 219.446 93.5742 219.477 93.5426C219.576 94.4673 219.477 95.6772 219.012 97.2417Z" fill="#263238"/>
<path opacity="0.1" d="M219.012 97.2417C218.28 99.4333 217.17 101.473 215.725 103.259L209.137 104.526C209.137 104.526 203.933 102.303 205.323 98.6415C204.442 97.8814 204.771 95.5315 205.391 94.2393C206.383 95.0501 208.015 95.1198 208.908 94.1443C209.627 95.4935 211.786 95.6835 212.723 94.4673C213.796 95.6835 216.084 95.3098 216.729 93.8086C217.523 94.3407 218.665 94.2647 219.384 93.6312C219.415 93.5996 219.446 93.5742 219.477 93.5426C219.576 94.4673 219.477 95.6772 219.012 97.2417Z" fill="white"/>
<path d="M219.961 90.9773C220.333 91.826 220.128 92.8965 219.477 93.5426C219.446 93.5743 219.415 93.5996 219.384 93.6313C218.665 94.2647 217.523 94.3407 216.729 93.8086C216.084 95.3098 213.796 95.6835 212.722 94.4674C211.786 95.6835 209.627 95.4935 208.908 94.1443C208.015 95.1198 206.383 95.0501 205.391 94.2393C205.13 94.0303 204.913 93.7643 204.771 93.4539C204.733 93.3842 204.709 93.3146 204.684 93.2449C204.628 93.3082 204.572 93.3652 204.51 93.4159C203.909 93.9226 202.96 93.9986 202.302 93.5489C201.762 93.1815 201.465 92.4975 201.508 91.845C201.514 91.7057 201.539 91.5727 201.576 91.4397C201.527 91.5347 201.465 91.6233 201.39 91.6994C200.851 92.2884 199.709 92.3138 199.182 91.6423C198.525 90.8126 198.897 89.4317 199.796 88.8807C200.156 88.6653 200.553 88.564 200.962 88.564C201.595 88.564 202.24 88.7983 202.742 89.191C202.203 88.3993 202.395 87.1895 203.152 86.6131C203.909 86.043 205.099 86.2013 205.682 86.9551C205.602 86.0557 205.893 85.5173 206.346 85.2386C207.202 84.7318 208.629 85.1689 209.323 86.0177C209.323 86.0177 210.279 83.6614 211.929 83.9274C212.288 83.9781 213.982 84.7445 213.938 85.3652C213.938 85.4096 213.926 85.4476 213.907 85.4856C213.932 85.4349 213.957 85.3906 213.988 85.3462C214.31 84.8268 214.962 84.5671 215.576 84.5798C216.239 84.5861 216.872 84.8458 217.486 85.0992C218.77 85.6376 220.135 86.2393 220.879 87.4365C221.617 88.64 221.294 90.5972 219.961 90.9773Z" fill="#263238"/>
<path d="M208.225 99.1234C208.045 100.403 207.475 101.587 206.588 102.506C205.465 103.602 204.51 102.506 204.498 100.84C204.498 99.3324 205.05 96.9444 206.358 96.5011C207.667 96.0577 208.467 97.4828 208.225 99.1234Z" fill="#7F3E3B"/>
<path d="M228.062 115.959C227.596 114.692 225.425 113.425 224.092 113.425H223.211C221.673 113.425 219.756 113.552 217.895 113.774C214.348 114.173 210.831 114.781 207.351 115.585C205.751 116.016 204.206 116.561 202.978 117.029C201.415 117.663 200.497 118.087 200.497 118.087C200.497 118.087 202.209 129.729 203.096 141.302C203.586 147.737 203.387 154.128 203.543 158.524H230.003C230.915 153.241 230.772 148.637 230.846 139.097C230.89 133.365 229.978 121.172 228.062 115.959Z" fill="#263238"/>
<path opacity="0.2" d="M202.525 134.835C202.724 137.261 202.929 139.807 203.146 142.353C206.247 137.729 207.965 125.08 207.965 125.08L202.525 134.835Z" fill="black"/>
<path d="M199.002 118.936C195.213 121.115 191.497 132.263 191.497 132.263L200.175 138.952C203.487 135.753 208.331 127.817 208.858 124.643C209.708 119.772 205.075 115.465 199.002 118.936Z" fill="#263238"/>
<path d="M191.515 232.444C191.515 233.964 190.306 235.199 188.817 235.199C187.328 235.199 186.119 233.964 186.119 232.444C186.119 230.923 187.328 229.688 188.817 229.688C190.306 229.688 191.515 230.917 191.515 232.444Z" fill="#263238"/>
<path d="M231.764 232.444C231.764 233.964 232.973 235.199 234.462 235.199C235.95 235.199 237.16 233.964 237.16 232.444C237.16 230.923 235.95 229.688 234.462 229.688C232.973 229.688 231.764 230.917 231.764 232.444Z" fill="#263238"/>
<path d="M209.012 231.557C209.012 233.077 210.222 234.312 211.71 234.312C213.199 234.312 214.408 233.077 214.408 231.557C214.408 230.037 213.199 228.802 211.71 228.802C210.222 228.802 209.012 230.037 209.012 231.557Z" fill="#263238"/>
<path d="M210.874 228.162V222.835H203.145C201.626 222.835 200.112 222.98 198.624 223.265L184.233 226.122C183.526 226.261 183.061 226.965 183.198 227.687C183.322 228.333 183.88 228.789 184.525 228.77L210.874 228.162Z" fill="#263238"/>
<path d="M210.874 228.161V222.834H218.608C220.128 222.834 221.641 222.98 223.13 223.265L239.306 225.906C240.013 226.046 240.479 226.749 240.342 227.471C240.218 228.117 239.66 228.573 239.015 228.554L210.874 228.161Z" fill="#263238"/>
<path d="M215.656 198.448H206.085V222.841H215.656V198.448Z" fill="#263238"/>
<path d="M214.286 187.097H207.463V198.442H214.286V187.097Z" fill="#263238"/>
<path opacity="0.5" d="M207.463 190.429L214.286 192.184V187.097H207.463V190.429Z" fill="black"/>
<path d="M188.817 161.431H185.35V176.538H188.817V161.431Z" fill="#263238"/>
<path d="M206.197 187.097V121.419C206.197 118.929 207.246 116.567 209.081 114.926L213.665 110.828C215.203 109.454 217.182 108.693 219.229 108.693H235.79L243.884 117.485V187.091H206.197V187.097Z" fill="#053F5C"/>
<path d="M181.547 174.391H219.321V187.097H175.394C172.926 187.097 170.928 185.058 170.922 182.543C170.922 181.726 171.139 180.922 171.549 180.212C173.639 176.602 177.441 174.385 181.547 174.391Z" fill="#053F5C"/>
<path opacity="0.7" d="M243.884 117.492V187.098H175.388C172.926 187.098 170.922 185.058 170.922 182.537C170.922 181.72 171.133 180.915 171.542 180.212C173.633 176.608 177.422 174.391 181.522 174.391H200.546C203.666 174.391 206.196 171.807 206.196 168.621V121.419C206.196 118.936 207.245 116.567 209.081 114.933L213.664 110.835C215.203 109.454 217.181 108.7 219.228 108.7H235.783L243.884 117.492Z" fill="white"/>
<path d="M211.711 187.097V121.419C211.711 118.929 212.759 116.567 214.595 114.926L219.179 110.828C220.717 109.454 222.696 108.693 224.743 108.693H237.65C239.982 108.693 242.209 109.675 243.803 111.411L247.103 114.996C248.573 116.598 249.392 118.708 249.392 120.906V180.516C249.392 184.145 246.508 187.091 242.954 187.091H211.711V187.097Z" fill="#053F5C"/>
<path opacity="0.5" d="M211.711 187.097V121.419C211.711 118.929 212.759 116.567 214.595 114.926L219.179 110.828C220.717 109.454 222.696 108.693 224.743 108.693H237.65C239.982 108.693 242.209 109.675 243.803 111.411L247.103 114.996C248.573 116.598 249.392 118.708 249.392 120.906V180.516C249.392 184.145 246.508 187.091 242.954 187.091H211.711V187.097Z" fill="white"/>
<path d="M198.859 166.043C191.23 163.326 182.918 163.326 175.289 166.043C173.707 166.651 171.921 165.961 171.14 164.428C170.432 162.901 171.381 160.925 173.304 160.235C182.217 157.055 191.918 157.055 200.831 160.235C202.754 160.919 203.703 162.901 202.996 164.428C202.208 165.948 200.441 166.638 198.859 166.043Z" fill="#053F5C"/>
<path opacity="0.7" d="M198.859 166.043C191.23 163.326 182.918 163.326 175.289 166.043C173.707 166.651 171.921 165.961 171.14 164.428C170.432 162.901 171.381 160.925 173.304 160.235C182.217 157.055 191.918 157.055 200.831 160.235C202.754 160.919 203.703 162.901 202.996 164.428C202.208 165.948 200.441 166.638 198.859 166.043Z" fill="white"/>
<path d="M102.465 103.196C102.335 103.57 102.428 103.943 102.67 104.026C102.912 104.108 103.21 103.88 103.334 103.506C103.458 103.133 103.371 102.752 103.135 102.67C102.899 102.588 102.595 102.816 102.465 103.196Z" fill="#263238"/>
<path d="M102.396 103.582C102.446 104.887 102.669 106.179 103.06 107.42C102.427 107.604 101.745 107.496 101.199 107.129L102.396 103.582Z" fill="#A02724"/>
<path d="M101.869 100.65C101.913 100.669 101.969 100.669 102.012 100.65C102.564 100.46 103.172 100.555 103.643 100.903C103.749 100.979 103.892 100.954 103.966 100.852C104.034 100.757 104.022 100.631 103.941 100.548C103.352 100.099 102.583 99.972 101.882 100.2C101.764 100.244 101.696 100.377 101.739 100.498C101.764 100.567 101.814 100.618 101.882 100.643L101.869 100.65Z" fill="#263238"/>
<path d="M88.8626 104.577C89.5573 108.181 90.2457 114.787 87.7771 117.194C87.7771 117.194 88.7447 120.849 95.3071 120.849C102.521 120.849 98.7557 117.194 98.7557 117.194C94.8171 116.232 95.4497 113.248 96.1382 110.449L88.8626 104.577Z" fill="#B55B52"/>
<path d="M90.4691 98.0402C89.1789 102.753 88.1865 105.445 89.6627 108.618C91.8771 113.4 99.6179 114.021 101.727 108.548C103.333 103.507 104.921 98.1795 101.125 94.7781C98.427 92.3268 94.2961 92.5802 91.8957 95.3355C91.2196 96.1146 90.7296 97.0394 90.4691 98.0402Z" fill="#B55B52"/>
<path d="M85.4634 99.6108C85.1284 97.8752 85.0416 95.975 85.8914 94.4295C86.7411 92.8839 88.7942 91.9402 90.289 92.8396C91.5792 90.0653 94.6929 88.298 97.6763 88.6527C100.666 89.0075 103.302 91.4461 103.935 94.4485C104.567 97.4508 103.153 100.789 100.573 102.366C100.92 101.074 101.261 99.7755 101.609 98.4833C101.311 100.276 100.356 101.942 98.9665 103.076C99.165 101.783 99.3635 100.485 99.5619 99.1927C99.3821 101.023 98.3028 102.733 96.7459 103.658C96.9879 102.752 97.2298 101.847 97.4717 100.935C97.3662 101.334 96.3986 104.184 96.0699 104.577C95.462 105.299 95.0526 110.062 92.9127 110.214C85.6122 111.709 86.2511 103.665 85.4634 99.6108Z" fill="#263238"/>
<path d="M95.3315 101.866C95.2074 103.076 95.4741 104.292 96.0882 105.33C96.9131 106.686 98.1226 106.167 98.5692 104.779C98.9662 103.513 99.0096 101.327 97.8621 100.447C96.7147 99.5664 95.5051 100.409 95.3315 101.866Z" fill="#B55B52"/>
<path d="M77.8522 147.522C77.0645 147.256 73.3739 145.318 72.7847 145.666C74.4904 141.226 75.5511 140.548 76.3264 137.723C76.7606 136.146 76.4628 134.917 75.5014 133.6C74.4098 132.111 74.0314 131.351 72.214 131.535C69.7206 135.791 66.5821 141.048 65.3539 145.843C64.9384 147.459 64.6406 148.687 65.5834 150.049C66.4146 151.253 67.9466 151.74 69.3856 151.867C72.8405 152.184 77.9701 151.538 77.908 149.441C77.8584 148.124 77.8522 147.522 77.8522 147.522Z" fill="#B55B52"/>
<path d="M77.2634 147.364L80.191 146.394L79.9305 151.797C79.9305 151.797 77.5859 151.886 76.333 150.277L77.2634 147.364Z" fill="#B55B52"/>
<path d="M83.8568 146.306L83.435 150.765L79.9368 151.798L80.1973 146.395L83.8568 146.306Z" fill="#B55B52"/>
<path d="M117.426 151.202C117.426 151.202 113.344 147.933 107.979 137.127C107.185 135.62 106.422 134.093 105.697 132.561C104.965 131.009 104.264 129.495 103.6 127.867L109.939 125.08C111.248 127.981 113.276 130.977 114.715 133.859C116.154 136.741 119.553 143.569 119.975 144.203C120.186 144.532 120.415 144.804 120.632 145.108L120.961 145.552L116.874 150.378L117.426 151.202Z" fill="#B55B52"/>
<path d="M122.785 130.198L121.513 128.653L120.924 126.341L124.751 122.711C124.751 122.711 125.675 123.877 126.326 125.131C126.426 125.321 126.469 125.536 126.457 125.758L126.302 129.824L122.785 130.198Z" fill="#B55B52"/>
<path d="M120.985 123.833L123.851 121.179L124.756 122.731L120.929 126.341L120.985 123.833Z" fill="#B55B52"/>
<path d="M122.847 129.071C122.946 128.634 123.033 129.489 123.318 129.147C124.162 128.114 125.396 128 126.122 129.121C126.854 130.242 126.227 141.549 125.061 145.09C124.286 147.44 123.87 149.321 121.885 150.752C121.067 151.341 120.099 151.791 119.094 151.772C118.089 151.753 117.053 151.196 116.675 150.246C116.086 148.77 118.275 143.449 119.057 141.732C121.507 136.348 121.668 134.176 122.847 129.071Z" fill="#B55B52"/>
<path d="M114.634 128.583C116.321 128.564 118.015 128.551 119.702 128.532C120.421 128.526 121.172 128.513 121.823 128.19C122.673 127.766 123.212 126.879 123.554 125.98C124.273 124.105 124.329 122.04 124.614 120.051C124.9 118.056 125.489 115.978 126.965 114.642C124.273 115.009 119.51 114.148 117.444 116.396C116.352 117.587 114.43 128.583 114.634 128.583Z" fill="#053F5C"/>
<path opacity="0.5" d="M114.634 128.583C116.321 128.564 118.015 128.551 119.702 128.532C120.421 128.526 121.172 128.513 121.823 128.19C122.673 127.766 123.212 126.879 123.554 125.98C124.273 124.105 124.329 122.04 124.614 120.051C124.9 118.056 125.489 115.978 126.965 114.642C124.273 115.009 119.51 114.148 117.444 116.396C116.352 117.587 114.43 128.583 114.634 128.583Z" fill="white"/>
<path d="M123.306 120.893C123.014 120.969 122.822 122.033 122.884 122.337L123.17 122.857L123.746 125.422L125.682 124.326L123.939 121.166C123.815 120.938 123.554 120.83 123.306 120.893Z" fill="#B55B52"/>
<path d="M79.5955 118.1C75.0676 119.158 68.375 133.562 68.375 133.562L77.4618 139.896C79.7196 136.583 82.7961 131.586 84.5328 127.956C87.2186 122.224 84.2227 117.017 79.5955 118.1Z" fill="#053F5C"/>
<path d="M86.2135 118.449C85.6925 117.29 85.128 115.966 86.3003 115.554C87.5967 115.098 94.6925 114.629 97.1363 115.484C98.4761 115.858 99.27 117.271 98.9041 118.639C98.8979 118.658 98.8979 118.67 98.8917 118.689L86.2135 118.449Z" fill="#263238"/>
<path opacity="0.2" d="M82.3988 126.423L75.9419 138.838L77.4677 139.902C77.4677 139.902 80.3954 135.741 82.405 132.143V126.423H82.3988Z" fill="black"/>
<path d="M107.129 124.441C108.109 129.496 105.82 141.524 105.845 161.16H80.0233C79.8559 157.189 82.6781 147.789 79.1674 129.065C79.0557 128.457 78.9999 118.202 79.5954 118.101C82.095 117.651 84.6195 117.347 87.1563 117.189C90.8097 116.967 94.4816 116.967 98.135 117.189C99.6298 117.341 101.981 118.291 103.463 118.836C105.783 119.691 106.651 121.977 107.129 124.441Z" fill="#053F5C"/>
<path opacity="0.2" d="M100.293 129.476C100.97 133.638 103.637 139.136 106.304 142.366C106.409 140.004 106.639 137.54 106.633 135.639L100.293 129.476Z" fill="black"/>
<path d="M98.4584 123.218C97.8381 127.886 106.832 139.807 106.832 139.807L115.882 133.473C115.882 133.473 113.369 126.904 109.146 122.597C104.332 117.656 99.1655 118.138 98.4584 123.218Z" fill="#053F5C"/>
<path d="M128.038 226.54H132.863L133.961 215.119H129.136L128.038 226.54Z" fill="#B55B52"/>
<path opacity="0.2" d="M133.887 215.817L133.329 221.701H128.497L129.062 215.817H133.887Z" fill="black"/>
<path d="M109.002 226.54H113.828L116.253 215.119H111.427L109.002 226.54Z" fill="#B55B52"/>
<g opacity="0.2">
<path d="M111.322 215.735H116.147L114.894 221.619H110.069L111.322 215.735Z" fill="black"/>
</g>
<path d="M133.136 224.33H127.87C127.672 224.33 127.498 224.513 127.455 224.773L126.5 230.41C126.413 230.911 126.642 231.405 127.021 231.525C127.076 231.544 127.138 231.551 127.194 231.551C129.092 231.513 131.84 231.361 134.228 231.361C137.025 231.361 139.438 231.557 142.713 231.557C144.698 231.557 145.25 228.909 144.419 228.669C140.642 227.579 137.559 227.465 134.296 224.798C133.949 224.507 133.546 224.342 133.136 224.33Z" fill="#263238"/>
<path d="M136.969 226.16C137.589 226.16 138.21 226.071 138.39 225.786C138.495 225.634 138.495 225.425 138.39 225.273C138.309 225.14 138.179 225.045 138.03 225C137.224 224.779 135.549 225.761 135.468 225.805C135.425 225.824 135.4 225.875 135.412 225.925C135.419 225.97 135.456 226.008 135.499 226.02C135.983 226.115 136.473 226.16 136.969 226.16ZM137.738 225.203C137.813 225.191 137.881 225.191 137.955 225.203C138.048 225.222 138.129 225.279 138.179 225.368C138.259 225.514 138.235 225.583 138.179 225.621C137.955 225.944 136.734 225.951 135.834 225.818C136.423 225.488 137.068 225.286 137.738 225.203Z" fill="#053F5C"/>
<path d="M135.512 226.02H135.562C136.145 225.754 137.298 224.69 137.205 224.12C137.205 223.987 137.094 223.828 136.784 223.79C136.56 223.771 136.337 223.841 136.163 223.993C135.543 224.506 135.419 225.836 135.413 225.893C135.407 225.938 135.425 225.976 135.456 226.001C135.469 226.014 135.493 226.02 135.512 226.02ZM136.691 224.025H136.759C136.963 224.025 136.976 224.132 136.982 224.158C137.038 224.493 136.25 225.329 135.655 225.691C135.704 225.133 135.921 224.601 136.275 224.177C136.387 224.075 136.535 224.025 136.691 224.025Z" fill="#053F5C"/>
<path d="M114.169 224.329H108.748C108.549 224.329 108.382 224.513 108.338 224.773L107.383 230.41C107.303 230.917 107.544 231.417 107.929 231.531C107.979 231.544 108.034 231.55 108.09 231.55C109.982 231.512 110.906 231.36 113.288 231.36C114.758 231.36 116.637 231.557 118.666 231.557C120.694 231.557 120.954 228.909 120.123 228.668C116.402 227.591 116.147 226.109 114.957 224.69C114.733 224.45 114.454 224.323 114.169 224.329Z" fill="#263238"/>
<path d="M117.004 226.787C117.419 226.844 117.835 226.724 118.164 226.464C118.281 226.299 118.281 226.078 118.164 225.913C118.089 225.774 117.959 225.672 117.804 225.641C117.097 225.47 115.763 226.401 115.707 226.439C115.67 226.464 115.651 226.515 115.658 226.559C115.664 226.603 115.701 226.641 115.745 226.648C116.154 226.743 116.576 226.787 117.004 226.787ZM117.624 225.85C117.667 225.843 117.717 225.843 117.76 225.85C117.853 225.862 117.928 225.919 117.971 226.002C118.077 226.198 118.015 226.274 117.971 226.306C117.767 226.578 116.78 226.584 116.055 226.464C116.52 226.141 117.053 225.932 117.611 225.85H117.624Z" fill="#053F5C"/>
<path d="M115.775 226.654H115.825C116.327 226.375 117.295 225.299 117.189 224.754C117.158 224.577 117.003 224.444 116.823 224.444C116.65 224.425 116.47 224.475 116.34 224.596C115.781 225.064 115.663 226.496 115.657 226.546C115.657 226.591 115.676 226.629 115.713 226.654C115.732 226.661 115.75 226.661 115.775 226.654ZM116.749 224.659H116.799C116.947 224.659 116.96 224.748 116.966 224.779C117.028 225.102 116.408 225.919 115.912 226.306C115.943 225.742 116.141 225.204 116.482 224.76C116.557 224.697 116.65 224.659 116.749 224.659Z" fill="#053F5C"/>
<path d="M98.1044 161.165C98.1044 161.165 120.961 170.799 125.687 178.21C122.878 197.048 117.835 218.508 117.835 218.508H109.238C109.238 218.508 109.002 206.575 111.465 190.79C112.705 167.765 72.1278 191.588 80.0114 161.165H98.1044Z" fill="#263238"/>
<path opacity="0.3" d="M113.902 177.045C112.301 177.108 110.714 177.355 109.126 177.608C107.457 177.868 105.789 178.134 104.114 178.394C106.694 180.611 109.423 182.644 112.277 184.487C114.007 185.602 115.887 186.685 117.933 186.692C120.228 186.704 126.456 183.683 125.42 180.566C124.378 177.406 116.507 176.943 113.902 177.045Z" fill="black"/>
<path d="M105.845 161.165C105.845 161.165 126.971 163.946 138.62 170.723C142.205 172.807 141.703 179.502 141.61 183.911C141.355 195.743 139.129 207.442 135.022 218.508H127.852C127.852 218.508 128.218 206.555 127.976 187.268C127.902 181.485 116.47 179.578 105.299 178.907C95.6481 178.286 87.1816 172.136 83.4414 163.027L82.6785 161.165H105.845Z" fill="#263238"/>
<path d="M136.778 216.544C136.815 216.544 136.312 220.009 136.312 220.009H126.388L126.115 216.918L136.778 216.544Z" fill="#053F5C"/>
<path d="M118.666 216.544C118.703 216.544 117.754 220.009 117.754 220.009H107.83L108.01 216.918L118.666 216.544Z" fill="#053F5C"/>
<path d="M91.9944 178.648L84.8862 232.178L83.6023 231.994L89.0854 178.243L91.9944 178.648Z" fill="#053F5C"/>
<path opacity="0.4" d="M91.7401 180.561L84.8862 232.178L83.6023 231.994L88.8497 180.554L91.7401 180.561Z" fill="black"/>
<path d="M117.01 180.562H76.6931C76.6931 177.965 78.7524 175.862 81.2955 175.862H112.408C114.945 175.862 117.01 177.971 117.01 180.562Z" fill="#053F5C"/>
<path opacity="0.7" d="M117.01 180.562H76.6931C76.6931 177.965 78.7524 175.862 81.2955 175.862H112.408C114.945 175.862 117.01 177.971 117.01 180.562Z" fill="white"/>
<path d="M78.5605 180.555L72.4819 232.596H73.7845L81.4943 180.555H78.5605Z" fill="#053F5C"/>
<path d="M115.143 180.555L121.222 232.596H119.919L112.216 180.555H115.143Z" fill="#053F5C"/>
<path opacity="0.4" d="M115.143 180.555L121.222 232.596H119.919L112.216 180.555H115.143Z" fill="black"/>
<path d="M107.012 180.555L107.13 232.596H105.833L104.078 180.555H107.012Z" fill="#053F5C"/>
</svg>
